<?xml version="1.0" encoding="UTF-8" standalone="no"?>
<svg
   xmlns:dc="http://purl.org/dc/elements/1.1/"
   xmlns:cc="http://creativecommons.org/ns#"
   xmlns:rdf="http://www.w3.org/1999/02/22-rdf-syntax-ns#"
   xmlns:svg="http://www.w3.org/2000/svg"
   xmlns="http://www.w3.org/2000/svg"
   version="1.1"
   id="svg10"
   xml:space="preserve"
   width="587.84003"
   height="846.71997"
   viewBox="0 0 587.84003 846.71997"><metadata
     id="metadata16"><rdf:RDF><cc:Work
         rdf:about=""><dc:format>image/svg+xml</dc:format><dc:type
           rdf:resource="http://purl.org/dc/dcmitype/StillImage" /><dc:title></dc:title></cc:Work></rdf:RDF></metadata><defs
     id="defs14"><clipPath
       clipPathUnits="userSpaceOnUse"
       id="clipPath26"><path
         d="M 0,0 H 1837.4999 V 2643.8416 H 0 Z"
         clip-rule="evenodd"
         id="path24" /></clipPath><clipPath
       clipPathUnits="userSpaceOnUse"
       id="clipPath38"><path
         d="M 0,0 H 1837.4999 V 2643.8416 H 0 Z"
         clip-rule="evenodd"
         id="path36" /></clipPath></defs><g
     id="g18"
     transform="matrix(0.31999998,0,0,0.31999998,0,1.7834666e-5)"><g
       id="g20"><g
         id="g22"
         clip-path="url(#clipPath26)"><g
           id="g28"
           transform="scale(2.9975529)"><path
             d="M 0,0 H 613 V 882 H 0 Z"
             style="fill:#ffffff;fill-opacity:1;fill-rule:nonzero;stroke:none"
             id="path30" /></g></g></g><g
       id="g32"><g
         id="g34"
         clip-path="url(#clipPath38)"><g
           id="g40"
           transform="matrix(2.9975529,0,0,2.9975529,1.4987764,1.4987764)"><path
             d="m 51,31 v 10 62.13"
             style="fill:none;stroke:#000000;stroke-width:1;stroke-linecap:butt;stroke-linejoin:miter;stroke-miterlimit:10;stroke-dasharray:none;stroke-opacity:1"
             id="path42" /><path
             d="m 51,109.88 -4.5,-9 4.5,2.25 4.5,-2.25 z"
             style="fill:#000000;fill-opacity:1;fill-rule:nonzero;stroke:none"
             id="path44" /><path
             d="m 51,109.88 -4.5,-9 4.5,2.25 4.5,-2.25 z"
             style="fill:none;stroke:#000000;stroke-width:1;stroke-linecap:butt;stroke-linejoin:miter;stroke-miterlimit:10;stroke-dasharray:none;stroke-opacity:1"
             id="path46" /><path
             d="M 51,191 V 313.13"
             style="fill:none;stroke:#000000;stroke-width:1;stroke-linecap:butt;stroke-linejoin:miter;stroke-miterlimit:10;stroke-dasharray:none;stroke-opacity:1"
             id="path48" /><path
             d="m 51,319.88 -4.5,-9 4.5,2.25 4.5,-2.25 z"
             style="fill:#000000;fill-opacity:1;fill-rule:nonzero;stroke:none"
             id="path50" /><path
             d="m 51,319.88 -4.5,-9 4.5,2.25 4.5,-2.25 z"
             style="fill:none;stroke:#000000;stroke-width:1;stroke-linecap:butt;stroke-linejoin:miter;stroke-miterlimit:10;stroke-dasharray:none;stroke-opacity:1"
             id="path52" /></g><g
           id="g54"
           transform="scale(2.9975529)"><text
             transform="translate(61.59375,259)"
             style="font-variant:normal;font-weight:normal;font-size:11px;font-family:'Courier New';-inkscape-font-specification:CourierNewPSMT;writing-mode:lr-tb;fill:#000000;fill-opacity:1;fill-rule:nonzero;stroke:none"
             id="text58"><tspan
               x="0 6.6010742 13.202148"
               y="0"
               id="tspan56">Yes</tspan></text></g><g
           id="g60"
           transform="matrix(2.9975529,0,0,2.9975529,1.4987764,1.4987764)"><path
             d="m 276,151 h 87.13"
             style="fill:none;stroke:#000000;stroke-width:1;stroke-linecap:butt;stroke-linejoin:miter;stroke-miterlimit:10;stroke-dasharray:none;stroke-opacity:1"
             id="path62" /><path
             d="m 369.88,151 -9,4.5 2.25,-4.5 -2.25,-4.5 z"
             style="fill:#000000;fill-opacity:1;fill-rule:nonzero;stroke:none"
             id="path64" /><path
             d="m 369.88,151 -9,4.5 2.25,-4.5 -2.25,-4.5 z"
             style="fill:none;stroke:#000000;stroke-width:1;stroke-linecap:butt;stroke-linejoin:miter;stroke-miterlimit:10;stroke-dasharray:none;stroke-opacity:1"
             id="path66" /></g><g
           id="g68"
           transform="scale(2.9975529)"><text
             transform="translate(314.90625,144)"
             style="font-variant:normal;font-weight:normal;font-size:11px;font-family:'Courier New';-inkscape-font-specification:CourierNewPSMT;writing-mode:lr-tb;fill:#000000;fill-opacity:1;fill-rule:nonzero;stroke:none"
             id="text72"><tspan
               x="0 6.6010742"
               y="0"
               id="tspan70">No</tspan></text></g><g
           id="g74"
           transform="matrix(2.9975529,0,0,2.9975529,1.4987764,1.4987764)"><path
             d="M 51,111 101,151 51,191 1,151 Z"
             style="fill:#ffffff;fill-opacity:1;fill-rule:nonzero;stroke:none"
             id="path76" /><path
             d="M 51,111 101,151 51,191 1,151 Z"
             style="fill:none;stroke:#000000;stroke-width:1;stroke-linecap:butt;stroke-linejoin:miter;stroke-miterlimit:10;stroke-dasharray:none;stroke-opacity:1"
             id="path78" /></g><g
           id="g80"
           transform="scale(2.9975529)"><path
             d="m 15,143 h 72 v 14 H 15 Z"
             style="fill:#ffffff;fill-opacity:1;fill-rule:nonzero;stroke:none"
             id="path82" /><text
             transform="translate(14.984375,153)"
             style="font-variant:normal;font-weight:bold;font-size:12px;font-family:'Courier New';-inkscape-font-specification:CourierNewPS-BoldMT;writing-mode:lr-tb;fill:#111111;fill-opacity:1;fill-rule:nonzero;stroke:none"
             id="text86"><tspan
               x="0 7.2011719 14.402344 21.603516 28.804688 36.005859 43.207031 50.408203 57.609375 64.810547"
               y="0"
               id="tspan84">is α &gt; 60°</tspan></text></g><g
           id="g88"
           transform="matrix(2.9975529,0,0,2.9975529,1.4987764,1.4987764)"><path
             d="m 101,531 h 54.88"
             style="fill:none;stroke:#000000;stroke-width:1;stroke-linecap:butt;stroke-linejoin:miter;stroke-miterlimit:10;stroke-dasharray:none;stroke-opacity:1"
             id="path90" /><path
             d="m 164.88,531 -9,4.5 v -9 z"
             style="fill:none;stroke:#000000;stroke-width:1;stroke-linecap:butt;stroke-linejoin:miter;stroke-miterlimit:10;stroke-dasharray:none;stroke-opacity:1"
             id="path92" /></g><g
           id="g94"
           transform="scale(2.9975529)"><text
             transform="translate(121.90625,524)"
             style="font-variant:normal;font-weight:normal;font-size:11px;font-family:'Courier New';-inkscape-font-specification:CourierNewPSMT;writing-mode:lr-tb;fill:#000000;fill-opacity:1;fill-rule:nonzero;stroke:none"
             id="text98"><tspan
               x="0 6.6010742"
               y="0"
               id="tspan96">No</tspan></text></g><g
           id="g100"
           transform="matrix(2.9975529,0,0,2.9975529,1.4987764,1.4987764)"><path
             d="M 51,571 V 721 H 168.13"
             style="fill:none;stroke:#000000;stroke-width:1;stroke-linecap:butt;stroke-linejoin:miter;stroke-miterlimit:10;stroke-dasharray:none;stroke-opacity:1"
             id="path102" /><path
             d="m 174.88,721 -9,4.5 2.25,-4.5 -2.25,-4.5 z"
             style="fill:#000000;fill-opacity:1;fill-rule:nonzero;stroke:none"
             id="path104" /><path
             d="m 174.88,721 -9,4.5 2.25,-4.5 -2.25,-4.5 z"
             style="fill:none;stroke:#000000;stroke-width:1;stroke-linecap:butt;stroke-linejoin:miter;stroke-miterlimit:10;stroke-dasharray:none;stroke-opacity:1"
             id="path106" /></g><g
           id="g108"
           transform="scale(2.9975529)"><text
             transform="translate(61.59375,648)"
             style="font-variant:normal;font-weight:normal;font-size:11px;font-family:'Courier New';-inkscape-font-specification:CourierNewPSMT;writing-mode:lr-tb;fill:#000000;fill-opacity:1;fill-rule:nonzero;stroke:none"
             id="text112"><tspan
               x="0 6.6010742 13.202148"
               y="0"
               id="tspan110">Yes</tspan></text></g><g
           id="g114"
           transform="matrix(2.9975529,0,0,2.9975529,1.4987764,1.4987764)"><path
             d="M 51,491 101,531 51,571 1,531 Z"
             style="fill:#ffffff;fill-opacity:1;fill-rule:nonzero;stroke:none"
             id="path116" /><path
             d="M 51,491 101,531 51,571 1,531 Z"
             style="fill:none;stroke:#000000;stroke-width:1;stroke-linecap:butt;stroke-linejoin:miter;stroke-miterlimit:10;stroke-dasharray:none;stroke-opacity:1"
             id="path118" /></g><g
           id="g120"
           transform="scale(2.9975529)"><text
             transform="translate(22.1875,526)"
             style="font-variant:normal;font-weight:bold;font-size:12px;font-family:'Courier New';-inkscape-font-specification:CourierNewPS-BoldMT;writing-mode:lr-tb;fill:#000000;fill-opacity:1;fill-rule:nonzero;stroke:none"
             id="text124"><tspan
               x="0 7.2011719 14.402344 21.603516 28.804688 36.005859 43.207031 50.408203"
               y="0"
               id="tspan122">is timer</tspan></text><text
             transform="translate(18.59375,540)"
             style="font-variant:normal;font-weight:bold;font-size:12px;font-family:'Courier New';-inkscape-font-specification:CourierNewPS-BoldMT;writing-mode:lr-tb;fill:#000000;fill-opacity:1;fill-rule:nonzero;stroke:none"
             id="text128"><tspan
               x="0 7.2011719 14.402344 21.603516 28.804688 36.005859 43.207031 50.408203 57.609375"
               y="0"
               id="tspan126">t active?</tspan></text></g><g
           id="g130"
           transform="matrix(2.9975529,0,0,2.9975529,1.4987764,1.4987764)"><path
             d="M 226,551 V 673.13"
             style="fill:none;stroke:#000000;stroke-width:1;stroke-linecap:butt;stroke-linejoin:miter;stroke-miterlimit:10;stroke-dasharray:none;stroke-opacity:1"
             id="path132" /><path
             d="m 226,679.88 -4.5,-9 4.5,2.25 4.5,-2.25 z"
             style="fill:#000000;fill-opacity:1;fill-rule:nonzero;stroke:none"
             id="path134" /><path
             d="m 226,679.88 -4.5,-9 4.5,2.25 4.5,-2.25 z"
             style="fill:none;stroke:#000000;stroke-width:1;stroke-linecap:butt;stroke-linejoin:miter;stroke-miterlimit:10;stroke-dasharray:none;stroke-opacity:1"
             id="path136" /><path
             d="m 166,511 h 120 v 40 H 166 Z"
             style="fill:#ffffff;fill-opacity:1;fill-rule:nonzero;stroke:none"
             id="path138" /><path
             d="m 166,511 h 120 v 40 H 166 Z"
             style="fill:none;stroke:#000000;stroke-width:1;stroke-linecap:butt;stroke-linejoin:miter;stroke-miterlimit:10;stroke-dasharray:none;stroke-opacity:1"
             id="path140" /></g><g
           id="g142"
           transform="scale(2.9975529)"><text
             transform="translate(171.98438,528)"
             style="font-variant:normal;font-weight:bold;font-size:12px;font-family:'Courier New';-inkscape-font-specification:CourierNewPS-BoldMT;writing-mode:lr-tb;fill:#000000;fill-opacity:1;fill-rule:nonzero;stroke:none"
             id="text146"><tspan
               x="0 7.2011719 14.402344 21.603516 28.804688 36.005859 43.207031 50.408203 57.609375 64.810547 72.011719 79.212891 86.414062 93.615234 100.81641"
               y="0"
               id="tspan144">start countdown</tspan></text><text
             transform="translate(200.79688,542)"
             style="font-variant:normal;font-weight:bold;font-size:12px;font-family:'Courier New';-inkscape-font-specification:CourierNewPS-BoldMT;writing-mode:lr-tb;fill:#000000;fill-opacity:1;fill-rule:nonzero;stroke:none"
             id="text150"><tspan
               x="0 7.2011719 14.402344 21.603516 28.804688 36.005859 43.207031"
               y="0"
               id="tspan148">timer t</tspan></text></g><g
           id="g152"
           transform="matrix(2.9975529,0,0,2.9975529,1.4987764,1.4987764)"><path
             d="m 66,16 c 0,0.984915 -0.09608,1.960365 -0.288223,2.926353 -0.192147,0.965991 -0.476677,1.903956 -0.853592,2.813897 -0.376908,0.90994 -0.838959,1.774374 -1.386143,2.593299 -0.547188,0.818926 -1.169002,1.576611 -1.86544,2.273051 -0.696438,0.696438 -1.454125,1.31825 -2.273053,1.86544 -0.818927,0.54719 -1.683364,1.009239 -2.593303,1.386151 -0.909943,0.376911 -1.847908,0.661439 -2.813896,0.853588 C 52.960361,30.903925 51.984913,30.999998 51,31 c -0.984917,-2e-6 -1.960369,-0.09607 -2.926361,-0.288221 -0.965992,-0.192149 -1.903961,-0.476677 -2.8139,-0.853588 C 44.349796,29.481279 43.485363,29.01923 42.666443,28.47204 41.847515,27.92485 41.089832,27.303038 40.393394,26.6066 39.696957,25.91016 39.075142,25.152475 38.527954,24.333549 37.980762,23.514624 37.518715,22.65019 37.141804,21.74025 36.764893,20.830309 36.480366,19.892344 36.288216,18.926353 36.096069,17.960365 35.999996,16.984915 36,16 c -4e-6,-0.984915 0.09607,-1.960367 0.288216,-2.926356 0.19215,-0.965989 0.476677,-1.903955 0.853588,-2.813896 0.376911,-0.9099422 0.838958,-1.7743764 1.386146,-2.5933023 0.547192,-0.8189263 1.169007,-1.5766086 1.865444,-2.2730479 0.696438,-0.6964393 1.454117,-1.3182535 2.273045,-1.8654425 0.818924,-0.547189 1.683357,-1.0092385 2.5933,-1.3861485 0.909939,-0.3769102 1.847908,-0.6614389 2.8139,-0.853586 C 49.039631,1.0960736 50.015083,1 51,1 c 0.984913,0 1.960361,0.096074 2.92635,0.2882208 0.965988,0.1921471 1.903953,0.4766758 2.813896,0.853586 0.909939,0.37691 1.774376,0.8389595 2.593303,1.3861485 0.818928,0.547189 1.576615,1.1690032 2.273053,1.8654425 0.696438,0.6964393 1.318252,1.4541216 1.86544,2.2730479 0.547184,0.8189268 1.009235,1.6833611 1.386143,2.5933033 0.376915,0.909941 0.661445,1.847907 0.853592,2.813896 C 65.903923,14.039634 66,15.015085 66,16 Z"
             style="fill:#000000;fill-opacity:1;fill-rule:nonzero;stroke:none"
             id="path154" /><path
             d="m 66,16 c 0,0.984915 -0.09608,1.960365 -0.288223,2.926353 -0.192147,0.965991 -0.476677,1.903956 -0.853592,2.813897 -0.376908,0.90994 -0.838959,1.774374 -1.386143,2.593299 -0.547188,0.818926 -1.169002,1.576611 -1.86544,2.273051 -0.696438,0.696438 -1.454125,1.31825 -2.273053,1.86544 -0.818927,0.54719 -1.683364,1.009239 -2.593303,1.386151 -0.909943,0.376911 -1.847908,0.661439 -2.813896,0.853588 C 52.960361,30.903925 51.984913,30.999998 51,31 c -0.984917,-2e-6 -1.960369,-0.09607 -2.926361,-0.288221 -0.965992,-0.192149 -1.903961,-0.476677 -2.8139,-0.853588 C 44.349796,29.481279 43.485363,29.01923 42.666443,28.47204 41.847515,27.92485 41.089832,27.303038 40.393394,26.6066 39.696957,25.91016 39.075142,25.152475 38.527954,24.333549 37.980762,23.514624 37.518715,22.65019 37.141804,21.74025 36.764893,20.830309 36.480366,19.892344 36.288216,18.926353 36.096069,17.960365 35.999996,16.984915 36,16 c -4e-6,-0.984915 0.09607,-1.960367 0.288216,-2.926356 0.19215,-0.965989 0.476677,-1.903955 0.853588,-2.813896 0.376911,-0.9099422 0.838958,-1.7743764 1.386146,-2.5933023 0.547192,-0.8189263 1.169007,-1.5766086 1.865444,-2.2730479 0.696438,-0.6964393 1.454117,-1.3182535 2.273045,-1.8654425 0.818924,-0.547189 1.683357,-1.0092385 2.5933,-1.3861485 0.909939,-0.3769102 1.847908,-0.6614389 2.8139,-0.853586 C 49.039631,1.0960736 50.015083,1 51,1 c 0.984913,0 1.960361,0.096074 2.92635,0.2882208 0.965988,0.1921471 1.903953,0.4766758 2.813896,0.853586 0.909939,0.37691 1.774376,0.8389595 2.593303,1.3861485 0.818928,0.547189 1.576615,1.1690032 2.273053,1.8654425 0.696438,0.6964393 1.318252,1.4541216 1.86544,2.2730479 0.547184,0.8189268 1.009235,1.6833611 1.386143,2.5933033 0.376915,0.909941 0.661445,1.847907 0.853592,2.813896 C 65.903923,14.039634 66,15.015085 66,16 Z"
             style="fill:none;stroke:#ffffff;stroke-width:1;stroke-linecap:butt;stroke-linejoin:miter;stroke-miterlimit:10;stroke-dasharray:none;stroke-opacity:1"
             id="path156" /><path
             d="m 62,16 c -4e-6,0.722269 -0.07046,1.437599 -0.211365,2.145992 -0.140907,0.708391 -0.349563,1.396233 -0.625965,2.063523 -0.276405,0.667289 -0.615242,1.301208 -1.016514,1.901754 -0.401268,0.600546 -0.857261,1.156179 -1.367984,1.666903 -0.510724,0.510721 -1.066361,0.966718 -1.666905,1.367992 -0.600544,0.40127 -1.234463,0.740105 -1.901752,1.016508 -0.66729,0.2764 -1.35513,0.485054 -2.063523,0.625963 C 52.437599,26.929544 51.722271,26.999998 51,27 50.277729,26.999998 49.562397,26.92954 48.854004,26.788637 48.145611,26.647728 47.457771,26.439072 46.790482,26.162672 46.123188,25.886269 45.489269,25.547434 44.888729,25.146164 44.288181,24.74489 43.732548,24.288893 43.221825,23.778172 42.711102,23.267448 42.2551,22.711815 41.853828,22.111269 41.452557,21.510723 41.11372,20.876804 40.837318,20.209515 40.560917,19.542225 40.352264,18.854383 40.211361,18.145992 40.07045,17.437599 39.999996,16.722269 40,16 c -4e-6,-0.722271 0.07045,-1.437602 0.211361,-2.145994 0.140903,-0.708392 0.349556,-1.396234 0.625957,-2.063524 0.276402,-0.667291 0.615239,-1.30121 1.01651,-1.9017558 0.401272,-0.6005458 0.857274,-1.1561794 1.367997,-1.6669016 0.510723,-0.5107221 1.066356,-0.9667191 1.6669,-1.3679914 0.600544,-0.4012718 1.234459,-0.740108 1.901753,-1.0165086 0.667293,-0.276401 1.355133,-0.485055 2.063526,-0.6259627 C 49.562397,5.0704541 50.277729,5 51,5 c 0.722271,0 1.437603,0.070454 2.145996,0.2113619 0.708389,0.1409077 1.396229,0.3495617 2.063519,0.6259627 0.667289,0.2764006 1.301208,0.6152368 1.901752,1.0165086 0.600544,0.4012723 1.156181,0.8572693 1.666905,1.3679914 0.510723,0.5107222 0.966716,1.0663558 1.367984,1.6669016 0.401272,0.6005458 0.740109,1.2344648 1.016514,1.9017558 0.276402,0.66729 0.485058,1.355132 0.625965,2.063524 C 61.929543,14.562398 61.999996,15.277729 62,16 Z"
             style="fill:none;stroke:#ffffff;stroke-width:1;stroke-linecap:butt;stroke-linejoin:miter;stroke-miterlimit:10;stroke-dasharray:none;stroke-opacity:1"
             id="path158" /><path
             d="m 226,681 50,40 -50,40 -50,-40 z"
             style="fill:#ffffff;fill-opacity:1;fill-rule:nonzero;stroke:none"
             id="path160" /><path
             d="m 226,681 50,40 -50,40 -50,-40 z"
             style="fill:none;stroke:#000000;stroke-width:1;stroke-linecap:butt;stroke-linejoin:miter;stroke-miterlimit:10;stroke-dasharray:none;stroke-opacity:1"
             id="path162" /></g><g
           id="g164"
           transform="scale(2.9975529)"><text
             transform="translate(193.59375,723)"
             style="font-variant:normal;font-weight:bold;font-size:12px;font-family:'Courier New';-inkscape-font-specification:CourierNewPS-BoldMT;writing-mode:lr-tb;fill:#000000;fill-opacity:1;fill-rule:nonzero;stroke:none"
             id="text168"><tspan
               x="0 7.2011719 14.402344 21.603516 28.804688 36.005859 43.207031 50.408203 57.609375"
               y="0"
               id="tspan166">is t == 0</tspan></text></g><g
           id="g170"
           transform="matrix(2.9975529,0,0,2.9975529,1.4987764,1.4987764)"><path
             d="m 226,761 v 80 h 87.13"
             style="fill:none;stroke:#000000;stroke-width:1;stroke-linecap:butt;stroke-linejoin:miter;stroke-miterlimit:10;stroke-dasharray:none;stroke-opacity:1"
             id="path172" /><path
             d="m 319.88,841 -9,4.5 2.25,-4.5 -2.25,-4.5 z"
             style="fill:#000000;fill-opacity:1;fill-rule:nonzero;stroke:none"
             id="path174" /><path
             d="m 319.88,841 -9,4.5 2.25,-4.5 -2.25,-4.5 z"
             style="fill:none;stroke:#000000;stroke-width:1;stroke-linecap:butt;stroke-linejoin:miter;stroke-miterlimit:10;stroke-dasharray:none;stroke-opacity:1"
             id="path176" /></g><g
           id="g178"
           transform="scale(2.9975529)"><text
             transform="translate(231.59375,804)"
             style="font-variant:normal;font-weight:normal;font-size:11px;font-family:'Courier New';-inkscape-font-specification:CourierNewPSMT;writing-mode:lr-tb;fill:#000000;fill-opacity:1;fill-rule:nonzero;stroke:none"
             id="text182"><tspan
               x="0 6.6010742 13.202148"
               y="0"
               id="tspan180">Yes</tspan></text></g><g
           id="g184"
           transform="matrix(2.9975529,0,0,2.9975529,1.4987764,1.4987764)"><path
             d="m 371,801 50,40 -50,40 -50,-40 z"
             style="fill:#ffffff;fill-opacity:1;fill-rule:nonzero;stroke:none"
             id="path186" /><path
             d="m 371,801 50,40 -50,40 -50,-40 z"
             style="fill:none;stroke:#000000;stroke-width:1;stroke-linecap:butt;stroke-linejoin:miter;stroke-miterlimit:10;stroke-dasharray:none;stroke-opacity:1"
             id="path188" /></g><g
           id="g190"
           transform="scale(2.9975529)"><path
             d="m 335,833 h 72 v 14 h -72 z"
             style="fill:#ffffff;fill-opacity:1;fill-rule:nonzero;stroke:none"
             id="path192" /><text
             transform="translate(334.98438,843)"
             style="font-variant:normal;font-weight:bold;font-size:12px;font-family:'Courier New';-inkscape-font-specification:CourierNewPS-BoldMT;writing-mode:lr-tb;fill:#111111;fill-opacity:1;fill-rule:nonzero;stroke:none"
             id="text196"><tspan
               x="0 7.2011719 14.402344 21.603516 28.804688 36.005859 43.207031 50.408203 57.609375 64.810547"
               y="0"
               id="tspan194">is α &gt; 60°</tspan></text></g><g
           id="g198"
           transform="matrix(2.9975529,0,0,2.9975529,1.4987764,1.4987764)"><path
             d="M 551,581 V 508.87"
             style="fill:none;stroke:#000000;stroke-width:1;stroke-linecap:butt;stroke-linejoin:miter;stroke-miterlimit:10;stroke-dasharray:none;stroke-opacity:1"
             id="path200" /><path
             d="m 551,502.12 4.5,9 -4.5,-2.25 -4.5,2.25 z"
             style="fill:#000000;fill-opacity:1;fill-rule:nonzero;stroke:none"
             id="path202" /><path
             d="m 551,502.12 4.5,9 -4.5,-2.25 -4.5,2.25 z"
             style="fill:none;stroke:#000000;stroke-width:1;stroke-linecap:butt;stroke-linejoin:miter;stroke-miterlimit:10;stroke-dasharray:none;stroke-opacity:1"
             id="path204" /><path
             d="M 551,461 V 61 H 378.87"
             style="fill:none;stroke:#000000;stroke-width:1;stroke-linecap:butt;stroke-linejoin:miter;stroke-miterlimit:10;stroke-dasharray:none;stroke-opacity:1"
             id="path206" /><path
             d="m 372.12,61 9,-4.5 -2.25,4.5 2.25,4.5 z"
             style="fill:#000000;fill-opacity:1;fill-rule:nonzero;stroke:none"
             id="path208" /><path
             d="m 372.12,61 9,-4.5 -2.25,4.5 2.25,4.5 z"
             style="fill:none;stroke:#000000;stroke-width:1;stroke-linecap:butt;stroke-linejoin:miter;stroke-miterlimit:10;stroke-dasharray:none;stroke-opacity:1"
             id="path210" /><path
             d="m 491,461 h 120 v 40 H 491 Z"
             style="fill:#ffffff;fill-opacity:1;fill-rule:nonzero;stroke:none"
             id="path212" /><path
             d="m 491,461 h 120 v 40 H 491 Z"
             style="fill:none;stroke:#000000;stroke-width:1;stroke-linecap:butt;stroke-linejoin:miter;stroke-miterlimit:10;stroke-dasharray:none;stroke-opacity:1"
             id="path214" /></g><g
           id="g216"
           transform="scale(2.9975529)"><text
             transform="translate(496.98438,485)"
             style="font-variant:normal;font-weight:bold;font-size:12px;font-family:'Courier New';-inkscape-font-specification:CourierNewPS-BoldMT;writing-mode:lr-tb;fill:#000000;fill-opacity:1;fill-rule:nonzero;stroke:none"
             id="text220"><tspan
               x="0 7.2011719 14.402344 21.603516 28.804688 36.005859 43.207031 50.408203 57.609375 64.810547 72.011719 79.212891 86.414062 93.615234 100.81641"
               y="0"
               id="tspan218">send text event</tspan></text></g><g
           id="g222"
           transform="matrix(2.9975529,0,0,2.9975529,1.4987764,1.4987764)"><path
             d="m 276,721 h 87.13"
             style="fill:none;stroke:#000000;stroke-width:1;stroke-linecap:butt;stroke-linejoin:miter;stroke-miterlimit:10;stroke-dasharray:none;stroke-opacity:1"
             id="path224" /><path
             d="m 369.88,721 -9,4.5 2.25,-4.5 -2.25,-4.5 z"
             style="fill:#000000;fill-opacity:1;fill-rule:nonzero;stroke:none"
             id="path226" /><path
             d="m 369.88,721 -9,4.5 2.25,-4.5 -2.25,-4.5 z"
             style="fill:none;stroke:#000000;stroke-width:1;stroke-linecap:butt;stroke-linejoin:miter;stroke-miterlimit:10;stroke-dasharray:none;stroke-opacity:1"
             id="path228" /></g><g
           id="g230"
           transform="scale(2.9975529)"><text
             transform="translate(317.90625,714)"
             style="font-variant:normal;font-weight:normal;font-size:11px;font-family:'Courier New';-inkscape-font-specification:CourierNewPSMT;writing-mode:lr-tb;fill:#000000;fill-opacity:1;fill-rule:nonzero;stroke:none"
             id="text234"><tspan
               x="0 6.6010742"
               y="0"
               id="tspan232">No</tspan></text></g><g
           id="g236"
           transform="matrix(2.9975529,0,0,2.9975529,1.4987764,1.4987764)"><path
             d="M 371,61 H 58.869999"
             style="fill:none;stroke:#000000;stroke-width:1;stroke-linecap:butt;stroke-linejoin:miter;stroke-miterlimit:10;stroke-dasharray:none;stroke-opacity:1"
             id="path238" /><path
             d="m 52.119999,61 9,-4.5 -2.25,4.5 2.25,4.5 z"
             style="fill:#000000;fill-opacity:1;fill-rule:nonzero;stroke:none"
             id="path240" /><path
             d="m 52.119999,61 9,-4.5 -2.25,4.5 2.25,4.5 z"
             style="fill:none;stroke:#000000;stroke-width:1;stroke-linecap:butt;stroke-linejoin:miter;stroke-miterlimit:10;stroke-dasharray:none;stroke-opacity:1"
             id="path242" /><path
             d="M 371,721 V 68.870003"
             style="fill:none;stroke:#000000;stroke-width:1;stroke-linecap:butt;stroke-linejoin:miter;stroke-miterlimit:10;stroke-dasharray:none;stroke-opacity:1"
             id="path244" /><path
             d="m 371,62.119999 4.5,9.000004 -4.5,-2.25 -4.5,2.25 z"
             style="fill:#000000;fill-opacity:1;fill-rule:nonzero;stroke:none"
             id="path246" /><path
             d="m 371,62.119999 4.5,9.000004 -4.5,-2.25 -4.5,2.25 z"
             style="fill:none;stroke:#000000;stroke-width:1;stroke-linecap:butt;stroke-linejoin:miter;stroke-miterlimit:10;stroke-dasharray:none;stroke-opacity:1"
             id="path248" /><path
             d="M 371,801 V 728.87"
             style="fill:none;stroke:#000000;stroke-width:1;stroke-linecap:butt;stroke-linejoin:miter;stroke-miterlimit:10;stroke-dasharray:none;stroke-opacity:1"
             id="path250" /><path
             d="m 371,722.12 4.5,9 -4.5,-2.25 -4.5,2.25 z"
             style="fill:#000000;fill-opacity:1;fill-rule:nonzero;stroke:none"
             id="path252" /><path
             d="m 371,722.12 4.5,9 -4.5,-2.25 -4.5,2.25 z"
             style="fill:none;stroke:#000000;stroke-width:1;stroke-linecap:butt;stroke-linejoin:miter;stroke-miterlimit:10;stroke-dasharray:none;stroke-opacity:1"
             id="path254" /></g><g
           id="g256"
           transform="scale(2.9975529)"><text
             transform="translate(384.90625,764)"
             style="font-variant:normal;font-weight:normal;font-size:11px;font-family:'Courier New';-inkscape-font-specification:CourierNewPSMT;writing-mode:lr-tb;fill:#000000;fill-opacity:1;fill-rule:nonzero;stroke:none"
             id="text260"><tspan
               x="0 6.6010742"
               y="0"
               id="tspan258">No</tspan></text></g><g
           id="g262"
           transform="matrix(2.9975529,0,0,2.9975529,1.4987764,1.4987764)"><path
             d="m 551,681 50,40 -50,40 -50,-40 z"
             style="fill:#ffffff;fill-opacity:1;fill-rule:nonzero;stroke:none"
             id="path264" /><path
             d="m 551,681 50,40 -50,40 -50,-40 z"
             style="fill:none;stroke:#000000;stroke-width:1;stroke-linecap:butt;stroke-linejoin:miter;stroke-miterlimit:10;stroke-dasharray:none;stroke-opacity:1"
             id="path266" /></g><g
           id="g268"
           transform="scale(2.9975529)"><path
             d="m 544,699 h 14 v 14 h -14 z"
             style="fill:#ffffff;fill-opacity:1;fill-rule:nonzero;stroke:none"
             id="path270" /><text
             transform="translate(543.79688,709)"
             style="font-variant:normal;font-weight:bold;font-size:12px;font-family:'Courier New';-inkscape-font-specification:CourierNewPS-BoldMT;writing-mode:lr-tb;fill:#111111;fill-opacity:1;fill-rule:nonzero;stroke:none"
             id="text274"><tspan
               x="0 7.2011719"
               y="0"
               id="tspan272">is</tspan></text><path
             d="m 529,713 h 44 v 14 h -44 z"
             style="fill:#ffffff;fill-opacity:1;fill-rule:nonzero;stroke:none"
             id="path276" /><text
             transform="translate(529.39063,723)"
             style="font-variant:normal;font-weight:bold;font-size:12px;font-family:'Courier New';-inkscape-font-specification:CourierNewPS-BoldMT;writing-mode:lr-tb;fill:#111111;fill-opacity:1;fill-rule:nonzero;stroke:none"
             id="text280"><tspan
               x="0 7.2011719 14.402344 21.603516 28.804688 36.005859"
               y="0"
               id="tspan278">camera</tspan></text><path
             d="m 537,727 h 28 v 14 h -28 z"
             style="fill:#ffffff;fill-opacity:1;fill-rule:nonzero;stroke:none"
             id="path282" /><text
             transform="translate(536.59375,737)"
             style="font-variant:normal;font-weight:bold;font-size:12px;font-family:'Courier New';-inkscape-font-specification:CourierNewPS-BoldMT;writing-mode:lr-tb;fill:#111111;fill-opacity:1;fill-rule:nonzero;stroke:none"
             id="text286"><tspan
               x="0 7.2011719 14.402344 21.603516"
               y="0"
               id="tspan284">off?</tspan></text></g><g
           id="g288"
           transform="matrix(2.9975529,0,0,2.9975529,1.4987764,1.4987764)"><path
             d="M 421,841 H 551 V 768.87"
             style="fill:none;stroke:#000000;stroke-width:1;stroke-linecap:butt;stroke-linejoin:miter;stroke-miterlimit:10;stroke-dasharray:none;stroke-opacity:1"
             id="path290" /><path
             d="m 551,762.12 4.5,9 -4.5,-2.25 -4.5,2.25 z"
             style="fill:#000000;fill-opacity:1;fill-rule:nonzero;stroke:none"
             id="path292" /><path
             d="m 551,762.12 4.5,9 -4.5,-2.25 -4.5,2.25 z"
             style="fill:none;stroke:#000000;stroke-width:1;stroke-linecap:butt;stroke-linejoin:miter;stroke-miterlimit:10;stroke-dasharray:none;stroke-opacity:1"
             id="path294" /></g><g
           id="g296"
           transform="scale(2.9975529)"><text
             transform="translate(471.59375,834)"
             style="font-variant:normal;font-weight:normal;font-size:11px;font-family:'Courier New';-inkscape-font-specification:CourierNewPSMT;writing-mode:lr-tb;fill:#000000;fill-opacity:1;fill-rule:nonzero;stroke:none"
             id="text300"><tspan
               x="0 6.6010742 13.202148"
               y="0"
               id="tspan298">Yes</tspan></text></g><g
           id="g302"
           transform="matrix(2.9975529,0,0,2.9975529,1.4987764,1.4987764)"><path
             d="M 501,721 H 378.87"
             style="fill:none;stroke:#000000;stroke-width:1;stroke-linecap:butt;stroke-linejoin:miter;stroke-miterlimit:10;stroke-dasharray:none;stroke-opacity:1"
             id="path304" /><path
             d="m 372.12,721 9,-4.5 -2.25,4.5 2.25,4.5 z"
             style="fill:#000000;fill-opacity:1;fill-rule:nonzero;stroke:none"
             id="path306" /><path
             d="m 372.12,721 9,-4.5 -2.25,4.5 2.25,4.5 z"
             style="fill:none;stroke:#000000;stroke-width:1;stroke-linecap:butt;stroke-linejoin:miter;stroke-miterlimit:10;stroke-dasharray:none;stroke-opacity:1"
             id="path308" /></g><g
           id="g310"
           transform="scale(2.9975529)"><text
             transform="translate(430.59375,714)"
             style="font-variant:normal;font-weight:normal;font-size:11px;font-family:'Courier New';-inkscape-font-specification:CourierNewPSMT;writing-mode:lr-tb;fill:#000000;fill-opacity:1;fill-rule:nonzero;stroke:none"
             id="text314"><tspan
               x="0 6.6010742 13.202148"
               y="0"
               id="tspan312">Yes</tspan></text></g><g
           id="g316"
           transform="matrix(2.9975529,0,0,2.9975529,1.4987764,1.4987764)"><path
             d="M 551,681 V 628.87"
             style="fill:none;stroke:#000000;stroke-width:1;stroke-linecap:butt;stroke-linejoin:miter;stroke-miterlimit:10;stroke-dasharray:none;stroke-opacity:1"
             id="path318" /><path
             d="m 551,622.12 4.5,9 -4.5,-2.25 -4.5,2.25 z"
             style="fill:#000000;fill-opacity:1;fill-rule:nonzero;stroke:none"
             id="path320" /><path
             d="m 551,622.12 4.5,9 -4.5,-2.25 -4.5,2.25 z"
             style="fill:none;stroke:#000000;stroke-width:1;stroke-linecap:butt;stroke-linejoin:miter;stroke-miterlimit:10;stroke-dasharray:none;stroke-opacity:1"
             id="path322" /></g><g
           id="g324"
           transform="scale(2.9975529)"><text
             transform="translate(564.90625,654)"
             style="font-variant:normal;font-weight:normal;font-size:11px;font-family:'Courier New';-inkscape-font-specification:CourierNewPSMT;writing-mode:lr-tb;fill:#000000;fill-opacity:1;fill-rule:nonzero;stroke:none"
             id="text328"><tspan
               x="0 6.6010742"
               y="0"
               id="tspan326">No</tspan></text></g><g
           id="g330"
           transform="matrix(2.9975529,0,0,2.9975529,1.4987764,1.4987764)"><path
             d="m 51,401 v 82.13"
             style="fill:none;stroke:#000000;stroke-width:1;stroke-linecap:butt;stroke-linejoin:miter;stroke-miterlimit:10;stroke-dasharray:none;stroke-opacity:1"
             id="path332" /><path
             d="m 51,489.88 -4.5,-9 4.5,2.25 4.5,-2.25 z"
             style="fill:#000000;fill-opacity:1;fill-rule:nonzero;stroke:none"
             id="path334" /><path
             d="m 51,489.88 -4.5,-9 4.5,2.25 4.5,-2.25 z"
             style="fill:none;stroke:#000000;stroke-width:1;stroke-linecap:butt;stroke-linejoin:miter;stroke-miterlimit:10;stroke-dasharray:none;stroke-opacity:1"
             id="path336" /></g><g
           id="g338"
           transform="scale(2.9975529)"><text
             transform="translate(64.90625,448)"
             style="font-variant:normal;font-weight:normal;font-size:11px;font-family:'Courier New';-inkscape-font-specification:CourierNewPSMT;writing-mode:lr-tb;fill:#000000;fill-opacity:1;fill-rule:nonzero;stroke:none"
             id="text342"><tspan
               x="0 6.6010742"
               y="0"
               id="tspan340">No</tspan></text></g><g
           id="g344"
           transform="matrix(2.9975529,0,0,2.9975529,1.4987764,1.4987764)"><path
             d="M 101,361 H 363.13"
             style="fill:none;stroke:#000000;stroke-width:1;stroke-linecap:butt;stroke-linejoin:miter;stroke-miterlimit:10;stroke-dasharray:none;stroke-opacity:1"
             id="path346" /><path
             d="m 369.88,361 -9,4.5 2.25,-4.5 -2.25,-4.5 z"
             style="fill:#000000;fill-opacity:1;fill-rule:nonzero;stroke:none"
             id="path348" /><path
             d="m 369.88,361 -9,4.5 2.25,-4.5 -2.25,-4.5 z"
             style="fill:none;stroke:#000000;stroke-width:1;stroke-linecap:butt;stroke-linejoin:miter;stroke-miterlimit:10;stroke-dasharray:none;stroke-opacity:1"
             id="path350" /></g><g
           id="g352"
           transform="scale(2.9975529)"><text
             transform="translate(201.59375,354)"
             style="font-variant:normal;font-weight:normal;font-size:11px;font-family:'Courier New';-inkscape-font-specification:CourierNewPSMT;writing-mode:lr-tb;fill:#000000;fill-opacity:1;fill-rule:nonzero;stroke:none"
             id="text356"><tspan
               x="0 6.6010742 13.202148"
               y="0"
               id="tspan354">Yes</tspan></text></g><g
           id="g358"
           transform="matrix(2.9975529,0,0,2.9975529,1.4987764,1.4987764)"><path
             d="m 226,111 50,40 -50,40 -50,-40 z"
             style="fill:#ffffff;fill-opacity:1;fill-rule:nonzero;stroke:none"
             id="path360" /><path
             d="m 226,111 50,40 -50,40 -50,-40 z"
             style="fill:none;stroke:#000000;stroke-width:1;stroke-linecap:butt;stroke-linejoin:miter;stroke-miterlimit:10;stroke-dasharray:none;stroke-opacity:1"
             id="path362" /></g><g
           id="g364"
           transform="scale(2.9975529)"><text
             transform="translate(197.1875,146)"
             style="font-variant:normal;font-weight:bold;font-size:12px;font-family:'Courier New';-inkscape-font-specification:CourierNewPS-BoldMT;writing-mode:lr-tb;fill:#000000;fill-opacity:1;fill-rule:nonzero;stroke:none"
             id="text368"><tspan
               x="0 7.2011719 14.402344 21.603516 28.804688 36.005859 43.207031 50.408203"
               y="0"
               id="tspan366">is timer</tspan></text><text
             transform="translate(193.59375,160)"
             style="font-variant:normal;font-weight:bold;font-size:12px;font-family:'Courier New';-inkscape-font-specification:CourierNewPS-BoldMT;writing-mode:lr-tb;fill:#000000;fill-opacity:1;fill-rule:nonzero;stroke:none"
             id="text372"><tspan
               x="0 7.2011719 14.402344 21.603516 28.804688 36.005859 43.207031 50.408203 57.609375"
               y="0"
               id="tspan370">t active?</tspan></text></g><g
           id="g374"
           transform="matrix(2.9975529,0,0,2.9975529,1.4987764,1.4987764)"><path
             d="m 491,581 h 120 v 40 H 491 Z"
             style="fill:#ffffff;fill-opacity:1;fill-rule:nonzero;stroke:none"
             id="path376" /><path
             d="m 491,581 h 120 v 40 H 491 Z"
             style="fill:none;stroke:#000000;stroke-width:1;stroke-linecap:butt;stroke-linejoin:miter;stroke-miterlimit:10;stroke-dasharray:none;stroke-opacity:1"
             id="path378" /></g><g
           id="g380"
           transform="scale(2.9975529)"><text
             transform="translate(496.98438,605)"
             style="font-variant:normal;font-weight:bold;font-size:12px;font-family:'Courier New';-inkscape-font-specification:CourierNewPS-BoldMT;writing-mode:lr-tb;fill:#000000;fill-opacity:1;fill-rule:nonzero;stroke:none"
             id="text384"><tspan
               x="0 7.2011719 14.402344 21.603516 28.804688 36.005859 43.207031 50.408203 57.609375 64.810547 72.011719 79.212891 86.414062 93.615234 100.81641"
               y="0"
               id="tspan382">turn off camera</tspan></text></g><g
           id="g386"
           transform="matrix(2.9975529,0,0,2.9975529,1.4987764,1.4987764)"><path
             d="m 286,261 h 77.13"
             style="fill:none;stroke:#000000;stroke-width:1;stroke-linecap:butt;stroke-linejoin:miter;stroke-miterlimit:10;stroke-dasharray:none;stroke-opacity:1"
             id="path388" /><path
             d="m 369.88,261 -9,4.5 2.25,-4.5 -2.25,-4.5 z"
             style="fill:#000000;fill-opacity:1;fill-rule:nonzero;stroke:none"
             id="path390" /><path
             d="m 369.88,261 -9,4.5 2.25,-4.5 -2.25,-4.5 z"
             style="fill:none;stroke:#000000;stroke-width:1;stroke-linecap:butt;stroke-linejoin:miter;stroke-miterlimit:10;stroke-dasharray:none;stroke-opacity:1"
             id="path392" /><path
             d="m 166,241 h 120 v 40 H 166 Z"
             style="fill:#ffffff;fill-opacity:1;fill-rule:nonzero;stroke:none"
             id="path394" /><path
             d="m 166,241 h 120 v 40 H 166 Z"
             style="fill:none;stroke:#000000;stroke-width:1;stroke-linecap:butt;stroke-linejoin:miter;stroke-miterlimit:10;stroke-dasharray:none;stroke-opacity:1"
             id="path396" /></g><g
           id="g398"
           transform="scale(2.9975529)"><text
             transform="translate(175.57813,265)"
             style="font-variant:normal;font-weight:bold;font-size:12px;font-family:'Courier New';-inkscape-font-specification:CourierNewPS-BoldMT;writing-mode:lr-tb;fill:#000000;fill-opacity:1;fill-rule:nonzero;stroke:none"
             id="text402"><tspan
               x="0 7.2011719 14.402344 21.603516 28.804688 36.005859 43.207031 50.408203 57.609375 64.810547 72.011719 79.212891 86.414062 93.615234"
               y="0"
               id="tspan400">turn off timer</tspan></text></g><g
           id="g404"
           transform="matrix(2.9975529,0,0,2.9975529,1.4987764,1.4987764)"><path
             d="m 226,191 v 42.13"
             style="fill:none;stroke:#000000;stroke-width:1;stroke-linecap:butt;stroke-linejoin:miter;stroke-miterlimit:10;stroke-dasharray:none;stroke-opacity:1"
             id="path406" /><path
             d="m 226,239.88 -4.5,-9 4.5,2.25 4.5,-2.25 z"
             style="fill:#000000;fill-opacity:1;fill-rule:nonzero;stroke:none"
             id="path408" /><path
             d="m 226,239.88 -4.5,-9 4.5,2.25 4.5,-2.25 z"
             style="fill:none;stroke:#000000;stroke-width:1;stroke-linecap:butt;stroke-linejoin:miter;stroke-miterlimit:10;stroke-dasharray:none;stroke-opacity:1"
             id="path410" /></g><g
           id="g412"
           transform="scale(2.9975529)"><text
             transform="translate(231.59375,214)"
             style="font-variant:normal;font-weight:normal;font-size:11px;font-family:'Courier New';-inkscape-font-specification:CourierNewPSMT;writing-mode:lr-tb;fill:#000000;fill-opacity:1;fill-rule:nonzero;stroke:none"
             id="text416"><tspan
               x="0 6.6010742 13.202148"
               y="0"
               id="tspan414">Yes</tspan></text></g><g
           id="g418"
           transform="matrix(2.9975529,0,0,2.9975529,1.4987764,1.4987764)"><path
             d="m 101,151 h 67.13"
             style="fill:none;stroke:#000000;stroke-width:1;stroke-linecap:butt;stroke-linejoin:miter;stroke-miterlimit:10;stroke-dasharray:none;stroke-opacity:1"
             id="path420" /><path
             d="m 174.88,151 -9,4.5 2.25,-4.5 -2.25,-4.5 z"
             style="fill:#000000;fill-opacity:1;fill-rule:nonzero;stroke:none"
             id="path422" /><path
             d="m 174.88,151 -9,4.5 2.25,-4.5 -2.25,-4.5 z"
             style="fill:none;stroke:#000000;stroke-width:1;stroke-linecap:butt;stroke-linejoin:miter;stroke-miterlimit:10;stroke-dasharray:none;stroke-opacity:1"
             id="path424" /></g><g
           id="g426"
           transform="scale(2.9975529)"><text
             transform="translate(129.90625,144)"
             style="font-variant:normal;font-weight:normal;font-size:11px;font-family:'Courier New';-inkscape-font-specification:CourierNewPSMT;writing-mode:lr-tb;fill:#000000;fill-opacity:1;fill-rule:nonzero;stroke:none"
             id="text430"><tspan
               x="0 6.6010742"
               y="0"
               id="tspan428">No</tspan></text></g><g
           id="g432"
           transform="matrix(2.9975529,0,0,2.9975529,1.4987764,1.4987764)"><path
             d="M 51,321 101,361 51,401 1,361 Z"
             style="fill:#ffffff;fill-opacity:1;fill-rule:nonzero;stroke:none"
             id="path434" /><path
             d="M 51,321 101,361 51,401 1,361 Z"
             style="fill:none;stroke:#000000;stroke-width:1;stroke-linecap:butt;stroke-linejoin:miter;stroke-miterlimit:10;stroke-dasharray:none;stroke-opacity:1"
             id="path436" /></g><g
           id="g438"
           transform="scale(2.9975529)"><text
             transform="translate(43.796875,349)"
             style="font-variant:normal;font-weight:bold;font-size:12px;font-family:'Courier New';-inkscape-font-specification:CourierNewPS-BoldMT;writing-mode:lr-tb;fill:#111111;fill-opacity:1;fill-rule:nonzero;stroke:none"
             id="text442"><tspan
               x="0 7.2011719"
               y="0"
               id="tspan440">is</tspan></text><text
             transform="translate(29.390625,363)"
             style="font-variant:normal;font-weight:bold;font-size:12px;font-family:'Courier New';-inkscape-font-specification:CourierNewPS-BoldMT;writing-mode:lr-tb;fill:#111111;fill-opacity:1;fill-rule:nonzero;stroke:none"
             id="text446"><tspan
               x="0 7.2011719 14.402344 21.603516 28.804688 36.005859"
               y="0"
               id="tspan444">camera</tspan></text><text
             transform="translate(36.59375,377)"
             style="font-variant:normal;font-weight:bold;font-size:12px;font-family:'Courier New';-inkscape-font-specification:CourierNewPS-BoldMT;writing-mode:lr-tb;fill:#111111;fill-opacity:1;fill-rule:nonzero;stroke:none"
             id="text450"><tspan
               x="0 7.2011719 14.402344 21.603516"
               y="0"
               id="tspan448">off?</tspan></text></g></g></g></g></svg>
