<?xml version="1.0" encoding="UTF-8" standalone="no"?>
<svg
   xmlns:dc="http://purl.org/dc/elements/1.1/"
   xmlns:cc="http://creativecommons.org/ns#"
   xmlns:rdf="http://www.w3.org/1999/02/22-rdf-syntax-ns#"
   xmlns:svg="http://www.w3.org/2000/svg"
   xmlns="http://www.w3.org/2000/svg"
   version="1.1"
   id="svg10"
   xml:space="preserve"
   width="804"
   height="449.33334"
   viewBox="0 0 804 449.33334"><metadata
     id="metadata16"><rdf:RDF><cc:Work
         rdf:about=""><dc:format>image/svg+xml</dc:format><dc:type
           rdf:resource="http://purl.org/dc/dcmitype/StillImage" /><dc:title></dc:title></cc:Work></rdf:RDF></metadata><defs
     id="defs14"><clipPath
       clipPathUnits="userSpaceOnUse"
       id="clipPath34"><path
         d="M 73,302 H 573 V 140 H 73 Z"
         id="path32" /></clipPath><clipPath
       clipPathUnits="userSpaceOnUse"
       id="clipPath48"><path
         d="M 73,300 H 573 V 140 H 73 Z"
         id="path46" /></clipPath><clipPath
       clipPathUnits="userSpaceOnUse"
       id="clipPath68"><path
         d="M 73,241 H 573 V 140 H 73 Z"
         id="path66" /></clipPath><clipPath
       clipPathUnits="userSpaceOnUse"
       id="clipPath82"><path
         d="M 73,198 H 573 V 140 H 73 Z"
         id="path80" /></clipPath><clipPath
       clipPathUnits="userSpaceOnUse"
       id="clipPath96"><path
         d="M 73,158 H 573 V 140 H 73 Z"
         id="path94" /></clipPath><clipPath
       clipPathUnits="userSpaceOnUse"
       id="clipPath106"><path
         d="m 73,142 h 500 v -2 H 73 Z"
         id="path104" /></clipPath></defs><g
     id="g18"
     transform="matrix(1.3333333,0,0,-1.3333333,0,449.33333)"><g
       id="g20"><path
         d="M 73,301 H 573 V 141 H 73 Z"
         style="fill:#ffffff;fill-opacity:1;fill-rule:nonzero;stroke:none"
         id="path22" /><path
         d="M 73,301.07 H 465 V 140.8 H 73 Z"
         style="fill:#ffffff;fill-opacity:1;fill-rule:nonzero;stroke:none"
         id="path24" /><path
         d="M 469,301.07 V 140.801 H 572 V 301.07 h -29 l -1,-0.222 -1,0.351 -1,-0.031 -1,-0.098 z"
         style="fill:#ffffff;fill-opacity:1;fill-rule:nonzero;stroke:none"
         id="path26" /></g><g
       id="g28"><g
         id="g30"
         clip-path="url(#clipPath34)"><path
           d="M 73,300.871 H 465 L 466,141 h 2 l 1,159.871 h 70 l 1,0.098 1,0.031 1,-0.352 1,0.223 h 29"
           style="fill:none;stroke:#ffffff;stroke-width:1;stroke-linecap:round;stroke-linejoin:round;stroke-miterlimit:10;stroke-dasharray:none;stroke-opacity:1"
           id="path36" /><path
           d="m 73,154.34 v -13.539 h 392 v 15.523 l -1,3.676 -1,3.262 -1,0.672 -1,0.734 -1,1.184 -1,-1.536 -1,-9.718 -1,-0.735 -1,5.371 -1,1.821 -1,5.531 -1,5.023 -1,10.325 -1,-20.622 -1,-0.128 -1,1.597 -1,5.918 -1,3.227 -1,19.121 -1,-21.164 -1,-8.793 -1,5.113 -1,1.313 -1,-1.121 -1,-2.012 -1,-3.871 -1,4.605 -1,20.848 -1,48.215 -1,-12.852 -1,0.129 -1,-1.535 -1,15.09 -1,11.64 -1,26.985 -1,-33.285 -1,-29.735 -1,-53.492 -1,-0.227 -1,7.164 -1,-1.281 -1,4.192 -1,-8.157 -1,13.305 -1,31.43 -1,-43.742 -1,12.343 -1,32.868 -1,-42.782 -1,-4.187 -1,4.187 -1,-2.207 -1,0.258 -1,2.367 -1,-2.078 -1,-2.207 -1,2.652 -1,-4.218 -1,-1.602 -1,8.57 -1,0.223 -1,19.121 -1,-17.871 -1,-0.769 -1,10.296 -1,7.961 -1,6.746 -1,4.157 -1,21.679 -1,-27.691 -1,3.582 -1,9.051 -1,15.187 -1,-33.605 -1,16.019 -1,52.118 -1,31.496 -1,-30.215 -1,-56.278 -1,-17.011 -1,-13.364 -1,2.461 -1,7.93 -1,-6.297 -1,-11.511 -1,-1.856 -1,8.313 -1,16.722 -1,-20.59 -1,2.301 -1,5.66 -1,13.492 -1,-21.101 -1,0.32 -1,6.875 -1,-4.094 -1,0.063 -1,-1.535 -1,0.863 -1,-0.766 -1,-1.597 -1,-3.871 -1,13.144 -1,34.5 -1,-6.59 -1,15.797 -1,2.207 -1,-1.949 -1,36.703 -1,12.567 -1,11.32 -1,-37.762 -1,-56.34 -1,-17.968 -1,0.414 -1,-1.887 -1,-0.766 -1,9.368 -1,-11.606 -1,10.168 -1,5.34 -1,-15.156 -1,6.074 -1,1.855 -1,-4.797 -1,-3.101 -1,2.43 -1,0.48 -1,7.961 -1,-5.563 -1,-2.238 -1,-2.398 -1,-5.629 -1,3.23 -1,-0.222 -1,3.547 -1,-4.762 -1,-0.543 -1,-0.578 -1,4.765 -1,1.789 -1,0.321 -1,-5.594 -1,4.285 -1,5.945 -1,-5.691 -1,2.078 -1,4.926 -1,-1.695 -1,-2.782 -1,-3.804 -1,2.011 -1,-2.011 -1,2.715 -1,-4.411 -1,1.309 -1,3.297 -1,-2.176 -1,-2.781 -1,-2.59 -1,2.398 -1,8.282 -1,11.316 -1,-22.285 -1,4.797 -1,-2.848 -1,7.067 -1,-8.536 -1,5.274 -1,-4.059 -1,-3.711 -1,4.352 -1,5.082 -1,-0.832 -1,-2.91 -1,0.32 -1,2.113 -1,-0.672 -1,6.715 -1,-14.101 -1,5.722 -1,-2.492 -1,1.949 -1,-2.527 -1,4.254 -1,1.918 -1,-0.734 -1,-0.258 -1,-3.805 -1,5.598 -1,-6.59 -1,1.215 -1,8.793 -1,-2.684 -1,-2.879 -1,6.363 -1,35.461 -1,21.231 -1,4.765 -1,-1.023 -1,28.137 -1,10.488 -1,1.598 -1,-46.141 -1,-63.723 -1,0.575 -1,9.687 -1,-2.047 -1,-9.558 -1,7.672 -1,-5.434 -1,-3.133 -1,0.797 -1,0.098 -1,-0.192 -1,-0.258 -1,0.704 -1,39.839 -1,-38.656 -1,-3.164 -1,-2.336 -1,-0.605 -1,3.933 -1,-1.504 -1,-1.023 -1,0.894 -1,-2.367 -1,1.633 -1,11.734 -1,-7.769 -1,-1.438 -1,1.024 -1,0.094 -1,5.66 -1,-4.606 -1,-2.59 -1,6.11 -1,-7.547 -1,0.445 -1,-1.375 -1,3.614 -1,-0.446 -1,1.789 -1,-0.957 -1,-3.453 -1,0.828 -1,4.223 -1,-4.156 -1,1.726 -1,0.129 -1,10.613 -1,25.899 -1,-41.82 -1,-0.579 -1,33.672 -1,-31.625 -1,0.961 -1,0.129 -1,-1.344 -1,-3.07 -1,1.629 -1,5.727 -1,9.816 -1,-13.016 -1,2.621 -1,3.872 -1,-0.641 -1,-4.125 -1,-2.047 -1,-1.375 -1,1.375 -1,2.656 -1,-1.441 -1,0.16 -1,4.191 -1,-4.828 -1,-2.304 -1,1.214 -1,2.75 -1,-2.558 -1,4.383 -1,7.035 -1,-5.469 -1,3.004 -1,32.328 -1,53.078 -1,-21.136 -1,4.668 -1,7.324 -1,42.461 -1,-8.411 -1,-26.632 -1,-88.219 -1,-1.887 -1,3.836 -1,-3.933 -1,-0.637 -1,2.398 -1,-1.504 -1,3.743 -1,-4.125 -1,-0.641 -1,1.344 -1,14.515 -1,120.098 -1,8.504 -1,1.215 -1,-4.157 -1,1.469 -1,3.262 -1,-7.961 -1,-45.562 -1,-16.661 -1,39.778 -1,0.605 -1,-23.851 -1,-2.653 -1,29.512 -1,-15.254 -1,-83.707 -1,-17.395 -1,-1.277 -1,-0.832 -1,0.32 -1,-0.707 -1,3.774 -1,-2.043 -1,3.644 -1,6.297 -1,-6.906 -1,26.09 -1,10.808 -1,-41.535 -1,-2.207 -1,3.711 -1,-4.668 -1,1.438 -1,-1.407 -1,0.161 -1,14.324 -1,41.504 -1,-52.375 -1,-4.156 -1,-0.45 -1,4.223 -1,-1.344 -1,-3.355 -1,0.156 -1,1.602 -1,1.789 -1,-0.414 -1,-1.442 -1,0.418 -1,-0.93 -1,2.879 -1,3.903 -1,-2.688 -1,0.641 -1,0.832 -1,-0.578 -1,-4.7 -1,8.665 -1,-7.832 -1,5.722 -1,5.086 -1,-8.09 -1,-1.312 -1,1.215 -1,-4.508 -1,1.758 -1,3.164 -1,-1.758 -1,-2.012 -1,2.043 -1,1.442 -1,-0.383 -1,-0.61 -1,-2.269 -1,2.812 -1,-0.765 -1,2.75 -1,2.429 -1,-5.562 -1,0.703 -1,4.125 -1,7.863 -1,-6.808 -1,-4.223 -1,-1.469 -1,2.59 -1,0.926 z"
           style="fill:#bff7bf;fill-opacity:1;fill-rule:nonzero;stroke:none"
           id="path38" /><path
           d="m 469,158.305 v -17.504 h 103 v 7.531 l -1,-0.547 -1,2.61 -1,8.808 -1,48.695 -1,50.473 -1,-11.559 -1,-59.777 -1,-25.308 -1,-7.305 -1,4.922 -1,-4.938 -1,7.403 -1,-0.528 -1,0.766 -1,0.242 -1,-2.609 -1,-2.621 -1,2.015 -1,-4.222 -1,2.96 -1,-6.363 -1,-1.793 -1,2.496 -1,-0.402 -1,0.051 -1,5.164 -1,-2.879 -1,8.953 -1,39.617 -1,5.449 -1,-9.449 -1,15.383 -1,16.863 -1,-4.746 -1,24.906 -1,23.137 -1,-72.183 -1,-39.907 -1,-9.879 -1,1.887 -1,-0.367 -1,1.102 -1,-2.446 -1,-2.636 -1,3.566 -1,0.988 -1,1.121 -1,-0.273 -1,7.785 -1,-13.605 -1,2.75 -1,-1.582 -1,1.679 -1,-0.414 -1,7.16 -1,0.336 -1,-3.086 -1,1.36 -1,1.695 -1,0.336 -1,-0.785 -1,-2.11 -1,6.571 -1,1.758 -1,-4.172 -1,-1.805 -1,2.59 -1,3.613 -1,1.391 -1,-7.356 -1,2.16 -1,-0.832 -1,-1.23 -1,2.398 -1,-1.359 -1,-0.977 -1,-0.894 -1,3.004 -1,-2.414 -1,5.086 -1,-0.93 -1,-3.754 -1,-2.031 -1,2.652 -1,4.363 -1,-4.41 -1,2.223 -1,-2.543 -1,4.363 -1,0.289 -1,-4.668 -1,0.719 -1,3.918 -1,1.805 -1,-2.332 -1,-6.477 -1,2.512 -1,0.605 -1,1.618 -1,-1.856 -1,11.75 -1,-2.445 z"
           style="fill:#bff7bf;fill-opacity:1;fill-rule:nonzero;stroke:none"
           id="path40" /></g></g><g
       id="g42"><g
         id="g44"
         clip-path="url(#clipPath48)"><path
           d="m 73,154.141 1,1.664 1,-0.93 1,-2.59 1,1.473 1,4.219 1,6.812 1,-7.867 1,-4.125 1,-0.703 1,5.566 1,-2.43 1,-2.75 1,0.766 1,-2.812 1,2.269 1,0.606 1,0.386 1,-1.441 1,-2.047 1,2.016 1,1.757 1,-3.164 1,-1.757 1,4.507 1,-1.214 1,1.308 1,8.09 1,-5.082 1,-5.723 1,7.832 1,-8.664 1,4.699 1,0.575 1,-0.828 1,-0.641 1,2.687 1,-3.902 1,-2.879 1,0.93 1,-0.418 1,1.437 1,0.418 1,-1.789 1,-1.601 1,-0.16 1,3.359 1,1.344 1,-4.223 1,0.449 1,4.157 1,52.375 1,-41.504 1,-14.325 1,-0.16 1,1.407 1,-1.438 1,4.668 1,-3.711 1,2.207 1,41.535 1,-10.808 1,-26.09 1,6.906 1,-6.301 1,-3.644 1,2.047 1,-3.774 1,0.703 1,-0.316 1,0.828 1,1.281 1,17.395 1,83.707 1,15.254 1,-29.516 1,2.656 1,23.852 1,-0.606 1,-39.777 1,16.66 1,45.563 1,7.961 1,-3.262 1,-1.469 1,4.157 1,-1.215 1,-8.508 1,-120.094 1,-14.516 1,-1.343 1,0.636 1,4.125 1,-3.738 1,1.5 1,-2.394 1,0.636 1,3.934 1,-3.836 1,1.887 1,88.215 1,26.636 1,8.41 1,-42.464 1,-7.321 1,-4.668 1,21.133 1,-53.074 1,-32.328 1,-3.004 1,5.465 1,-7.032 1,-4.382 1,2.558 1,-2.75 1,-1.215 1,2.301 1,4.828 1,-4.187 1,-0.16 1,1.437 1,-2.652 1,-1.375 1,1.375 1,2.047 1,4.125 1,0.64 1,-3.871 1,-2.621 1,13.012 1,-9.817 1,-5.722 1,-1.629 1,3.07 1,1.34 1,-0.125 1,-0.961 1,31.621 1,-33.668 1,0.578 1,41.821 1,-25.899 1,-10.617 1,-0.125 1,-1.727 1,4.157 1,-4.223 1,-0.832 1,3.453 1,0.961 1,-1.789 1,0.445 1,-3.613 1,1.375 1,-0.445 1,7.543 1,-6.106 1,2.59 1,4.606 1,-5.661 1,-0.097 1,-1.024 1,1.442 1,7.769 1,-11.734 1,-1.633 1,2.367 1,-0.894 1,1.023 1,1.5 1,-3.93 1,0.606 1,2.336 1,3.164 1,38.656 1,-39.84 1,-0.703 1,0.258 1,0.191 1,-0.097 1,-0.797 1,3.133 1,5.433 1,-7.672 1,9.559 1,2.047 1,-9.688 1,-0.578 1,63.727 1,46.14 1,-1.601 1,-10.484 1,-28.141 1,1.023 1,-4.761 1,-21.231 1,-35.461 1,-6.363 1,2.879 1,2.683 1,-8.793 1,-1.214 1,6.586 1,-5.594 1,3.805 1,0.257 1,0.735 1,-1.918 1,-4.254 1,2.527 1,-1.953 1,2.496 1,-5.723 1,14.098 1,-6.715 1,0.672 1,-2.109 1,-0.321 1,2.911 1,0.832 1,-5.086 1,-4.348 1,3.711 1,4.059 1,-5.274 1,8.535 1,-7.066 1,2.848 1,-4.797 1,22.285 1,-11.317 1,-8.285 1,-2.394 1,2.59 1,2.781 1,2.172 1,-3.293 1,-1.309 1,4.41 1,-2.718 1,2.015 1,-2.015 1,3.808 1,2.781 1,1.696 1,-4.926 1,-2.078 1,5.691 1,-5.949 1,-4.281 1,5.593 1,-0.32 1,-1.789 1,-4.765 1,0.574 1,0.547 1,4.761 1,-3.547 1,0.223 1,-3.23 1,5.629 1,2.398 1,2.238 1,5.563 1,-7.961 1,-0.481 1,-2.429 1,3.101 1,4.797 1,-1.855 1,-6.075 1,15.157 1,-5.34 1,-10.168 1,11.605 1,-9.367 1,0.766 1,1.886 1,-0.414 1,17.969 1,56.34 1,37.762 1,-11.321 1,-12.566 1,-36.707 1,1.953 1,-2.207 1,-15.797 1,6.586 1,-34.5 1,-13.14 1,3.871 1,1.597 1,0.766 1,-0.863 1,1.535 1,-0.063 1,4.094 1,-6.875 1,-0.32 1,21.101 1,-13.492 1,-5.66 1,-2.301 1,20.59 1,-16.723 1,-8.312 1,1.855 1,11.508 1,6.301 1,-7.93 1,-2.461 1,13.364 1,17.011 1,56.274 1,30.218 1,-31.496 1,-52.117 1,-16.019 1,33.605 1,-15.187 1,-9.051 1,-3.582 1,27.691 1,-21.679 1,-4.157 1,-6.746 1,-7.961 1,-10.297 1,0.766 1,17.875 1,-19.121 1,-0.223 1,-8.57 1,1.601 1,4.219 1,-2.652 1,2.203 1,2.078 1,-2.363 1,-0.258 1,2.207 1,-4.187 1,4.187 1,42.781 1,-32.867 1,-12.344 1,43.743 1,-31.434 1,-13.301 1,8.153 1,-4.188 1,1.281 1,-7.164 1,0.223 1,53.496 1,29.734 1,33.286 1,-26.985 1,-11.641 1,-15.089 1,1.531 1,-0.125 1,12.851 1,-48.214 1,-20.848 1,-4.606 1,3.868 1,2.015 1,1.121 1,-1.312 1,-5.117 1,8.793 1,21.168 1,-19.121 1,-3.231 1,-5.914 1,-1.598 1,0.129 1,20.621 1,-10.328 1,-5.019 1,-5.532 1,-1.82 1,-5.375 1,0.738 1,9.719 1,1.535 1,-1.183 1,-0.735 1,-0.672 1,-3.261 1,-3.676 1,-15.125 h 2 l 1,17.105 1,11.29 1,2.445 1,-11.75 1,1.851 1,-1.613 1,-0.605 1,-2.512 1,6.477 1,2.332 1,-1.805 1,-3.918 1,-0.719 1,4.668 1,-0.289 1,-4.363 1,2.543 1,-2.223 1,4.41 1,-4.363 1,-2.652 1,2.027 1,3.758 1,0.929 1,-5.085 1,2.414 1,-3.004 1,0.894 1,0.973 1,1.359 1,-2.398 1,1.234 1,0.828 1,-2.156 1,7.356 1,-1.395 1,-3.609 1,-2.594 1,1.808 1,4.172 1,-1.758 1,-6.57 1,2.11 1,0.785 1,-0.336 1,-1.696 1,-1.359 1,3.086 1,-0.336 1,-7.164 1,0.418 1,-1.68 1,1.582 1,-2.75 1,13.606 1,-7.785 1,0.273 1,-1.121 1,-0.992 1,-3.563 1,2.637 1,2.445 1,-1.101 1,0.367 1,-1.887 1,9.879 1,39.906 1,72.18 1,-23.133 1,-24.906 1,4.746 1,-16.867 1,-15.379 1,9.449 1,-5.453 1,-39.613 1,-8.953 1,2.875 1,-5.164 1,-0.047 1,0.402 1,-2.496 1,1.789 1,6.363 1,-2.957 1,4.223 1,-2.016 1,2.621 1,2.606 1,-0.238 1,-0.77 1,0.531 1,-7.402 1,4.938 1,-4.922 1,7.304 1,25.309 1,59.777 1,11.559 1,-50.473 1,-48.699 1,-8.809 1,-2.605 1,0.543"
           style="fill:none;stroke:#00e000;stroke-width:1;stroke-linecap:round;stroke-linejoin:round;stroke-miterlimit:10;stroke-dasharray:none;stroke-opacity:1"
           id="path50" /><path
           d="m 73,154.34 v -13.539 h 392 v 15.523 l -1,3.676 -1,3.262 -1,0.672 -1,0.734 -1,1.184 -1,-1.536 -1,-9.718 -1,-0.735 -1,5.371 -1,1.821 -1,5.531 -1,5.023 -1,10.325 -1,-20.622 -1,-0.128 -1,1.597 -1,5.918 -1,3.227 -1,19.121 -1,-21.164 -1,-8.793 -1,5.113 -1,1.313 -1,-1.121 -1,-2.012 -1,-3.871 -1,4.605 -1,20.848 -1,48.215 -1,-12.852 -1,0.129 -1,-1.535 -1,15.09 -1,11.64 -1,26.985 -1,-33.285 -1,-29.735 -1,-53.492 -1,-0.227 -1,7.164 -1,-1.281 -1,4.192 -1,-8.157 -1,13.305 -1,31.43 -1,-43.742 -1,12.343 -1,32.868 -1,-42.782 -1,-4.187 -1,4.187 -1,-2.207 -1,0.258 -1,2.367 -1,-2.078 -1,-2.207 -1,2.652 -1,-4.218 -1,-1.602 -1,8.57 -1,0.223 -1,19.121 -1,-17.871 -1,-0.769 -1,10.296 -1,7.961 -1,6.746 -1,4.157 -1,21.679 -1,-27.691 -1,3.582 -1,9.051 -1,15.187 -1,-33.605 -1,16.019 -1,52.118 -1,31.496 -1,-30.215 -1,-56.278 -1,-17.011 -1,-13.364 -1,2.461 -1,7.93 -1,-6.297 -1,-11.511 -1,-1.856 -1,8.313 -1,16.722 -1,-20.59 -1,2.301 -1,5.66 -1,13.492 -1,-21.101 -1,0.32 -1,6.875 -1,-4.094 -1,0.063 -1,-1.535 -1,0.863 -1,-0.766 -1,-1.597 -1,-3.871 -1,13.144 -1,34.5 -1,-6.59 -1,15.797 -1,2.207 -1,-1.949 -1,36.703 -1,12.567 -1,11.32 -1,-37.762 -1,-56.34 -1,-17.968 -1,0.414 -1,-1.887 -1,-0.766 -1,9.368 -1,-11.606 -1,10.168 -1,5.34 -1,-15.156 -1,6.074 -1,1.855 -1,-4.797 -1,-3.101 -1,2.43 -1,0.48 -1,7.961 -1,-5.563 -1,-2.238 -1,-2.398 -1,-5.629 -1,3.23 -1,-0.222 -1,3.547 -1,-4.762 -1,-0.543 -1,-0.578 -1,4.765 -1,1.789 -1,0.321 -1,-5.594 -1,4.285 -1,5.945 -1,-5.691 -1,2.078 -1,4.926 -1,-1.695 -1,-2.782 -1,-3.804 -1,2.011 -1,-2.011 -1,2.715 -1,-4.411 -1,1.309 -1,3.297 -1,-2.176 -1,-2.781 -1,-2.59 -1,2.398 -1,8.282 -1,11.316 -1,-22.285 -1,4.797 -1,-2.848 -1,7.067 -1,-8.536 -1,5.274 -1,-4.059 -1,-3.711 -1,4.352 -1,5.082 -1,-0.832 -1,-2.91 -1,0.32 -1,2.113 -1,-0.672 -1,6.715 -1,-14.101 -1,5.722 -1,-2.492 -1,1.949 -1,-2.527 -1,4.254 -1,1.918 -1,-0.734 -1,-0.258 -1,-3.805 -1,5.598 -1,-6.59 -1,1.215 -1,8.793 -1,-2.684 -1,-2.879 -1,6.363 -1,35.461 -1,21.231 -1,4.765 -1,-1.023 -1,28.137 -1,10.488 -1,1.598 -1,-46.141 -1,-63.723 -1,0.575 -1,9.687 -1,-2.047 -1,-9.558 -1,7.672 -1,-5.434 -1,-3.133 -1,0.797 -1,0.098 -1,-0.192 -1,-0.258 -1,0.704 -1,39.839 -1,-38.656 -1,-3.164 -1,-2.336 -1,-0.605 -1,3.933 -1,-1.504 -1,-1.023 -1,0.894 -1,-2.367 -1,1.633 -1,11.734 -1,-7.769 -1,-1.438 -1,1.024 -1,0.094 -1,5.66 -1,-4.606 -1,-2.59 -1,6.11 -1,-7.547 -1,0.445 -1,-1.375 -1,3.614 -1,-0.446 -1,1.789 -1,-0.957 -1,-3.453 -1,0.828 -1,4.223 -1,-4.156 -1,1.726 -1,0.129 -1,10.613 -1,25.899 -1,-41.82 -1,-0.579 -1,33.672 -1,-31.625 -1,0.961 -1,0.129 -1,-1.344 -1,-3.07 -1,1.629 -1,5.727 -1,9.816 -1,-13.016 -1,2.621 -1,3.872 -1,-0.641 -1,-4.125 -1,-2.047 -1,-1.375 -1,1.375 -1,2.656 -1,-1.441 -1,0.16 -1,4.191 -1,-4.828 -1,-2.304 -1,1.214 -1,2.75 -1,-2.558 -1,4.383 -1,7.035 -1,-5.469 -1,3.004 -1,32.328 -1,53.078 -1,-21.136 -1,4.668 -1,7.324 -1,42.461 -1,-8.411 -1,-26.632 -1,-88.219 -1,-1.887 -1,3.836 -1,-3.933 -1,-0.637 -1,2.398 -1,-1.504 -1,3.743 -1,-4.125 -1,-0.641 -1,1.344 -1,14.515 -1,120.098 -1,8.504 -1,1.215 -1,-4.157 -1,1.469 -1,3.262 -1,-7.961 -1,-45.562 -1,-16.661 -1,39.778 -1,0.605 -1,-23.851 -1,-2.653 -1,29.512 -1,-15.254 -1,-83.707 -1,-17.395 -1,-1.277 -1,-0.832 -1,0.32 -1,-0.707 -1,3.774 -1,-2.043 -1,3.644 -1,6.297 -1,-6.906 -1,26.09 -1,10.808 -1,-41.535 -1,-2.207 -1,3.711 -1,-4.668 -1,1.438 -1,-1.407 -1,0.161 -1,14.324 -1,41.504 -1,-52.375 -1,-4.156 -1,-0.45 -1,4.223 -1,-1.344 -1,-3.355 -1,0.156 -1,1.602 -1,1.789 -1,-0.414 -1,-1.442 -1,0.418 -1,-0.93 -1,2.879 -1,3.903 -1,-2.688 -1,0.641 -1,0.832 -1,-0.578 -1,-4.7 -1,8.665 -1,-7.832 -1,5.722 -1,5.086 -1,-8.09 -1,-1.312 -1,1.215 -1,-4.508 -1,1.758 -1,3.164 -1,-1.758 -1,-2.012 -1,2.043 -1,1.442 -1,-0.383 -1,-0.61 -1,-2.269 -1,2.812 -1,-0.765 -1,2.75 -1,2.429 -1,-5.562 -1,0.703 -1,4.125 -1,7.863 -1,-6.808 -1,-4.223 -1,-1.469 -1,2.59 -1,0.926 z"
           style="fill:#bfbfff;fill-opacity:1;fill-rule:nonzero;stroke:none"
           id="path52" /><path
           d="m 469,158.305 v -17.504 h 103 v 7.531 l -1,-0.547 -1,2.61 -1,8.808 -1,48.695 -1,50.473 -1,-11.559 -1,-59.777 -1,-25.308 -1,-7.305 -1,4.922 -1,-4.938 -1,7.403 -1,-0.528 -1,0.766 -1,0.242 -1,-2.609 -1,-2.621 -1,2.015 -1,-4.222 -1,2.96 -1,-6.363 -1,-1.793 -1,2.496 -1,-0.402 -1,0.051 -1,5.164 -1,-2.879 -1,8.953 -1,39.617 -1,5.449 -1,-9.449 -1,15.383 -1,16.863 -1,-4.746 -1,24.906 -1,23.137 -1,-72.183 -1,-39.907 -1,-9.879 -1,1.887 -1,-0.367 -1,1.102 -1,-2.446 -1,-2.636 -1,3.566 -1,0.988 -1,1.121 -1,-0.273 -1,7.785 -1,-13.605 -1,2.75 -1,-1.582 -1,1.679 -1,-0.414 -1,7.16 -1,0.336 -1,-3.086 -1,1.36 -1,1.695 -1,0.336 -1,-0.785 -1,-2.11 -1,6.571 -1,1.758 -1,-4.172 -1,-1.805 -1,2.59 -1,3.613 -1,1.391 -1,-7.356 -1,2.16 -1,-0.832 -1,-1.23 -1,2.398 -1,-1.359 -1,-0.977 -1,-0.894 -1,3.004 -1,-2.414 -1,5.086 -1,-0.93 -1,-3.754 -1,-2.031 -1,2.652 -1,4.363 -1,-4.41 -1,2.223 -1,-2.543 -1,4.363 -1,0.289 -1,-4.668 -1,0.719 -1,3.918 -1,1.805 -1,-2.332 -1,-6.477 -1,2.512 -1,0.605 -1,1.618 -1,-1.856 -1,11.75 -1,-2.445 z"
           style="fill:#bfbfff;fill-opacity:1;fill-rule:nonzero;stroke:none"
           id="path54" /><path
           d="m 73,154.141 1,1.664 1,-0.93 1,-2.59 1,1.473 1,4.219 1,6.812 1,-7.867 1,-4.125 1,-0.703 1,5.566 1,-2.43 1,-2.75 1,0.766 1,-2.812 1,2.269 1,0.606 1,0.386 1,-1.441 1,-2.047 1,2.016 1,1.757 1,-3.164 1,-1.757 1,4.507 1,-1.214 1,1.308 1,8.09 1,-5.082 1,-5.723 1,7.832 1,-8.664 1,4.699 1,0.575 1,-0.828 1,-0.641 1,2.687 1,-3.902 1,-2.879 1,0.93 1,-0.418 1,1.437 1,0.418 1,-1.789 1,-1.601 1,-0.16 1,3.359 1,1.344 1,-4.223 1,0.449 1,4.157 1,52.375 1,-41.504 1,-14.325 1,-0.16 1,1.407 1,-1.438 1,4.668 1,-3.711 1,2.207 1,41.535 1,-10.808 1,-26.09 1,6.906 1,-6.301 1,-3.644 1,2.047 1,-3.774 1,0.703 1,-0.316 1,0.828 1,1.281 1,17.395 1,83.707 1,15.254 1,-29.516 1,2.656 1,23.852 1,-0.606 1,-39.777 1,16.66 1,45.563 1,7.961 1,-3.262 1,-1.469 1,4.157 1,-1.215 1,-8.508 1,-120.094 1,-14.516 1,-1.343 1,0.636 1,4.125 1,-3.738 1,1.5 1,-2.394 1,0.636 1,3.934 1,-3.836 1,1.887 1,88.215 1,26.636 1,8.41 1,-42.464 1,-7.321 1,-4.668 1,21.133 1,-53.074 1,-32.328 1,-3.004 1,5.465 1,-7.032 1,-4.382 1,2.558 1,-2.75 1,-1.215 1,2.301 1,4.828 1,-4.187 1,-0.16 1,1.437 1,-2.652 1,-1.375 1,1.375 1,2.047 1,4.125 1,0.64 1,-3.871 1,-2.621 1,13.012 1,-9.817 1,-5.722 1,-1.629 1,3.07 1,1.34 1,-0.125 1,-0.961 1,31.621 1,-33.668 1,0.578 1,41.821 1,-25.899 1,-10.617 1,-0.125 1,-1.727 1,4.157 1,-4.223 1,-0.832 1,3.453 1,0.961 1,-1.789 1,0.445 1,-3.613 1,1.375 1,-0.445 1,7.543 1,-6.106 1,2.59 1,4.606 1,-5.661 1,-0.097 1,-1.024 1,1.442 1,7.769 1,-11.734 1,-1.633 1,2.367 1,-0.894 1,1.023 1,1.5 1,-3.93 1,0.606 1,2.336 1,3.164 1,38.656 1,-39.84 1,-0.703 1,0.258 1,0.191 1,-0.097 1,-0.797 1,3.133 1,5.433 1,-7.672 1,9.559 1,2.047 1,-9.688 1,-0.578 1,63.727 1,46.14 1,-1.601 1,-10.484 1,-28.141 1,1.023 1,-4.761 1,-21.231 1,-35.461 1,-6.363 1,2.879 1,2.683 1,-8.793 1,-1.214 1,6.586 1,-5.594 1,3.805 1,0.257 1,0.735 1,-1.918 1,-4.254 1,2.527 1,-1.953 1,2.496 1,-5.723 1,14.098 1,-6.715 1,0.672 1,-2.109 1,-0.321 1,2.911 1,0.832 1,-5.086 1,-4.348 1,3.711 1,4.059 1,-5.274 1,8.535 1,-7.066 1,2.848 1,-4.797 1,22.285 1,-11.317 1,-8.285 1,-2.394 1,2.59 1,2.781 1,2.172 1,-3.293 1,-1.309 1,4.41 1,-2.718 1,2.015 1,-2.015 1,3.808 1,2.781 1,1.696 1,-4.926 1,-2.078 1,5.691 1,-5.949 1,-4.281 1,5.593 1,-0.32 1,-1.789 1,-4.765 1,0.574 1,0.547 1,4.761 1,-3.547 1,0.223 1,-3.23 1,5.629 1,2.398 1,2.238 1,5.563 1,-7.961 1,-0.481 1,-2.429 1,3.101 1,4.797 1,-1.855 1,-6.075 1,15.157 1,-5.34 1,-10.168 1,11.605 1,-9.367 1,0.766 1,1.886 1,-0.414 1,17.969 1,56.34 1,37.762 1,-11.321 1,-12.566 1,-36.707 1,1.953 1,-2.207 1,-15.797 1,6.586 1,-34.5 1,-13.14 1,3.871 1,1.597 1,0.766 1,-0.863 1,1.535 1,-0.063 1,4.094 1,-6.875 1,-0.32 1,21.101 1,-13.492 1,-5.66 1,-2.301 1,20.59 1,-16.723 1,-8.312 1,1.855 1,11.508 1,6.301 1,-7.93 1,-2.461 1,13.364 1,17.011 1,56.274 1,30.218 1,-31.496 1,-52.117 1,-16.019 1,33.605 1,-15.187 1,-9.051 1,-3.582 1,27.691 1,-21.679 1,-4.157 1,-6.746 1,-7.961 1,-10.297 1,0.766 1,17.875 1,-19.121 1,-0.223 1,-8.57 1,1.601 1,4.219 1,-2.652 1,2.203 1,2.078 1,-2.363 1,-0.258 1,2.207 1,-4.187 1,4.187 1,42.781 1,-32.867 1,-12.344 1,43.743 1,-31.434 1,-13.301 1,8.153 1,-4.188 1,1.281 1,-7.164 1,0.223 1,53.496 1,29.734 1,33.286 1,-26.985 1,-11.641 1,-15.089 1,1.531 1,-0.125 1,12.851 1,-48.214 1,-20.848 1,-4.606 1,3.868 1,2.015 1,1.121 1,-1.312 1,-5.117 1,8.793 1,21.168 1,-19.121 1,-3.231 1,-5.914 1,-1.598 1,0.129 1,20.621 1,-10.328 1,-5.019 1,-5.532 1,-1.82 1,-5.375 1,0.738 1,9.719 1,1.535 1,-1.183 1,-0.735 1,-0.672 1,-3.261 1,-3.676 1,-15.125 h 2 l 1,17.105 1,11.29 1,2.445 1,-11.75 1,1.851 1,-1.613 1,-0.605 1,-2.512 1,6.477 1,2.332 1,-1.805 1,-3.918 1,-0.719 1,4.668 1,-0.289 1,-4.363 1,2.543 1,-2.223 1,4.41 1,-4.363 1,-2.652 1,2.027 1,3.758 1,0.929 1,-5.085 1,2.414 1,-3.004 1,0.894 1,0.973 1,1.359 1,-2.398 1,1.234 1,0.828 1,-2.156 1,7.356 1,-1.395 1,-3.609 1,-2.594 1,1.808 1,4.172 1,-1.758 1,-6.57 1,2.11 1,0.785 1,-0.336 1,-1.696 1,-1.359 1,3.086 1,-0.336 1,-7.164 1,0.418 1,-1.68 1,1.582 1,-2.75 1,13.606 1,-7.785 1,0.273 1,-1.121 1,-0.992 1,-3.563 1,2.637 1,2.445 1,-1.101 1,0.367 1,-1.887 1,9.879 1,39.906 1,72.18 1,-23.133 1,-24.906 1,4.746 1,-16.867 1,-15.379 1,9.449 1,-5.453 1,-39.613 1,-8.953 1,2.875 1,-5.164 1,-0.047 1,0.402 1,-2.496 1,1.789 1,6.363 1,-2.957 1,4.223 1,-2.016 1,2.621 1,2.606 1,-0.238 1,-0.77 1,0.531 1,-7.402 1,4.938 1,-4.922 1,7.304 1,25.309 1,59.777 1,11.559 1,-50.473 1,-48.699 1,-8.809 1,-2.605 1,0.543"
           style="fill:none;stroke:#0000ff;stroke-width:1;stroke-linecap:round;stroke-linejoin:round;stroke-miterlimit:10;stroke-dasharray:none;stroke-opacity:1"
           id="path56" /><path
           d="m 73,150.664 v -9.863 h 392 v 11.047 l -1,4.125 -1,2.3 -1,0.129 -1,1.629 -1,-1.437 -1,-0.383 -1,-6.461 -1,-0.191 -1,4.316 -1,0.578 -1,3.422 -1,6.84 -1,12.246 -1,-21.484 -1,0.125 -1,-0.352 -1,4.957 -1,3.711 -1,19.023 -1,-23.789 -1,-3.902 -1,3.23 -1,1.473 -1,-1.09 -1,-2.078 -1,-2.43 -1,4.317 -1,14.516 -1,38.433 -1,-8.09 -1,-2.621 -1,-3.422 -1,9.817 -1,-13.461 -1,-21.133 -1,-3.68 -1,-8.215 -1,-9.339 -1,-0.446 -1,5.785 -1,-0.863 -1,4.828 -1,-8.343 -1,12.406 -1,31.527 -1,-43.391 -1,11.672 -1,31.176 -1,-40.547 -1,-3.101 -1,3.519 -1,-1.855 -1,-0.16 -1,1.152 -1,-0.863 -1,-0.512 -1,1.535 -1,-3.101 -1,-1.825 -1,7.93 -1,-0.734 -1,19.089 -1,-19.089 -1,-1.121 -1,9.21 -1,3.676 -1,1.727 -1,6.844 -1,20.398 -1,-25.449 -1,3.101 -1,4.317 -1,17.074 -1,-31.082 -1,5.949 -1,14.836 -1,-11.797 -1,-1.922 -1,-2.875 -1,2.399 -1,-14.008 -1,0.961 -1,8.25 -1,-5.34 -1,-10.711 -1,-1.824 -1,7.996 -1,16.879 -1,-21.391 -1,0.961 -1,7.067 -1,13.714 -1,-20.332 -1,0.063 -1,3.996 -1,-1.566 -1,-1.055 -1,-1.344 -1,1.278 -1,-0.477 -1,-2.496 -1,-1.727 -1,13.047 -1,32.551 -1,-21.551 -1,18.801 -1,3.133 -1,-5.531 -1,21.484 -1,-20.559 -1,-12.437 -1,-9.559 -1,-10.457 -1,-5.051 -1,1.215 -1,-2.465 -1,-0.476 -1,10.199 -1,-10.777 -1,8.539 -1,5.98 -1,-15.445 -1,4.797 -1,1.566 -1,-3.836 -1,-2.558 -1,3.195 -1,-1.086 -1,7.93 -1,-5.949 -1,-2.461 -1,-0.993 -1,-4.984 -1,1.918 -1,0.672 -1,3.738 -1,-4.445 -1,-1.852 -1,0.895 -1,3.262 -1,2.523 -1,-1.215 -1,-3.035 -1,1.566 -1,6.075 -1,-5.118 -1,0.61 -1,6.301 -1,-1.344 -1,-3.07 -1,-4.508 -1,2.011 -1,-0.796 -1,3.613 -1,-5.758 -1,1.25 -1,2.203 -1,-0.926 -1,-0.8 -1,-2.684 -1,1.215 -1,9.367 -1,12.023 -1,-22.957 -1,3.387 -1,-2.523 -1,4.699 -1,-4.891 -1,3.774 -1,-3.711 -1,-3.039 -1,3.261 -1,4.032 -1,-1.504 -1,-0.961 -1,0.16 -1,1.152 -1,-0.031 -1,6.266 -1,-11.574 -1,4.347 -1,-1.086 -1,0.992 -1,-2.558 -1,3.262 -1,2.46 -1,-1.054 -1,0.32 -1,-3.168 -1,3.422 -1,-5.113 -1,0.863 -1,6.297 -1,-2.012 -1,-2.047 -1,4.602 -1,25.742 -1,22.477 -1,2.652 -1,-4.539 -1,16.723 -1,-45.563 -1,-9.687 -1,4.281 -1,-17.489 -1,0.704 -1,10.265 -1,-2.078 -1,-10.555 -1,8.477 -1,-5.117 -1,-4.383 -1,0.77 -1,-0.29 -1,0.704 -1,-0.543 -1,1.121 -1,37.761 -1,-37.828 -1,-2.078 -1,-1.148 -1,-1.059 -1,3.582 -1,-1.918 -1,-1.086 -1,1.246 -1,-2.078 -1,1.278 -1,11.769 -1,-8.41 -1,-1.281 -1,0.863 -1,0.801 -1,5.211 -1,-3.453 -1,-3.422 -1,5.215 -1,-6.141 h -1 l -1,-1.184 -1,3.36 -1,-0.512 -1,1.5 -1,-1.086 -1,-3.195 -1,1.918 -1,4.316 -1,-5.055 -1,0.641 -1,0.481 -1,12.789 -1,24.91 -1,-41.762 -1,-0.672 -1,33.895 -1,-31.496 -1,0.449 -1,-0.031 -1,-1.536 -1,-1.632 -1,0.386 -1,6.395 -1,9.91 -1,-13.141 -1,2.047 -1,2.016 -1,0.988 -1,-3.805 -1,-2.332 -1,-0.035 -1,0.512 -1,0.707 -1,0.508 -1,0.258 -1,3.996 -1,-5.082 -1,-2.27 -1,1.309 -1,2.461 -1,-2.141 -1,4.188 -1,6.941 -1,-6.941 -1,1.214 -1,24.911 -1,47.929 -1,-20.816 -1,5.66 -1,2.941 -1,25.293 -1,-52.246 -1,-7.418 -1,-26.539 -1,-3.582 -1,2.559 -1,-2.27 -1,-0.258 -1,2.047 -1,-1.343 -1,2.144 -1,-2.656 -1,-0.031 -1,0.8 -1,6.907 -1,10.519 -1,-1.121 -1,7.387 -1,5.277 -1,-6.492 -1,-5.789 -1,0.769 -1,-1.503 -1,-5.118 -1,-3.964 -1,9.371 -1,19.918 -1,-17.137 -1,70.023 -1,-5.914 -1,-72.199 -1,-9.945 -1,-0.063 -1,-0.64 -1,0.129 -1,-0.895 -1,2.43 -1,-0.672 -1,2.14 -1,7.325 -1,-7.707 -1,21.296 -1,3.676 -1,-29.832 -1,-0.672 -1,4.735 -1,-4.797 -1,0.957 -1,-1.34 -1,0.063 -1,13.683 -1,37.188 -1,-48.856 -1,-2.336 -1,-0.574 -1,2.844 -1,-0.574 -1,-2.942 -1,-0.16 -1,1.789 -1,1.473 -1,-0.45 -1,-0.703 -1,-0.129 -1,-0.765 -1,2.269 -1,3.743 -1,-2.813 -1,0.508 -1,0.226 -1,-0.289 -1,-2.14 -1,8.054 -1,-8.472 -1,4.543 -1,4.828 -1,-6.844 -1,-2.238 -1,1.629 -1,-3.387 -1,0.988 -1,2.719 -1,-1.406 -1,-1.535 -1,2.175 -1,0.383 -1,-0.383 -1,-0.066 -1,-2.172 -1,2.461 -1,-0.352 -1,1.376 -1,3.867 -1,-6.297 -1,1.504 -1,4.699 -1,7.672 -1,-6.906 -1,-5.532 -1,-1.215 -1,2.145 -1,1.023 z"
           style="fill:#ffebbf;fill-opacity:1;fill-rule:nonzero;stroke:none"
           id="path58" /><path
           d="m 469,155.109 v -14.308 h 103 v 5.722 l -1,-0.605 -1,3.004 -1,5.531 -1,15.652 -1,1.805 -1,-5.019 -1,-6.985 -1,-4.527 -1,-3.93 -1,3.18 -1,-4.125 -1,7.098 -1,0.386 -1,-1.008 -1,0.352 -1,-1.457 -1,-1.66 -1,0.734 -1,-2.207 -1,1.985 -1,-5.262 -1,-1.375 -1,2.191 -1,-0.894 -1,0.047 -1,5.754 -1,-3.211 -1,7.211 -1,31.828 -1,1.039 -1,-9.575 -1,15.235 -1,16.387 -1,-6.122 -1,6.137 -1,-27.32 -1,-20.16 -1,-13.032 -1,-3.5 -1,0.782 -1,0.578 -1,0.621 -1,-2.43 -1,-1.551 -1,2.383 -1,0.657 -1,-0.192 -1,0.336 -1,7.305 -1,-11.063 -1,2.766 -1,-1.199 -1,1.488 -1,-0.672 -1,5.883 -1,0.144 -1,-3.277 -1,0.879 -1,1.773 -1,-0.464 -1,-1.055 -1,-1.086 -1,6.012 -1,1.215 -1,-3.024 -1,-2.125 -1,2.879 -1,2.109 -1,-0.047 -1,-4.957 -1,2.079 -1,-0.911 -1,0.192 -1,2.476 -1,-1.871 -1,-1.535 -1,-0.238 -1,1.711 -1,-2.016 -1,5.117 -1,-0.449 -1,-3.469 -1,-1.468 -1,2.109 -1,1.68 -1,-2.399 -1,1.168 -1,-0.914 -1,4.301 -1,-0.16 -1,-3.598 -1,-0.031 -1,3.836 -1,-0.461 -1,-1.266 -1,-5.226 -1,2.32 -1,0.461 -1,2.062 -1,-3.211 -1,11.782 -1,-2.543 z"
           style="fill:#ffebbf;fill-opacity:1;fill-rule:nonzero;stroke:none"
           id="path60" /></g></g><g
       id="g62"><g
         id="g64"
         clip-path="url(#clipPath68)"><path
           d="m 73,150.465 1,1.98 1,-1.023 1,-2.141 1,1.215 1,5.531 1,6.907 1,-7.672 1,-4.703 1,-1.5 1,6.296 1,-3.867 1,-1.375 1,0.352 1,-2.461 1,2.172 1,0.066 1,0.383 1,-0.383 1,-2.176 1,1.536 1,1.406 1,-2.719 1,-0.988 1,3.387 1,-1.629 1,2.238 1,6.84 1,-4.828 1,-4.539 1,8.472 1,-8.058 1,2.144 1,0.289 1,-0.226 1,-0.512 1,2.816 1,-3.742 1,-2.269 1,0.765 1,0.129 1,0.703 1,0.449 1,-1.472 1,-1.789 1,0.16 1,2.941 1,0.575 1,-2.844 1,0.574 1,2.332 1,48.859 1,-37.187 1,-13.684 1,-0.066 1,1.344 1,-0.957 1,4.793 1,-4.731 1,0.672 1,29.832 1,-3.676 1,-21.297 1,7.707 1,-7.324 1,-2.14 1,0.671 1,-2.429 1,0.894 1,-0.129 1,0.641 1,0.062 1,9.946 1,72.199 1,5.914 1,-70.023 1,17.136 1,-19.918 1,-9.371 1,3.965 1,5.117 1,1.504 1,-0.769 1,5.789 1,6.488 1,-5.273 1,-7.387 1,1.117 1,-10.519 1,-6.907 1,-0.797 1,0.032 1,2.652 1,-2.141 1,1.344 1,-2.047 1,0.254 1,2.274 1,-2.559 1,3.578 1,26.539 1,7.418 1,52.246 1,-25.289 1,-2.941 1,-5.66 1,20.816 1,-47.93 1,-24.91 1,-1.215 1,6.938 1,-6.938 1,-4.187 1,2.141 1,-2.461 1,-1.313 1,2.27 1,5.086 1,-3.997 1,-0.257 1,-0.512 1,-0.703 1,-0.512 1,0.031 1,2.336 1,3.805 1,-0.992 1,-2.012 1,-2.047 1,13.141 1,-9.91 1,-6.399 1,-0.383 1,1.633 1,1.535 1,0.032 1,-0.45 1,31.496 1,-33.894 1,0.672 1,41.758 1,-24.907 1,-12.789 1,-0.48 1,-0.641 1,5.051 1,-4.316 1,-1.918 1,3.199 1,1.086 1,-1.504 1,0.512 1,-3.356 1,1.184 h 1 l 1,6.136 1,-5.21 1,3.421 1,3.453 1,-5.21 1,-0.801 1,-0.863 1,1.281 1,8.406 1,-11.766 1,-1.277 1,2.078 1,-1.246 1,1.086 1,1.918 1,-3.582 1,1.055 1,1.152 1,2.078 1,37.824 1,-37.761 1,-1.118 1,0.543 1,-0.703 1,0.289 1,-0.769 1,4.383 1,5.113 1,-8.473 1,10.551 1,2.078 1,-10.262 1,-0.703 1,17.489 1,-4.286 1,9.692 1,45.562 1,-16.722 1,4.539 1,-2.653 1,-22.48 1,-25.738 1,-4.606 1,2.047 1,2.016 1,-6.301 1,-0.863 1,5.117 1,-3.422 1,3.168 1,-0.32 1,1.054 1,-2.461 1,-3.261 1,2.558 1,-0.992 1,1.086 1,-4.348 1,11.574 1,-6.265 1,0.031 1,-1.152 1,-0.16 1,0.961 1,1.503 1,-4.031 1,-3.261 1,3.039 1,3.707 1,-3.774 1,4.895 1,-4.7 1,2.524 1,-3.387 1,22.957 1,-12.023 1,-9.367 1,-1.215 1,2.683 1,0.801 1,0.926 1,-2.207 1,-1.246 1,5.758 1,-3.614 1,0.797 1,-2.012 1,4.508 1,3.071 1,1.339 1,-6.296 1,-0.61 1,5.117 1,-6.074 1,-1.566 1,3.035 1,1.215 1,-2.524 1,-3.261 1,-0.895 1,1.852 1,4.445 1,-3.742 1,-0.672 1,-1.918 1,4.988 1,0.992 1,2.461 1,5.95 1,-7.93 1,1.086 1,-3.196 1,2.555 1,3.84 1,-1.566 1,-4.797 1,15.441 1,-5.976 1,-8.54 1,10.778 1,-10.203 1,0.48 1,2.465 1,-1.219 1,5.055 1,10.453 1,9.563 1,12.437 1,20.559 1,-21.485 1,5.532 1,-3.133 1,-18.805 1,21.551 1,-32.547 1,-13.047 1,1.727 1,2.496 1,0.476 1,-1.277 1,1.344 1,1.054 1,1.567 1,-3.996 1,-0.067 1,20.336 1,-13.715 1,-7.066 1,-0.961 1,21.391 1,-16.883 1,-7.992 1,1.824 1,10.711 1,5.34 1,-8.25 1,-0.961 1,14.004 1,-2.395 1,2.875 1,1.918 1,11.801 1,-14.836 1,-5.949 1,31.078 1,-17.074 1,-4.317 1,-3.101 1,25.453 1,-20.399 1,-6.843 1,-1.727 1,-3.676 1,-9.211 1,1.121 1,19.086 1,-19.086 1,0.735 1,-7.93 1,1.824 1,3.102 1,-1.535 1,0.511 1,0.864 1,-1.153 1,0.161 1,1.855 1,-3.52 1,3.102 1,40.543 1,-31.172 1,-11.672 1,43.391 1,-31.527 1,-12.407 1,8.344 1,-4.828 1,0.863 1,-5.785 1,0.445 1,9.336 1,8.219 1,3.676 1,21.137 1,13.46 1,-9.816 1,3.422 1,2.621 1,8.09 1,-38.434 1,-14.515 1,-4.317 1,2.43 1,2.078 1,1.086 1,-1.469 1,-3.23 1,3.902 1,23.789 1,-19.027 1,-3.707 1,-4.957 1,0.351 1,-0.129 1,21.489 1,-12.246 1,-6.844 1,-3.422 1,-0.574 1,-4.317 1,0.192 1,6.461 1,0.383 1,1.437 1,-1.629 1,-0.129 1,-2.301 1,-4.125 1,-10.648 h 2 l 1,13.91 1,9.192 1,2.543 1,-11.786 1,3.215 1,-2.062 1,-0.465 1,-2.317 1,5.227 1,1.266 1,0.461 1,-3.836 1,0.031 1,3.598 1,0.16 1,-4.301 1,0.91 1,-1.164 1,2.395 1,-1.676 1,-2.113 1,1.472 1,3.469 1,0.449 1,-5.117 1,2.016 1,-1.711 1,0.238 1,1.535 1,1.871 1,-2.476 1,-0.196 1,0.914 1,-2.078 1,4.953 1,0.051 1,-2.109 1,-2.879 1,2.125 1,3.023 1,-1.215 1,-6.011 1,1.086 1,1.054 1,0.465 1,-1.773 1,-0.883 1,3.277 1,-0.14 1,-5.883 1,0.668 1,-1.485 1,1.2 1,-2.766 1,11.063 1,-7.305 1,-0.336 1,0.191 1,-0.656 1,-2.383 1,1.551 1,2.43 1,-0.621 1,-0.578 1,-0.782 1,3.5 1,13.032 1,20.156 1,27.324 1,-6.141 1,6.125 1,-16.386 1,-15.239 1,9.578 1,-1.039 1,-31.832 1,-7.211 1,3.215 1,-5.754 1,-0.05 1,0.898 1,-2.191 1,1.375 1,5.257 1,-1.98 1,2.207 1,-0.738 1,1.664 1,1.457 1,-0.352 1,1.004 1,-0.383 1,-7.097 1,4.125 1,-3.184 1,3.934 1,4.523 1,6.988 1,5.02 1,-1.805 1,-15.652 1,-5.531 1,-3.008 1,0.609"
           style="fill:none;stroke:#ffb000;stroke-width:1;stroke-linecap:round;stroke-linejoin:round;stroke-miterlimit:10;stroke-dasharray:none;stroke-opacity:1"
           id="path70" /><path
           d="m 73,150.664 v -9.863 h 392 v 11.047 l -1,4.125 -1,2.3 -1,0.129 -1,0.032 -1,-0.161 -1,-0.351 -1,-6.332 -1,-0.156 -1,4.441 -1,0.578 -1,3.422 -1,1.277 -1,-4.445 -1,0.734 -1,-0.125 -1,-0.703 -1,5.594 -1,-2.238 -1,1.183 h -1 l -1,-3.902 -1,3.23 -1,1.473 -1,-1.09 -1,-2.078 -1,-2.43 -1,4.125 -1,10.04 -1,23.085 -1,-14.738 -1,3.836 -1,5.82 -1,6.489 -1,-12.18 -1,-9.531 -1,-2.301 -1,-8.312 -1,-9.211 -1,-0.446 -1,5.785 -1,-2.109 -1,1.086 -1,-3.355 -1,3.261 -1,4.059 -1,-6.906 -1,2.718 -1,3.36 -1,-5.95 -1,-0.8 -1,3.519 -1,-1.855 -1,-0.16 -1,1.152 -1,-0.863 -1,-0.512 -1,1.504 -1,-3.199 -1,-3.422 -1,2.75 -1,1.664 -1,5.562 -1,-1.054 -1,-1.95 -1,6.715 -1,6.489 -1,-0.321 h -1 l -1,-2.621 -1,1.406 -1,1.567 -1,3.519 -1,-4.957 -1,-6.843 -1,10.425 -1,10.68 -1,-12.598 -1,2.942 -1,-6.301 -1,-10.008 -1,3.102 -1,-0.446 -1,3.133 -1,-4.031 -1,-5.465 -1,-1.824 -1,3.262 -1,2.687 -1,-2.465 -1,0.961 -1,1.887 -1,-1.824 -1,0.129 -1,0.32 -1,3.996 -1,-1.566 -1,-1.055 -1,-1.344 -1,1.278 -1,-0.477 -1,-2.496 -1,-1.82 -1,1.5 -1,-0.829 -1,17.329 -1,6.425 -1,-3.613 -1,14.293 -1,8.316 -1,-11.097 -1,-8.153 -1,-4.988 -1,-11.32 -1,-3.899 -1,1.215 -1,-2.465 -1,-0.476 -1,-0.289 -1,-1.535 -1,1.152 -1,0.031 -1,-0.863 -1,4.797 -1,1.566 -1,-3.871 -1,-2.683 -1,3.164 -1,-2.782 -1,3.293 -1,0.575 -1,-2.461 -1,-0.993 -1,-4.984 -1,1.918 -1,0.672 -1,3.738 -1,-4.445 -1,-1.852 -1,0.895 -1,3.262 -1,2.523 -1,-1.246 -1,-3.004 -1,0.285 -1,2.238 -1,-0.031 -1,-1.086 -1,0.864 -1,1.917 -1,-2.492 -1,-1.183 -1,2.011 -1,-2.238 -1,-2.363 -1,1.66 -1,1.25 -1,2.203 -1,-0.926 -1,-0.8 -1,-2.684 -1,-0.418 -1,-1.531 -1,0.508 -1,1.089 -1,3.387 -1,-2.523 -1,4.699 -1,-4.891 -1,3.774 -1,-3.711 -1,-3.039 -1,3.168 -1,3.742 -1,-1.121 -1,-0.961 -1,0.16 -1,1.152 -1,-1.664 -1,1.375 -1,-5.05 -1,4.347 -1,-1.086 -1,0.992 -1,-2.558 -1,3.262 -1,2.46 -1,-1.054 -1,0.32 -1,-3.168 -1,3.422 -1,-5.113 -1,0.863 -1,6.297 -1,-2.012 -1,-2.047 -1,2.27 -1,14.226 -1,12.793 -1,-0.289 -1,-8.793 -1,-4.285 -1,4.379 -1,-9.687 -1,-1.086 -1,-10.329 -1,-1.152 -1,1.024 -1,-5.692 -1,2.817 -1,3.035 -1,-4.028 -1,1.055 -1,1.024 -1,-0.29 -1,0.704 -1,-0.575 -1,1.024 -1,1.437 -1,-1.375 -1,-2.078 -1,-1.148 -1,-1.059 -1,3.582 -1,-1.918 -1,-1.086 -1,1.246 -1,-2.078 -1,1.278 -1,3.359 h -1 l -1,-1.281 -1,0.863 -1,-0.766 -1,0.512 -1,2.813 -1,-4.602 -1,1.629 -1,-1.504 -1,0.129 -1,-1.184 -1,3.36 -1,-0.512 -1,1.5 -1,-1.086 -1,-3.195 -1,0.445 -1,-0.191 -1,0.543 -1,1.023 -1,-0.894 -1,-1.438 -1,0.063 -1,-1.473 -1,-0.637 -1,2.813 -1,-0.289 -1,0.449 -1,-0.031 -1,-1.536 -1,-1.632 -1,0.32 -1,3.359 -1,1.598 -1,-1.856 -1,2.176 -1,1.215 -1,-1.406 -1,-0.61 -1,-2.332 -1,-0.035 -1,0.512 -1,0.707 -1,0.508 -1,0.258 -1,3.996 -1,-5.082 -1,-2.27 -1,1.309 -1,2.461 -1,-2.172 -1,2.492 -1,2.238 -1,-0.636 -1,0.382 -1,13.043 -1,19.633 -1,-8.406 -1,-2.719 -1,4.028 -1,-4.7 -1,-2.047 -1,4.766 -1,-28.555 -1,2.047 -1,2.559 -1,-2.336 -1,-0.445 -1,2.3 -1,-1.437 -1,1.851 -1,-2.269 -1,-0.031 -1,-0.801 -1,0.32 -1,18.418 -1,-1.117 -1,7.031 -1,5.821 -1,-6.809 -1,-5.535 -1,-0.063 -1,-4.73 -1,-3.965 -1,-1.055 -1,6.137 -1,12.277 -1,-17.199 -1,2.942 -1,13.3 -1,-13.238 -1,-9.945 -1,-0.094 -1,-0.734 -1,0.254 -1,-0.895 -1,2.43 -1,-0.703 -1,-0.321 -1,0.352 -1,1.183 -1,19.344 -1,5.309 -1,-28.938 -1,-0.703 -1,4.637 -1,-4.735 -1,0.77 -1,-1.086 -1,0.063 -1,5.66 -1,13.109 -1,-16.754 -1,-2.465 -1,-0.445 -1,2.844 -1,-0.606 -1,-3.039 -1,-0.031 -1,1.758 -1,1.375 -1,-0.574 -1,-1.473 -1,0.894 -1,-0.765 -1,2.269 -1,3.743 -1,-2.848 -1,0.418 -1,0.351 -1,-0.289 -1,-4.218 -1,1.82 -1,-0.16 -1,3.133 -1,0.578 -1,-1.313 -1,-2.109 -1,1.629 -1,-3.387 -1,0.988 -1,2.688 -2,-3.071 -1,2.207 -1,0.481 -1,-0.481 -1,0.032 -1,-2.27 -1,0.895 -1,1.343 -1,-0.222 -1,-0.961 h -1 l -1,1.598 -1,1.312 -1,-3.773 -1,1.183 -1,1.246 -1,-1.215 -1,2.11 -1,0.93 z"
           style="fill:#ffbfbf;fill-opacity:1;fill-rule:nonzero;stroke:none"
           id="path72" /><path
           d="m 469,154.965 v -14.164 h 103 v 5.722 l -1,-0.605 -1,3.004 -1,5.531 -1,9.719 -1,5.086 -1,-2.75 -1,-7.305 -1,-4.062 -1,-3.692 -1,3.18 -1,-4.125 -1,6.957 -1,-0.481 -1,-0.433 -1,0.785 -1,-1.566 -1,-1.711 -1,0.621 -1,-2.028 -1,2.079 -1,-5.598 -1,-1.184 -1,2.336 -1,-0.894 -1,0.047 -1,5.754 -1,-3.211 -1,1.39 -1,18.703 -1,8.348 -1,-1.809 -1,4.188 -1,2.207 -1,-7.945 -1,11.144 -1,-8.648 -1,-16.438 -1,-10.996 -1,-2.016 -1,0.782 -1,0.578 -1,0.621 -1,-2.43 -1,-1.551 -1,2.383 -1,0.657 -1,-0.192 -1,0.336 -1,7.191 -1,-10.949 -1,2.766 -1,-1.313 -1,1.551 -1,-0.847 -1,5.675 -1,0.321 -1,-3.071 -1,0.817 -1,1.84 -1,-0.641 -1,-1.039 -1,-0.879 -1,5.898 -1,1.168 -1,-2.91 -1,-2.078 -1,2.879 -1,2.109 -1,-0.047 -1,-4.957 -1,2.079 -1,-0.911 -1,0.192 -1,2.367 -1,-1.906 -1,-1.391 -1,-0.351 -1,1.777 -1,-2.078 -1,0.59 -1,2.109 -1,-1.438 -1,-1.757 -1,1.855 -1,2.078 -1,-2.879 -1,1.52 -1,-0.801 -1,4.238 -1,0.016 -1,-3.727 -1,-0.128 -1,4.062 -1,-0.367 -1,-1.266 -1,-5.226 -1,2.32 -1,0.461 -1,-1.852 -1,0.703 -1,3.278 -1,1.98 z"
           style="fill:#ffbfbf;fill-opacity:1;fill-rule:nonzero;stroke:none"
           id="path74" /></g></g><g
       id="g76"><g
         id="g78"
         clip-path="url(#clipPath82)"><path
           d="m 73,150.465 1,1.855 1,-0.929 1,-2.11 1,1.215 1,-1.246 1,-1.184 1,3.774 1,-1.313 1,-1.597 h 1 l 1,0.961 1,0.222 1,-1.343 1,-0.895 1,2.27 1,-0.032 1,0.481 1,-0.481 1,-2.207 2,3.071 1,-2.688 1,-0.988 1,3.387 1,-1.629 1,2.109 1,1.312 1,-0.578 1,-3.132 1,0.16 1,-1.825 1,4.223 1,0.289 1,-0.351 1,-0.418 1,2.847 1,-3.742 1,-2.269 1,0.765 1,-0.894 1,1.472 1,0.575 1,-1.375 1,-1.758 1,0.031 1,3.039 1,0.606 1,-2.844 1,0.445 1,2.461 1,16.758 1,-13.11 1,-5.66 1,-0.066 1,1.09 1,-0.77 1,4.735 1,-4.637 1,0.703 1,28.938 1,-5.309 1,-19.344 1,-1.183 1,-0.352 1,0.32 1,0.703 1,-2.429 1,0.894 1,-0.258 1,0.739 1,0.093 1,9.946 1,13.238 1,-13.305 1,-2.941 1,17.203 1,-12.277 1,-6.141 1,1.055 1,3.965 1,4.734 1,0.063 1,5.531 1,6.812 1,-5.82 1,-7.035 1,1.121 1,-18.418 1,-0.32 1,0.8 1,0.032 1,2.269 1,-1.855 1,1.441 1,-2.305 1,0.45 1,2.336 1,-2.559 1,-2.047 1,28.551 1,-4.762 1,2.047 1,4.699 1,-4.027 1,2.715 1,8.41 1,-19.633 1,-13.043 1,-0.387 1,0.641 1,-2.238 1,-2.492 1,2.172 1,-2.461 1,-1.313 1,2.27 1,5.086 1,-3.997 1,-0.257 1,-0.512 1,-0.703 1,-0.512 1,0.031 1,2.336 1,0.61 1,1.406 1,-1.215 1,-2.176 1,1.856 1,-1.598 1,-3.359 1,-0.321 1,1.633 1,1.535 1,0.032 1,-0.45 1,0.289 1,-2.816 1,0.641 1,1.472 1,-0.066 1,1.441 1,0.895 1,-1.024 1,-0.543 1,0.192 1,-0.449 1,3.199 1,1.086 1,-1.504 1,0.512 1,-3.356 1,1.184 1,-0.129 1,1.504 1,-1.633 1,4.605 1,-2.812 1,-0.512 1,0.766 1,-0.863 1,1.281 h 1 l 1,-3.36 1,-1.277 1,2.078 1,-1.246 1,1.086 1,1.918 1,-3.582 1,1.055 1,1.152 1,2.078 1,1.375 1,-1.437 1,-1.024 1,0.574 1,-0.703 1,0.289 1,-1.023 1,-1.055 1,4.028 1,-3.04 1,-2.812 1,5.691 1,-1.023 1,1.152 1,10.328 1,1.086 1,9.688 1,-4.379 1,4.285 1,8.793 1,0.285 1,-12.789 1,-14.226 1,-2.274 1,2.047 1,2.016 1,-6.301 1,-0.863 1,5.117 1,-3.422 1,3.168 1,-0.32 1,1.054 1,-2.461 1,-3.261 1,2.558 1,-0.992 1,1.086 1,-4.348 1,5.051 1,-1.375 1,1.664 1,-1.152 1,-0.16 1,0.961 1,1.117 1,-3.739 1,-3.167 1,3.039 1,3.707 1,-3.774 1,4.895 1,-4.7 1,2.524 1,-3.387 1,-1.09 1,-0.511 1,1.535 1,0.418 1,2.683 1,0.801 1,0.926 1,-2.207 1,-1.246 1,-1.66 1,2.363 1,2.238 1,-2.012 1,1.18 1,2.496 1,-1.918 1,-0.863 1,1.086 1,0.031 1,-2.238 1,-0.285 1,3.004 1,1.246 1,-2.524 1,-3.261 1,-0.895 1,1.852 1,4.445 1,-3.742 1,-0.672 1,-1.918 1,4.988 1,0.992 1,2.461 1,-0.574 1,-3.293 1,2.781 1,-3.164 1,2.684 1,3.871 1,-1.566 1,-4.797 1,0.863 1,-0.031 1,-1.153 1,1.536 1,0.285 1,0.48 1,2.465 1,-1.219 1,3.903 1,11.32 1,4.988 1,8.153 1,11.093 1,-8.312 1,-14.293 1,3.613 1,-6.426 1,-17.332 1,0.832 1,-1.504 1,1.825 1,2.496 1,0.476 1,-1.277 1,1.344 1,1.054 1,1.567 1,-3.996 1,-0.321 1,-0.128 1,1.824 1,-1.887 1,-0.961 1,2.461 1,-2.684 1,-3.261 1,1.824 1,5.465 1,4.031 1,-3.137 1,0.449 1,-3.101 1,10.008 1,6.301 1,-2.942 1,12.598 1,-10.68 1,-10.426 1,6.844 1,4.957 1,-3.519 1,-1.567 1,-1.406 1,2.621 h 1 l 1,0.32 1,-6.492 1,-6.715 1,1.953 1,1.055 1,-5.562 1,-1.664 1,-2.75 1,3.421 1,3.196 1,-1.5 1,0.511 1,0.864 1,-1.153 1,0.161 1,1.855 1,-3.52 1,0.801 1,5.946 1,-3.356 1,-2.719 1,6.907 1,-4.059 1,-3.262 1,3.356 1,-1.086 1,2.109 1,-5.785 1,0.445 1,9.211 1,8.313 1,2.301 1,9.527 1,12.183 1,-6.492 1,-5.816 1,-3.84 1,14.742 1,-23.086 1,-10.039 1,-4.125 1,2.43 1,2.078 1,1.086 1,-1.469 1,-3.23 1,3.902 h 1 l 1,-1.183 1,2.238 1,-5.598 1,0.703 1,0.129 1,-0.734 1,4.445 1,-1.281 1,-3.422 1,-0.574 1,-4.446 1,0.161 1,6.332 1,0.351 1,0.16 1,-0.031 1,-0.129 1,-2.301 1,-4.125 1,-10.648 h 2 l 1,13.766 1,5.355 1,-1.984 1,-3.278 1,-0.703 1,1.856 1,-0.465 1,-2.317 1,5.227 1,1.266 1,0.367 1,-4.063 1,0.129 1,3.727 1,-0.02 1,-4.234 1,0.797 1,-1.516 1,2.875 1,-2.078 1,-1.852 1,1.758 1,1.438 1,-2.11 1,-0.593 1,2.078 1,-1.774 1,0.352 1,1.391 1,1.902 1,-2.363 1,-0.196 1,0.914 1,-2.078 1,4.953 1,0.051 1,-2.109 1,-2.879 1,2.078 1,2.91 1,-1.168 1,-5.898 1,0.879 1,1.039 1,0.64 1,-1.84 1,-0.816 1,3.07 1,-0.32 1,-5.676 1,0.848 1,-1.551 1,1.313 1,-2.766 1,10.949 1,-7.191 1,-0.336 1,0.191 1,-0.656 1,-2.383 1,1.551 1,2.43 1,-0.621 1,-0.578 1,-0.782 1,2.012 1,11 1,16.434 1,8.652 1,-11.145 1,7.946 1,-2.207 1,-4.188 1,1.805 1,-8.344 1,-18.703 1,-1.395 1,3.215 1,-5.754 1,-0.05 1,0.898 1,-2.336 1,1.184 1,5.593 1,-2.078 1,2.032 1,-0.622 1,1.707 1,1.571 1,-0.785 1,0.433 1,0.477 1,-6.953 1,4.125 1,-3.184 1,3.695 1,4.059 1,7.309 1,2.75 1,-5.086 1,-9.719 1,-5.531 1,-3.008 1,0.609"
           style="fill:none;stroke:#ff0000;stroke-width:1;stroke-linecap:round;stroke-linejoin:round;stroke-miterlimit:10;stroke-dasharray:none;stroke-opacity:1"
           id="path84" /><path
           d="m 73,141.617 v -0.816 h 392 v 1.613 l -1,0.93 -1,-0.481 -1,-0.289 -1,0.864 -1,-0.321 -1,-0.062 -1,-0.289 -1,0.066 -1,0.574 -1,-0.64 -1,0.703 -1,0.418 -1,-1.215 -1,0.797 -1,-0.031 -1,-0.383 -1,1.183 -1,-0.929 -1,0.671 -1,-0.351 -1,0.031 -1,-0.125 -1,0.988 -1,-0.191 -1,-0.543 -1,-0.703 -1,1.664 -1,0.797 -1,5.148 -1,-2.523 -1,2.781 -1,2.078 -1,-0.801 -1,-5.753 -1,-0.321 -1,-1.215 -1,-0.129 -1,-1.597 -1,-0.223 -1,0.094 -1,-0.094 -1,0.285 -1,-0.191 -1,0.223 -1,1.152 -1,-0.832 -1,0.578 -1,-0.738 -1,0.097 h -1 l -1,0.129 -1,-1.09 -1,1.473 -1,-1.312 -1,1.023 -1,-0.191 -1,0.961 -1,-1.313 -1,-0.223 -1,-0.449 -1,-0.094 -1,0.797 -1,0.383 -1,-1.18 -1,0.415 -1,3.71 -1,-1.058 -1,1.441 -1,-0.992 -1,-1.789 -1,0.574 -1,0.641 -1,1.375 -1,-0.609 -1,1.023 -1,2.879 -1,-3.328 -1,-1.95 -1,0.098 -1,-0.961 -1,0.93 -1,-1.633 -1,0.961 -1,-0.672 -1,0.285 -1,-0.574 -1,-0.449 -1,0.992 -1,-0.957 -1,0.574 -1,-0.863 -1,-0.289 -1,0.992 -1,0.063 -1,0.578 -1,-0.735 -1,-0.035 -1,-0.574 -1,0.543 -1,0.703 -1,-1.535 -1,0.992 -1,-0.16 -1,-0.063 -1,3.707 -1,0.672 -1,-0.64 -1,3.773 -1,2.274 -1,-3.262 -1,-4.192 -1,0.258 -1,-1.664 -1,-0.289 -1,0.449 -1,-1.437 -1,1.148 -1,-0.797 -1,0.512 -1,0.926 -1,-0.672 -1,-0.926 -1,1.086 -1,0.512 -1,-1.215 -1,-0.641 -1,0.387 -1,-0.387 -1,0.704 -1,0.898 -1,-2.078 -1,-0.129 -1,0.062 -1,0.258 -1,0.223 -1,0.734 -1,-0.703 -1,-0.254 -1,0.063 -1,0.222 -1,-0.093 -1,0.16 -1,-0.031 h -1 l -1,-0.067 -1,-0.351 -1,-0.223 -1,0.543 -1,-0.191 -1,0.543 -1,-0.833 -1,0.352 -1,0.32 -1,-0.32 -1,-0.703 -1,0.129 -1,0.031 -1,0.191 -1,0.227 -1,-0.16 -1,-0.227 -1,-0.254 -1,0.512 -1,0.094 -1,0.351 -1,-0.222 -1,-0.16 -1,0.16 -1,-0.383 h -1 l -1,0.094 -1,0.386 -1,-0.097 -1,-0.383 -1,0.16 -1,0.512 -1,-0.543 -1,0.031 -1,0.637 -1,-0.508 h -1 l -1,0.766 -1,0.574 -1,-1.758 -1,0.32 -1,0.766 h -1 l -1,-0.16 -1,-0.637 h -1 l -1,-0.129 -1,-0.449 -1,0.77 -1,-0.063 -1,-0.512 -1,1.278 -1,1.886 -1,3.805 -1,0.832 -1,-2.238 -1,0.383 -1,-0.414 -1,-3.614 -1,0.032 -1,-1.598 -1,-0.035 -1,0.289 -1,-0.352 -1,0.223 -1,0.449 -1,0.063 -1,-0.766 -1,0.094 -1,0.289 -1,-0.383 -1,-0.129 -1,-0.449 -1,0.609 -2,0.383 -1,-0.285 -1,-0.067 -1,0.29 -1,0.031 -1,-0.289 -1,0.32 -1,-0.254 h -1 l -1,-0.066 -1,0.258 -1,0.128 -1,-0.097 -1,-0.289 -1,0.609 -1,0.606 -1,-1.215 -1,-0.192 -1,0.289 -1,0.063 -1,-0.16 -1,0.226 -1,-0.609 -1,0.512 -1,0.703 -1,-0.766 h -2 l -1,-0.031 -1,-0.129 h -1 l -1,0.062 -1,0.161 -1,-0.383 -1,-0.031 -1,0.734 -1,-0.449 -1,-0.223 -1,0.129 -1,-0.031 -1,-0.129 -1,0.16 -1,0.672 -1,-0.129 -1,-0.766 -1,0.926 -1,-0.414 -1,-0.129 -1,-0.066 -1,-0.094 -1,0.48 -1,-0.671 h -1 l -1,0.574 -1,0.512 -1,0.64 -1,-1.633 -1,-0.222 -1,0.765 -1,0.418 -1,-1.023 -1,0.383 -1,1.246 -1,-1.215 -1,0.098 -1,2.621 -1,4.574 -1,-1.184 -1,0.16 -1,0.606 -1,-2.301 -1,-0.801 -1,-1.183 -1,-2.524 -1,-0.031 -1,-0.16 -1,-0.129 h -1 l -1,0.031 -1,0.16 -1,-0.031 -1,-0.48 -1,0.543 -1,-0.289 -1,0.609 -1,-0.512 -1,0.383 -1,1.121 -1,0.254 -1,-0.605 -1,-0.321 -1,0.129 -1,-0.578 -1,-0.191 -1,0.543 -1,2.464 -1,3.547 -1,-6.234 h -1 l -1,1.117 -1,-1.691 -1,-0.067 -1,0.227 -1,-0.258 -1,-0.414 -1,0.352 -1,-0.067 -1,0.192 -1,0.035 -1,0.926 -1,1.472 -1,11.414 -1,1.469 -1,-15.188 -1,-0.093 -1,0.863 -1,-1.023 -1,0.445 -1,-0.414 -1,-0.512 -1,0.832 -1,0.992 -1,-0.929 -1,-0.321 -1,-0.062 -1,0.926 -1,-1.344 -1,0.289 -1,0.066 -1,-0.129 -1,0.383 -1,-0.414 -1,0.543 -1,0.481 -1,-0.707 -1,0.128 -1,0.161 -1,-0.321 -1,0.258 -2,0.063 -1,-0.414 -1,-0.192 -1,-0.066 -1,0.672 -1,-0.321 -1,0.192 -1,-0.254 -1,-0.031 -1,-0.098 -1,0.031 -1,-0.222 -1,0.609 -1,-0.098 -1,0.129 -1,-0.16 -1,-0.609 -1,0.226 -1,0.352 -1,-0.098 -1,-0.062 -1,0.382 -1,-0.511 -1,0.097 -1,0.606 -1,0.574 -1,-1.277 -1,0.031 -1,0.258 -1,0.445 -1,-0.383 -1,-0.511 z"
           style="fill:#ffbfff;fill-opacity:1;fill-rule:nonzero;stroke:none"
           id="path86" /><path
           d="m 469,143.469 v -2.668 h 101 v 1.519 l -1,0.254 -1,1.473 -1,1.23 -1,-0.32 -1,-1.805 -1,-0.226 -1,0.754 -1,0.015 -1,-0.433 -1,-0.43 -1,0.926 -1,0.59 -1,-1.407 -1,0.497 -1,-0.641 -1,-0.254 -1,0.879 -1,-0.336 -1,-0.512 -1,0.688 -1,-0.11 -1,-0.754 -1,-0.031 -1,1.965 -1,-0.926 -1,0.129 -1,2.844 -1,1.726 -1,1.856 -1,4.027 -1,-1.246 -1,-3.836 -1,2.207 -1,-2.48 -1,-4.86 -1,-0.527 -1,-0.734 -1,0.703 -1,1.277 -1,-1.406 -1,0.016 -1,-0.223 -1,0.766 -1,0.21 -1,-1.214 -1,-0.036 -1,1.985 -1,-2.047 -1,1.102 -1,-0.797 -1,1.261 -1,-0.687 -1,1.168 -1,-0.129 -1,-1.277 -1,-0.161 -1,-0.015 -1,-0.16 -1,0.511 -1,-0.894 -1,1.758 -1,-1.2 -1,0.254 -1,-0.636 -1,0.414 -1,-0.176 -1,0.207 -1,0.082 -1,0.734 -1,0.223 -1,0.289 -1,-0.641 -1,-0.605 -1,0.062 -1,0.274 -1,0.316 -1,-1.023 -1,0.531 -1,1.324 -1,-0.062 -1,-0.082 -1,-0.399 -1,-0.976 -1,1.008 -1,-1.184 -1,0.527 -1,1.219 -1,-0.898 -1,-0.192 -1,-0.304 -1,1.039 -1,-0.477 -1,-0.992 -1,-0.016 -1,1.102 -1,-0.352 -1,-0.109 -1,-0.227 -1,0.977 -1,-0.047 z"
           style="fill:#ffbfff;fill-opacity:1;fill-rule:nonzero;stroke:none"
           id="path88" /></g></g><g
       id="g90"><g
         id="g92"
         clip-path="url(#clipPath96)"><path
           d="m 73,141.414 1,-0.094 1,0.512 1,0.383 1,-0.449 1,-0.254 1,-0.032 1,1.278 1,-0.574 1,-0.61 1,-0.094 1,0.512 1,-0.383 1,0.063 1,0.094 1,-0.352 1,-0.223 1,0.61 1,0.16 1,-0.129 1,0.094 1,-0.606 1,0.223 1,-0.031 1,0.097 1,0.032 1,0.254 1,-0.192 1,0.32 1,-0.671 1,0.062 1,0.195 1,0.414 2,-0.062 1,-0.258 1,0.32 1,-0.16 1,-0.129 1,0.704 1,-0.477 1,-0.547 1,0.418 1,-0.383 1,0.125 1,-0.062 1,-0.289 1,1.343 1,-0.925 1,0.062 1,0.32 1,0.926 1,-0.988 1,-0.832 1,0.512 1,0.414 1,-0.446 1,1.02 1,-0.863 1,0.097 1,15.188 1,-1.469 1,-11.418 1,-1.469 1,-0.929 1,-0.032 1,-0.191 1,0.066 1,-0.355 1,0.418 1,0.254 1,-0.223 1,0.063 1,1.695 1,-1.117 h 1 l 1,6.234 1,-3.551 1,-2.461 1,-0.543 1,0.192 1,0.574 1,-0.125 1,0.316 1,0.61 1,-0.254 1,-1.121 1,-0.383 1,0.512 1,-0.61 1,0.289 1,-0.543 1,0.481 1,0.031 1,-0.16 1,-0.031 h 1 l 1,0.125 1,0.16 1,0.031 1,2.528 1,1.183 1,0.801 1,2.301 1,-0.61 1,-0.156 1,1.18 1,-4.571 1,-2.621 1,-0.097 1,1.215 1,-1.247 1,-0.382 1,1.023 1,-0.418 1,-0.766 1,0.223 1,1.633 1,-0.641 1,-0.511 1,-0.575 h 1 l 1,0.668 1,-0.476 1,0.094 1,0.066 1,0.125 1,0.418 1,-0.93 1,0.77 1,0.129 1,-0.672 1,-0.16 1,0.125 1,0.035 1,-0.129 1,0.223 1,0.449 1,-0.735 1,0.032 1,0.382 1,-0.16 1,-0.062 h 1 l 1,0.125 1,0.035 h 2 l 1,0.766 1,-0.704 1,-0.511 1,0.605 1,-0.222 1,0.16 1,-0.063 1,-0.289 1,0.192 1,1.214 1,-0.605 1,-0.609 1,0.289 1,0.093 1,-0.125 1,-0.257 1,0.066 h 1 l 1,0.254 1,-0.32 1,0.289 1,-0.032 1,-0.289 1,0.063 1,0.289 2,-0.383 1,-0.609 1,0.449 1,0.129 1,0.383 1,-0.289 1,-0.094 1,0.765 1,-0.062 1,-0.449 1,-0.223 1,0.352 1,-0.289 1,0.031 1,1.601 1,-0.035 1,3.613 1,0.418 1,-0.382 1,2.238 1,-0.832 1,-3.805 1,-1.887 1,-1.281 1,0.512 1,0.066 1,-0.769 1,0.449 1,0.129 h 1 l 1,0.637 1,0.16 h 1 l 1,-0.766 1,-0.32 1,1.758 1,-0.575 1,-0.769 h 1 l 1,0.512 1,-0.637 1,-0.035 1,0.547 1,-0.512 1,-0.16 1,0.383 1,0.093 1,-0.382 1,-0.094 h 1 l 1,0.383 1,-0.161 1,0.161 1,0.222 1,-0.351 1,-0.094 1,-0.512 1,0.254 1,0.223 1,0.16 1,-0.223 1,-0.191 1,-0.031 1,-0.129 1,0.703 1,0.32 1,-0.32 1,-0.352 1,0.832 1,-0.543 1,0.192 1,-0.543 1,0.222 1,0.352 1,0.063 h 1 l 1,0.035 1,-0.161 1,0.094 1,-0.222 1,-0.067 1,0.258 1,0.703 1,-0.734 1,-0.227 1,-0.254 1,-0.062 1,0.125 1,2.078 1,-0.895 1,-0.703 1,0.383 1,-0.383 1,0.641 1,1.215 1,-0.512 1,-1.086 1,0.926 1,0.672 1,-0.926 1,-0.512 1,0.797 1,-1.148 1,1.437 1,-0.449 1,0.289 1,1.664 1,-0.258 1,4.188 1,3.261 1,-2.269 1,-3.774 1,0.641 1,-0.672 1,-3.707 1,0.063 1,0.16 1,-0.992 1,1.535 1,-0.703 1,-0.543 1,0.574 1,0.031 1,0.739 1,-0.579 1,-0.062 1,-0.992 1,0.289 1,0.863 1,-0.578 1,0.961 1,-0.992 1,0.449 1,0.574 1,-0.285 1,0.668 1,-0.957 1,1.629 1,-0.926 1,0.961 1,-0.098 1,1.949 1,3.329 1,-2.879 1,-1.024 1,0.606 1,-1.375 1,-0.637 1,-0.578 1,1.793 1,0.992 1,-1.441 1,1.054 1,-3.707 1,-0.418 1,1.184 1,-0.383 1,-0.801 1,0.098 1,0.449 1,0.223 1,1.308 1,-0.957 1,0.192 1,-1.024 1,1.313 1,-1.473 1,1.086 1,-0.125 h 1 l 1,-0.097 1,0.734 1,-0.574 1,0.832 1,-1.153 1,-0.222 1,0.191 1,-0.289 1,0.098 1,-0.098 1,0.227 1,1.597 1,0.129 1,1.215 1,0.32 1,5.754 1,0.801 1,-2.078 1,-2.785 1,2.527 1,-5.148 1,-0.797 1,-1.664 1,0.703 1,0.543 1,0.191 1,-0.988 1,0.125 1,-0.031 1,0.351 1,-0.672 1,0.93 1,-1.184 1,0.383 1,0.032 1,-0.797 1,1.215 1,-0.418 1,-0.704 1,0.641 1,-0.578 1,-0.063 1,0.289 1,0.063 1,0.32 1,-0.863 1,0.289 1,0.477 1,-0.926 1,-1.215 h 2 l 1,2.27 1,0.734 1,0.051 1,-0.977 1,0.223 1,0.113 1,0.352 1,-1.102 1,0.016 1,0.988 1,0.48 1,-1.039 1,0.305 1,0.191 1,0.895 1,-1.215 1,-0.527 1,1.183 1,-1.007 1,0.976 1,0.399 1,0.082 1,0.062 1,-1.328 1,-0.527 1,1.023 1,-0.32 1,-0.27 1,-0.066 1,0.609 1,0.641 1,-0.289 1,-0.223 1,-0.738 1,-0.078 1,-0.207 1,0.175 1,-0.417 1,0.64 1,-0.254 1,1.199 1,-1.761 1,0.898 1,-0.512 1,0.157 1,0.019 1,0.156 1,1.282 1,0.129 1,-1.168 1,0.687 1,-1.262 1,0.797 1,-1.101 1,2.047 1,-1.985 1,0.032 1,1.214 1,-0.207 1,-0.765 1,0.222 1,-0.015 1,1.406 1,-1.277 1,-0.704 1,0.735 1,0.527 1,4.86 1,2.476 1,-2.203 1,3.836 1,1.246 1,-4.027 1,-1.856 1,-1.726 1,-2.844 1,-0.129 1,0.926 1,-1.965 1,0.031 1,0.75 1,0.113 1,-0.687 1,0.512 1,0.336 1,-0.879 1,0.254 1,0.64 1,-0.496 1,1.406 1,-0.589 1,-0.93 1,0.433 1,0.43 1,-0.015 1,-0.75 1,0.222 1,1.809 1,0.32 1,-1.23 1,-1.473 1,-0.258 1,-1.117 1,0.047"
           style="fill:none;stroke:#ff00ff;stroke-width:1;stroke-linecap:round;stroke-linejoin:round;stroke-miterlimit:10;stroke-dasharray:none;stroke-opacity:1"
           id="path98" /></g></g><g
       id="g100"><g
         id="g102"
         clip-path="url(#clipPath106)"><path
           d="M 73,141 H 572"
           style="fill:none;stroke:#a000a0;stroke-width:1;stroke-linecap:round;stroke-linejoin:round;stroke-miterlimit:10;stroke-dasharray:none;stroke-opacity:1"
           id="path108" /><path
           d="M 73,141 H 572"
           style="fill:none;stroke:#000000;stroke-width:1;stroke-linecap:round;stroke-linejoin:round;stroke-miterlimit:10;stroke-dasharray:none;stroke-opacity:1"
           id="path110" /></g></g><g
       id="g112"><path
         d="m 100,303 v -2"
         style="fill:none;stroke:#8f8f8f;stroke-width:0.4;stroke-linecap:butt;stroke-linejoin:miter;stroke-miterlimit:10;stroke-dasharray:none;stroke-opacity:0.75"
         id="path114" /><path
         d="m 100,141 v -2"
         style="fill:none;stroke:#8f8f8f;stroke-width:0.4;stroke-linecap:butt;stroke-linejoin:miter;stroke-miterlimit:10;stroke-dasharray:none;stroke-opacity:0.75"
         id="path116" /><path
         d="M 100,140 V 302"
         style="fill:none;stroke:#8f8f8f;stroke-width:0.4;stroke-linecap:butt;stroke-linejoin:miter;stroke-miterlimit:10;stroke-dasharray:1, 1;stroke-dashoffset:0;stroke-opacity:0.75"
         id="path118" /><path
         d="m 128,303 v -2"
         style="fill:none;stroke:#8f8f8f;stroke-width:0.4;stroke-linecap:butt;stroke-linejoin:miter;stroke-miterlimit:10;stroke-dasharray:none;stroke-opacity:0.75"
         id="path120" /><path
         d="m 128,141 v -2"
         style="fill:none;stroke:#8f8f8f;stroke-width:0.4;stroke-linecap:butt;stroke-linejoin:miter;stroke-miterlimit:10;stroke-dasharray:none;stroke-opacity:0.75"
         id="path122" /><path
         d="M 128,140 V 302"
         style="fill:none;stroke:#8f8f8f;stroke-width:0.4;stroke-linecap:butt;stroke-linejoin:miter;stroke-miterlimit:10;stroke-dasharray:1, 1;stroke-dashoffset:0;stroke-opacity:0.75"
         id="path124" /><path
         d="m 156,303 v -2"
         style="fill:none;stroke:#8f8f8f;stroke-width:0.4;stroke-linecap:butt;stroke-linejoin:miter;stroke-miterlimit:10;stroke-dasharray:none;stroke-opacity:0.75"
         id="path126" /><path
         d="m 156,141 v -2"
         style="fill:none;stroke:#8f8f8f;stroke-width:0.4;stroke-linecap:butt;stroke-linejoin:miter;stroke-miterlimit:10;stroke-dasharray:none;stroke-opacity:0.75"
         id="path128" /><path
         d="M 156,140 V 302"
         style="fill:none;stroke:#8f8f8f;stroke-width:0.4;stroke-linecap:butt;stroke-linejoin:miter;stroke-miterlimit:10;stroke-dasharray:1, 1;stroke-dashoffset:0;stroke-opacity:0.75"
         id="path130" /><path
         d="m 211,303 v -2"
         style="fill:none;stroke:#8f8f8f;stroke-width:0.4;stroke-linecap:butt;stroke-linejoin:miter;stroke-miterlimit:10;stroke-dasharray:none;stroke-opacity:0.75"
         id="path132" /><path
         d="m 211,141 v -2"
         style="fill:none;stroke:#8f8f8f;stroke-width:0.4;stroke-linecap:butt;stroke-linejoin:miter;stroke-miterlimit:10;stroke-dasharray:none;stroke-opacity:0.75"
         id="path134" /><path
         d="M 211,140 V 302"
         style="fill:none;stroke:#8f8f8f;stroke-width:0.4;stroke-linecap:butt;stroke-linejoin:miter;stroke-miterlimit:10;stroke-dasharray:1, 1;stroke-dashoffset:0;stroke-opacity:0.75"
         id="path136" /><path
         d="m 239,303 v -2"
         style="fill:none;stroke:#8f8f8f;stroke-width:0.4;stroke-linecap:butt;stroke-linejoin:miter;stroke-miterlimit:10;stroke-dasharray:none;stroke-opacity:0.75"
         id="path138" /><path
         d="m 239,141 v -2"
         style="fill:none;stroke:#8f8f8f;stroke-width:0.4;stroke-linecap:butt;stroke-linejoin:miter;stroke-miterlimit:10;stroke-dasharray:none;stroke-opacity:0.75"
         id="path140" /><path
         d="M 239,140 V 302"
         style="fill:none;stroke:#8f8f8f;stroke-width:0.4;stroke-linecap:butt;stroke-linejoin:miter;stroke-miterlimit:10;stroke-dasharray:1, 1;stroke-dashoffset:0;stroke-opacity:0.75"
         id="path142" /><path
         d="m 267,303 v -2"
         style="fill:none;stroke:#8f8f8f;stroke-width:0.4;stroke-linecap:butt;stroke-linejoin:miter;stroke-miterlimit:10;stroke-dasharray:none;stroke-opacity:0.75"
         id="path144" /><path
         d="m 267,141 v -2"
         style="fill:none;stroke:#8f8f8f;stroke-width:0.4;stroke-linecap:butt;stroke-linejoin:miter;stroke-miterlimit:10;stroke-dasharray:none;stroke-opacity:0.75"
         id="path146" /><path
         d="M 267,140 V 302"
         style="fill:none;stroke:#8f8f8f;stroke-width:0.4;stroke-linecap:butt;stroke-linejoin:miter;stroke-miterlimit:10;stroke-dasharray:1, 1;stroke-dashoffset:0;stroke-opacity:0.75"
         id="path148" /><path
         d="m 323,303 v -2"
         style="fill:none;stroke:#8f8f8f;stroke-width:0.4;stroke-linecap:butt;stroke-linejoin:miter;stroke-miterlimit:10;stroke-dasharray:none;stroke-opacity:0.75"
         id="path150" /><path
         d="m 323,141 v -2"
         style="fill:none;stroke:#8f8f8f;stroke-width:0.4;stroke-linecap:butt;stroke-linejoin:miter;stroke-miterlimit:10;stroke-dasharray:none;stroke-opacity:0.75"
         id="path152" /><path
         d="M 323,140 V 302"
         style="fill:none;stroke:#8f8f8f;stroke-width:0.4;stroke-linecap:butt;stroke-linejoin:miter;stroke-miterlimit:10;stroke-dasharray:1, 1;stroke-dashoffset:0;stroke-opacity:0.75"
         id="path154" /><path
         d="m 350,303 v -2"
         style="fill:none;stroke:#8f8f8f;stroke-width:0.4;stroke-linecap:butt;stroke-linejoin:miter;stroke-miterlimit:10;stroke-dasharray:none;stroke-opacity:0.75"
         id="path156" /><path
         d="m 350,141 v -2"
         style="fill:none;stroke:#8f8f8f;stroke-width:0.4;stroke-linecap:butt;stroke-linejoin:miter;stroke-miterlimit:10;stroke-dasharray:none;stroke-opacity:0.75"
         id="path158" /><path
         d="M 350,140 V 302"
         style="fill:none;stroke:#8f8f8f;stroke-width:0.4;stroke-linecap:butt;stroke-linejoin:miter;stroke-miterlimit:10;stroke-dasharray:1, 1;stroke-dashoffset:0;stroke-opacity:0.75"
         id="path160" /><path
         d="m 378,303 v -2"
         style="fill:none;stroke:#8f8f8f;stroke-width:0.4;stroke-linecap:butt;stroke-linejoin:miter;stroke-miterlimit:10;stroke-dasharray:none;stroke-opacity:0.75"
         id="path162" /><path
         d="m 378,141 v -2"
         style="fill:none;stroke:#8f8f8f;stroke-width:0.4;stroke-linecap:butt;stroke-linejoin:miter;stroke-miterlimit:10;stroke-dasharray:none;stroke-opacity:0.75"
         id="path164" /><path
         d="M 378,140 V 302"
         style="fill:none;stroke:#8f8f8f;stroke-width:0.4;stroke-linecap:butt;stroke-linejoin:miter;stroke-miterlimit:10;stroke-dasharray:1, 1;stroke-dashoffset:0;stroke-opacity:0.75"
         id="path166" /><path
         d="m 434,303 v -2"
         style="fill:none;stroke:#8f8f8f;stroke-width:0.4;stroke-linecap:butt;stroke-linejoin:miter;stroke-miterlimit:10;stroke-dasharray:none;stroke-opacity:0.75"
         id="path168" /><path
         d="m 434,141 v -2"
         style="fill:none;stroke:#8f8f8f;stroke-width:0.4;stroke-linecap:butt;stroke-linejoin:miter;stroke-miterlimit:10;stroke-dasharray:none;stroke-opacity:0.75"
         id="path170" /><path
         d="M 434,140 V 302"
         style="fill:none;stroke:#8f8f8f;stroke-width:0.4;stroke-linecap:butt;stroke-linejoin:miter;stroke-miterlimit:10;stroke-dasharray:1, 1;stroke-dashoffset:0;stroke-opacity:0.75"
         id="path172" /><path
         d="m 461,303 v -2"
         style="fill:none;stroke:#8f8f8f;stroke-width:0.4;stroke-linecap:butt;stroke-linejoin:miter;stroke-miterlimit:10;stroke-dasharray:none;stroke-opacity:0.75"
         id="path174" /><path
         d="m 461,141 v -2"
         style="fill:none;stroke:#8f8f8f;stroke-width:0.4;stroke-linecap:butt;stroke-linejoin:miter;stroke-miterlimit:10;stroke-dasharray:none;stroke-opacity:0.75"
         id="path176" /><path
         d="M 461,140 V 302"
         style="fill:none;stroke:#8f8f8f;stroke-width:0.4;stroke-linecap:butt;stroke-linejoin:miter;stroke-miterlimit:10;stroke-dasharray:1, 1;stroke-dashoffset:0;stroke-opacity:0.75"
         id="path178" /><path
         d="m 489,303 v -2"
         style="fill:none;stroke:#8f8f8f;stroke-width:0.4;stroke-linecap:butt;stroke-linejoin:miter;stroke-miterlimit:10;stroke-dasharray:none;stroke-opacity:0.75"
         id="path180" /><path
         d="m 489,141 v -2"
         style="fill:none;stroke:#8f8f8f;stroke-width:0.4;stroke-linecap:butt;stroke-linejoin:miter;stroke-miterlimit:10;stroke-dasharray:none;stroke-opacity:0.75"
         id="path182" /><path
         d="M 489,140 V 302"
         style="fill:none;stroke:#8f8f8f;stroke-width:0.4;stroke-linecap:butt;stroke-linejoin:miter;stroke-miterlimit:10;stroke-dasharray:1, 1;stroke-dashoffset:0;stroke-opacity:0.75"
         id="path184" /><path
         d="m 545,303 v -2"
         style="fill:none;stroke:#8f8f8f;stroke-width:0.4;stroke-linecap:butt;stroke-linejoin:miter;stroke-miterlimit:10;stroke-dasharray:none;stroke-opacity:0.75"
         id="path186" /><path
         d="m 545,141 v -2"
         style="fill:none;stroke:#8f8f8f;stroke-width:0.4;stroke-linecap:butt;stroke-linejoin:miter;stroke-miterlimit:10;stroke-dasharray:none;stroke-opacity:0.75"
         id="path188" /><path
         d="M 545,140 V 302"
         style="fill:none;stroke:#8f8f8f;stroke-width:0.4;stroke-linecap:butt;stroke-linejoin:miter;stroke-miterlimit:10;stroke-dasharray:1, 1;stroke-dashoffset:0;stroke-opacity:0.75"
         id="path190" /><path
         d="m 73,303 v -2"
         style="fill:none;stroke:#de4f4f;stroke-width:0.6;stroke-linecap:butt;stroke-linejoin:miter;stroke-miterlimit:10;stroke-dasharray:none;stroke-opacity:0.6"
         id="path192" /><path
         d="m 73,141 v -3"
         style="fill:none;stroke:#de4f4f;stroke-width:0.6;stroke-linecap:butt;stroke-linejoin:miter;stroke-miterlimit:10;stroke-dasharray:none;stroke-opacity:0.6"
         id="path194" /><path
         d="M 73,138 V 303"
         style="fill:none;stroke:#de4f4f;stroke-width:0.6;stroke-linecap:butt;stroke-linejoin:miter;stroke-miterlimit:10;stroke-dasharray:1, 1;stroke-dashoffset:0;stroke-opacity:0.6"
         id="path196" /><path
         d="m 184,303 v -2"
         style="fill:none;stroke:#de4f4f;stroke-width:0.6;stroke-linecap:butt;stroke-linejoin:miter;stroke-miterlimit:10;stroke-dasharray:none;stroke-opacity:0.6"
         id="path198" /><path
         d="m 184,141 v -3"
         style="fill:none;stroke:#de4f4f;stroke-width:0.6;stroke-linecap:butt;stroke-linejoin:miter;stroke-miterlimit:10;stroke-dasharray:none;stroke-opacity:0.6"
         id="path200" /><path
         d="M 184,138 V 303"
         style="fill:none;stroke:#de4f4f;stroke-width:0.6;stroke-linecap:butt;stroke-linejoin:miter;stroke-miterlimit:10;stroke-dasharray:1, 1;stroke-dashoffset:0;stroke-opacity:0.6"
         id="path202" /><path
         d="m 295,303 v -2"
         style="fill:none;stroke:#de4f4f;stroke-width:0.6;stroke-linecap:butt;stroke-linejoin:miter;stroke-miterlimit:10;stroke-dasharray:none;stroke-opacity:0.6"
         id="path204" /><path
         d="m 295,141 v -3"
         style="fill:none;stroke:#de4f4f;stroke-width:0.6;stroke-linecap:butt;stroke-linejoin:miter;stroke-miterlimit:10;stroke-dasharray:none;stroke-opacity:0.6"
         id="path206" /><path
         d="M 295,138 V 303"
         style="fill:none;stroke:#de4f4f;stroke-width:0.6;stroke-linecap:butt;stroke-linejoin:miter;stroke-miterlimit:10;stroke-dasharray:1, 1;stroke-dashoffset:0;stroke-opacity:0.6"
         id="path208" /><path
         d="m 406,303 v -2"
         style="fill:none;stroke:#de4f4f;stroke-width:0.6;stroke-linecap:butt;stroke-linejoin:miter;stroke-miterlimit:10;stroke-dasharray:none;stroke-opacity:0.6"
         id="path210" /><path
         d="m 406,141 v -3"
         style="fill:none;stroke:#de4f4f;stroke-width:0.6;stroke-linecap:butt;stroke-linejoin:miter;stroke-miterlimit:10;stroke-dasharray:none;stroke-opacity:0.6"
         id="path212" /><path
         d="M 406,138 V 303"
         style="fill:none;stroke:#de4f4f;stroke-width:0.6;stroke-linecap:butt;stroke-linejoin:miter;stroke-miterlimit:10;stroke-dasharray:1, 1;stroke-dashoffset:0;stroke-opacity:0.6"
         id="path214" /><path
         d="m 517,303 v -2"
         style="fill:none;stroke:#de4f4f;stroke-width:0.6;stroke-linecap:butt;stroke-linejoin:miter;stroke-miterlimit:10;stroke-dasharray:none;stroke-opacity:0.6"
         id="path216" /><path
         d="m 517,141 v -3"
         style="fill:none;stroke:#de4f4f;stroke-width:0.6;stroke-linecap:butt;stroke-linejoin:miter;stroke-miterlimit:10;stroke-dasharray:none;stroke-opacity:0.6"
         id="path218" /><path
         d="M 517,138 V 303"
         style="fill:none;stroke:#de4f4f;stroke-width:0.6;stroke-linecap:butt;stroke-linejoin:miter;stroke-miterlimit:10;stroke-dasharray:1, 1;stroke-dashoffset:0;stroke-opacity:0.6"
         id="path220" /><text
         transform="matrix(1,0,0,-1,56,128)"
         style="font-variant:normal;font-weight:normal;font-size:11.1113px;font-family:'DejaVu Sans Mono';-inkscape-font-specification:DejaVuSansMono;writing-mode:lr-tb;fill:#000000;fill-opacity:1;fill-rule:nonzero;stroke:none"
         id="text226"><tspan
           x="0 7.0001369 14.000274 21.00041 28.000547 111.00217 117.9912 124.99133 131.99147 138.99161 222 229.00014 236.00027 243.00041 250.00055 333.00217 339.99118 346.99133 353.99146 360.99161 444 451.00012 458.00027 465.0004 472.00055"
           y="0"
           id="tspan222">16:0016:2016:4017:0017:20</tspan><tspan
           x="-18.999992 2.0004168"
           y="-8.9999981"
           id="tspan224"> 0</tspan></text><path
         d="m 71,141 h 2"
         style="fill:none;stroke:#de4f4f;stroke-width:0.6;stroke-linecap:butt;stroke-linejoin:miter;stroke-miterlimit:10;stroke-dasharray:none;stroke-opacity:0.6"
         id="path228" /><path
         d="m 573,141 h 2"
         style="fill:none;stroke:#de4f4f;stroke-width:0.6;stroke-linecap:butt;stroke-linejoin:miter;stroke-miterlimit:10;stroke-dasharray:none;stroke-opacity:0.6"
         id="path230" /><path
         d="M 71,141 H 575"
         style="fill:none;stroke:#de4f4f;stroke-width:0.6;stroke-linecap:butt;stroke-linejoin:miter;stroke-miterlimit:10;stroke-dasharray:1, 1;stroke-dashoffset:0;stroke-opacity:0.6"
         id="path232" /><path
         d="m 71,156.988 h 2"
         style="fill:none;stroke:#8f8f8f;stroke-width:0.4;stroke-linecap:butt;stroke-linejoin:miter;stroke-miterlimit:10;stroke-dasharray:none;stroke-opacity:0.75"
         id="path234" /><path
         d="m 573,156.988 h 2"
         style="fill:none;stroke:#8f8f8f;stroke-width:0.4;stroke-linecap:butt;stroke-linejoin:miter;stroke-miterlimit:10;stroke-dasharray:none;stroke-opacity:0.75"
         id="path236" /><path
         d="M 72,156.988 H 574"
         style="fill:none;stroke:#8f8f8f;stroke-width:0.4;stroke-linecap:butt;stroke-linejoin:miter;stroke-miterlimit:10;stroke-dasharray:1, 1;stroke-dashoffset:0;stroke-opacity:0.75"
         id="path238" /><text
         transform="matrix(1,0,0,-1,51.000273,168.97266)"
         style="font-variant:normal;font-weight:normal;font-size:11.1113px;font-family:'DejaVu Sans Mono';-inkscape-font-specification:DejaVuSansMono;writing-mode:lr-tb;fill:#000000;fill-opacity:1;fill-rule:nonzero;stroke:none"
         id="text242"><tspan
           x="0 7.0001369"
           y="0"
           id="tspan240">20</tspan></text><path
         d="m 71,172.973 h 2"
         style="fill:none;stroke:#de4f4f;stroke-width:0.6;stroke-linecap:butt;stroke-linejoin:miter;stroke-miterlimit:10;stroke-dasharray:none;stroke-opacity:0.6"
         id="path244" /><path
         d="m 573,172.973 h 2"
         style="fill:none;stroke:#de4f4f;stroke-width:0.6;stroke-linecap:butt;stroke-linejoin:miter;stroke-miterlimit:10;stroke-dasharray:none;stroke-opacity:0.6"
         id="path246" /><path
         d="M 71,172.973 H 575"
         style="fill:none;stroke:#de4f4f;stroke-width:0.6;stroke-linecap:butt;stroke-linejoin:miter;stroke-miterlimit:10;stroke-dasharray:1, 1;stroke-dashoffset:0;stroke-opacity:0.6"
         id="path248" /><path
         d="m 71,188.961 h 2"
         style="fill:none;stroke:#8f8f8f;stroke-width:0.4;stroke-linecap:butt;stroke-linejoin:miter;stroke-miterlimit:10;stroke-dasharray:none;stroke-opacity:0.75"
         id="path250" /><path
         d="m 573,188.961 h 2"
         style="fill:none;stroke:#8f8f8f;stroke-width:0.4;stroke-linecap:butt;stroke-linejoin:miter;stroke-miterlimit:10;stroke-dasharray:none;stroke-opacity:0.75"
         id="path252" /><path
         d="M 72,188.961 H 574"
         style="fill:none;stroke:#8f8f8f;stroke-width:0.4;stroke-linecap:butt;stroke-linejoin:miter;stroke-miterlimit:10;stroke-dasharray:1, 1;stroke-dashoffset:0;stroke-opacity:0.75"
         id="path254" /><text
         transform="matrix(1,0,0,-1,51.000273,200.94922)"
         style="font-variant:normal;font-weight:normal;font-size:11.1113px;font-family:'DejaVu Sans Mono';-inkscape-font-specification:DejaVuSansMono;writing-mode:lr-tb;fill:#000000;fill-opacity:1;fill-rule:nonzero;stroke:none"
         id="text258"><tspan
           x="0 7.0001369"
           y="0"
           id="tspan256">40</tspan></text><path
         d="m 71,204.949 h 2"
         style="fill:none;stroke:#de4f4f;stroke-width:0.6;stroke-linecap:butt;stroke-linejoin:miter;stroke-miterlimit:10;stroke-dasharray:none;stroke-opacity:0.6"
         id="path260" /><path
         d="m 573,204.949 h 2"
         style="fill:none;stroke:#de4f4f;stroke-width:0.6;stroke-linecap:butt;stroke-linejoin:miter;stroke-miterlimit:10;stroke-dasharray:none;stroke-opacity:0.6"
         id="path262" /><path
         d="M 71,204.949 H 575"
         style="fill:none;stroke:#de4f4f;stroke-width:0.6;stroke-linecap:butt;stroke-linejoin:miter;stroke-miterlimit:10;stroke-dasharray:1, 1;stroke-dashoffset:0;stroke-opacity:0.6"
         id="path264" /><path
         d="m 71,220.938 h 2"
         style="fill:none;stroke:#8f8f8f;stroke-width:0.4;stroke-linecap:butt;stroke-linejoin:miter;stroke-miterlimit:10;stroke-dasharray:none;stroke-opacity:0.75"
         id="path266" /><path
         d="m 573,220.938 h 2"
         style="fill:none;stroke:#8f8f8f;stroke-width:0.4;stroke-linecap:butt;stroke-linejoin:miter;stroke-miterlimit:10;stroke-dasharray:none;stroke-opacity:0.75"
         id="path268" /><path
         d="M 72,220.938 H 574"
         style="fill:none;stroke:#8f8f8f;stroke-width:0.4;stroke-linecap:butt;stroke-linejoin:miter;stroke-miterlimit:10;stroke-dasharray:1, 1;stroke-dashoffset:0;stroke-opacity:0.75"
         id="path270" /><text
         transform="matrix(1,0,0,-1,51.000273,232.92187)"
         style="font-variant:normal;font-weight:normal;font-size:11.1113px;font-family:'DejaVu Sans Mono';-inkscape-font-specification:DejaVuSansMono;writing-mode:lr-tb;fill:#000000;fill-opacity:1;fill-rule:nonzero;stroke:none"
         id="text274"><tspan
           x="0 7.0001369"
           y="0"
           id="tspan272">60</tspan></text><path
         d="m 71,236.922 h 2"
         style="fill:none;stroke:#de4f4f;stroke-width:0.6;stroke-linecap:butt;stroke-linejoin:miter;stroke-miterlimit:10;stroke-dasharray:none;stroke-opacity:0.6"
         id="path276" /><path
         d="m 573,236.922 h 2"
         style="fill:none;stroke:#de4f4f;stroke-width:0.6;stroke-linecap:butt;stroke-linejoin:miter;stroke-miterlimit:10;stroke-dasharray:none;stroke-opacity:0.6"
         id="path278" /><path
         d="M 71,236.922 H 575"
         style="fill:none;stroke:#de4f4f;stroke-width:0.6;stroke-linecap:butt;stroke-linejoin:miter;stroke-miterlimit:10;stroke-dasharray:1, 1;stroke-dashoffset:0;stroke-opacity:0.6"
         id="path280" /><path
         d="m 71,252.91 h 2"
         style="fill:none;stroke:#8f8f8f;stroke-width:0.4;stroke-linecap:butt;stroke-linejoin:miter;stroke-miterlimit:10;stroke-dasharray:none;stroke-opacity:0.75"
         id="path282" /><path
         d="m 573,252.91 h 2"
         style="fill:none;stroke:#8f8f8f;stroke-width:0.4;stroke-linecap:butt;stroke-linejoin:miter;stroke-miterlimit:10;stroke-dasharray:none;stroke-opacity:0.75"
         id="path284" /><path
         d="M 72,252.91 H 574"
         style="fill:none;stroke:#8f8f8f;stroke-width:0.4;stroke-linecap:butt;stroke-linejoin:miter;stroke-miterlimit:10;stroke-dasharray:1, 1;stroke-dashoffset:0;stroke-opacity:0.75"
         id="path286" /><text
         transform="matrix(1,0,0,-1,51.000273,264.89844)"
         style="font-variant:normal;font-weight:normal;font-size:11.1113px;font-family:'DejaVu Sans Mono';-inkscape-font-specification:DejaVuSansMono;writing-mode:lr-tb;fill:#000000;fill-opacity:1;fill-rule:nonzero;stroke:none"
         id="text290"><tspan
           x="0 7.0001369"
           y="0"
           id="tspan288">80</tspan></text><path
         d="m 71,268.898 h 2"
         style="fill:none;stroke:#de4f4f;stroke-width:0.6;stroke-linecap:butt;stroke-linejoin:miter;stroke-miterlimit:10;stroke-dasharray:none;stroke-opacity:0.6"
         id="path292" /><path
         d="m 573,268.898 h 2"
         style="fill:none;stroke:#de4f4f;stroke-width:0.6;stroke-linecap:butt;stroke-linejoin:miter;stroke-miterlimit:10;stroke-dasharray:none;stroke-opacity:0.6"
         id="path294" /><path
         d="M 71,268.898 H 575"
         style="fill:none;stroke:#de4f4f;stroke-width:0.6;stroke-linecap:butt;stroke-linejoin:miter;stroke-miterlimit:10;stroke-dasharray:1, 1;stroke-dashoffset:0;stroke-opacity:0.6"
         id="path296" /><path
         d="m 71,284.887 h 2"
         style="fill:none;stroke:#8f8f8f;stroke-width:0.4;stroke-linecap:butt;stroke-linejoin:miter;stroke-miterlimit:10;stroke-dasharray:none;stroke-opacity:0.75"
         id="path298" /><path
         d="m 573,284.887 h 2"
         style="fill:none;stroke:#8f8f8f;stroke-width:0.4;stroke-linecap:butt;stroke-linejoin:miter;stroke-miterlimit:10;stroke-dasharray:none;stroke-opacity:0.75"
         id="path300" /><path
         d="M 72,284.887 H 574"
         style="fill:none;stroke:#8f8f8f;stroke-width:0.4;stroke-linecap:butt;stroke-linejoin:miter;stroke-miterlimit:10;stroke-dasharray:1, 1;stroke-dashoffset:0;stroke-opacity:0.75"
         id="path302" /><text
         transform="matrix(1,0,0,-1,44.000137,296.87109)"
         style="font-variant:normal;font-weight:normal;font-size:11.1113px;font-family:'DejaVu Sans Mono';-inkscape-font-specification:DejaVuSansMono;writing-mode:lr-tb;fill:#000000;fill-opacity:1;fill-rule:nonzero;stroke:none"
         id="text306"><tspan
           x="0 7.0001369 14.000274"
           y="0"
           id="tspan304">100</tspan></text><path
         d="m 71,300.871 h 2"
         style="fill:none;stroke:#de4f4f;stroke-width:0.6;stroke-linecap:butt;stroke-linejoin:miter;stroke-miterlimit:10;stroke-dasharray:none;stroke-opacity:0.6"
         id="path308" /><path
         d="m 573,300.871 h 2"
         style="fill:none;stroke:#de4f4f;stroke-width:0.6;stroke-linecap:butt;stroke-linejoin:miter;stroke-miterlimit:10;stroke-dasharray:none;stroke-opacity:0.6"
         id="path310" /><path
         d="M 71,300.871 H 575"
         style="fill:none;stroke:#de4f4f;stroke-width:0.6;stroke-linecap:butt;stroke-linejoin:miter;stroke-miterlimit:10;stroke-dasharray:1, 1;stroke-dashoffset:0;stroke-opacity:0.6"
         id="path312" /><text
         transform="matrix(0,1,1,0,14,197)"
         style="font-variant:normal;font-weight:normal;font-size:11.1113px;font-family:'DejaVu Sans Mono';-inkscape-font-specification:DejaVuSansMono;writing-mode:lr-tb;fill:#000000;fill-opacity:1;fill-rule:nonzero;stroke:none"
         id="text316"><tspan
           x="0 7.0001369 14.000274 21.00041 28.000547 35.000683 42.00082"
           y="0"
           id="tspan314">Percent</tspan></text><text
         transform="matrix(1,0,0,-1,245,318)"
         style="font-variant:normal;font-weight:normal;font-size:13.8887px;font-family:'DejaVu Sans Mono';-inkscape-font-specification:DejaVuSansMono;writing-mode:lr-tb;fill:#000000;fill-opacity:1;fill-rule:nonzero;stroke:none"
         id="text320"><tspan
           x="0 7.9998751 15.99975 23.999626 31.9995 39.999374 47.999252 55.999126 63.999001 71.998878 79.998749 87.998627 95.984612 103.98449"
           y="0"
           id="tspan318">sepp/cpu-0/cpu</tspan></text><text
         transform="matrix(0,-1,-1,0,592,332)"
         style="font-variant:normal;font-weight:normal;font-size:7.63867px;font-family:'DejaVu Sans Mono';-inkscape-font-specification:DejaVuSansMono;writing-mode:lr-tb;fill:#000000;fill-opacity:0.3;fill-rule:nonzero;stroke:none"
         id="text324"><tspan
           x="0 5.0033302 9.9990215 15.002352 19.998043 25.001373 29.997065 35.000397 39.996086 44.999416 49.99511 54.99844 59.994129 64.997459 69.993149 74.996483 79.992172 84.995506 89.991196 94.994522 99.990219 104.99355"
           y="0"
           id="tspan322">RRDTOOL / TOBI OETIKER</tspan></text><text
         transform="matrix(1,0,0,-1,30.000273,108)"
         style="font-variant:normal;font-weight:normal;font-size:11.1113px;font-family:'DejaVu Sans Mono';-inkscape-font-specification:DejaVuSansMono;writing-mode:lr-tb;fill:#000000;fill-opacity:1;fill-rule:nonzero;stroke:none"
         id="text328"><tspan
           x="0 7.0001369 14.000274 21.00041 28.000547"
           y="0"
           id="tspan326">idle </tspan></text><path
         d="m 16,116.762 h 8.398 V 108.36 H 16 Z"
         style="fill:#ffffff;fill-opacity:1;fill-rule:nonzero;stroke:none"
         id="path330" /><path
         d="m 16,116.762 h 8.398 V 108.36 H 16 Z"
         style="fill:none;stroke:#000000;stroke-width:1;stroke-linecap:butt;stroke-linejoin:miter;stroke-miterlimit:10;stroke-dasharray:none;stroke-opacity:1"
         id="path332" /><text
         transform="matrix(1,0,0,-1,130.00041,108)"
         style="font-variant:normal;font-weight:normal;font-size:11.1113px;font-family:'DejaVu Sans Mono';-inkscape-font-specification:DejaVuSansMono;writing-mode:lr-tb;fill:#000000;fill-opacity:1;fill-rule:nonzero;stroke:none"
         id="text338"><tspan
           x="0 7.0001369 14.000274 21.00041 28.000547 34.989571 41.989708 48.989845 71.990295 85.99057 92.990707 99.990837 106.99097 113.99111 120.99125 127.99139 134.99153 141.99165 164.99211 178.98128 185.98141 192.98155 199.98167 206.98181 213.98195 220.98209 227.98222 234.98236 257.98282 271.98309 278.98322 285.98337 292.98349 299.97253 306.97266 313.97281 320.97293 327.97308"
           y="0"
           id="tspan334">1.3 Min, 81.5 Avg, 96.1 Max, 91.6 Last</tspan><tspan
           x="-114.00041 -100.00014 -93.000008 -85.99987 -78.999733 -71.999596"
           y="13.999995"
           id="tspan336"> nice </tspan></text><path
         d="m 16,102.762 h 8.398 V 94.36 H 16 Z"
         style="fill:#00e000;fill-opacity:1;fill-rule:nonzero;stroke:none"
         id="path340" /><path
         d="m 16,102.762 h 8.398 V 94.36 H 16 Z"
         style="fill:none;stroke:#000000;stroke-width:1;stroke-linecap:butt;stroke-linejoin:miter;stroke-miterlimit:10;stroke-dasharray:none;stroke-opacity:1"
         id="path342" /><text
         transform="matrix(1,0,0,-1,130.00041,94)"
         style="font-variant:normal;font-weight:normal;font-size:11.1113px;font-family:'DejaVu Sans Mono';-inkscape-font-specification:DejaVuSansMono;writing-mode:lr-tb;fill:#000000;fill-opacity:1;fill-rule:nonzero;stroke:none"
         id="text348"><tspan
           x="0 7.0001369 14.000274 21.00041 28.000547 34.989571 41.989708 48.989845 71.990295 92.990707 99.990837 106.99097 113.99111 120.99125 127.99139 134.99153 141.99165 164.99211 185.98141 192.98155 199.98167 206.98181 213.98195 220.98209 227.98222 234.98236 257.98282 278.98322 285.98337 292.98349 299.97253 306.97266 313.97281 320.97293 327.97308"
           y="0"
           id="tspan344">0.0 Min, 0.0 Avg, 0.0 Max, 0.0 Last</tspan><tspan
           x="-114.00041 -100.00014 -93.000008 -85.99987 -78.999733 -71.999596"
           y="13.999995"
           id="tspan346"> user </tspan></text><path
         d="m 16,88.762 h 8.398 V 80.36 H 16 Z"
         style="fill:#0000ff;fill-opacity:1;fill-rule:nonzero;stroke:none"
         id="path350" /><path
         d="m 16,88.762 h 8.398 V 80.36 H 16 Z"
         style="fill:none;stroke:#000000;stroke-width:1;stroke-linecap:butt;stroke-linejoin:miter;stroke-miterlimit:10;stroke-dasharray:none;stroke-opacity:1"
         id="path352" /><text
         transform="matrix(1,0,0,-1,130.00041,80)"
         style="font-variant:normal;font-weight:normal;font-size:11.1113px;font-family:'DejaVu Sans Mono';-inkscape-font-specification:DejaVuSansMono;writing-mode:lr-tb;fill:#000000;fill-opacity:1;fill-rule:nonzero;stroke:none"
         id="text358"><tspan
           x="0 7.0001369 14.000274 21.00041 28.000547 34.989571 41.989708 48.989845 71.990295 92.990707 99.990837 106.99097 113.99111 120.99125 127.99139 134.99153 141.99165 164.99211 178.98128 185.98141 192.98155 199.98167 206.98181 213.98195 220.98209 227.98222 234.98236 257.98282 278.98322 285.98337 292.98349 299.97253 306.97266 313.97281 320.97293 327.97308"
           y="0"
           id="tspan354">0.6 Min, 6.5 Avg, 81.9 Max, 1.9 Last</tspan><tspan
           x="-114.00041 -100.00014 -93.000008 -85.99987 -78.999733 -71.999596"
           y="13.999995"
           id="tspan356"> wait </tspan></text><path
         d="m 16,74.762 h 8.398 V 66.36 H 16 Z"
         style="fill:#ffb000;fill-opacity:1;fill-rule:nonzero;stroke:none"
         id="path360" /><path
         d="m 16,74.762 h 8.398 V 66.36 H 16 Z"
         style="fill:none;stroke:#000000;stroke-width:1;stroke-linecap:butt;stroke-linejoin:miter;stroke-miterlimit:10;stroke-dasharray:none;stroke-opacity:1"
         id="path362" /><text
         transform="matrix(1,0,0,-1,130.00041,66)"
         style="font-variant:normal;font-weight:normal;font-size:11.1113px;font-family:'DejaVu Sans Mono';-inkscape-font-specification:DejaVuSansMono;writing-mode:lr-tb;fill:#000000;fill-opacity:1;fill-rule:nonzero;stroke:none"
         id="text368"><tspan
           x="0 7.0001369 14.000274 21.00041 28.000547 34.989571 41.989708 48.989845 71.990295 92.990707 99.990837 106.99097 113.99111 120.99125 127.99139 134.99153 141.99165 164.99211 178.98128 185.98141 192.98155 199.98167 206.98181 213.98195 220.98209 227.98222 234.98236 257.98282 278.98322 285.98337 292.98349 299.97253 306.97266 313.97281 320.97293 327.97308"
           y="0"
           id="tspan364">0.0 Min, 2.4 Avg, 48.9 Max, 0.0 Last</tspan><tspan
           x="-114.00041 -100.00014 -93.000008 -85.99987 -78.999733 -71.999596 -64.999458 -58.010433"
           y="13.999995"
           id="tspan366"> system </tspan></text><path
         d="m 16,60.762 h 8.398 V 52.36 H 16 Z"
         style="fill:#ff0000;fill-opacity:1;fill-rule:nonzero;stroke:none"
         id="path370" /><path
         d="m 16,60.762 h 8.398 V 52.36 H 16 Z"
         style="fill:none;stroke:#000000;stroke-width:1;stroke-linecap:butt;stroke-linejoin:miter;stroke-miterlimit:10;stroke-dasharray:none;stroke-opacity:1"
         id="path372" /><text
         transform="matrix(1,0,0,-1,130.00041,52)"
         style="font-variant:normal;font-weight:normal;font-size:11.1113px;font-family:'DejaVu Sans Mono';-inkscape-font-specification:DejaVuSansMono;writing-mode:lr-tb;fill:#000000;fill-opacity:1;fill-rule:nonzero;stroke:none"
         id="text378"><tspan
           x="0 7.0001369 14.000274 21.00041 28.000547 34.989571 41.989708 48.989845 71.990295 92.990707 99.990837 106.99097 113.99111 120.99125 127.99139 134.99153 141.99165 164.99211 178.98128 185.98141 192.98155 199.98167 206.98181 213.98195 220.98209 227.98222 234.98236 257.98282 278.98322 285.98337 292.98349 299.97253 306.97266 313.97281 320.97293 327.97308"
           y="0"
           id="tspan374">2.6 Min, 8.2 Avg, 27.5 Max, 6.0 Last</tspan><tspan
           x="-114.00041 -100.00014 -93.000008 -85.99987 -78.999733 -71.999596 -64.999458 -58.010433 -51.010296"
           y="13.999995"
           id="tspan376"> softirq </tspan></text><path
         d="m 16,46.762 h 8.398 V 38.36 H 16 Z"
         style="fill:#ff00ff;fill-opacity:1;fill-rule:nonzero;stroke:none"
         id="path380" /><path
         d="m 16,46.762 h 8.398 V 38.36 H 16 Z"
         style="fill:none;stroke:#000000;stroke-width:1;stroke-linecap:butt;stroke-linejoin:miter;stroke-miterlimit:10;stroke-dasharray:none;stroke-opacity:1"
         id="path382" /><text
         transform="matrix(1,0,0,-1,130.00041,38)"
         style="font-variant:normal;font-weight:normal;font-size:11.1113px;font-family:'DejaVu Sans Mono';-inkscape-font-specification:DejaVuSansMono;writing-mode:lr-tb;fill:#000000;fill-opacity:1;fill-rule:nonzero;stroke:none"
         id="text388"><tspan
           x="0 7.0001369 14.000274 21.00041 28.000547 34.989571 41.989708 48.989845 71.990295 92.990707 99.990837 106.99097 113.99111 120.99125 127.99139 134.99153 141.99165 164.99211 178.98128 185.98141 192.98155 199.98167 206.98181 213.98195 220.98209 227.98222 234.98236 257.98282 278.98322 285.98337 292.98349 299.97253 306.97266 313.97281 320.97293 327.97308"
           y="0"
           id="tspan384">0.0 Min, 1.3 Avg, 10.0 Max, 0.5 Last</tspan><tspan
           x="-114.00041 -100.00014 -93.000008 -85.99987 -78.999733 -71.999596 -64.999458 -58.010433 -51.010296 -44.010159"
           y="13.999995"
           id="tspan386"> interrupt</tspan></text><path
         d="m 16,32.762 h 8.398 V 24.36 H 16 Z"
         style="fill:#a000a0;fill-opacity:1;fill-rule:nonzero;stroke:none"
         id="path390" /><path
         d="m 16,32.762 h 8.398 V 24.36 H 16 Z"
         style="fill:none;stroke:#000000;stroke-width:1;stroke-linecap:butt;stroke-linejoin:miter;stroke-miterlimit:10;stroke-dasharray:none;stroke-opacity:1"
         id="path392" /><text
         transform="matrix(1,0,0,-1,130.00041,24)"
         style="font-variant:normal;font-weight:normal;font-size:11.1113px;font-family:'DejaVu Sans Mono';-inkscape-font-specification:DejaVuSansMono;writing-mode:lr-tb;fill:#000000;fill-opacity:1;fill-rule:nonzero;stroke:none"
         id="text398"><tspan
           x="0 7.0001369 14.000274 21.00041 28.000547 34.989571 41.989708 48.989845 71.990295 92.990707 99.990837 106.99097 113.99111 120.99125 127.99139 134.99153 141.99165 164.99211 185.98141 192.98155 199.98167 206.98181 213.98195 220.98209 227.98222 234.98236 257.98282 278.98322 285.98337 292.98349 299.97253 306.97266 313.97281 320.97293 327.97308"
           y="0"
           id="tspan394">0.0 Min, 0.0 Avg, 0.0 Max, 0.0 Last</tspan><tspan
           x="-114.00041 -100.00014 -93.000008 -85.99987 -78.999733 -71.999596 -64.999458"
           y="13.999995"
           id="tspan396"> steal </tspan></text><path
         d="m 16,18.762 h 8.398 V 10.36 H 16 Z"
         style="fill:#000000;fill-opacity:1;fill-rule:nonzero;stroke:none"
         id="path400" /><path
         d="m 16,18.762 h 8.398 V 10.36 H 16 Z"
         style="fill:none;stroke:#000000;stroke-width:1;stroke-linecap:butt;stroke-linejoin:miter;stroke-miterlimit:10;stroke-dasharray:none;stroke-opacity:1"
         id="path402" /><text
         transform="matrix(1,0,0,-1,130.00041,10)"
         style="font-variant:normal;font-weight:normal;font-size:11.1113px;font-family:'DejaVu Sans Mono';-inkscape-font-specification:DejaVuSansMono;writing-mode:lr-tb;fill:#000000;fill-opacity:1;fill-rule:nonzero;stroke:none"
         id="text406"><tspan
           x="0 7.0001369 14.000274 21.00041 28.000547 34.989571 41.989708 48.989845 71.990295 92.990707 99.990837 106.99097 113.99111 120.99125 127.99139 134.99153 141.99165 164.99211 185.98141 192.98155 199.98167 206.98181 213.98195 220.98209 227.98222 234.98236 257.98282 278.98322 285.98337 292.98349 299.97253 306.97266 313.97281 320.97293 327.97308"
           y="0"
           id="tspan404">0.0 Min, 0.0 Avg, 0.0 Max, 0.0 Last</tspan></text><path
         d="M 69,141 H 577"
         style="fill:none;stroke:#1f1f1f;stroke-width:0.6;stroke-linecap:butt;stroke-linejoin:miter;stroke-miterlimit:10;stroke-dasharray:none;stroke-opacity:1"
         id="path408" /><path
         d="M 73,137 V 305"
         style="fill:none;stroke:#1f1f1f;stroke-width:0.6;stroke-linecap:butt;stroke-linejoin:miter;stroke-miterlimit:10;stroke-dasharray:none;stroke-opacity:1"
         id="path410" /><path
         d="m 575,144 v -6 l 5,3 z"
         style="fill:#801f1f;fill-opacity:1;fill-rule:nonzero;stroke:none"
         id="path412" /><path
         d="m 70,303 h 6 l -3,5 z"
         style="fill:#801f1f;fill-opacity:1;fill-rule:nonzero;stroke:none"
         id="path414" /></g></g></svg>
