<?xml version="1.0" encoding="UTF-8" standalone="no"?>
<svg
   xmlns:dc="http://purl.org/dc/elements/1.1/"
   xmlns:cc="http://creativecommons.org/ns#"
   xmlns:rdf="http://www.w3.org/1999/02/22-rdf-syntax-ns#"
   xmlns:svg="http://www.w3.org/2000/svg"
   xmlns="http://www.w3.org/2000/svg"
   version="1.1"
   id="svg416"
   xml:space="preserve"
   width="804"
   height="449.33334"
   viewBox="0 0 804 449.33334"><metadata
     id="metadata422"><rdf:RDF><cc:Work
         rdf:about=""><dc:format>image/svg+xml</dc:format><dc:type
           rdf:resource="http://purl.org/dc/dcmitype/StillImage" /><dc:title></dc:title></cc:Work></rdf:RDF></metadata><defs
     id="defs420"><clipPath
       clipPathUnits="userSpaceOnUse"
       id="clipPath440"><path
         d="M 73,302 H 573 V 140 H 73 Z"
         id="path438" /></clipPath><clipPath
       clipPathUnits="userSpaceOnUse"
       id="clipPath454"><path
         d="M 73,300 H 573 V 140 H 73 Z"
         id="path452" /></clipPath><clipPath
       clipPathUnits="userSpaceOnUse"
       id="clipPath474"><path
         d="M 73,230 H 573 V 140 H 73 Z"
         id="path472" /></clipPath><clipPath
       clipPathUnits="userSpaceOnUse"
       id="clipPath488"><path
         d="M 73,188 H 573 V 140 H 73 Z"
         id="path486" /></clipPath><clipPath
       clipPathUnits="userSpaceOnUse"
       id="clipPath522"><path
         d="m 73,143 h 500 v -3 H 73 Z"
         id="path520" /></clipPath><clipPath
       clipPathUnits="userSpaceOnUse"
       id="clipPath532"><path
         d="m 73,142 h 500 v -2 H 73 Z"
         id="path530" /></clipPath></defs><g
     id="g424"
     transform="matrix(1.3333333,0,0,-1.3333333,0,449.33333)"><g
       id="g426"><path
         d="M 73,301 H 573 V 141 H 73 Z"
         style="fill:#ffffff;fill-opacity:1;fill-rule:nonzero;stroke:none"
         id="path428" /><path
         d="M 73,300.859 H 465 V 140.8 H 73 Z"
         style="fill:#ffffff;fill-opacity:1;fill-rule:nonzero;stroke:none"
         id="path430" /><path
         d="M 469,300.859 V 140.801 h 103 v 160.058 h -29 l -1,0.059 -1,-0.453 -1,0.734 -1,-0.34 z"
         style="fill:#ffffff;fill-opacity:1;fill-rule:nonzero;stroke:none"
         id="path432" /></g><g
       id="g434"><g
         id="g436"
         clip-path="url(#clipPath440)"><path
           d="M 73,300.66 H 465 L 466,141 h 2 l 1,159.66 h 70 l 1,0.34 1,-0.734 1,0.449 1,-0.055 h 29"
           style="fill:none;stroke:#ffffff;stroke-width:1;stroke-linecap:round;stroke-linejoin:round;stroke-miterlimit:10;stroke-dasharray:none;stroke-opacity:1"
           id="path442" /><path
           d="m 73,146.949 v -6.148 h 392 v 22.367 l -1,2.363 -1,13.414 -1,-27.941 -1,8.558 -1,20.723 -1,-22.16 -1,6.703 -1,7.219 -1,16.508 -1,-30.43 -1,-4.98 -1,3.957 -1,4.343 -1,2.395 -1,-1.567 -1,12.106 -1,20.594 -1,-31.868 -1,23.309 -1,-29.984 -1,7.664 -1,-6.578 -1,7.156 -1,-5.621 -1,1.722 -1,12.454 -1,-11.719 -1,8.847 -1,55.02 -1,23.371 -1,-13.121 -1,-7.504 -1,29.504 -1,26.758 -1,-7.758 -1,-29.824 -1,-54.735 -1,-26.66 -1,-4.726 -1,-4.985 -1,5.688 -1,16.793 -1,-18.742 -1,8.75 -1,21.777 -1,-30.688 -1,0.223 -1,4.949 -1,-1.754 -1,2.266 -1,0.512 -1,-7.121 -1,2.011 -1,4.184 -1,-4.215 -1,4.949 -1,0.606 -1,1.949 -1,-4.375 -1,-3.035 -1,-0.766 -1,22.196 -1,7.628 -1,-21.714 -1,6.484 -1,18.711 -1,-1.211 -1,-0.609 -1,0.769 -1,-5.59 -1,3.321 -1,-3.766 -1,2.551 -1,11.242 -1,3.227 -1,51.503 -1,16.063 -1,-34.359 -1,-28.45 -1,-41.929 -1,-6.641 -1,-4.406 -1,2.808 -1,0.864 -1,3.832 -1,1.179 -1,-1.086 -1,0.067 -1,-4.856 -1,-0.125 -1,3.895 -1,13.125 -1,-11.879 -1,5.363 -1,-1.215 -1,-6.48 -1,-6.324 -1,1.535 -1,12.422 -1,29.566 -1,-30.59 -1,1.407 -1,-8.176 -1,-0.414 -1,42.66 -1,15.68 -1,15.711 -1,-7.665 -1,16.446 -1,27.172 -1,5.781 -1,-29.856 -1,-70.761 -1,-8.782 -1,20.051 -1,-32.187 -1,7.25 -1,-0.703 -1,2.714 -1,2.969 -1,16.543 -1,-19.543 -1,5.844 -1,8.207 -1,-19.352 -1,0.829 -1,-2.747 -1,8.016 -1,11.75 -1,-17.113 -1,3.961 -1,23.117 -1,-28.133 -1,-0.351 -1,6.515 -1,22.449 -1,-28.996 -1,-0.445 -1,12.324 -1,28.547 -1,-45.566 -1,5.043 -1,0.511 -1,-1.722 -1,3.957 -1,-7.375 -1,2.844 -1,5.746 -1,-4.438 -1,-0.031 -1,4.183 -1,-5.046 -1,1.277 -1,2.266 -1,-3.223 -1,1.051 -1,2.109 -1,-3.387 -1,9.645 -1,-9.356 -1,1.118 -1,2.425 -1,-2.168 -1,2.871 -1,10.54 -1,-13.829 -1,-5.554 -1,14.465 -1,-9.961 -1,2.328 -1,7.152 -1,-8.781 -1,-0.895 -1,-1.5 -1,9.899 -1,22.547 -1,-32.762 -1,4.531 -1,6.227 -1,-4.246 -1,-2.332 -1,0.32 -1,8.496 -1,-7.121 -1,-4.406 -1,2.265 -1,-0.574 -1,-1.598 -1,1.34 -1,1.344 -1,-3.547 -1,1.277 -1,33.754 -1,-38.574 -1,4.856 -1,20.117 -1,56.773 -1,-18.777 -1,-22.414 -1,13.984 -1,49.176 -1,7.312 -1,-8.683 -1,-17.789 -1,-86.856 -1,4.442 -1,11.109 -1,-14.015 -1,0.511 -1,-1.312 -1,4.375 -1,-2.328 -1,1.242 -1,2.683 -1,-3.32 -1,-1.566 -1,-2.235 -1,-1.66 -1,0.863 -1,3.512 -1,4.086 -1,4.441 -1,-10.441 -1,1.211 -1,0.129 -1,7.121 -1,-2.684 -1,-2.332 -1,-1.339 -1,-1.055 -1,7.312 -1,-5.109 -1,-2.395 -1,1.309 -1,2.301 -1,0.062 -1,5.653 -1,-3.032 -1,-0.769 -1,-0.445 -1,2.171 -1,-8.652 -1,8.203 -1,22.321 -1,-27.235 -1,1.883 -1,5.301 -1,-10.891 -1,0.289 -1,0.672 -1,4.149 -1,0.031 -1,0.926 -1,-0.668 -1,-0.735 -1,4.598 -1,-6.516 -1,1.981 -1,5.398 -1,-2.203 -1,-1.535 -1,-1.277 -1,0.8 -1,-1.246 -1,-2.109 -1,4.09 -1,21.265 -1,-23.086 -1,6.45 -1,19.703 -1,-27.336 -1,-1.692 -1,7.887 -1,0.641 -1,-3.578 -1,-1.469 -1,1.308 -1,-2.105 -1,5.937 -1,-7.503 -1,-1.055 -1,0.383 -1,-4.149 -1,6.352 -1,33.34 -1,24.203 -1,-14.242 -1,2.746 -1,18.968 -1,0.606 -1,56.68 -1,-0.032 -1,-121.343 -1,-3.481 -1,-0.508 -1,12.164 -1,-11.464 -1,-2.618 -1,2.618 -1,-2.426 -1,1.758 -1,1.054 -1,1.785 -1,6.77 -1,130.988 -1,7.824 -1,-1.277 -1,2.52 -1,-0.477 -1,-1.246 -1,-2.461 -1,-18.457 -1,-26.152 -1,-3.575 -1,17.211 -1,1.438 -1,-9.293 -1,38.32 -1,-31.261 -1,-43.622 -1,-69.07 -1,-1.308 -1,-0.032 -1,-0.926 -1,2.747 -1,-1.278 -1,2.043 -1,15.36 -1,-6.45 -1,-1.308 -1,43.172 -1,-8.973 -1,-40.523 -1,0.16 -1,7.183 -1,-8.683 -1,-0.414 -1,0.605 -1,8.684 -1,36.054 -1,7.438 -1,-48.793 -1,-1.785 -1,1.785 -1,-0.094 -1,-3.801 -1,2.555 -2,-0.828 -1,-3.324 -1,0.609 -1,3.414 -1,-4.629 -1,-1.148 -1,4.086 -1,3.547 -1,-6.164 -1,-1.883 -1,-0.61 -1,2.235 -1,4.121 -1,-0.703 -1,0.32 -1,-2.969 -1,-3.48 -1,5.586 -1,1.629 -1,-4.118 -1,2.426 -1,-1.66 -1,-2.332 -1,1.629 -1,2.746 -1,-1.215 -1,-2.234 -1,-1.055 -1,3.258 -1,0.512 -1,-3.547 -1,0.703 -1,-0.414 -1,2.363 -1,-0.289 -1,0.801 -1,3.16 -1,-2.266 -1,-0.992 -1,-2.172 -1,5.047 -1,11.59 -1,-18.422 z"
           style="fill:#bff7bf;fill-opacity:1;fill-rule:nonzero;stroke:none"
           id="path444" /><path
           d="m 469,165.547 v -24.746 h 103 v 15.422 l -1,-0.161 -1,5.59 -1,-7.297 -1,40.157 -1,63.16 -1,8.863 -1,-59.746 -1,-45.441 -1,-2.364 -1,-4.515 -1,-2.317 -1,-0.129 -1,1.997 -1,-2.969 -1,3.609 -1,-1.117 -1,0.859 -1,-2.902 -1,3.688 -1,0.507 -1,1.246 -1,1.536 -1,0.734 -1,-2.27 -1,7.219 -1,6.496 -1,-3.832 -1,4.344 -1,24.859 -1,26.688 -1,10.597 -1,-6.117 -1,-10.636 -1,3.496 -1,20.39 -1,25.672 -1,-45.055 -1,-49.847 -1,-16.813 -1,0.368 -1,1.628 -1,-1.722 -1,-0.082 -1,3.133 -1,0.191 -1,-0.543 -1,-4.184 -1,0.125 -1,0.594 -1,-1.996 -1,3.527 -1,2.461 -1,2.696 -1,0.75 -1,-7.008 -1,0.765 -1,-2.218 -1,1.613 -1,-0.957 -1,-1.789 -1,5.476 -1,-6.117 -1,1.68 -1,-0.481 -1,3.559 -1,7.586 -1,-1.645 -1,-4.679 -1,-0.91 -1,1.82 -1,5.301 -1,-3.176 -1,-2.094 -1,2.731 -1,1.246 -1,0.672 -1,1.277 -1,-1.34 -1,-0.305 -1,-0.656 -1,0.067 -1,3.656 -1,-0.192 -1,-1.835 -1,-5.286 -1,2.297 -1,-2.793 -1,2.778 -1,2.953 -1,0.082 -1,-2.43 -1,0.16 -1,8.305 -1,-2.461 -1,-7.855 -1,-0.063 -1,4.645 -1,-0.207 -1,5.941 -1,-8.688 -1,6.625 -1,-3.765 z"
           style="fill:#bff7bf;fill-opacity:1;fill-rule:nonzero;stroke:none"
           id="path446" /></g></g><g
       id="g448"><g
         id="g450"
         clip-path="url(#clipPath454)"><path
           d="m 73,146.746 1,0.543 1,18.426 1,-11.59 1,-5.047 1,2.172 1,0.988 1,2.27 1,-3.16 1,-0.801 1,0.289 1,-2.363 1,0.414 1,-0.703 1,3.546 1,-0.511 1,-3.258 1,1.055 1,2.234 1,1.215 1,-2.746 1,-1.629 1,2.332 1,1.66 1,-2.43 1,4.121 1,-1.628 1,-5.59 1,3.48 1,2.973 1,-0.32 1,0.703 1,-4.121 1,-2.235 1,0.606 1,1.886 1,6.161 1,-3.543 1,-4.086 1,1.148 1,4.629 1,-3.414 1,-0.61 1,3.321 1,0.418 1,0.414 1,-2.555 1,3.801 1,0.094 1,-1.789 1,1.789 1,48.793 1,-7.442 1,-36.051 1,-8.683 1,-0.61 1,0.418 1,8.684 1,-7.184 1,-0.16 1,40.524 1,8.972 1,-43.171 1,1.308 1,6.449 1,-15.359 1,-2.043 1,1.277 1,-2.746 1,0.926 1,0.031 1,1.309 1,69.07 1,43.617 1,31.262 1,-38.316 1,9.293 1,-1.438 1,-17.211 1,3.574 1,26.153 1,18.457 1,2.461 1,1.242 1,0.48 1,-2.523 1,1.277 1,-7.82 1,-130.988 1,-6.77 1,-1.789 1,-1.051 1,-1.757 1,2.425 1,-2.617 1,2.617 1,11.465 1,-12.168 1,0.512 1,3.48 1,121.344 1,0.031 1,-56.679 1,-0.606 1,-18.969 1,-2.746 1,14.243 1,-24.204 1,-33.339 1,-6.356 1,4.152 1,-0.382 1,1.054 1,7.504 1,-5.941 1,2.109 1,-1.308 1,1.468 1,3.575 1,-0.637 1,-7.887 1,1.692 1,27.332 1,-19.7 1,-6.453 1,23.09 1,-21.269 1,-4.086 1,2.109 1,1.242 1,-0.797 1,1.278 1,1.531 1,2.203 1,-5.394 1,-1.981 1,6.516 1,-4.598 1,0.734 1,0.668 1,-0.925 1,-0.032 1,-4.152 1,-0.668 1,-0.289 1,10.891 1,-5.301 1,-1.887 1,27.238 1,-22.32 1,-8.207 1,8.656 1,-2.172 1,0.446 1,0.765 1,3.035 1,-5.652 1,-0.062 1,-2.301 1,-1.309 1,2.395 1,5.109 1,-7.312 1,1.054 1,1.34 1,2.332 1,2.684 1,-7.121 1,-0.129 1,-1.215 1,10.441 1,-4.437 1,-4.086 1,-3.512 1,-0.863 1,1.66 1,2.234 1,1.567 1,3.32 1,-2.683 1,-1.247 1,2.333 1,-4.375 1,1.308 1,-0.508 1,14.016 1,-11.113 1,-4.438 1,86.856 1,17.785 1,8.687 1,-7.312 1,-49.176 1,-13.984 1,22.414 1,18.777 1,-56.777 1,-20.117 1,-4.852 1,38.574 1,-33.754 1,-1.277 1,3.547 1,-1.344 1,-1.34 1,1.598 1,0.574 1,-2.269 1,4.406 1,7.121 1,-8.492 1,-0.321 1,2.332 1,4.247 1,-6.227 1,-4.535 1,32.762 1,-22.543 1,-9.899 1,1.5 1,0.895 1,8.781 1,-7.152 1,-2.332 1,9.964 1,-14.464 1,5.554 1,13.828 1,-10.539 1,-2.875 1,2.172 1,-2.426 1,-1.117 1,9.356 1,-9.645 1,3.387 1,-2.11 1,-1.05 1,3.222 1,-2.265 1,-1.278 1,5.043 1,-4.183 1,0.035 1,4.437 1,-5.75 1,-2.839 1,7.375 1,-3.958 1,1.723 1,-0.512 1,-5.043 1,45.567 1,-28.547 1,-12.328 1,0.449 1,28.992 1,-22.445 1,-6.516 1,0.352 1,28.133 1,-23.121 1,-3.957 1,17.113 1,-11.75 1,-8.016 1,2.746 1,-0.828 1,19.348 1,-8.203 1,-5.844 1,19.539 1,-16.539 1,-2.969 1,-2.715 1,0.704 1,-7.25 1,32.187 1,-20.051 1,8.781 1,70.762 1,29.856 1,-5.782 1,-27.171 1,-16.446 1,7.664 1,-15.711 1,-15.679 1,-42.66 1,0.414 1,8.175 1,-1.406 1,30.59 1,-29.57 1,-12.418 1,-1.535 1,6.324 1,6.48 1,1.215 1,-5.367 1,11.879 1,-13.121 1,-3.899 1,0.129 1,4.856 1,-0.067 1,1.086 1,-1.18 1,-3.832 1,-0.863 1,-2.808 1,4.406 1,6.64 1,41.926 1,28.453 1,34.36 1,-16.063 1,-51.508 1,-3.222 1,-11.242 1,-2.555 1,3.769 1,-3.32 1,5.586 1,-0.766 1,0.606 1,1.215 1,-18.711 1,-6.485 1,21.715 1,-7.633 1,-22.191 1,0.766 1,3.035 1,4.375 1,-1.949 1,-0.606 1,-4.949 1,4.215 1,-4.184 1,-2.012 1,7.122 1,-0.512 1,-2.266 1,1.754 1,-4.949 1,-0.223 1,30.688 1,-21.778 1,-8.75 1,18.743 1,-16.797 1,-5.684 1,4.984 1,4.723 1,26.664 1,54.731 1,29.828 1,7.758 1,-26.758 1,-29.508 1,7.504 1,13.125 1,-23.375 1,-55.02 1,-8.843 1,11.718 1,-12.453 1,-1.722 1,5.617 1,-7.153 1,6.579 1,-7.665 1,29.985 1,-23.309 1,31.867 1,-20.597 1,-12.102 1,1.567 1,-2.395 1,-4.344 1,-3.961 1,4.985 1,30.429 1,-16.507 1,-7.219 1,-6.703 1,22.16 1,-20.727 1,-8.554 1,27.937 1,-13.41 1,-2.363 1,-21.969 h 2 l 1,24.348 1,-1.914 1,3.765 1,-6.625 1,8.688 1,-5.942 1,0.207 1,-4.644 1,0.062 1,7.856 1,2.461 1,-8.305 1,-0.16 1,2.43 1,-0.082 1,-2.954 1,-2.777 1,2.793 1,-2.301 1,5.285 1,1.836 1,0.192 1,-3.657 1,-0.062 1,0.656 1,0.301 1,1.344 1,-1.278 1,-0.671 1,-1.247 1,-2.73 1,2.094 1,3.176 1,-5.301 1,-1.821 1,0.911 1,4.679 1,1.645 1,-7.586 1,-3.559 1,0.477 1,-1.676 1,6.117 1,-5.476 1,1.785 1,0.961 1,-1.613 1,2.218 1,-0.765 1,7.007 1,-0.75 1,-2.699 1,-2.457 1,-3.527 1,1.996 1,-0.594 1,-0.125 1,4.18 1,0.543 1,-0.192 1,-3.128 1,0.082 1,1.722 1,-1.629 1,-0.367 1,16.813 1,49.847 1,45.055 1,-25.672 1,-20.391 1,-3.496 1,10.637 1,6.117 1,-10.597 1,-26.688 1,-24.859 1,-4.344 1,3.832 1,-6.496 1,-7.219 1,2.266 1,-0.735 1,-1.531 1,-1.246 1,-0.512 1,-3.687 1,2.906 1,-0.863 1,1.121 1,-3.609 1,2.968 1,-1.996 1,0.129 1,2.317 1,4.515 1,2.363 1,45.442 1,59.742 1,-8.859 1,-63.161 1,-40.156 1,7.297 1,-5.59 1,0.16"
           style="fill:none;stroke:#00e000;stroke-width:1;stroke-linecap:round;stroke-linejoin:round;stroke-miterlimit:10;stroke-dasharray:none;stroke-opacity:1"
           id="path456" /><path
           d="m 73,146.949 v -6.148 h 392 v 22.367 l -1,2.363 -1,13.414 -1,-27.941 -1,8.558 -1,20.723 -1,-22.16 -1,6.703 -1,7.219 -1,16.508 -1,-30.43 -1,-4.98 -1,3.957 -1,4.343 -1,2.395 -1,-1.567 -1,12.106 -1,20.594 -1,-31.868 -1,23.309 -1,-29.984 -1,7.664 -1,-6.578 -1,7.156 -1,-5.621 -1,1.722 -1,12.454 -1,-11.719 -1,8.847 -1,55.02 -1,23.371 -1,-13.121 -1,-7.504 -1,29.504 -1,26.758 -1,-7.758 -1,-29.824 -1,-54.735 -1,-26.66 -1,-4.726 -1,-4.985 -1,5.688 -1,16.793 -1,-18.742 -1,8.75 -1,21.777 -1,-30.688 -1,0.223 -1,4.949 -1,-1.754 -1,2.266 -1,0.512 -1,-7.121 -1,2.011 -1,4.184 -1,-4.215 -1,4.949 -1,0.606 -1,1.949 -1,-4.375 -1,-3.035 -1,-0.766 -1,22.196 -1,7.628 -1,-21.714 -1,6.484 -1,18.711 -1,-1.211 -1,-0.609 -1,0.769 -1,-5.59 -1,3.321 -1,-3.766 -1,2.551 -1,11.242 -1,3.227 -1,51.503 -1,16.063 -1,-34.359 -1,-28.45 -1,-41.929 -1,-6.641 -1,-4.406 -1,2.808 -1,0.864 -1,3.832 -1,1.179 -1,-1.086 -1,0.067 -1,-4.856 -1,-0.125 -1,3.895 -1,13.125 -1,-11.879 -1,5.363 -1,-1.215 -1,-6.48 -1,-6.324 -1,1.535 -1,12.422 -1,29.566 -1,-30.59 -1,1.407 -1,-8.176 -1,-0.414 -1,42.66 -1,15.68 -1,15.711 -1,-7.665 -1,16.446 -1,27.172 -1,5.781 -1,-29.856 -1,-70.761 -1,-8.782 -1,20.051 -1,-32.187 -1,7.25 -1,-0.703 -1,2.714 -1,2.969 -1,16.543 -1,-19.543 -1,5.844 -1,8.207 -1,-19.352 -1,0.829 -1,-2.747 -1,8.016 -1,11.75 -1,-17.113 -1,3.961 -1,23.117 -1,-28.133 -1,-0.351 -1,6.515 -1,22.449 -1,-28.996 -1,-0.445 -1,12.324 -1,28.547 -1,-45.566 -1,5.043 -1,0.511 -1,-1.722 -1,3.957 -1,-7.375 -1,2.844 -1,5.746 -1,-4.438 -1,-0.031 -1,4.183 -1,-5.046 -1,1.277 -1,2.266 -1,-3.223 -1,1.051 -1,2.109 -1,-3.387 -1,9.645 -1,-9.356 -1,1.118 -1,2.425 -1,-2.168 -1,2.871 -1,10.54 -1,-13.829 -1,-5.554 -1,14.465 -1,-9.961 -1,2.328 -1,7.152 -1,-8.781 -1,-0.895 -1,-1.5 -1,9.899 -1,22.547 -1,-32.762 -1,4.531 -1,6.227 -1,-4.246 -1,-2.332 -1,0.32 -1,8.496 -1,-7.121 -1,-4.406 -1,2.265 -1,-0.574 -1,-1.598 -1,1.34 -1,1.344 -1,-3.547 -1,1.277 -1,33.754 -1,-38.574 -1,4.856 -1,20.117 -1,56.773 -1,-18.777 -1,-22.414 -1,13.984 -1,49.176 -1,7.312 -1,-8.683 -1,-17.789 -1,-86.856 -1,4.442 -1,11.109 -1,-14.015 -1,0.511 -1,-1.312 -1,4.375 -1,-2.328 -1,1.242 -1,2.683 -1,-3.32 -1,-1.566 -1,-2.235 -1,-1.66 -1,0.863 -1,3.512 -1,4.086 -1,4.441 -1,-10.441 -1,1.211 -1,0.129 -1,7.121 -1,-2.684 -1,-2.332 -1,-1.339 -1,-1.055 -1,7.312 -1,-5.109 -1,-2.395 -1,1.309 -1,2.301 -1,0.062 -1,5.653 -1,-3.032 -1,-0.769 -1,-0.445 -1,2.171 -1,-8.652 -1,8.203 -1,22.321 -1,-27.235 -1,1.883 -1,5.301 -1,-10.891 -1,0.289 -1,0.672 -1,4.149 -1,0.031 -1,0.926 -1,-0.668 -1,-0.735 -1,4.598 -1,-6.516 -1,1.981 -1,5.398 -1,-2.203 -1,-1.535 -1,-1.277 -1,0.8 -1,-1.246 -1,-2.109 -1,4.09 -1,21.265 -1,-23.086 -1,6.45 -1,19.703 -1,-27.336 -1,-1.692 -1,7.887 -1,0.641 -1,-3.578 -1,-1.469 -1,1.308 -1,-2.105 -1,5.937 -1,-7.503 -1,-1.055 -1,0.383 -1,-4.149 -1,6.352 -1,33.34 -1,24.203 -1,-14.242 -1,2.746 -1,18.968 -1,0.606 -1,56.68 -1,-0.032 -1,-121.343 -1,-3.481 -1,-0.508 -1,12.164 -1,-11.464 -1,-2.618 -1,2.618 -1,-2.426 -1,1.758 -1,1.054 -1,1.785 -1,6.77 -1,130.988 -1,7.824 -1,-1.277 -1,2.52 -1,-0.477 -1,-1.246 -1,-2.461 -1,-18.457 -1,-26.152 -1,-3.575 -1,17.211 -1,1.438 -1,-9.293 -1,38.32 -1,-31.261 -1,-43.622 -1,-69.07 -1,-1.308 -1,-0.032 -1,-0.926 -1,2.747 -1,-1.278 -1,2.043 -1,15.36 -1,-6.45 -1,-1.308 -1,43.172 -1,-8.973 -1,-40.523 -1,0.16 -1,7.183 -1,-8.683 -1,-0.414 -1,0.605 -1,8.684 -1,36.054 -1,7.438 -1,-48.793 -1,-1.785 -1,1.785 -1,-0.094 -1,-3.801 -1,2.555 -2,-0.828 -1,-3.324 -1,0.609 -1,3.414 -1,-4.629 -1,-1.148 -1,4.086 -1,3.547 -1,-6.164 -1,-1.883 -1,-0.61 -1,2.235 -1,4.121 -1,-0.703 -1,0.32 -1,-2.969 -1,-3.48 -1,5.586 -1,1.629 -1,-4.118 -1,2.426 -1,-1.66 -1,-2.332 -1,1.629 -1,2.746 -1,-1.215 -1,-2.234 -1,-1.055 -1,3.258 -1,0.512 -1,-3.547 -1,0.703 -1,-0.414 -1,2.363 -1,-0.289 -1,0.801 -1,3.16 -1,-2.266 -1,-0.992 -1,-2.172 -1,5.047 -1,11.59 -1,-18.422 z"
           style="fill:#bfbfff;fill-opacity:1;fill-rule:nonzero;stroke:none"
           id="path458" /><path
           d="m 469,165.547 v -24.746 h 103 v 15.422 l -1,-0.161 -1,5.59 -1,-7.297 -1,40.157 -1,63.16 -1,8.863 -1,-59.746 -1,-45.441 -1,-2.364 -1,-4.515 -1,-2.317 -1,-0.129 -1,1.997 -1,-2.969 -1,3.609 -1,-1.117 -1,0.859 -1,-2.902 -1,3.688 -1,0.507 -1,1.246 -1,1.536 -1,0.734 -1,-2.27 -1,7.219 -1,6.496 -1,-3.832 -1,4.344 -1,24.859 -1,26.688 -1,10.597 -1,-6.117 -1,-10.636 -1,3.496 -1,20.39 -1,25.672 -1,-45.055 -1,-49.847 -1,-16.813 -1,0.368 -1,1.628 -1,-1.722 -1,-0.082 -1,3.133 -1,0.191 -1,-0.543 -1,-4.184 -1,0.125 -1,0.594 -1,-1.996 -1,3.527 -1,2.461 -1,2.696 -1,0.75 -1,-7.008 -1,0.765 -1,-2.218 -1,1.613 -1,-0.957 -1,-1.789 -1,5.476 -1,-6.117 -1,1.68 -1,-0.481 -1,3.559 -1,7.586 -1,-1.645 -1,-4.679 -1,-0.91 -1,1.82 -1,5.301 -1,-3.176 -1,-2.094 -1,2.731 -1,1.246 -1,0.672 -1,1.277 -1,-1.34 -1,-0.305 -1,-0.656 -1,0.067 -1,3.656 -1,-0.192 -1,-1.835 -1,-5.286 -1,2.297 -1,-2.793 -1,2.778 -1,2.953 -1,0.082 -1,-2.43 -1,0.16 -1,8.305 -1,-2.461 -1,-7.855 -1,-0.063 -1,4.645 -1,-0.207 -1,5.941 -1,-8.688 -1,6.625 -1,-3.765 z"
           style="fill:#bfbfff;fill-opacity:1;fill-rule:nonzero;stroke:none"
           id="path460" /><path
           d="m 73,146.746 1,0.543 1,18.426 1,-11.59 1,-5.047 1,2.172 1,0.988 1,2.27 1,-3.16 1,-0.801 1,0.289 1,-2.363 1,0.414 1,-0.703 1,3.546 1,-0.511 1,-3.258 1,1.055 1,2.234 1,1.215 1,-2.746 1,-1.629 1,2.332 1,1.66 1,-2.43 1,4.121 1,-1.628 1,-5.59 1,3.48 1,2.973 1,-0.32 1,0.703 1,-4.121 1,-2.235 1,0.606 1,1.886 1,6.161 1,-3.543 1,-4.086 1,1.148 1,4.629 1,-3.414 1,-0.61 1,3.321 1,0.418 1,0.414 1,-2.555 1,3.801 1,0.094 1,-1.789 1,1.789 1,48.793 1,-7.442 1,-36.051 1,-8.683 1,-0.61 1,0.418 1,8.684 1,-7.184 1,-0.16 1,40.524 1,8.972 1,-43.171 1,1.308 1,6.449 1,-15.359 1,-2.043 1,1.277 1,-2.746 1,0.926 1,0.031 1,1.309 1,69.07 1,43.617 1,31.262 1,-38.316 1,9.293 1,-1.438 1,-17.211 1,3.574 1,26.153 1,18.457 1,2.461 1,1.242 1,0.48 1,-2.523 1,1.277 1,-7.82 1,-130.988 1,-6.77 1,-1.789 1,-1.051 1,-1.757 1,2.425 1,-2.617 1,2.617 1,11.465 1,-12.168 1,0.512 1,3.48 1,121.344 1,0.031 1,-56.679 1,-0.606 1,-18.969 1,-2.746 1,14.243 1,-24.204 1,-33.339 1,-6.356 1,4.152 1,-0.382 1,1.054 1,7.504 1,-5.941 1,2.109 1,-1.308 1,1.468 1,3.575 1,-0.637 1,-7.887 1,1.692 1,27.332 1,-19.7 1,-6.453 1,23.09 1,-21.269 1,-4.086 1,2.109 1,1.242 1,-0.797 1,1.278 1,1.531 1,2.203 1,-5.394 1,-1.981 1,6.516 1,-4.598 1,0.734 1,0.668 1,-0.925 1,-0.032 1,-4.152 1,-0.668 1,-0.289 1,10.891 1,-5.301 1,-1.887 1,27.238 1,-22.32 1,-8.207 1,8.656 1,-2.172 1,0.446 1,0.765 1,3.035 1,-5.652 1,-0.062 1,-2.301 1,-1.309 1,2.395 1,5.109 1,-7.312 1,1.054 1,1.34 1,2.332 1,2.684 1,-7.121 1,-0.129 1,-1.215 1,10.441 1,-4.437 1,-4.086 1,-3.512 1,-0.863 1,1.66 1,2.234 1,1.567 1,3.32 1,-2.683 1,-1.247 1,2.333 1,-4.375 1,1.308 1,-0.508 1,14.016 1,-11.113 1,-4.438 1,86.856 1,17.785 1,8.687 1,-7.312 1,-49.176 1,-13.984 1,22.414 1,18.777 1,-56.777 1,-20.117 1,-4.852 1,38.574 1,-33.754 1,-1.277 1,3.547 1,-1.344 1,-1.34 1,1.598 1,0.574 1,-2.269 1,4.406 1,7.121 1,-8.492 1,-0.321 1,2.332 1,4.247 1,-6.227 1,-4.535 1,32.762 1,-22.543 1,-9.899 1,1.5 1,0.895 1,8.781 1,-7.152 1,-2.332 1,9.964 1,-14.464 1,5.554 1,13.828 1,-10.539 1,-2.875 1,2.172 1,-2.426 1,-1.117 1,9.356 1,-9.645 1,3.387 1,-2.11 1,-1.05 1,3.222 1,-2.265 1,-1.278 1,5.043 1,-4.183 1,0.035 1,4.437 1,-5.75 1,-2.839 1,7.375 1,-3.958 1,1.723 1,-0.512 1,-5.043 1,45.567 1,-28.547 1,-12.328 1,0.449 1,28.992 1,-22.445 1,-6.516 1,0.352 1,28.133 1,-23.121 1,-3.957 1,17.113 1,-11.75 1,-8.016 1,2.746 1,-0.828 1,19.348 1,-8.203 1,-5.844 1,19.539 1,-16.539 1,-2.969 1,-2.715 1,0.704 1,-7.25 1,32.187 1,-20.051 1,8.781 1,70.762 1,29.856 1,-5.782 1,-27.171 1,-16.446 1,7.664 1,-15.711 1,-15.679 1,-42.66 1,0.414 1,8.175 1,-1.406 1,30.59 1,-29.57 1,-12.418 1,-1.535 1,6.324 1,6.48 1,1.215 1,-5.367 1,11.879 1,-13.121 1,-3.899 1,0.129 1,4.856 1,-0.067 1,1.086 1,-1.18 1,-3.832 1,-0.863 1,-2.808 1,4.406 1,6.64 1,41.926 1,28.453 1,34.36 1,-16.063 1,-51.508 1,-3.222 1,-11.242 1,-2.555 1,3.769 1,-3.32 1,5.586 1,-0.766 1,0.606 1,1.215 1,-18.711 1,-6.485 1,21.715 1,-7.633 1,-22.191 1,0.766 1,3.035 1,4.375 1,-1.949 1,-0.606 1,-4.949 1,4.215 1,-4.184 1,-2.012 1,7.122 1,-0.512 1,-2.266 1,1.754 1,-4.949 1,-0.223 1,30.688 1,-21.778 1,-8.75 1,18.743 1,-16.797 1,-5.684 1,4.984 1,4.723 1,26.664 1,54.731 1,29.828 1,7.758 1,-26.758 1,-29.508 1,7.504 1,13.125 1,-23.375 1,-55.02 1,-8.843 1,11.718 1,-12.453 1,-1.722 1,5.617 1,-7.153 1,6.579 1,-7.665 1,29.985 1,-23.309 1,31.867 1,-20.597 1,-12.102 1,1.567 1,-2.395 1,-4.344 1,-3.961 1,4.985 1,30.429 1,-16.507 1,-7.219 1,-6.703 1,22.16 1,-20.727 1,-8.554 1,27.937 1,-13.41 1,-2.363 1,-21.969 h 2 l 1,24.348 1,-1.914 1,3.765 1,-6.625 1,8.688 1,-5.942 1,0.207 1,-4.644 1,0.062 1,7.856 1,2.461 1,-8.305 1,-0.16 1,2.43 1,-0.082 1,-2.954 1,-2.777 1,2.793 1,-2.301 1,5.285 1,1.836 1,0.192 1,-3.657 1,-0.062 1,0.656 1,0.301 1,1.344 1,-1.278 1,-0.671 1,-1.247 1,-2.73 1,2.094 1,3.176 1,-5.301 1,-1.821 1,0.911 1,4.679 1,1.645 1,-7.586 1,-3.559 1,0.477 1,-1.676 1,6.117 1,-5.476 1,1.785 1,0.961 1,-1.613 1,2.218 1,-0.765 1,7.007 1,-0.75 1,-2.699 1,-2.457 1,-3.527 1,1.996 1,-0.594 1,-0.125 1,4.18 1,0.543 1,-0.192 1,-3.128 1,0.082 1,1.722 1,-1.629 1,-0.367 1,16.813 1,49.847 1,45.055 1,-25.672 1,-20.391 1,-3.496 1,10.637 1,6.117 1,-10.597 1,-26.688 1,-24.859 1,-4.344 1,3.832 1,-6.496 1,-7.219 1,2.266 1,-0.735 1,-1.531 1,-1.246 1,-0.512 1,-3.687 1,2.906 1,-0.863 1,1.121 1,-3.609 1,2.968 1,-1.996 1,0.129 1,2.317 1,4.515 1,2.363 1,45.442 1,59.742 1,-8.859 1,-63.161 1,-40.156 1,7.297 1,-5.59 1,0.16"
           style="fill:none;stroke:#0000ff;stroke-width:1;stroke-linecap:round;stroke-linejoin:round;stroke-miterlimit:10;stroke-dasharray:none;stroke-opacity:1"
           id="path462" /><path
           d="m 73,145.445 v -4.644 h 392 v 15.824 l -1,3.129 -1,14.434 -1,-26.25 -1,6.929 -1,19.988 -1,-20.785 -1,4.469 -1,6.707 -1,15.902 -1,-28.07 -1,-2.488 -1,2.426 -1,2.808 -1,0.672 -1,-0.066 -1,13.316 -1,21.777 -1,-33.175 -1,22.511 -1,-28.929 -1,6.511 -1,-5.457 -1,7.086 -1,-7.121 -1,2.332 -1,10.602 -1,-10.028 -1,5.141 -1,34.359 -1,33.883 -1,-16.031 -1,-8.492 -1,16.57 -1,4.121 -1,-58.215 -1,-3.765 -1,8.14 -1,-12.421 -1,-4.79 -1,-2.074 -1,5.778 -1,15.488 -1,-18.969 -1,8.719 -1,22.512 -1,-31.391 -1,0.258 -1,5.972 -1,-2.554 -1,1.179 -1,0.832 -1,-6.898 -1,1.914 -1,4.633 -1,-4.535 -1,2.875 -1,0.156 -1,2.973 -1,-3.641 -1,-3.672 -1,0.926 -1,21.074 -1,8.367 -1,-23.152 -1,6.449 -1,13.348 -1,-7.629 -1,2.395 -1,-0.512 -1,-1.789 -1,-0.446 -1,-5.367 -1,4.504 -1,7.121 -1,-5.875 -1,15.391 -1,-19.797 -1,-5.684 -1,1.211 -1,-5.808 -1,-4.567 -1,-2.972 -1,2.011 -1,0.77 -1,1.976 -1,1.375 -1,-1.375 -1,0.258 -1,-3.449 -1,0.16 -1,3.449 -1,14.782 -1,-12.676 -1,3.703 -1,1.344 -1,-8.238 -1,-5.333 -1,0.86 -1,12.07 -1,29.027 -1,-29.441 -1,0.703 -1,-7.027 -1,-1.149 -1,27.844 -1,14.082 -1,19.352 -1,-14.051 -1,-5.363 -1,-8.75 -1,-16.285 -1,-6.93 -1,-2.488 -1,-2.301 -1,20.98 -1,-30.207 -1,5.141 -1,-0.383 -1,2.043 -1,3.449 -1,14.75 -1,-19.351 -1,8.656 -1,8.047 -1,-20.406 -1,-0.223 -1,-0.797 -1,6.227 -1,12.546 -1,-17.433 -1,5.394 -1,23.602 -1,-30.656 -1,0.511 -1,7.344 -1,22.129 -1,-28.996 -1,0.129 -1,11.176 -1,30.941 -1,-46.078 -1,5.207 -1,-0.832 -1,-1.438 -1,4.442 -1,-6.356 -1,1.278 -1,5.621 -1,-4.473 -1,-0.031 -1,4.727 -1,-4.821 -1,1.434 -1,1.054 -1,-1.851 -1,0.957 -1,2.746 -1,-3.605 -1,8.781 -1,-9.102 -1,1.055 -1,0.156 -1,-1.625 -1,4.821 -1,11.046 -1,-15.582 -1,-3 -1,11.078 -1,-8.589 -1,2.746 -1,5.492 -1,-7.664 -1,-0.477 -1,-1.343 -1,9.933 -1,22.192 -1,-32.891 -1,3.738 -1,7.344 -1,-4.981 -1,-2.14 -1,1.34 -1,7.25 -1,-7.602 -1,-2.555 -1,2.938 -1,-1.309 -1,-2.808 -1,2.172 -1,1.691 -1,-3.383 -1,0.254 -1,36.434 -1,-38.86 -1,3.223 -1,15.969 -1,47.832 -1,-19.125 -1,-23.758 -1,12.867 -1,33.465 -1,-37.582 -1,-21.844 -1,9.613 -1,-23.152 -1,4.504 -1,11.305 -1,-14.278 -1,0.481 -1,-1.758 -1,3.258 -1,-1.531 -1,2.074 -1,2.969 -1,-4.883 -1,-0.192 -1,-2.332 -1,-0.48 -1,0.32 -1,2.301 -1,3.641 -1,4.148 -1,-8.652 -1,0.765 -1,0.352 -1,6.64 -1,-3.863 -1,-1.722 -1,-2.172 -1,0.988 -1,5.141 -1,-5.106 -1,-0.258 -1,1.278 -1,0.703 -1,0.129 -1,4.597 -1,-4.054 -1,-0.098 -1,0.543 -1,3.543 -1,-8.59 -1,7.891 -1,22.414 -1,-27.399 -1,1.504 -1,4.692 -1,-9.258 -1,0.285 -1,0.801 -1,2.777 -1,0.317 -1,-0.223 -1,0.191 -1,0.641 -1,3.129 -1,-6.258 -1,2.074 -1,5.43 -1,-3.609 -1,-1.34 -1,-0.512 -1,0.863 -1,-0.992 -1,-1.82 -1,5.109 -1,20.723 -1,-24.332 -1,7.058 -1,19.672 -1,-26.855 -1,-1.469 -1,6.863 -1,-0.636 -1,-2.235 -1,-0.387 -1,0.61 -1,-1.949 -1,5.589 -1,-6.867 -1,0.063 -1,-0.508 -1,-3.066 -1,3.832 -1,22.066 -1,23.086 -1,-15.902 -1,2.777 -1,13.762 -1,-16.508 -1,0.765 -1,-17.656 -1,-11.336 -1,-2.363 -1,0.285 -1,11.817 -1,-11.207 -1,-2.27 -1,2.043 -1,-2.105 -1,1.851 -1,0.254 -1,0.992 -1,4.309 -1,3.097 -1,11.754 -1,-1.597 -1,-3.93 -1,2.363 -1,1.981 -1,0.222 -1,7.696 -1,-25.258 -1,9.199 -1,33.047 -1,16.062 -1,-35.507 -1,46.078 -1,-23.024 -1,-25.195 -1,-22.766 -1,-0.703 -1,-0.414 -1,-0.129 -1,1.852 -1,-1.18 -1,2.328 -1,14.946 -1,-6.707 -1,-3.864 -1,26.856 -1,-2.586 -1,-27.875 -1,-0.352 -1,7.153 -1,-8.719 -1,-0.192 -1,-0.097 -1,8.367 -1,33.754 -1,1.211 -1,-40.551 -1,-0.226 -1,0.8 -1,-0.258 -1,-3.191 -1,1.789 -1,1.055 -1,-0.481 -1,-2.461 -1,0.61 -1,2.265 -1,-3.191 -1,-1.469 -1,3.672 -1,3.895 -1,-6.707 -1,-1.403 -1,-0.226 -1,1.758 -1,2.394 -1,0.129 -1,0.543 -1,-2.777 -1,-2.555 -1,4.055 -1,1.179 -1,-2.554 -1,2.429 -1,-1.949 -1,-1.5 -1,1.02 -1,1.277 -1,-1.211 -1,-0.992 -1,-0.477 -1,1.914 -1,0.543 -1,-2.074 -1,0.285 -1,-0.191 -1,2.238 -1,-0.32 -1,0.125 -1,1.375 -1,-0.735 -1,-0.863 -1,-1.66 -1,5.109 -1,11.879 -1,-18.199 z"
           style="fill:#ffebbf;fill-opacity:1;fill-rule:nonzero;stroke:none"
           id="path464" /><path
           d="m 469,159.098 v -18.297 h 103 v 11.097 l -1,-1.007 -1,5.828 -1,-6.258 -1,12.262 -1,2.316 -1,-0.625 -1,-3.672 -1,-8.078 -1,1.231 -1,-3.579 -1,-1.691 -1,0.398 -1,1.723 -1,-2.648 -1,4.183 -1,-1.308 -1,0.16 -1,-2.363 -1,2.457 -1,1.406 -1,1.019 -1,-0.078 -1,0.543 -1,-1.902 -1,5.988 -1,6.434 -1,-3.321 -1,5.477 -1,12.836 -1,22.211 -1,11.32 -1,-6.117 -1,-12.867 -1,4.039 -1,-2.426 -1,-20.758 -1,-10.777 -1,-6.77 -1,-7.039 -1,0.207 -1,1.215 -1,-1.039 -1,-0.191 -1,2.601 -1,-0.062 -1,-0.258 -1,-2.586 -1,0.641 -1,0.316 -1,-2.586 -1,1.852 -1,2.379 -1,2.812 -1,0.879 -1,-6.02 -1,1.149 -1,-1.883 -1,0.524 -1,-0.59 -1,-1.293 -1,3.738 -1,-3.801 -1,0.957 -1,-0.32 -1,2.746 -1,5.813 -1,-1.997 -1,-2.679 -1,-1.215 -1,1.23 -1,5.477 -1,-4.313 -1,-1.949 -1,2.906 -1,0.848 -1,-0.176 -1,0.703 -1,1.196 -1,-0.719 -1,-0.207 -1,-1.133 -1,1.821 -1,0.113 -1,0.176 -1,-4.457 -1,2.46 -1,-1.918 -1,1.133 -1,1.551 -1,1.309 -1,-2.985 -1,0.078 -1,8.047 -1,-1.086 -1,-7.632 -1,-0.7 -1,4.118 -1,-0.129 -1,5.812 -1,-7.39 -1,6.816 -1,-4.137 z"
           style="fill:#ffebbf;fill-opacity:1;fill-rule:nonzero;stroke:none"
           id="path466" /></g></g><g
       id="g468"><g
         id="g470"
         clip-path="url(#clipPath474)"><path
           d="m 73,145.246 1,0.383 1,18.203 1,-11.879 1,-5.109 1,1.66 1,0.863 1,0.735 1,-1.375 1,-0.125 1,0.316 1,-2.234 1,0.191 1,-0.285 1,2.074 1,-0.543 1,-1.918 1,0.481 1,0.988 1,1.215 1,-1.278 1,-1.019 1,1.5 1,1.945 1,-2.426 1,2.555 1,-1.18 1,-4.058 1,2.554 1,2.782 1,-0.543 1,-0.129 1,-2.395 1,-1.757 1,0.222 1,1.406 1,6.707 1,-3.894 1,-3.676 1,1.469 1,3.195 1,-2.265 1,-0.61 1,2.461 1,0.477 1,-1.051 1,-1.789 1,3.191 1,0.258 1,-0.801 1,0.223 1,40.555 1,-1.211 1,-33.754 1,-8.367 1,0.097 1,0.192 1,8.718 1,-7.156 1,0.352 1,27.879 1,2.586 1,-26.856 1,3.863 1,6.707 1,-14.945 1,-2.332 1,1.184 1,-1.852 1,0.125 1,0.418 1,0.703 1,22.766 1,25.195 1,23.024 1,-46.079 1,35.508 1,-16.062 1,-33.051 1,-9.195 1,25.257 1,-7.695 1,-0.223 1,-1.98 1,-2.363 1,3.929 1,1.594 1,-11.75 1,-3.097 1,-4.309 1,-0.992 1,-0.254 1,-1.852 1,2.106 1,-2.043 1,2.265 1,11.211 1,-11.816 1,-0.289 1,2.363 1,11.336 1,17.66 1,-0.765 1,16.507 1,-13.761 1,-2.778 1,15.903 1,-23.09 1,-22.063 1,-3.832 1,3.063 1,0.512 1,-0.063 1,6.863 1,-5.586 1,1.95 1,-0.61 1,0.383 1,2.238 1,0.637 1,-6.867 1,1.473 1,26.851 1,-19.668 1,-7.058 1,24.332 1,-20.723 1,-5.109 1,1.82 1,0.988 1,-0.859 1,0.508 1,1.343 1,3.61 1,-5.43 1,-2.078 1,6.262 1,-3.129 1,-0.641 1,-0.191 1,0.222 1,-0.316 1,-2.781 1,-0.797 1,-0.289 1,9.261 1,-4.695 1,-1.5 1,27.399 1,-22.418 1,-7.887 1,8.59 1,-3.543 1,-0.543 1,0.094 1,4.058 1,-4.601 1,-0.125 1,-0.704 1,-1.277 1,0.254 1,5.109 1,-5.14 1,-0.989 1,2.172 1,1.723 1,3.863 1,-6.64 1,-0.352 1,-0.766 1,8.653 1,-4.153 1,-3.64 1,-2.297 1,-0.32 1,0.48 1,2.332 1,0.192 1,4.882 1,-2.968 1,-2.075 1,1.532 1,-3.258 1,1.758 1,-0.481 1,14.274 1,-11.305 1,-4.5 1,23.148 1,-9.609 1,21.84 1,37.586 1,-33.465 1,-12.867 1,23.754 1,19.129 1,-47.836 1,-15.965 1,-3.227 1,38.863 1,-36.433 1,-0.258 1,3.387 1,-1.692 1,-2.171 1,2.808 1,1.309 1,-2.938 1,2.555 1,7.601 1,-7.25 1,-1.339 1,2.136 1,4.985 1,-7.344 1,-3.738 1,32.89 1,-22.191 1,-9.934 1,1.344 1,0.477 1,7.664 1,-5.492 1,-2.747 1,8.59 1,-11.082 1,3.004 1,15.582 1,-11.047 1,-4.824 1,1.629 1,-0.16 1,-1.051 1,9.098 1,-8.782 1,3.61 1,-2.746 1,-0.957 1,1.851 1,-1.054 1,-1.438 1,4.824 1,-4.726 1,0.031 1,4.469 1,-5.617 1,-1.278 1,6.356 1,-4.442 1,1.438 1,0.832 1,-5.207 1,46.078 1,-30.942 1,-11.175 1,-0.129 1,28.996 1,-22.129 1,-7.344 1,-0.511 1,30.652 1,-23.598 1,-5.394 1,17.433 1,-12.547 1,-6.23 1,0.801 1,0.222 1,20.407 1,-8.047 1,-8.657 1,19.352 1,-14.754 1,-3.445 1,-2.047 1,0.387 1,-5.145 1,30.211 1,-20.98 1,2.296 1,2.493 1,6.929 1,16.285 1,8.75 1,5.364 1,14.051 1,-19.352 1,-14.082 1,-27.844 1,1.149 1,7.027 1,-0.703 1,29.441 1,-29.027 1,-12.07 1,-0.864 1,5.332 1,8.243 1,-1.344 1,-3.703 1,12.675 1,-14.785 1,-3.445 1,-0.16 1,3.449 1,-0.258 1,1.375 1,-1.375 1,-1.98 1,-0.766 1,-2.012 1,2.969 1,4.567 1,5.812 1,-1.215 1,5.688 1,19.797 1,-15.391 1,5.875 1,-7.121 1,-4.504 1,5.367 1,0.446 1,1.789 1,0.511 1,-2.394 1,7.629 1,-13.348 1,-6.449 1,23.152 1,-8.367 1,-21.074 1,-0.926 1,3.672 1,3.637 1,-2.969 1,-0.16 1,-2.871 1,4.531 1,-4.629 1,-1.914 1,6.894 1,-0.828 1,-1.183 1,2.554 1,-5.968 1,-0.258 1,31.39 1,-22.511 1,-8.719 1,18.969 1,-15.489 1,-5.777 1,2.074 1,4.789 1,12.422 1,-8.14 1,3.765 1,58.211 1,-4.117 1,-16.574 1,8.496 1,16.027 1,-33.879 1,-34.359 1,-5.141 1,10.028 1,-10.602 1,-2.332 1,7.121 1,-7.09 1,5.461 1,-6.512 1,28.93 1,-22.512 1,33.176 1,-21.777 1,-13.317 1,0.067 1,-0.672 1,-2.809 1,-2.429 1,2.492 1,28.066 1,-15.902 1,-6.703 1,-4.473 1,20.789 1,-19.988 1,-6.93 1,26.246 1,-14.433 1,-3.129 1,-15.422 h 2 l 1,17.898 1,-0.48 1,4.137 1,-6.817 1,7.391 1,-5.813 1,0.129 1,-4.121 1,0.703 1,7.633 1,1.086 1,-8.047 1,-0.082 1,2.988 1,-1.308 1,-1.551 1,-1.133 1,1.914 1,-2.457 1,4.453 1,-0.175 1,-0.11 1,-1.82 1,1.133 1,0.207 1,0.719 1,-1.196 1,-0.703 1,0.176 1,-0.848 1,-2.906 1,1.949 1,4.309 1,-5.477 1,-1.226 1,1.211 1,2.683 1,1.996 1,-5.812 1,-2.746 1,0.32 1,-0.957 1,3.797 1,-3.735 1,1.293 1,0.59 1,-0.527 1,1.887 1,-1.153 1,6.02 1,-0.875 1,-2.813 1,-2.379 1,-1.851 1,2.586 1,-0.32 1,-0.637 1,2.586 1,0.254 1,0.066 1,-2.601 1,0.191 1,1.035 1,-1.211 1,-0.207 1,7.039 1,6.77 1,10.777 1,20.758 1,2.426 1,-4.039 1,12.867 1,6.117 1,-11.32 1,-22.211 1,-12.836 1,-5.477 1,3.321 1,-6.434 1,-5.988 1,1.902 1,-0.543 1,0.078 1,-1.019 1,-1.407 1,-2.461 1,2.364 1,-0.16 1,1.312 1,-4.184 1,2.649 1,-1.723 1,-0.398 1,1.691 1,3.574 1,-1.226 1,8.078 1,3.672 1,0.621 1,-2.313 1,-12.261 1,6.258 1,-5.829 1,1.008"
           style="fill:none;stroke:#ffb000;stroke-width:1;stroke-linecap:round;stroke-linejoin:round;stroke-miterlimit:10;stroke-dasharray:none;stroke-opacity:1"
           id="path476" /><path
           d="m 73,145.289 v -4.488 h 392 v 15.789 l -1,-2.457 -1,-1.949 -1,-4.375 -1,4.441 -1,0.254 -1,1.055 -1,4.949 -1,0.383 -1,-2.684 -1,-3.289 -1,-2.488 -1,2.457 -1,2.937 -1,0.672 -1,-1.5 -1,-1.023 -1,-2.555 -1,-0.32 -1,0.769 -1,-1.406 -1,2.012 -1,-1.535 -1,2.492 -1,-0.543 -1,0.351 -1,5.461 -1,-3.035 h -1 l -1,13.637 -1,-2.074 -1,8.554 -1,4.344 -1,-0.32 -1,-13.41 -1,-0.766 -1,-3.547 -1,3.098 -1,-12.196 -1,1.243 -1,-1.977 -1,1.086 -1,1.82 -1,-0.578 -1,0.258 -1,-2.875 -1,2.457 -1,-0.891 -1,1.914 -1,0.192 -1,2.14 -1,-3.195 -1,-1.629 -1,1.629 -1,-0.476 -1,0.957 -1,2.875 -1,-1.153 -1,-0.926 -1,1.727 -1,-3.672 -1,-2.586 -1,3.735 -1,1.949 -1,2.426 -1,-1.086 -1,7.343 -1,-0.988 -1,-0.351 -1,-1.883 -1,-2.012 -1,1.691 -1,-0.128 -1,0.128 -1,4.055 -1,-0.191 -1,7.152 -1,-4.949 -1,-6.578 -1,1.5 -1,-9.227 -1,0.125 -1,-3.414 -1,1.051 -1,2.047 -1,1.976 -1,1.344 -1,-1.437 -1,0.511 -1,-3.449 -1,0.16 -1,-1.246 -1,0.703 -1,3.352 -1,-2.457 -1,-3.067 -1,0.321 -1,-0.735 -1,0.895 -1,2.84 -2,-3.641 -1,7.41 -1,-1.152 -1,-2.426 -1,12.231 -1,-0.446 -1,-3.801 -1,7.633 -1,6.481 -1,1.531 -1,-10.25 -1,-2.715 -1,-4.055 -1,-7.214 -1,0.476 -1,-2.871 -1,3.734 -1,0.993 -1,1.945 -1,-1.563 -1,-0.671 -1,-0.383 -1,-1.531 -1,-1.758 -1,1.179 -1,-0.191 -1,-0.703 -1,1.695 -1,-1.726 -1,1.375 -1,-2.555 -1,0.129 -1,0.637 -1,0.511 -1,0.352 -1,1.148 -1,-1.023 -1,0.129 -1,-0.285 -1,-3.418 -1,-0.129 -1,3.578 -1,0.668 -1,-3.031 -1,-0.321 -1,0.16 -1,-0.351 -1,-0.063 -1,-0.351 -1,1.531 -1,-0.16 -1,1.695 -1,1.434 -1,1.054 -1,-1.882 -1,-1.086 -1,-3.004 -1,1.949 -1,2.461 -1,-0.672 -1,1.055 -1,0.191 -1,-1.535 -1,0.32 -1,-2.074 -1,1.914 -1,-2.969 -1,4.407 -1,-1.95 -1,1.215 -1,0.832 -1,-1.886 -1,-0.668 -1,-0.61 -1,2.239 -1,-0.543 -1,-2.747 -1,2.137 -1,0.957 -1,3.164 -1,-2.14 -1,-0.352 -1,2.172 -1,-0.797 -1,-3.93 -1,-1.597 -1,4.566 -1,-2.808 -1,0.765 -1,-2.488 -1,2.328 -1,0.129 -1,-4.184 -1,1.758 -1,3.031 -1,2.875 -1,2.493 -1,3.8 -1,4.118 -1,-0.254 -1,-2.715 -1,1.5 -1,-6.547 -1,1.887 -1,-12.551 -1,0.48 -1,-0.386 -1,1.312 -1,0.508 -1,-1.629 -1,3.258 -1,-1.563 -1,0.512 -1,-1.437 -1,0.574 -1,0.222 -1,-2.203 -1,-0.511 -1,0.222 -1,2.395 -1,2.14 -1,0.032 -1,-3.16 -1,0.765 -1,-1.246 -1,1.856 -1,2.519 -1,-1.691 -1,-2.043 -1,-0.289 -1,1.312 h -1 l -1,-0.258 -1,1.278 -1,0.672 -1,-1.344 -1,0.543 -1,1.152 -1,-0.16 -1,-0.672 -1,-0.863 -1,-2.711 -1,0.445 -1,0.098 -1,2.394 -2,0.383 -1,-4.09 -1,1.055 -1,0.801 -1,2.777 -1,0.317 -1,-0.223 -1,0.191 -1,-0.508 -1,-0.351 -1,-1.758 -1,0.863 -1,1.371 -1,1.629 -1,-1.308 -1,-0.446 -1,0.668 -1,-0.765 -1,-1.949 -1,-1.278 -1,1.598 -1,1.183 -1,0.829 -1,0.992 -1,-1.981 -1,-2.812 -1,2.746 -1,2.684 -1,-0.606 -1,0.031 -1,0.735 -1,-3.547 -1,0.801 -1,-0.575 -1,0.317 -1,-0.508 -1,-3.066 -1,1.882 -1,8.782 -1,5.078 -1,-0.063 -1,-1.535 -1,2.141 -1,4.437 -1,-2.136 -1,-6.165 -1,-7.664 -1,-2.265 -1,-3.004 -1,2.363 -1,1.567 -1,-2.27 -1,2.043 -1,-2.137 -1,1.723 -1,0.289 -1,0.445 -1,2.203 -1,5.875 -1,11.754 -1,-1.597 -1,-3.93 -1,2.301 -1,1.789 -1,-4.696 -1,-7.824 -1,-4.918 -1,2.746 -1,8.145 -1,6.769 -1,-9.996 -1,3.45 -1,25.867 -1,-16.129 -1,-22.766 -1,-0.734 -1,-0.481 -1,0.129 -1,1.852 -1,-1.215 -1,-1.242 -1,2.137 -1,-0.286 -1,5.043 -1,23.758 -1,0.16 -1,-26.566 -1,-2.012 -1,1.789 -1,-1.566 -1,-0.192 -1,-0.128 -1,0.543 -1,2.203 -1,6.609 -1,-6.703 -1,-0.066 -1,0.8 -1,-0.351 -1,-3.481 -1,2.172 -1,1.055 -1,-0.481 -1,-2.461 -1,0.61 -1,2.234 -1,-3.32 -1,-1.469 -1,1.629 -1,-2.238 -1,1.504 -1,-1.309 -1,-0.352 -1,1.786 -1,2.523 -1,0.098 -1,0.383 -1,-2.844 -1,-2.297 -1,3.992 -1,0.988 -1,-2.523 -1,2.234 -1,-1.691 -1,-1.469 -1,1.149 -1,1.277 -1,-1.242 -1,-1.086 -1,-0.352 -1,1.914 -1,0.543 -1,-2.074 -1,0.285 -1,-0.191 -1,2.238 -1,-0.32 -1,0.125 -1,1.344 -1,-0.864 -1,-0.828 -1,-1.695 -1,-0.16 -1,-1.914 -1,0.734 z"
           style="fill:#ffbfbf;fill-opacity:1;fill-rule:nonzero;stroke:none"
           id="path478" /><path
           d="m 469,159.098 v -18.297 h 103 v 10.824 l -1,-1.055 -1,0.352 -1,-3.238 -1,7.628 -1,6.165 -1,2.746 -1,-3.703 -1,-8.176 -1,1.34 -1,-3.528 -1,-1.578 -1,0.125 -1,1.949 -1,-2.668 -1,-1.785 -1,1.852 -1,2.937 -1,-2.218 -1,2.234 -1,1.422 -1,1.066 -1,-0.078 -1,0.43 -1,-1.946 -1,1.981 -1,3.223 -1,-0.782 -1,-4.039 -1,8.157 -1,2.957 -1,3.429 -1,-0.445 -1,1.324 -1,3.195 -1,6.77 -1,-7.906 -1,-7.664 -1,-5.473 -1,-6.402 -1,0.109 -1,0.32 -1,-0.64 -1,0.258 -1,2.648 -1,-0.176 -1,-0.191 -1,-2.426 -1,0.574 -1,-0.062 -1,-2.094 -1,1.852 -1,2.492 -1,0.957 -1,1.965 -1,-5.204 -1,0.813 -1,-1.914 -1,0.461 -1,-0.527 -1,-1.356 -1,3.688 -1,-3.594 -1,0.801 -1,-0.258 -1,2.797 -1,5.25 -1,-1.676 -1,-2.332 -1,-1.164 -1,1.117 -1,3.305 -1,-2.871 -1,-1.168 -1,3.035 -1,0.941 -1,-0.398 -1,0.605 -1,1.199 -1,-0.496 -1,-0.113 -1,-1.133 -1,1.598 -1,0.238 -1,-0.621 -1,-3.945 -1,2.843 -1,-1.918 -1,1.133 -1,1.551 -1,0.973 -1,-2.793 -1,0.113 -1,6.543 -1,-2.379 -1,-5.906 -1,0.16 -1,3.223 -1,-0.399 -1,1.614 -1,-2.028 -1,-2.125 -1,1.199 z"
           style="fill:#ffbfbf;fill-opacity:1;fill-rule:nonzero;stroke:none"
           id="path480" /></g></g><g
       id="g482"><g
         id="g484"
         clip-path="url(#clipPath488)"><path
           d="m 73,145.086 1,0.258 1,-0.735 1,1.914 1,0.161 1,1.691 1,0.832 1,0.863 1,-1.343 1,-0.125 1,0.316 1,-2.234 1,0.191 1,-0.285 1,2.074 1,-0.543 1,-1.918 1,0.352 1,1.086 1,1.246 1,-1.278 1,-1.148 1,1.469 1,1.691 1,-2.234 1,2.523 1,-0.992 1,-3.992 1,2.301 1,2.843 1,-0.386 1,-0.094 1,-2.524 1,-1.789 1,0.352 1,1.309 1,-1.5 1,2.234 1,-1.625 1,1.469 1,3.32 1,-2.234 1,-0.61 1,2.461 1,0.477 1,-1.051 1,-2.172 1,3.481 1,0.351 1,-0.801 1,0.067 1,6.703 1,-6.61 1,-2.203 1,-0.543 1,0.129 1,0.192 1,1.562 1,-1.785 1,2.012 1,26.566 1,-0.16 1,-23.758 1,-5.043 1,0.285 1,-2.14 1,1.246 1,1.215 1,-1.852 1,-0.129 1,0.481 1,0.734 1,22.766 1,16.125 1,-25.864 1,-3.449 1,9.996 1,-6.769 1,-8.145 1,-2.746 1,4.918 1,7.824 1,4.692 1,-1.785 1,-2.301 1,3.929 1,1.594 1,-11.75 1,-5.875 1,-2.203 1,-0.449 1,-0.285 1,-1.727 1,2.141 1,-2.043 1,2.265 1,-1.562 1,-2.363 1,3 1,2.269 1,7.664 1,6.16 1,2.141 1,-4.437 1,-2.141 1,1.531 1,0.067 1,-5.079 1,-8.781 1,-1.883 1,3.063 1,0.512 1,-0.317 1,0.574 1,-0.8 1,3.546 1,-0.734 1,-0.035 1,0.609 1,-2.683 1,-2.746 1,2.808 1,1.981 1,-0.989 1,-0.832 1,-1.179 1,-1.598 1,1.277 1,1.95 1,0.765 1,-0.672 1,0.45 1,1.308 1,-1.629 1,-1.371 1,-0.863 1,1.754 1,0.351 1,0.512 1,-0.191 1,0.222 1,-0.316 1,-2.781 1,-0.797 1,-1.055 1,4.09 1,-0.191 1,-0.196 1,-2.394 1,-0.094 1,-0.449 1,2.715 1,0.863 1,0.672 1,0.16 1,-1.152 1,-0.543 1,1.343 1,-0.672 1,-1.277 1,0.254 h 1 l 1,-1.309 1,0.289 1,2.043 1,1.692 1,-2.524 1,-1.851 1,1.246 1,-0.766 1,3.16 1,-0.031 1,-2.14 1,-2.395 1,-0.223 1,0.512 1,2.203 1,-0.222 1,-0.579 1,1.438 1,-0.508 1,1.563 1,-3.258 1,1.629 1,-0.512 1,-1.309 1,0.383 1,-0.476 1,12.547 1,-1.883 1,6.547 1,-1.5 1,2.711 1,0.257 1,-4.121 1,-3.797 1,-2.492 1,-2.875 1,-3.031 1,-1.758 1,4.184 1,-0.129 1,-2.332 1,2.492 1,-0.766 1,2.809 1,-4.566 1,1.597 1,3.926 1,0.801 1,-2.172 1,0.351 1,2.141 1,-3.164 1,-0.957 1,-2.141 1,2.746 1,0.543 1,-2.234 1,0.606 1,0.671 1,1.883 1,-0.828 1,-1.215 1,1.949 1,-4.406 1,2.969 1,-1.914 1,2.074 1,-0.32 1,1.535 1,-0.195 1,-1.051 1,0.668 1,-2.457 1,-1.949 1,3.004 1,1.085 1,1.883 1,-1.054 1,-1.438 1,-1.691 1,0.16 1,-1.531 1,0.347 1,0.067 1,0.351 1,-0.16 1,0.32 1,3.032 1,-0.668 1,-3.579 1,0.129 1,3.414 1,0.29 1,-0.129 1,1.023 1,-1.148 1,-0.352 1,-0.512 1,-0.64 1,-0.125 1,2.554 1,-1.375 1,1.727 1,-1.695 1,0.703 1,0.191 1,-1.179 1,1.753 1,1.536 1,0.382 1,0.668 1,1.567 1,-1.949 1,-0.989 1,-3.734 1,2.871 1,-0.477 1,7.215 1,4.055 1,2.715 1,10.25 1,-1.531 1,-6.485 1,-7.629 1,3.797 1,0.449 1,-12.23 1,2.426 1,1.148 1,-7.406 2,3.64 1,-2.843 1,-0.895 1,0.735 1,-0.317 1,3.063 1,2.461 1,-3.352 1,-0.703 1,1.246 1,-0.16 1,3.449 1,-0.512 1,1.438 1,-1.344 1,-1.98 1,-2.043 1,-1.051 1,3.414 1,-0.125 1,9.227 1,-1.5 1,6.578 1,4.949 1,-7.153 1,0.192 1,-4.055 1,-0.129 1,0.129 1,-1.695 1,2.012 1,1.886 1,0.352 1,0.988 1,-7.344 1,1.086 1,-2.429 1,-1.946 1,-3.738 1,2.59 1,3.672 1,-1.727 1,0.926 1,1.152 1,-2.875 1,-0.957 1,0.477 1,-1.629 1,1.629 1,3.195 1,-2.14 1,-0.192 1,-1.918 1,0.895 1,-2.457 1,2.875 1,-0.258 1,0.574 1,-1.82 1,-1.086 1,1.98 1,-1.246 1,12.199 1,-3.097 1,3.547 1,0.765 1,13.41 1,0.321 1,-4.344 1,-8.559 1,2.079 1,-13.637 h 1 l 1,3.035 1,-5.461 1,-0.351 1,0.542 1,-2.492 1,1.535 1,-2.011 1,1.402 1,-0.766 1,0.321 1,2.554 1,1.02 1,1.504 1,-0.672 1,-2.937 1,-2.461 1,2.492 1,3.289 1,2.683 1,-0.382 1,-4.95 1,-1.054 1,-0.258 1,-4.438 1,4.375 1,1.95 1,2.457 1,-15.391 h 2 l 1,17.898 1,-4.406 1,-1.199 1,2.125 1,2.027 1,-1.613 1,0.398 1,-3.222 1,-0.16 1,5.906 1,2.379 1,-6.547 1,-0.109 1,2.793 1,-0.973 1,-1.551 1,-1.133 1,1.914 1,-2.839 1,3.941 1,0.625 1,-0.238 1,-1.598 1,1.133 1,0.113 1,0.492 1,-1.195 1,-0.609 1,0.402 1,-0.942 1,-3.035 1,1.164 1,2.875 1,-3.304 1,-1.117 1,1.164 1,2.332 1,1.675 1,-5.254 1,-2.792 1,0.257 1,-0.8 1,3.593 1,-3.687 1,1.355 1,0.528 1,-0.465 1,1.918 1,-0.817 1,5.207 1,-1.964 1,-0.957 1,-2.493 1,-1.851 1,2.094 1,0.062 1,-0.574 1,2.426 1,0.191 1,0.176 1,-2.649 1,-0.258 1,0.641 1,-0.32 1,-0.113 1,6.402 1,5.476 1,7.664 1,7.903 1,-6.77 1,-3.191 1,-1.324 1,0.445 1,-3.434 1,-2.953 1,-8.156 1,4.039 1,0.781 1,-3.226 1,-1.977 1,1.946 1,-0.43 1,0.078 1,-1.07 1,-1.418 1,-2.239 1,2.223 1,-2.941 1,-1.852 1,1.789 1,2.668 1,-1.949 1,-0.129 1,1.582 1,3.527 1,-1.339 1,8.175 1,3.703 1,-2.746 1,-6.164 1,-7.633 1,3.243 1,-0.352 1,1.055"
           style="fill:none;stroke:#ff0000;stroke-width:1;stroke-linecap:round;stroke-linejoin:round;stroke-miterlimit:10;stroke-dasharray:none;stroke-opacity:1"
           id="path490" /><path
           d="m 175,141.582 v -0.781 h 6 v 0.429 l -1,0.129 h -1 l -1,-0.031 -1,-0.098 -1,0.192 z"
           style="fill:#ffbfff;fill-opacity:1;fill-rule:nonzero;stroke:none"
           id="path492" /><path
           d="m 234,141.328 v -0.527 h 1 v 0.429 z"
           style="fill:#ffbfff;fill-opacity:1;fill-rule:nonzero;stroke:none"
           id="path494" /><path
           d="m 264,141.328 v -0.527 h 4 v 0.429 l -1,0.161 -1,0.097 -1,-0.129 z"
           style="fill:#ffbfff;fill-opacity:1;fill-rule:nonzero;stroke:none"
           id="path496" /><path
           d="m 355,141.328 v -0.527 h 1 v 0.429 z"
           style="fill:#ffbfff;fill-opacity:1;fill-rule:nonzero;stroke:none"
           id="path498" /><path
           d="m 358,141.328 v -0.527 h 2 v 0.527 l -1,-0.098 z"
           style="fill:#ffbfff;fill-opacity:1;fill-rule:nonzero;stroke:none"
           id="path500" /><path
           d="m 389,141.457 v -0.656 h 1 v 0.465 z"
           style="fill:#ffbfff;fill-opacity:1;fill-rule:nonzero;stroke:none"
           id="path502" /><path
           d="m 392,141.328 v -0.527 h 2 v 0.465 l -1,0.222 z"
           style="fill:#ffbfff;fill-opacity:1;fill-rule:nonzero;stroke:none"
           id="path504" /><path
           d="m 396,141.582 v -0.781 h 1 v 0.75 z"
           style="fill:#ffbfff;fill-opacity:1;fill-rule:nonzero;stroke:none"
           id="path506" /><path
           d="m 428,141.328 v -0.527 h 1 v 0.429 z"
           style="fill:#ffbfff;fill-opacity:1;fill-rule:nonzero;stroke:none"
           id="path508" /><path
           d="m 431,141.457 v -0.656 h 6 v 0.429 l -1,0.098 -1,-0.062 -1,0.191 -1,-0.129 -1,0.445 z"
           style="fill:#ffbfff;fill-opacity:1;fill-rule:nonzero;stroke:none"
           id="path510" /><path
           d="m 483,141.246 v -0.445 h 1 v 0.511 z"
           style="fill:#ffbfff;fill-opacity:1;fill-rule:nonzero;stroke:none"
           id="path512" /><path
           d="m 536,141.391 v -0.59 h 6 v 0.734 l -1,-0.078 -1,0.125 -1,-0.125 -1,-0.211 -1,0.402 z"
           style="fill:#ffbfff;fill-opacity:1;fill-rule:nonzero;stroke:none"
           id="path514" /></g></g><g
       id="g516"><g
         id="g518"
         clip-path="url(#clipPath522)"><path
           d="m 73,141 h 101 l 1,0.383 1,-0.16 1,-0.192 1,0.098 1,0.031 h 1 l 1,-0.129 1,-0.031 h 51 l 1,0.129 1,-0.098 1,-0.031 h 27 l 1,0.129 1,0.031 1,0.129 1,-0.098 1,-0.16 1,-0.031 h 85 l 1,0.129 1,-0.098 1,-0.031 1,0.129 1,-0.098 1,0.098 1,-0.129 h 27 l 1,0.254 1,-0.192 1,-0.062 1,0.129 1,0.16 1,-0.227 1,-0.062 1,0.383 1,-0.031 1,-0.352 h 29 l 1,0.129 1,-0.098 1,-0.031 1,0.254 1,0.32 1,-0.445 1,0.125 1,-0.192 1,0.067 1,-0.098 1,-0.031 h 21 l 1,0.129 1,-0.129 h 21 l 1,0.047 1,0.066 1,-0.113 h 50 l 1,0.191 1,0.254 1,-0.398 1,0.207 1,0.129 1,-0.129 1,0.082 1,-0.336 h 29"
           style="fill:none;stroke:#ff00ff;stroke-width:1;stroke-linecap:round;stroke-linejoin:round;stroke-miterlimit:10;stroke-dasharray:none;stroke-opacity:1"
           id="path524" /></g></g><g
       id="g526"><g
         id="g528"
         clip-path="url(#clipPath532)"><path
           d="M 73,141 H 572"
           style="fill:none;stroke:#a000a0;stroke-width:1;stroke-linecap:round;stroke-linejoin:round;stroke-miterlimit:10;stroke-dasharray:none;stroke-opacity:1"
           id="path534" /><path
           d="M 73,141 H 572"
           style="fill:none;stroke:#000000;stroke-width:1;stroke-linecap:round;stroke-linejoin:round;stroke-miterlimit:10;stroke-dasharray:none;stroke-opacity:1"
           id="path536" /></g></g><g
       id="g538"><path
         d="m 100,303 v -2"
         style="fill:none;stroke:#8f8f8f;stroke-width:0.4;stroke-linecap:butt;stroke-linejoin:miter;stroke-miterlimit:10;stroke-dasharray:none;stroke-opacity:0.75"
         id="path540" /><path
         d="m 100,141 v -2"
         style="fill:none;stroke:#8f8f8f;stroke-width:0.4;stroke-linecap:butt;stroke-linejoin:miter;stroke-miterlimit:10;stroke-dasharray:none;stroke-opacity:0.75"
         id="path542" /><path
         d="M 100,140 V 302"
         style="fill:none;stroke:#8f8f8f;stroke-width:0.4;stroke-linecap:butt;stroke-linejoin:miter;stroke-miterlimit:10;stroke-dasharray:1, 1;stroke-dashoffset:0;stroke-opacity:0.75"
         id="path544" /><path
         d="m 128,303 v -2"
         style="fill:none;stroke:#8f8f8f;stroke-width:0.4;stroke-linecap:butt;stroke-linejoin:miter;stroke-miterlimit:10;stroke-dasharray:none;stroke-opacity:0.75"
         id="path546" /><path
         d="m 128,141 v -2"
         style="fill:none;stroke:#8f8f8f;stroke-width:0.4;stroke-linecap:butt;stroke-linejoin:miter;stroke-miterlimit:10;stroke-dasharray:none;stroke-opacity:0.75"
         id="path548" /><path
         d="M 128,140 V 302"
         style="fill:none;stroke:#8f8f8f;stroke-width:0.4;stroke-linecap:butt;stroke-linejoin:miter;stroke-miterlimit:10;stroke-dasharray:1, 1;stroke-dashoffset:0;stroke-opacity:0.75"
         id="path550" /><path
         d="m 156,303 v -2"
         style="fill:none;stroke:#8f8f8f;stroke-width:0.4;stroke-linecap:butt;stroke-linejoin:miter;stroke-miterlimit:10;stroke-dasharray:none;stroke-opacity:0.75"
         id="path552" /><path
         d="m 156,141 v -2"
         style="fill:none;stroke:#8f8f8f;stroke-width:0.4;stroke-linecap:butt;stroke-linejoin:miter;stroke-miterlimit:10;stroke-dasharray:none;stroke-opacity:0.75"
         id="path554" /><path
         d="M 156,140 V 302"
         style="fill:none;stroke:#8f8f8f;stroke-width:0.4;stroke-linecap:butt;stroke-linejoin:miter;stroke-miterlimit:10;stroke-dasharray:1, 1;stroke-dashoffset:0;stroke-opacity:0.75"
         id="path556" /><path
         d="m 211,303 v -2"
         style="fill:none;stroke:#8f8f8f;stroke-width:0.4;stroke-linecap:butt;stroke-linejoin:miter;stroke-miterlimit:10;stroke-dasharray:none;stroke-opacity:0.75"
         id="path558" /><path
         d="m 211,141 v -2"
         style="fill:none;stroke:#8f8f8f;stroke-width:0.4;stroke-linecap:butt;stroke-linejoin:miter;stroke-miterlimit:10;stroke-dasharray:none;stroke-opacity:0.75"
         id="path560" /><path
         d="M 211,140 V 302"
         style="fill:none;stroke:#8f8f8f;stroke-width:0.4;stroke-linecap:butt;stroke-linejoin:miter;stroke-miterlimit:10;stroke-dasharray:1, 1;stroke-dashoffset:0;stroke-opacity:0.75"
         id="path562" /><path
         d="m 239,303 v -2"
         style="fill:none;stroke:#8f8f8f;stroke-width:0.4;stroke-linecap:butt;stroke-linejoin:miter;stroke-miterlimit:10;stroke-dasharray:none;stroke-opacity:0.75"
         id="path564" /><path
         d="m 239,141 v -2"
         style="fill:none;stroke:#8f8f8f;stroke-width:0.4;stroke-linecap:butt;stroke-linejoin:miter;stroke-miterlimit:10;stroke-dasharray:none;stroke-opacity:0.75"
         id="path566" /><path
         d="M 239,140 V 302"
         style="fill:none;stroke:#8f8f8f;stroke-width:0.4;stroke-linecap:butt;stroke-linejoin:miter;stroke-miterlimit:10;stroke-dasharray:1, 1;stroke-dashoffset:0;stroke-opacity:0.75"
         id="path568" /><path
         d="m 267,303 v -2"
         style="fill:none;stroke:#8f8f8f;stroke-width:0.4;stroke-linecap:butt;stroke-linejoin:miter;stroke-miterlimit:10;stroke-dasharray:none;stroke-opacity:0.75"
         id="path570" /><path
         d="m 267,141 v -2"
         style="fill:none;stroke:#8f8f8f;stroke-width:0.4;stroke-linecap:butt;stroke-linejoin:miter;stroke-miterlimit:10;stroke-dasharray:none;stroke-opacity:0.75"
         id="path572" /><path
         d="M 267,140 V 302"
         style="fill:none;stroke:#8f8f8f;stroke-width:0.4;stroke-linecap:butt;stroke-linejoin:miter;stroke-miterlimit:10;stroke-dasharray:1, 1;stroke-dashoffset:0;stroke-opacity:0.75"
         id="path574" /><path
         d="m 323,303 v -2"
         style="fill:none;stroke:#8f8f8f;stroke-width:0.4;stroke-linecap:butt;stroke-linejoin:miter;stroke-miterlimit:10;stroke-dasharray:none;stroke-opacity:0.75"
         id="path576" /><path
         d="m 323,141 v -2"
         style="fill:none;stroke:#8f8f8f;stroke-width:0.4;stroke-linecap:butt;stroke-linejoin:miter;stroke-miterlimit:10;stroke-dasharray:none;stroke-opacity:0.75"
         id="path578" /><path
         d="M 323,140 V 302"
         style="fill:none;stroke:#8f8f8f;stroke-width:0.4;stroke-linecap:butt;stroke-linejoin:miter;stroke-miterlimit:10;stroke-dasharray:1, 1;stroke-dashoffset:0;stroke-opacity:0.75"
         id="path580" /><path
         d="m 350,303 v -2"
         style="fill:none;stroke:#8f8f8f;stroke-width:0.4;stroke-linecap:butt;stroke-linejoin:miter;stroke-miterlimit:10;stroke-dasharray:none;stroke-opacity:0.75"
         id="path582" /><path
         d="m 350,141 v -2"
         style="fill:none;stroke:#8f8f8f;stroke-width:0.4;stroke-linecap:butt;stroke-linejoin:miter;stroke-miterlimit:10;stroke-dasharray:none;stroke-opacity:0.75"
         id="path584" /><path
         d="M 350,140 V 302"
         style="fill:none;stroke:#8f8f8f;stroke-width:0.4;stroke-linecap:butt;stroke-linejoin:miter;stroke-miterlimit:10;stroke-dasharray:1, 1;stroke-dashoffset:0;stroke-opacity:0.75"
         id="path586" /><path
         d="m 378,303 v -2"
         style="fill:none;stroke:#8f8f8f;stroke-width:0.4;stroke-linecap:butt;stroke-linejoin:miter;stroke-miterlimit:10;stroke-dasharray:none;stroke-opacity:0.75"
         id="path588" /><path
         d="m 378,141 v -2"
         style="fill:none;stroke:#8f8f8f;stroke-width:0.4;stroke-linecap:butt;stroke-linejoin:miter;stroke-miterlimit:10;stroke-dasharray:none;stroke-opacity:0.75"
         id="path590" /><path
         d="M 378,140 V 302"
         style="fill:none;stroke:#8f8f8f;stroke-width:0.4;stroke-linecap:butt;stroke-linejoin:miter;stroke-miterlimit:10;stroke-dasharray:1, 1;stroke-dashoffset:0;stroke-opacity:0.75"
         id="path592" /><path
         d="m 434,303 v -2"
         style="fill:none;stroke:#8f8f8f;stroke-width:0.4;stroke-linecap:butt;stroke-linejoin:miter;stroke-miterlimit:10;stroke-dasharray:none;stroke-opacity:0.75"
         id="path594" /><path
         d="m 434,141 v -2"
         style="fill:none;stroke:#8f8f8f;stroke-width:0.4;stroke-linecap:butt;stroke-linejoin:miter;stroke-miterlimit:10;stroke-dasharray:none;stroke-opacity:0.75"
         id="path596" /><path
         d="M 434,140 V 302"
         style="fill:none;stroke:#8f8f8f;stroke-width:0.4;stroke-linecap:butt;stroke-linejoin:miter;stroke-miterlimit:10;stroke-dasharray:1, 1;stroke-dashoffset:0;stroke-opacity:0.75"
         id="path598" /><path
         d="m 461,303 v -2"
         style="fill:none;stroke:#8f8f8f;stroke-width:0.4;stroke-linecap:butt;stroke-linejoin:miter;stroke-miterlimit:10;stroke-dasharray:none;stroke-opacity:0.75"
         id="path600" /><path
         d="m 461,141 v -2"
         style="fill:none;stroke:#8f8f8f;stroke-width:0.4;stroke-linecap:butt;stroke-linejoin:miter;stroke-miterlimit:10;stroke-dasharray:none;stroke-opacity:0.75"
         id="path602" /><path
         d="M 461,140 V 302"
         style="fill:none;stroke:#8f8f8f;stroke-width:0.4;stroke-linecap:butt;stroke-linejoin:miter;stroke-miterlimit:10;stroke-dasharray:1, 1;stroke-dashoffset:0;stroke-opacity:0.75"
         id="path604" /><path
         d="m 489,303 v -2"
         style="fill:none;stroke:#8f8f8f;stroke-width:0.4;stroke-linecap:butt;stroke-linejoin:miter;stroke-miterlimit:10;stroke-dasharray:none;stroke-opacity:0.75"
         id="path606" /><path
         d="m 489,141 v -2"
         style="fill:none;stroke:#8f8f8f;stroke-width:0.4;stroke-linecap:butt;stroke-linejoin:miter;stroke-miterlimit:10;stroke-dasharray:none;stroke-opacity:0.75"
         id="path608" /><path
         d="M 489,140 V 302"
         style="fill:none;stroke:#8f8f8f;stroke-width:0.4;stroke-linecap:butt;stroke-linejoin:miter;stroke-miterlimit:10;stroke-dasharray:1, 1;stroke-dashoffset:0;stroke-opacity:0.75"
         id="path610" /><path
         d="m 545,303 v -2"
         style="fill:none;stroke:#8f8f8f;stroke-width:0.4;stroke-linecap:butt;stroke-linejoin:miter;stroke-miterlimit:10;stroke-dasharray:none;stroke-opacity:0.75"
         id="path612" /><path
         d="m 545,141 v -2"
         style="fill:none;stroke:#8f8f8f;stroke-width:0.4;stroke-linecap:butt;stroke-linejoin:miter;stroke-miterlimit:10;stroke-dasharray:none;stroke-opacity:0.75"
         id="path614" /><path
         d="M 545,140 V 302"
         style="fill:none;stroke:#8f8f8f;stroke-width:0.4;stroke-linecap:butt;stroke-linejoin:miter;stroke-miterlimit:10;stroke-dasharray:1, 1;stroke-dashoffset:0;stroke-opacity:0.75"
         id="path616" /><path
         d="m 73,303 v -2"
         style="fill:none;stroke:#de4f4f;stroke-width:0.6;stroke-linecap:butt;stroke-linejoin:miter;stroke-miterlimit:10;stroke-dasharray:none;stroke-opacity:0.6"
         id="path618" /><path
         d="m 73,141 v -3"
         style="fill:none;stroke:#de4f4f;stroke-width:0.6;stroke-linecap:butt;stroke-linejoin:miter;stroke-miterlimit:10;stroke-dasharray:none;stroke-opacity:0.6"
         id="path620" /><path
         d="M 73,138 V 303"
         style="fill:none;stroke:#de4f4f;stroke-width:0.6;stroke-linecap:butt;stroke-linejoin:miter;stroke-miterlimit:10;stroke-dasharray:1, 1;stroke-dashoffset:0;stroke-opacity:0.6"
         id="path622" /><path
         d="m 184,303 v -2"
         style="fill:none;stroke:#de4f4f;stroke-width:0.6;stroke-linecap:butt;stroke-linejoin:miter;stroke-miterlimit:10;stroke-dasharray:none;stroke-opacity:0.6"
         id="path624" /><path
         d="m 184,141 v -3"
         style="fill:none;stroke:#de4f4f;stroke-width:0.6;stroke-linecap:butt;stroke-linejoin:miter;stroke-miterlimit:10;stroke-dasharray:none;stroke-opacity:0.6"
         id="path626" /><path
         d="M 184,138 V 303"
         style="fill:none;stroke:#de4f4f;stroke-width:0.6;stroke-linecap:butt;stroke-linejoin:miter;stroke-miterlimit:10;stroke-dasharray:1, 1;stroke-dashoffset:0;stroke-opacity:0.6"
         id="path628" /><path
         d="m 295,303 v -2"
         style="fill:none;stroke:#de4f4f;stroke-width:0.6;stroke-linecap:butt;stroke-linejoin:miter;stroke-miterlimit:10;stroke-dasharray:none;stroke-opacity:0.6"
         id="path630" /><path
         d="m 295,141 v -3"
         style="fill:none;stroke:#de4f4f;stroke-width:0.6;stroke-linecap:butt;stroke-linejoin:miter;stroke-miterlimit:10;stroke-dasharray:none;stroke-opacity:0.6"
         id="path632" /><path
         d="M 295,138 V 303"
         style="fill:none;stroke:#de4f4f;stroke-width:0.6;stroke-linecap:butt;stroke-linejoin:miter;stroke-miterlimit:10;stroke-dasharray:1, 1;stroke-dashoffset:0;stroke-opacity:0.6"
         id="path634" /><path
         d="m 406,303 v -2"
         style="fill:none;stroke:#de4f4f;stroke-width:0.6;stroke-linecap:butt;stroke-linejoin:miter;stroke-miterlimit:10;stroke-dasharray:none;stroke-opacity:0.6"
         id="path636" /><path
         d="m 406,141 v -3"
         style="fill:none;stroke:#de4f4f;stroke-width:0.6;stroke-linecap:butt;stroke-linejoin:miter;stroke-miterlimit:10;stroke-dasharray:none;stroke-opacity:0.6"
         id="path638" /><path
         d="M 406,138 V 303"
         style="fill:none;stroke:#de4f4f;stroke-width:0.6;stroke-linecap:butt;stroke-linejoin:miter;stroke-miterlimit:10;stroke-dasharray:1, 1;stroke-dashoffset:0;stroke-opacity:0.6"
         id="path640" /><path
         d="m 517,303 v -2"
         style="fill:none;stroke:#de4f4f;stroke-width:0.6;stroke-linecap:butt;stroke-linejoin:miter;stroke-miterlimit:10;stroke-dasharray:none;stroke-opacity:0.6"
         id="path642" /><path
         d="m 517,141 v -3"
         style="fill:none;stroke:#de4f4f;stroke-width:0.6;stroke-linecap:butt;stroke-linejoin:miter;stroke-miterlimit:10;stroke-dasharray:none;stroke-opacity:0.6"
         id="path644" /><path
         d="M 517,138 V 303"
         style="fill:none;stroke:#de4f4f;stroke-width:0.6;stroke-linecap:butt;stroke-linejoin:miter;stroke-miterlimit:10;stroke-dasharray:1, 1;stroke-dashoffset:0;stroke-opacity:0.6"
         id="path646" /><text
         transform="matrix(1,0,0,-1,56,128)"
         style="font-variant:normal;font-weight:normal;font-size:11.1113px;font-family:'DejaVu Sans Mono';-inkscape-font-specification:DejaVuSansMono;writing-mode:lr-tb;fill:#000000;fill-opacity:1;fill-rule:nonzero;stroke:none"
         id="text652"><tspan
           x="0 7.0001369 14.000274 21.00041 28.000547 111.00217 117.9912 124.99133 131.99147 138.99161 222 229.00014 236.00027 243.00041 250.00055 333.00217 339.99118 346.99133 353.99146 360.99161 444 451.00012 458.00027 465.0004 472.00055"
           y="0"
           id="tspan648">16:0016:2016:4017:0017:20</tspan><tspan
           x="-18.999992 2.0004168"
           y="-8.9999981"
           id="tspan650"> 0</tspan></text><path
         d="m 71,141 h 2"
         style="fill:none;stroke:#de4f4f;stroke-width:0.6;stroke-linecap:butt;stroke-linejoin:miter;stroke-miterlimit:10;stroke-dasharray:none;stroke-opacity:0.6"
         id="path654" /><path
         d="m 573,141 h 2"
         style="fill:none;stroke:#de4f4f;stroke-width:0.6;stroke-linecap:butt;stroke-linejoin:miter;stroke-miterlimit:10;stroke-dasharray:none;stroke-opacity:0.6"
         id="path656" /><path
         d="M 71,141 H 575"
         style="fill:none;stroke:#de4f4f;stroke-width:0.6;stroke-linecap:butt;stroke-linejoin:miter;stroke-miterlimit:10;stroke-dasharray:1, 1;stroke-dashoffset:0;stroke-opacity:0.6"
         id="path658" /><path
         d="m 71,156.965 h 2"
         style="fill:none;stroke:#8f8f8f;stroke-width:0.4;stroke-linecap:butt;stroke-linejoin:miter;stroke-miterlimit:10;stroke-dasharray:none;stroke-opacity:0.75"
         id="path660" /><path
         d="m 573,156.965 h 2"
         style="fill:none;stroke:#8f8f8f;stroke-width:0.4;stroke-linecap:butt;stroke-linejoin:miter;stroke-miterlimit:10;stroke-dasharray:none;stroke-opacity:0.75"
         id="path662" /><path
         d="M 72,156.965 H 574"
         style="fill:none;stroke:#8f8f8f;stroke-width:0.4;stroke-linecap:butt;stroke-linejoin:miter;stroke-miterlimit:10;stroke-dasharray:1, 1;stroke-dashoffset:0;stroke-opacity:0.75"
         id="path664" /><text
         transform="matrix(1,0,0,-1,51.000273,168.93359)"
         style="font-variant:normal;font-weight:normal;font-size:11.1113px;font-family:'DejaVu Sans Mono';-inkscape-font-specification:DejaVuSansMono;writing-mode:lr-tb;fill:#000000;fill-opacity:1;fill-rule:nonzero;stroke:none"
         id="text668"><tspan
           x="0 7.0001369"
           y="0"
           id="tspan666">20</tspan></text><path
         d="m 71,172.934 h 2"
         style="fill:none;stroke:#de4f4f;stroke-width:0.6;stroke-linecap:butt;stroke-linejoin:miter;stroke-miterlimit:10;stroke-dasharray:none;stroke-opacity:0.6"
         id="path670" /><path
         d="m 573,172.934 h 2"
         style="fill:none;stroke:#de4f4f;stroke-width:0.6;stroke-linecap:butt;stroke-linejoin:miter;stroke-miterlimit:10;stroke-dasharray:none;stroke-opacity:0.6"
         id="path672" /><path
         d="M 71,172.934 H 575"
         style="fill:none;stroke:#de4f4f;stroke-width:0.6;stroke-linecap:butt;stroke-linejoin:miter;stroke-miterlimit:10;stroke-dasharray:1, 1;stroke-dashoffset:0;stroke-opacity:0.6"
         id="path674" /><path
         d="m 71,188.898 h 2"
         style="fill:none;stroke:#8f8f8f;stroke-width:0.4;stroke-linecap:butt;stroke-linejoin:miter;stroke-miterlimit:10;stroke-dasharray:none;stroke-opacity:0.75"
         id="path676" /><path
         d="m 573,188.898 h 2"
         style="fill:none;stroke:#8f8f8f;stroke-width:0.4;stroke-linecap:butt;stroke-linejoin:miter;stroke-miterlimit:10;stroke-dasharray:none;stroke-opacity:0.75"
         id="path678" /><path
         d="M 72,188.898 H 574"
         style="fill:none;stroke:#8f8f8f;stroke-width:0.4;stroke-linecap:butt;stroke-linejoin:miter;stroke-miterlimit:10;stroke-dasharray:1, 1;stroke-dashoffset:0;stroke-opacity:0.75"
         id="path680" /><text
         transform="matrix(1,0,0,-1,51.000273,200.86328)"
         style="font-variant:normal;font-weight:normal;font-size:11.1113px;font-family:'DejaVu Sans Mono';-inkscape-font-specification:DejaVuSansMono;writing-mode:lr-tb;fill:#000000;fill-opacity:1;fill-rule:nonzero;stroke:none"
         id="text684"><tspan
           x="0 7.0001369"
           y="0"
           id="tspan682">40</tspan></text><path
         d="m 71,204.863 h 2"
         style="fill:none;stroke:#de4f4f;stroke-width:0.6;stroke-linecap:butt;stroke-linejoin:miter;stroke-miterlimit:10;stroke-dasharray:none;stroke-opacity:0.6"
         id="path686" /><path
         d="m 573,204.863 h 2"
         style="fill:none;stroke:#de4f4f;stroke-width:0.6;stroke-linecap:butt;stroke-linejoin:miter;stroke-miterlimit:10;stroke-dasharray:none;stroke-opacity:0.6"
         id="path688" /><path
         d="M 71,204.863 H 575"
         style="fill:none;stroke:#de4f4f;stroke-width:0.6;stroke-linecap:butt;stroke-linejoin:miter;stroke-miterlimit:10;stroke-dasharray:1, 1;stroke-dashoffset:0;stroke-opacity:0.6"
         id="path690" /><path
         d="m 71,220.832 h 2"
         style="fill:none;stroke:#8f8f8f;stroke-width:0.4;stroke-linecap:butt;stroke-linejoin:miter;stroke-miterlimit:10;stroke-dasharray:none;stroke-opacity:0.75"
         id="path692" /><path
         d="m 573,220.832 h 2"
         style="fill:none;stroke:#8f8f8f;stroke-width:0.4;stroke-linecap:butt;stroke-linejoin:miter;stroke-miterlimit:10;stroke-dasharray:none;stroke-opacity:0.75"
         id="path694" /><path
         d="M 72,220.832 H 574"
         style="fill:none;stroke:#8f8f8f;stroke-width:0.4;stroke-linecap:butt;stroke-linejoin:miter;stroke-miterlimit:10;stroke-dasharray:1, 1;stroke-dashoffset:0;stroke-opacity:0.75"
         id="path696" /><text
         transform="matrix(1,0,0,-1,51.000273,232.79687)"
         style="font-variant:normal;font-weight:normal;font-size:11.1113px;font-family:'DejaVu Sans Mono';-inkscape-font-specification:DejaVuSansMono;writing-mode:lr-tb;fill:#000000;fill-opacity:1;fill-rule:nonzero;stroke:none"
         id="text700"><tspan
           x="0 7.0001369"
           y="0"
           id="tspan698">60</tspan></text><path
         d="m 71,236.797 h 2"
         style="fill:none;stroke:#de4f4f;stroke-width:0.6;stroke-linecap:butt;stroke-linejoin:miter;stroke-miterlimit:10;stroke-dasharray:none;stroke-opacity:0.6"
         id="path702" /><path
         d="m 573,236.797 h 2"
         style="fill:none;stroke:#de4f4f;stroke-width:0.6;stroke-linecap:butt;stroke-linejoin:miter;stroke-miterlimit:10;stroke-dasharray:none;stroke-opacity:0.6"
         id="path704" /><path
         d="M 71,236.797 H 575"
         style="fill:none;stroke:#de4f4f;stroke-width:0.6;stroke-linecap:butt;stroke-linejoin:miter;stroke-miterlimit:10;stroke-dasharray:1, 1;stroke-dashoffset:0;stroke-opacity:0.6"
         id="path706" /><path
         d="m 71,252.762 h 2"
         style="fill:none;stroke:#8f8f8f;stroke-width:0.4;stroke-linecap:butt;stroke-linejoin:miter;stroke-miterlimit:10;stroke-dasharray:none;stroke-opacity:0.75"
         id="path708" /><path
         d="m 573,252.762 h 2"
         style="fill:none;stroke:#8f8f8f;stroke-width:0.4;stroke-linecap:butt;stroke-linejoin:miter;stroke-miterlimit:10;stroke-dasharray:none;stroke-opacity:0.75"
         id="path710" /><path
         d="M 72,252.762 H 574"
         style="fill:none;stroke:#8f8f8f;stroke-width:0.4;stroke-linecap:butt;stroke-linejoin:miter;stroke-miterlimit:10;stroke-dasharray:1, 1;stroke-dashoffset:0;stroke-opacity:0.75"
         id="path712" /><text
         transform="matrix(1,0,0,-1,51.000273,264.73047)"
         style="font-variant:normal;font-weight:normal;font-size:11.1113px;font-family:'DejaVu Sans Mono';-inkscape-font-specification:DejaVuSansMono;writing-mode:lr-tb;fill:#000000;fill-opacity:1;fill-rule:nonzero;stroke:none"
         id="text716"><tspan
           x="0 7.0001369"
           y="0"
           id="tspan714">80</tspan></text><path
         d="m 71,268.73 h 2"
         style="fill:none;stroke:#de4f4f;stroke-width:0.6;stroke-linecap:butt;stroke-linejoin:miter;stroke-miterlimit:10;stroke-dasharray:none;stroke-opacity:0.6"
         id="path718" /><path
         d="m 573,268.73 h 2"
         style="fill:none;stroke:#de4f4f;stroke-width:0.6;stroke-linecap:butt;stroke-linejoin:miter;stroke-miterlimit:10;stroke-dasharray:none;stroke-opacity:0.6"
         id="path720" /><path
         d="M 71,268.73 H 575"
         style="fill:none;stroke:#de4f4f;stroke-width:0.6;stroke-linecap:butt;stroke-linejoin:miter;stroke-miterlimit:10;stroke-dasharray:1, 1;stroke-dashoffset:0;stroke-opacity:0.6"
         id="path722" /><path
         d="m 71,284.695 h 2"
         style="fill:none;stroke:#8f8f8f;stroke-width:0.4;stroke-linecap:butt;stroke-linejoin:miter;stroke-miterlimit:10;stroke-dasharray:none;stroke-opacity:0.75"
         id="path724" /><path
         d="m 573,284.695 h 2"
         style="fill:none;stroke:#8f8f8f;stroke-width:0.4;stroke-linecap:butt;stroke-linejoin:miter;stroke-miterlimit:10;stroke-dasharray:none;stroke-opacity:0.75"
         id="path726" /><path
         d="M 72,284.695 H 574"
         style="fill:none;stroke:#8f8f8f;stroke-width:0.4;stroke-linecap:butt;stroke-linejoin:miter;stroke-miterlimit:10;stroke-dasharray:1, 1;stroke-dashoffset:0;stroke-opacity:0.75"
         id="path728" /><text
         transform="matrix(1,0,0,-1,44.000137,296.66016)"
         style="font-variant:normal;font-weight:normal;font-size:11.1113px;font-family:'DejaVu Sans Mono';-inkscape-font-specification:DejaVuSansMono;writing-mode:lr-tb;fill:#000000;fill-opacity:1;fill-rule:nonzero;stroke:none"
         id="text732"><tspan
           x="0 7.0001369 14.000274"
           y="0"
           id="tspan730">100</tspan></text><path
         d="m 71,300.66 h 2"
         style="fill:none;stroke:#de4f4f;stroke-width:0.6;stroke-linecap:butt;stroke-linejoin:miter;stroke-miterlimit:10;stroke-dasharray:none;stroke-opacity:0.6"
         id="path734" /><path
         d="m 573,300.66 h 2"
         style="fill:none;stroke:#de4f4f;stroke-width:0.6;stroke-linecap:butt;stroke-linejoin:miter;stroke-miterlimit:10;stroke-dasharray:none;stroke-opacity:0.6"
         id="path736" /><path
         d="M 71,300.66 H 575"
         style="fill:none;stroke:#de4f4f;stroke-width:0.6;stroke-linecap:butt;stroke-linejoin:miter;stroke-miterlimit:10;stroke-dasharray:1, 1;stroke-dashoffset:0;stroke-opacity:0.6"
         id="path738" /><text
         transform="matrix(0,1,1,0,14,197)"
         style="font-variant:normal;font-weight:normal;font-size:11.1113px;font-family:'DejaVu Sans Mono';-inkscape-font-specification:DejaVuSansMono;writing-mode:lr-tb;fill:#000000;fill-opacity:1;fill-rule:nonzero;stroke:none"
         id="text742"><tspan
           x="0 7.0001369 14.000274 21.00041 28.000547 35.000683 42.00082"
           y="0"
           id="tspan740">Percent</tspan></text><text
         transform="matrix(1,0,0,-1,245,318)"
         style="font-variant:normal;font-weight:normal;font-size:13.8887px;font-family:'DejaVu Sans Mono';-inkscape-font-specification:DejaVuSansMono;writing-mode:lr-tb;fill:#000000;fill-opacity:1;fill-rule:nonzero;stroke:none"
         id="text746"><tspan
           x="0 7.9998751 15.99975 23.999626 31.9995 39.999374 47.999252 55.999126 63.999001 71.998878 79.998749 87.998627 95.984612 103.98449"
           y="0"
           id="tspan744">sepp/cpu-1/cpu</tspan></text><text
         transform="matrix(0,-1,-1,0,592,332)"
         style="font-variant:normal;font-weight:normal;font-size:7.63867px;font-family:'DejaVu Sans Mono';-inkscape-font-specification:DejaVuSansMono;writing-mode:lr-tb;fill:#000000;fill-opacity:0.3;fill-rule:nonzero;stroke:none"
         id="text750"><tspan
           x="0 5.0033302 9.9990215 15.002352 19.998043 25.001373 29.997065 35.000397 39.996086 44.999416 49.99511 54.99844 59.994129 64.997459 69.993149 74.996483 79.992172 84.995506 89.991196 94.994522 99.990219 104.99355"
           y="0"
           id="tspan748">RRDTOOL / TOBI OETIKER</tspan></text><text
         transform="matrix(1,0,0,-1,30.000273,108)"
         style="font-variant:normal;font-weight:normal;font-size:11.1113px;font-family:'DejaVu Sans Mono';-inkscape-font-specification:DejaVuSansMono;writing-mode:lr-tb;fill:#000000;fill-opacity:1;fill-rule:nonzero;stroke:none"
         id="text754"><tspan
           x="0 7.0001369 14.000274 21.00041 28.000547"
           y="0"
           id="tspan752">idle </tspan></text><path
         d="m 16,116.762 h 8.398 V 108.36 H 16 Z"
         style="fill:#ffffff;fill-opacity:1;fill-rule:nonzero;stroke:none"
         id="path756" /><path
         d="m 16,116.762 h 8.398 V 108.36 H 16 Z"
         style="fill:none;stroke:#000000;stroke-width:1;stroke-linecap:butt;stroke-linejoin:miter;stroke-miterlimit:10;stroke-dasharray:none;stroke-opacity:1"
         id="path758" /><text
         transform="matrix(1,0,0,-1,130.00041,108)"
         style="font-variant:normal;font-weight:normal;font-size:11.1113px;font-family:'DejaVu Sans Mono';-inkscape-font-specification:DejaVuSansMono;writing-mode:lr-tb;fill:#000000;fill-opacity:1;fill-rule:nonzero;stroke:none"
         id="text764"><tspan
           x="0 7.0001369 14.000274 21.00041 28.000547 34.989571 41.989708 48.989845 71.990295 85.99057 92.990707 99.990837 106.99097 113.99111 120.99125 127.99139 134.99153 141.99165 164.99211 178.98128 185.98141 192.98155 199.98167 206.98181 213.98195 220.98209 227.98222 234.98236 257.98282 271.98309 278.98322 285.98337 292.98349 299.97253 306.97266 313.97281 320.97293 327.97308"
           y="0"
           id="tspan760">0.9 Min, 81.4 Avg, 96.7 Max, 92.2 Last</tspan><tspan
           x="-114.00041 -100.00014 -93.000008 -85.99987 -78.999733 -71.999596"
           y="13.999995"
           id="tspan762"> nice </tspan></text><path
         d="m 16,102.762 h 8.398 V 94.36 H 16 Z"
         style="fill:#00e000;fill-opacity:1;fill-rule:nonzero;stroke:none"
         id="path766" /><path
         d="m 16,102.762 h 8.398 V 94.36 H 16 Z"
         style="fill:none;stroke:#000000;stroke-width:1;stroke-linecap:butt;stroke-linejoin:miter;stroke-miterlimit:10;stroke-dasharray:none;stroke-opacity:1"
         id="path768" /><text
         transform="matrix(1,0,0,-1,130.00041,94)"
         style="font-variant:normal;font-weight:normal;font-size:11.1113px;font-family:'DejaVu Sans Mono';-inkscape-font-specification:DejaVuSansMono;writing-mode:lr-tb;fill:#000000;fill-opacity:1;fill-rule:nonzero;stroke:none"
         id="text774"><tspan
           x="0 7.0001369 14.000274 21.00041 28.000547 34.989571 41.989708 48.989845 71.990295 92.990707 99.990837 106.99097 113.99111 120.99125 127.99139 134.99153 141.99165 164.99211 185.98141 192.98155 199.98167 206.98181 213.98195 220.98209 227.98222 234.98236 257.98282 278.98322 285.98337 292.98349 299.97253 306.97266 313.97281 320.97293 327.97308"
           y="0"
           id="tspan770">0.0 Min, 0.0 Avg, 0.0 Max, 0.0 Last</tspan><tspan
           x="-114.00041 -100.00014 -93.000008 -85.99987 -78.999733 -71.999596"
           y="13.999995"
           id="tspan772"> user </tspan></text><path
         d="m 16,88.762 h 8.398 V 80.36 H 16 Z"
         style="fill:#0000ff;fill-opacity:1;fill-rule:nonzero;stroke:none"
         id="path776" /><path
         d="m 16,88.762 h 8.398 V 80.36 H 16 Z"
         style="fill:none;stroke:#000000;stroke-width:1;stroke-linecap:butt;stroke-linejoin:miter;stroke-miterlimit:10;stroke-dasharray:none;stroke-opacity:1"
         id="path778" /><text
         transform="matrix(1,0,0,-1,130.00041,80)"
         style="font-variant:normal;font-weight:normal;font-size:11.1113px;font-family:'DejaVu Sans Mono';-inkscape-font-specification:DejaVuSansMono;writing-mode:lr-tb;fill:#000000;fill-opacity:1;fill-rule:nonzero;stroke:none"
         id="text784"><tspan
           x="0 7.0001369 14.000274 21.00041 28.000547 34.989571 41.989708 48.989845 71.990295 92.990707 99.990837 106.99097 113.99111 120.99125 127.99139 134.99153 141.99165 164.99211 178.98128 185.98141 192.98155 199.98167 206.98181 213.98195 220.98209 227.98222 234.98236 257.98282 278.98322 285.98337 292.98349 299.97253 306.97266 313.97281 320.97293 327.97308"
           y="0"
           id="tspan780">0.4 Min, 7.3 Avg, 85.3 Max, 2.7 Last</tspan><tspan
           x="-114.00041 -100.00014 -93.000008 -85.99987 -78.999733 -71.999596"
           y="13.999995"
           id="tspan782"> wait </tspan></text><path
         d="m 16,74.762 h 8.398 V 66.36 H 16 Z"
         style="fill:#ffb000;fill-opacity:1;fill-rule:nonzero;stroke:none"
         id="path786" /><path
         d="m 16,74.762 h 8.398 V 66.36 H 16 Z"
         style="fill:none;stroke:#000000;stroke-width:1;stroke-linecap:butt;stroke-linejoin:miter;stroke-miterlimit:10;stroke-dasharray:none;stroke-opacity:1"
         id="path788" /><text
         transform="matrix(1,0,0,-1,130.00041,66)"
         style="font-variant:normal;font-weight:normal;font-size:11.1113px;font-family:'DejaVu Sans Mono';-inkscape-font-specification:DejaVuSansMono;writing-mode:lr-tb;fill:#000000;fill-opacity:1;fill-rule:nonzero;stroke:none"
         id="text794"><tspan
           x="0 7.0001369 14.000274 21.00041 28.000547 34.989571 41.989708 48.989845 71.990295 92.990707 99.990837 106.99097 113.99111 120.99125 127.99139 134.99153 141.99165 164.99211 178.98128 185.98141 192.98155 199.98167 206.98181 213.98195 220.98209 227.98222 234.98236 257.98282 278.98322 285.98337 292.98349 299.97253 306.97266 313.97281 320.97293 327.97308"
           y="0"
           id="tspan790">0.0 Min, 3.6 Avg, 42.4 Max, 0.2 Last</tspan><tspan
           x="-114.00041 -100.00014 -93.000008 -85.99987 -78.999733 -71.999596 -64.999458 -58.010433"
           y="13.999995"
           id="tspan792"> system </tspan></text><path
         d="m 16,60.762 h 8.398 V 52.36 H 16 Z"
         style="fill:#ff0000;fill-opacity:1;fill-rule:nonzero;stroke:none"
         id="path796" /><path
         d="m 16,60.762 h 8.398 V 52.36 H 16 Z"
         style="fill:none;stroke:#000000;stroke-width:1;stroke-linecap:butt;stroke-linejoin:miter;stroke-miterlimit:10;stroke-dasharray:none;stroke-opacity:1"
         id="path798" /><text
         transform="matrix(1,0,0,-1,130.00041,52)"
         style="font-variant:normal;font-weight:normal;font-size:11.1113px;font-family:'DejaVu Sans Mono';-inkscape-font-specification:DejaVuSansMono;writing-mode:lr-tb;fill:#000000;fill-opacity:1;fill-rule:nonzero;stroke:none"
         id="text804"><tspan
           x="0 7.0001369 14.000274 21.00041 28.000547 34.989571 41.989708 48.989845 71.990295 92.990707 99.990837 106.99097 113.99111 120.99125 127.99139 134.99153 141.99165 164.99211 178.98128 185.98141 192.98155 199.98167 206.98181 213.98195 220.98209 227.98222 234.98236 257.98282 278.98322 285.98337 292.98349 299.97253 306.97266 313.97281 320.97293 327.97308"
           y="0"
           id="tspan800">2.3 Min, 7.6 Avg, 28.6 Max, 4.9 Last</tspan><tspan
           x="-114.00041 -100.00014 -93.000008 -85.99987 -78.999733 -71.999596 -64.999458 -58.010433 -51.010296"
           y="13.999995"
           id="tspan802"> softirq </tspan></text><path
         d="m 16,46.762 h 8.398 V 38.36 H 16 Z"
         style="fill:#ff00ff;fill-opacity:1;fill-rule:nonzero;stroke:none"
         id="path806" /><path
         d="m 16,46.762 h 8.398 V 38.36 H 16 Z"
         style="fill:none;stroke:#000000;stroke-width:1;stroke-linecap:butt;stroke-linejoin:miter;stroke-miterlimit:10;stroke-dasharray:none;stroke-opacity:1"
         id="path808" /><text
         transform="matrix(1,0,0,-1,130.00041,38)"
         style="font-variant:normal;font-weight:normal;font-size:11.1113px;font-family:'DejaVu Sans Mono';-inkscape-font-specification:DejaVuSansMono;writing-mode:lr-tb;fill:#000000;fill-opacity:1;fill-rule:nonzero;stroke:none"
         id="text814"><tspan
           x="0 7.0001369 14.000274 21.00041 28.000547 34.989571 41.989708 48.989845 71.990295 92.990707 99.990837 106.99097 113.99111 120.99125 127.99139 134.99153 141.99165 164.99211 185.98141 192.98155 199.98167 206.98181 213.98195 220.98209 227.98222 234.98236 257.98282 278.98322 285.98337 292.98349 299.97253 306.97266 313.97281 320.97293 327.97308"
           y="0"
           id="tspan810">0.0 Min, 0.0 Avg, 0.4 Max, 0.0 Last</tspan><tspan
           x="-114.00041 -100.00014 -93.000008 -85.99987 -78.999733 -71.999596 -64.999458 -58.010433 -51.010296 -44.010159"
           y="13.999995"
           id="tspan812"> interrupt</tspan></text><path
         d="m 16,32.762 h 8.398 V 24.36 H 16 Z"
         style="fill:#a000a0;fill-opacity:1;fill-rule:nonzero;stroke:none"
         id="path816" /><path
         d="m 16,32.762 h 8.398 V 24.36 H 16 Z"
         style="fill:none;stroke:#000000;stroke-width:1;stroke-linecap:butt;stroke-linejoin:miter;stroke-miterlimit:10;stroke-dasharray:none;stroke-opacity:1"
         id="path818" /><text
         transform="matrix(1,0,0,-1,130.00041,24)"
         style="font-variant:normal;font-weight:normal;font-size:11.1113px;font-family:'DejaVu Sans Mono';-inkscape-font-specification:DejaVuSansMono;writing-mode:lr-tb;fill:#000000;fill-opacity:1;fill-rule:nonzero;stroke:none"
         id="text824"><tspan
           x="0 7.0001369 14.000274 21.00041 28.000547 34.989571 41.989708 48.989845 71.990295 92.990707 99.990837 106.99097 113.99111 120.99125 127.99139 134.99153 141.99165 164.99211 185.98141 192.98155 199.98167 206.98181 213.98195 220.98209 227.98222 234.98236 257.98282 278.98322 285.98337 292.98349 299.97253 306.97266 313.97281 320.97293 327.97308"
           y="0"
           id="tspan820">0.0 Min, 0.0 Avg, 0.0 Max, 0.0 Last</tspan><tspan
           x="-114.00041 -100.00014 -93.000008 -85.99987 -78.999733 -71.999596 -64.999458"
           y="13.999995"
           id="tspan822"> steal </tspan></text><path
         d="m 16,18.762 h 8.398 V 10.36 H 16 Z"
         style="fill:#000000;fill-opacity:1;fill-rule:nonzero;stroke:none"
         id="path826" /><path
         d="m 16,18.762 h 8.398 V 10.36 H 16 Z"
         style="fill:none;stroke:#000000;stroke-width:1;stroke-linecap:butt;stroke-linejoin:miter;stroke-miterlimit:10;stroke-dasharray:none;stroke-opacity:1"
         id="path828" /><text
         transform="matrix(1,0,0,-1,130.00041,10)"
         style="font-variant:normal;font-weight:normal;font-size:11.1113px;font-family:'DejaVu Sans Mono';-inkscape-font-specification:DejaVuSansMono;writing-mode:lr-tb;fill:#000000;fill-opacity:1;fill-rule:nonzero;stroke:none"
         id="text832"><tspan
           x="0 7.0001369 14.000274 21.00041 28.000547 34.989571 41.989708 48.989845 71.990295 92.990707 99.990837 106.99097 113.99111 120.99125 127.99139 134.99153 141.99165 164.99211 185.98141 192.98155 199.98167 206.98181 213.98195 220.98209 227.98222 234.98236 257.98282 278.98322 285.98337 292.98349 299.97253 306.97266 313.97281 320.97293 327.97308"
           y="0"
           id="tspan830">0.0 Min, 0.0 Avg, 0.0 Max, 0.0 Last</tspan></text><path
         d="M 69,141 H 577"
         style="fill:none;stroke:#1f1f1f;stroke-width:0.6;stroke-linecap:butt;stroke-linejoin:miter;stroke-miterlimit:10;stroke-dasharray:none;stroke-opacity:1"
         id="path834" /><path
         d="M 73,137 V 305"
         style="fill:none;stroke:#1f1f1f;stroke-width:0.6;stroke-linecap:butt;stroke-linejoin:miter;stroke-miterlimit:10;stroke-dasharray:none;stroke-opacity:1"
         id="path836" /><path
         d="m 575,144 v -6 l 5,3 z"
         style="fill:#801f1f;fill-opacity:1;fill-rule:nonzero;stroke:none"
         id="path838" /><path
         d="m 70,303 h 6 l -3,5 z"
         style="fill:#801f1f;fill-opacity:1;fill-rule:nonzero;stroke:none"
         id="path840" /></g></g></svg>
