<?xml version="1.0" encoding="UTF-8" standalone="no"?>
<svg
   xmlns:dc="http://purl.org/dc/elements/1.1/"
   xmlns:cc="http://creativecommons.org/ns#"
   xmlns:rdf="http://www.w3.org/1999/02/22-rdf-syntax-ns#"
   xmlns:svg="http://www.w3.org/2000/svg"
   xmlns="http://www.w3.org/2000/svg"
   version="1.1"
   id="svg1294"
   xml:space="preserve"
   width="804"
   height="412"
   viewBox="0 0 804 412"><metadata
     id="metadata1300"><rdf:RDF><cc:Work
         rdf:about=""><dc:format>image/svg+xml</dc:format><dc:type
           rdf:resource="http://purl.org/dc/dcmitype/StillImage" /><dc:title></dc:title></cc:Work></rdf:RDF></metadata><defs
     id="defs1298"><clipPath
       clipPathUnits="userSpaceOnUse"
       id="clipPath1316"><path
         d="m 73,274 h 500 v -2 H 73 Z"
         id="path1314" /></clipPath><clipPath
       clipPathUnits="userSpaceOnUse"
       id="clipPath1330"><path
         d="M 73,273 H 573 V 240 H 73 Z"
         id="path1328" /></clipPath><clipPath
       clipPathUnits="userSpaceOnUse"
       id="clipPath1344"><path
         d="M 73,239 H 573 V 191 H 73 Z"
         id="path1342" /></clipPath><clipPath
       clipPathUnits="userSpaceOnUse"
       id="clipPath1358"><path
         d="M 73,223 H 573 V 169 H 73 Z"
         id="path1356" /></clipPath><clipPath
       clipPathUnits="userSpaceOnUse"
       id="clipPath1372"><path
         d="m 73,124 h 500 v -8 H 73 Z"
         id="path1370" /></clipPath><clipPath
       clipPathUnits="userSpaceOnUse"
       id="clipPath1388"><path
         d="m 73,114 h 500 v -2 H 73 Z"
         id="path1386" /></clipPath></defs><g
     id="g1302"
     transform="matrix(1.3333333,0,0,-1.3333333,0,412)"><g
       id="g1304"><path
         d="M 73,273 H 573 V 113 H 73 Z"
         style="fill:#ffffff;fill-opacity:1;fill-rule:nonzero;stroke:none"
         id="path1306" /><path
         d="M 73,273.199 H 572 V 112.801 H 73 Z"
         style="fill:#bff7bf;fill-opacity:1;fill-rule:nonzero;stroke:none"
         id="path1308" /></g><g
       id="g1310"><g
         id="g1312"
         clip-path="url(#clipPath1316)"><path
           d="M 73,273 H 572"
           style="fill:none;stroke:#00e000;stroke-width:1;stroke-linecap:round;stroke-linejoin:round;stroke-miterlimit:10;stroke-dasharray:none;stroke-opacity:1"
           id="path1318" /></g></g><g
       id="g1320"><path
         d="m 73,241.211 v -128.41 h 499 v 158.355 l -1,0.153 -1,-0.036 -1,0.024 -1,-0.078 -1,-0.043 -1,0.031 -1,0.211 -1,0.285 -1,-0.012 -1,-0.074 -1,-0.082 -1,-0.023 -1,0.218 -1,-0.121 -1,-0.109 -1,-0.035 -1,0.058 -1,-0.003 -1,-0.043 -1,0.015 -1,-0.082 -1,-0.898 -1,-2.922 -1,-6.172 -1,-4.848 -1,0.02 -1,-0.02 h -1 l -1,-0.074 -1,-0.004 -1,-0.113 -1,-0.055 h -1 l -1,0.031 -1,-0.015 -1,-0.078 -1,-0.059 -1,-0.015 h -1 l -1,-0.063 -1,0.004 -1,0.016 -1,-0.063 -1,-0.027 -1,0.64 -1,0.246 -1,10.422 -1,4.262 -1,0.152 -1,0.028 -1,0.047 -1,0.058 -1,-0.894 -1,-4.809 -1,-5.137 -1,-1.398 -1,-0.067 -1,0.004 -1,0.012 h -1 l -1,-0.062 -1,-0.039 -1,0.015 -1,-0.031 -1,-0.078 -1,-0.035 -1,0.047 -1,-0.043 -1,-0.071 -1,-0.019 h -1 l -1,-0.032 -1,-0.043 -1,-0.207 -1,-0.003 -1,-0.047 -1,-0.125 -1,0.191 -1,0.035 -1,0.094 -2,0.047 -1,-0.024 -1,-0.16 -1,-0.097 -1,0.007 -1,0.012 -1,-0.066 -1,0.015 -1,-0.027 -1,-0.086 -1,0.008 -1,-0.02 -1,-0.023 -1,0.035 -1,-0.039 -1,0.004 -1,-0.016 -1,0.008 -1,-0.047 -1,-0.019 -1,-0.012 h -1 l -1,-0.035 -1,-0.012 -1,0.219 -1,0.086 -1,-0.059 -1,-0.086 -1,-0.093 -1,-0.028 -1,-0.004 -1,0.032 -1,-0.043 -1,-0.094 -1,-0.024 -1,0.871 -1,0.407 -1,-0.075 -1,-0.046 -1,-0.004 -1,-0.297 -1,-0.321 -1,-0.781 -1,-0.031 -1,0.094 -1,-0.25 -1,-0.137 -1,-0.293 -1,-0.129 -1,0.113 -1,-0.027 -1,0.039 -1,0.008 -1,0.043 -2,-0.063 -1,-0.035 h -1 l -1,-0.015 -1,-0.059 -1,0.031 -1,0.008 -1,-0.008 -1,-0.207 -1,-0.062 -1,-0.067 -1,0.016 -1,0.027 -1,-0.035 -1,-0.121 -1,2.914 -1,11.32 -1,0.293 -1,-0.007 -1,-0.141 -1,0.188 -1,0.117 -1,-0.7 -1,-3.398 -1,-5.824 -1,-4.176 -1,-0.035 -1,0.023 -1,0.012 -1,0.035 -1,-0.054 -1,-0.083 -1,-0.125 -1,0.067 -1,-0.016 -1,-0.082 -1,-0.047 -1,-0.082 -1,-0.14 -1,-0.039 -1,0.004 -1,-0.016 -1,-0.027 -1,0.031 -1,-0.028 -1,-0.023 -1,-0.043 -1,-0.023 -1,0.07 -1,0.082 -1,0.156 -1,-0.062 -1,2.875 -1,11.636 -1,-0.339 -1,0.386 -1,-0.097 -1,-0.09 -1,0.195 -1,-0.293 -1,-0.14 -1,0.007 -1,0.434 -1,-0.902 -1,-3.274 -1,-5.789 -1,-4.234 -1,-0.059 -1,-0.043 -1,-0.07 h -1 l -1,-0.012 -1,0.004 -1,0.008 -1,0.015 -1,-0.058 -1,0.016 -1,-0.04 -1,-0.078 -1,0.004 -1,-0.051 -1,-0.066 -2,-0.195 -1,0.054 -1,-0.019 -1,-0.078 -1,-0.012 -1,0.004 -1,0.074 -1,-0.105 -1,0.019 -1,3.098 -1,11.777 -1,0.024 -1,0.086 -1,-0.071 -1,-0.062 -1,-0.957 -1,-3.649 -1,-8.398 -1,-0.047 -1,-0.012 -1,-0.066 -1,-0.031 -1,0.074 -1,-0.024 -2,-0.007 -1,0.066 -1,-0.152 -2,-0.032 -1,-0.117 -1,-0.039 -1,0.008 -1,-0.012 -1,-0.047 h -1 l -1,0.004 -1,0.008 -1,0.012 -1,-0.035 -1,-0.059 -1,0.082 -1,-0.035 -1,0.027 -1,-0.066 -1,0.066 -1,-0.051 -1,0.012 -1,0.11 -1,-0.067 -1,0.02 -1,0.015 -1,-0.043 -1,-0.089 -1,-0.094 -1,0.039 -1,-0.035 h -1 l -1,0.008 -1,0.027 -1,-0.035 -1,-0.004 -1,0.004 -1,-0.055 -1,-0.008 -1,-0.012 -1,0.055 -1,-0.101 -1,0.062 -1,-0.113 -1,0.074 -1,-0.031 -1,0.011 -1,-0.027 -1,-0.055 -1,-0.035 -1,0.008 -2,0.102 -1,0.015 -1,-0.07 -1,0.031 -1,0.047 -1,-0.047 -1,-0.031 -1,0.012 -1,-0.028 -1,-0.031 -1,0.024 -1,0.031 -1,0.027 -1,-0.109 -1,-0.106 -1,-0.05 h -1 l -1,0.023 -1,-0.008 -1,-0.004 -1,0.043 -1,-0.015 -1,-0.211 -1,2.222 -1,11.739 -1,0.261 -1,-0.027 -1,0.078 -1,-1.332 -1,-5.289 -1,-6.863 -1,-0.063 -1,0.067 -1,-0.075 -1,0.02 -1,0.023 -1,-0.011 -1,-0.071 -1,0.075 -1,-0.082 -1,0.039 -1,0.011 -1,-0.015 -1,0.011 -1,0.043 -1,-0.047 -1,-0.039 -2,-0.023 h -1 l -1,0.172 -1,0.094 -1,-0.008 -1,-0.051 -1,-0.039 -1,-0.16 -1,0.054 -1,0.192 -1,-0.043 -1,-0.191 -1,0.089 -1,0.161 -1,0.035 -1,-0.071 -1,-0.406 -1,-0.254 -1,0.074 -1,0.012 -2,-0.015 -1,-0.067 -1,-0.035 -1,-0.023 -1,0.027 -1,-0.039 -1,0.125 -1,-0.031 -1,0.007 -1,-0.015 -1,-0.125 -1,0.004 -1,0.023 -1,-0.031 -1,0.008 -1,0.019 -1,0.016 -1,-0.035 -1,0.011 -1,0.036 -1,0.003 -1,-0.043 -1,0.008 -1,0.012 -1,-0.039 -1,-0.043 -1,-0.016 -1,-0.004 -1,-0.07 -1,0.004 -1,0.012 -1,0.094 -1,0.042 -1,-0.027 -1,-0.019 -1,-0.028 -1,-0.07 -1,0.035 -1,-0.082 -1,-0.023 -1,-0.016 -1,0.035 -1,2.836 -1,11.215 -1,-0.156 -1,0.152 -1,-0.137 -1,0.035 -1,0.219 -1,-0.246 -1,-0.277 -1,-0.028 -1,0.04 -1,0.003 -1,-0.007 -1,0.011 -1,0.039 -1,0.012 -1,0.234 -1,0.008 -1,0.063 -1,0.254 -1,-0.18 -1,-0.051 -1,0.176 -1,0.043 -1,0.047 -1,-0.235 -1,-0.105 -1,0.258 -1,-0.028 -1,-0.011 -1,0.07 -1,0.023 -1,0.086 -1,-0.609 -1,-5.324 -1,-14.59 -1,2.844 -1,14.644 -1,0.047 -1,0.035 -1,-0.058 -1,-0.262 -1,-0.004 -1,-0.043 -1,0.039 -1,-0.035 -1,-1.48 -1,-7.817 -1,-9.312 -1,-0.18 -1,-0.082 -1,0.027 -1,0.071 -1,-0.039 -1,0.363 -1,-1.199 -1,-7.395 -1,-0.176 -1,-0.015 -1,-0.039 -1,-0.028 -1,0.149 -1,-0.012 -1,0.008 -1,0.004 -1,0.008 -1,-0.028 -1,-0.051 -1,0.039 -1,-0.011 -1,0.051 -1,0.078 -1,-0.016 -1,-0.051 -1,0.012 -1,0.051 -1,0.117 -1,-0.024 -1,0.063 -1,-0.074 h -1 l -1,-0.051 -1,-0.25 -1,0.008 -1,0.039 -1,-0.063 -2,0.032 -2,-0.079 z"
         style="fill:#bfbfff;fill-opacity:1;fill-rule:nonzero;stroke:none"
         id="path1322" /></g><g
       id="g1324"><g
         id="g1326"
         clip-path="url(#clipPath1330)"><path
           d="m 73,241.012 1,0.019 2,0.078 2,-0.031 1,0.063 1,-0.039 1,-0.012 1,0.254 1,0.051 1,-0.004 1,0.074 1,-0.059 1,0.024 1,-0.118 1,-0.05 1,-0.012 1,0.051 1,0.015 1,-0.078 1,-0.05 1,0.011 1,-0.039 1,0.047 1,0.027 1,-0.007 h 1 l 1,-0.008 1,0.011 1,-0.148 1,0.027 1,0.039 1,0.016 1,0.172 1,7.398 1,1.2 1,-0.364 1,0.039 1,-0.07 1,-0.027 1,0.082 1,0.179 1,9.313 1,7.816 1,1.477 1,0.039 1,-0.039 1,0.043 1,0.004 1,0.262 1,0.054 1,-0.031 1,-0.047 1,-14.644 1,-2.844 1,14.59 1,5.324 1,0.609 1,-0.086 1,-0.027 1,-0.066 1,0.011 1,0.028 1,-0.258 1,0.101 1,0.239 1,-0.051 1,-0.039 1,-0.176 1,0.051 1,0.179 1,-0.253 1,-0.063 1,-0.008 1,-0.234 1,-0.012 1,-0.039 1,-0.012 1,0.008 1,-0.004 1,-0.039 1,0.028 1,0.277 1,0.246 1,-0.219 1,-0.039 1,0.141 1,-0.153 1,0.157 1,-11.215 1,-2.84 1,-0.031 1,0.015 1,0.024 1,0.082 1,-0.035 1,0.07 1,0.027 1,0.02 1,0.027 1,-0.047 1,-0.089 1,-0.012 1,-0.008 1,0.074 1,0.004 1,0.016 1,0.043 1,0.035 1,-0.012 1,-0.004 1,0.039 h 1 l 1,-0.035 1,-0.015 1,0.039 1,-0.016 1,-0.02 1,-0.007 1,0.031 1,-0.024 1,-0.003 1,0.125 1,0.015 1,-0.008 1,0.032 1,-0.129 1,0.043 1,-0.028 1,0.024 1,0.035 1,0.066 2,0.016 1,-0.012 1,-0.074 1,0.25 1,0.41 1,0.07 1,-0.035 1,-0.16 1,-0.09 1,0.192 1,0.043 1,-0.192 1,-0.054 1,0.16 1,0.039 1,0.051 1,0.007 1,-0.097 1,-0.168 1,-0.004 1,0.015 1,0.012 1,0.039 1,0.047 1,-0.043 1,-0.015 1,0.019 1,-0.012 1,-0.039 1,0.078 1,-0.074 1,0.074 1,0.012 1,-0.023 1,-0.02 1,0.074 1,-0.066 1,0.059 1,6.867 1,5.289 1,1.332 1,-0.078 1,0.027 1,-0.262 1,-11.738 1,-2.223 1,0.211 1,0.016 1,-0.043 h 1 l 1,0.008 1,-0.02 h 1 l 1,0.051 2,0.211 1,-0.023 1,-0.036 1,-0.019 1,0.031 1,0.027 1,-0.011 1,0.031 1,0.047 1,-0.047 1,-0.035 1,0.074 1,-0.019 1,-0.051 1,-0.047 1,-0.008 1,0.035 1,0.055 1,0.027 1,-0.011 1,0.027 1,-0.07 1,0.113 1,-0.063 1,0.102 1,-0.059 2,0.024 1,0.054 1,-0.003 1,0.003 1,0.036 1,-0.028 1,-0.008 h 1 l 1,0.036 1,-0.039 1,0.093 1,0.086 1,0.043 1,-0.015 1,-0.02 1,0.07 1,-0.109 1,-0.012 1,0.047 1,-0.062 1,0.066 1,-0.031 1,0.039 1,-0.082 1,0.058 1,0.036 1,-0.012 1,-0.008 1,-0.004 h 1 l 1,0.043 1,0.016 1,-0.008 1,0.039 1,0.117 2,0.031 1,0.153 1,-0.067 h 1 l 1,0.008 1,0.024 1,-0.075 1,0.032 1,0.066 1,0.008 1,0.051 1,8.398 1,3.649 1,0.957 1,0.062 1,0.066 1,-0.082 1,-0.023 1,-11.777 1,-3.098 1,-0.02 1,0.102 1,-0.07 1,-0.004 1,0.012 1,0.078 1,0.015 1,-0.051 2,0.196 1,0.062 1,0.051 h 1 l 1,0.078 1,0.039 1,-0.015 1,0.058 1,-0.015 1,-0.012 h 1 l 1,0.008 h 1 l 1,0.074 1,0.043 1,0.055 1,4.238 1,5.785 1,3.277 1,0.899 1,-0.43 1,-0.008 1,0.141 1,0.289 1,-0.191 1,0.089 1,0.098 1,-0.387 1,0.34 1,-11.64 1,-2.872 1,0.063 1,-0.156 1,-0.082 1,-0.071 1,0.02 1,0.047 1,0.019 1,0.032 1,-0.032 1,0.028 1,0.015 1,-0.004 1,0.039 1,0.137 1,0.082 1,0.051 1,0.082 1,0.016 1,-0.067 1,0.121 1,0.086 1,0.055 1,-0.039 1,-0.012 1,-0.019 1,0.035 1,4.176 1,5.824 1,3.398 1,0.696 1,-0.114 1,-0.187 1,0.14 1,0.004 1,-0.293 1,-11.316 1,-2.914 1,0.121 1,0.035 1,-0.031 1,-0.016 1,0.067 1,0.062 1,0.211 1,0.008 1,-0.012 1,-0.027 1,0.055 1,0.015 h 1 l 1,0.039 2,0.063 1,-0.043 1,-0.012 1,-0.035 1,0.027 1,-0.117 1,0.129 1,0.297 1,0.137 1,0.25 1,-0.098 1,0.035 1,0.781 1,0.321 1,0.296 1,0.004 1,0.047 1,0.071 1,-0.403 1,-0.871 1,0.02 1,0.097 1,0.043 1,-0.035 1,0.004 1,0.031 1,0.094 1,0.086 1,0.059 1,-0.086 1,-0.223 1,0.016 1,0.031 h 1 l 1,0.015 1,0.02 1,0.047 1,-0.008 1,0.016 1,-0.004 1,0.039 1,-0.039 1,0.027 1,0.016 1,-0.004 1,0.086 1,0.023 1,-0.015 1,0.07 1,-0.016 1,-0.004 1,0.098 1,0.16 1,0.024 2,-0.047 1,-0.094 1,-0.035 1,-0.192 1,0.125 1,0.047 1,0.004 1,0.203 1,0.047 1,0.031 h 1 l 1,0.02 1,0.07 1,0.043 1,-0.05 1,0.039 1,0.074 1,0.035 1,-0.016 1,0.039 1,0.063 h 1 l 1,-0.012 1,-0.008 1,0.071 1,1.398 1,5.137 1,4.808 1,0.895 1,-0.059 1,-0.05 1,-0.028 1,-0.148 1,-4.262 1,-10.422 1,-0.246 1,-0.641 1,0.028 1,0.062 1,-0.015 1,-0.008 1,0.066 h 1 l 1,0.012 1,0.062 1,0.075 1,0.019 1,-0.031 h 1 l 1,0.055 1,0.113 1,0.004 1,0.074 1,-0.004 1,0.024 1,-0.024 1,4.852 1,6.172 1,2.921 1,0.899 1,0.082 1,-0.016 1,0.043 h 1 l 1,-0.058 1,0.039 1,0.109 1,0.121 1,-0.219 1,0.02 1,0.086 1,0.074 1,0.008 1,-0.281 1,-0.211 1,-0.031 1,0.043 1,0.078 1,-0.024 1,0.035 1,-0.152"
           style="fill:none;stroke:#0000ff;stroke-width:1;stroke-linecap:round;stroke-linejoin:round;stroke-miterlimit:10;stroke-dasharray:none;stroke-opacity:1"
           id="path1332" /></g></g><g
       id="g1334"><path
         d="m 73,202.309 v -89.508 h 499 v 124.695 l -1,0.156 -1,-0.031 -1,0.024 -1,-0.067 -1,-0.043 -1,0.035 -1,0.211 -1,0.082 -1,-0.093 -1,-0.071 -1,-0.086 -1,-0.019 -1,0.218 -1,-0.121 -1,-0.109 -1,-0.035 -1,0.058 h -1 l -1,-0.043 -1,0.016 -1,-0.086 -1,-0.859 -1,-2.695 -1,-6.086 -1,-4.813 -1,0.039 -1,-0.023 h -1 l -1,-0.075 -1,0.032 h -1 L 540,223 h -1 l -1,0.035 -1,-0.019 -1,-0.043 -1,-0.047 -1,-0.012 -1,0.031 -1,-0.015 -1,0.019 -1,0.016 -1,-0.063 -1,0.036 -1,0.066 -1,0.09 -1,9.84 -1,4.004 -1,-0.336 -1,-0.579 -1,-0.433 -1,-0.969 -1,-2.25 -1,-5.008 -1,-5.047 -1,-1.394 -1,-0.067 -1,0.036 -1,0.027 h -1 l -2,-0.055 -1,0.016 -1,-0.031 -1,-0.047 -1,0.011 -1,0.067 -1,-0.027 -1,-0.063 -1,-0.019 -1,0.05 -1,0.028 -1,-0.028 -1,-0.113 -1,0.074 -1,-0.027 -1,-0.121 -1,0.191 -1,0.035 -1,0.164 -1,0.047 -1,0.024 -1,-0.02 -1,0.043 -1,-0.012 -1,0.008 -1,0.012 -1,-0.074 -1,0.054 -1,-0.011 -1,-0.082 -1,0.004 -1,0.015 -1,-0.011 -1,0.039 -1,-0.043 -1,0.007 -1,-0.015 -1,0.043 -1,-0.016 -1,-0.019 -1,0.019 -1,0.016 -1,-0.031 -1,-0.012 -1,0.219 -1,0.089 -1,-0.023 -1,-0.039 -1,-0.063 -1,-0.019 -1,0.043 -1,0.055 -1,-0.008 -1,-0.082 -1,-0.02 -1,0.219 -1,0.125 -1,-0.039 -1,0.004 -1,0.031 -1,-0.227 -1,-0.117 -1,-0.054 -1,-0.032 -1,0.094 -1,-0.223 -1,0.024 -1,-0.074 -1,-0.129 -1,0.125 -1,0.011 -1,0.04 -1,0.007 -1,0.043 -1,-0.031 -1,0.016 -1,-0.035 h -1 l -1,-0.004 -1,-0.02 -1,0.031 -1,0.012 -1,-0.008 -1,-0.207 -1,-0.054 -1,-0.028 -1,0.016 -1,0.031 -1,-0.023 -1,-0.082 -1,2.867 -1,11.027 -1,-0.312 -1,-0.321 -2,-1.008 -1,-0.648 -1,-1.406 -1,-3.293 -1,-5.559 -1,-4.051 -1,0.004 -1,0.024 -1,0.012 -1,0.035 -1,-0.043 -1,-0.035 -1,-0.086 -1,0.07 -1,-0.016 -1,-0.047 -1,0.079 -1,-0.071 -1,0.02 -1,-0.039 -1,0.015 -1,0.024 -1,-0.028 -1,0.032 -1,-0.028 -1,-0.023 -1,-0.031 -1,0.015 -1,0.074 -1,0.083 -1,0.167 -1,-0.027 -1,2.82 -1,11.438 -1,-0.348 -1,0.125 -1,-0.09 -1,-0.105 -1,0.144 -1,-0.238 -1,-0.136 -1,-0.012 -1,0.379 -1,-1.133 -1,-3.195 -1,-5.5 -1,-4.168 -1,0.019 -1,-0.043 -1,-0.066 -1,0.008 h -1 l -1,0.039 -1,0.015 -1,0.012 -1,-0.055 -2,0.071 -1,-0.079 -1,0.012 -1,-0.004 h -1 l -1,0.032 -1,-0.102 -1,0.055 -1,-0.008 -1,-0.039 -1,-0.016 -1,0.004 -1,0.082 -1,-0.066 -1,0.023 -1,3.035 -1,11.457 -1,-0.297 -1,0.067 -1,-0.129 -1,-0.41 -1,-1.332 -1,-3.438 -1,-8.347 -1,-0.047 -1,-0.008 -1,-0.059 -1,0.008 -1,0.074 -1,-0.019 -1,-0.004 -1,0.008 -1,0.113 -1,-0.113 -1,0.008 h -1 l -1,-0.043 -1,-0.036 -1,0.012 -1,-0.008 -1,-0.004 -1,0.012 -1,0.004 -1,0.012 -1,0.008 -1,-0.032 -1,-0.062 -1,0.086 -1,-0.035 -1,0.027 -1,-0.066 -1,0.066 -1,-0.051 -1,0.012 -1,0.109 -1,-0.07 -1,0.023 -1,0.016 -1,-0.023 -1,-0.012 -1,-0.098 -1,0.047 -1,-0.035 h -1 l -1,0.008 -1,0.031 -1,-0.035 -1,-0.004 -1,0.004 -1,-0.055 -2,-0.016 -1,0.075 -1,-0.098 -1,0.063 -1,-0.114 -1,0.086 -2,0.024 -1,-0.028 -1,-0.054 -1,-0.036 -1,0.012 -1,0.024 -1,-0.043 -1,0.015 -1,-0.07 -1,0.035 -1,0.047 -1,-0.043 -1,-0.008 -1,0.012 -1,-0.027 -1,-0.032 -1,0.028 -1,0.043 -1,0.027 -1,-0.082 -1,-0.012 -1,-0.054 -1,0.007 -1,0.02 -1,-0.008 h -1 l -1,0.043 -1,-0.016 -1,-0.179 -1,2.289 -1,11.426 -1,-0.18 -1,-0.149 -1,0.11 -1,-1.258 -1,-5.035 -1,-6.824 -1,-0.059 -1,0.07 -1,-0.074 -1,0.02 -1,0.027 -1,-0.012 -1,-0.074 -1,0.078 -1,-0.082 -1,0.039 -1,0.012 -1,-0.02 -1,0.016 -1,0.043 -1,-0.035 h -1 l -2,-0.024 h -1 l -1,0.172 -1,0.098 -1,-0.008 -1,-0.051 -1,-0.039 -1,-0.16 -1,0.055 -1,0.191 -1,-0.043 -1,-0.187 -1,0.09 -1,0.16 -1,0.035 -1,-0.07 -1,-0.368 -1,-0.199 -1,0.074 -1,0.012 -1,-0.008 -1,-0.004 -1,-0.066 -1,-0.035 -1,-0.024 -1,0.032 -1,-0.043 -1,0.129 -1,-0.028 -1,0.008 -1,-0.008 -1,-0.09 -1,0.004 -1,0.028 -1,-0.032 -1,0.008 -1,0.02 -1,0.015 -1,-0.035 -1,0.016 -1,0.035 -1,0.004 -1,-0.043 -1,0.004 -1,0.016 -2,-0.079 -1,-0.007 -1,0.003 -1,-0.074 -1,0.008 -1,0.012 -1,0.09 -1,0.047 -1,-0.028 -2,-0.039 -1,-0.066 -1,0.043 -1,-0.075 -1,-0.027 -1,-0.012 -1,0.036 -1,2.816 -1,11.144 -1,-0.093 -1,0.222 -1,0.262 -1,0.168 -1,0.481 -1,-1.118 -1,-5.035 -1,-0.027 -1,0.039 -1,0.004 -1,-0.004 -1,0.012 -1,0.05 -1,0.008 -1,0.239 -1,0.007 -1,-0.027 -1,-0.082 -1,-0.098 -1,-0.273 -1,-1.063 -1,-0.605 -1,-1.149 -1,-0.781 -1,-0.238 -1,-0.899 -1,-4.707 -1,-2.941 -1,-5.477 -1,-1.421 -1,-2.079 -1,-3.031 -1,-7.281 -1,-2.984 -1,2.789 -1,14.41 -1,0.051 -1,0.031 -1,-0.059 -1,-0.261 h -1 l -1,-0.043 -1,0.043 -1,-0.02 -1,0.039 -1,0.117 -1,-0.836 -1,-0.183 -1,-0.078 -1,0.031 -1,0.082 -1,-0.004 -1,0.371 -1,-0.715 -1,-5.59 -1,-0.172 -1,-0.011 -1,-0.039 -1,0.086 -1,0.601 -1,-0.015 -1,0.011 h -1 l -1,0.008 -1,-0.027 -1,-0.047 -1,0.039 -1,-0.012 -1,0.051 -1,0.082 -1,-0.016 -1,-0.046 -1,0.011 -1,0.051 -1,0.121 -1,-0.023 -1,0.058 -1,-0.07 -1,0.012 -1,-0.039 -1,-0.215 -1,0.015 -1,0.036 -1,-0.063 -1,0.016 -1,0.019 -2,-0.078 z"
         style="fill:#ffebbf;fill-opacity:1;fill-rule:nonzero;stroke:none"
         id="path1336" /></g><g
       id="g1338"><g
         id="g1340"
         clip-path="url(#clipPath1344)"><path
           d="m 73,202.109 1,0.02 1,0.035 1,0.043 1,-0.019 1,-0.016 1,0.062 1,-0.039 1,-0.011 1,0.214 1,0.04 1,-0.012 1,0.07 1,-0.058 1,0.019 1,-0.117 1,-0.051 1,-0.012 1,0.047 1,0.016 1,-0.082 1,-0.055 1,0.016 1,-0.039 1,0.047 1,0.027 1,-0.008 h 1 l 1,-0.012 1,0.012 1,-0.598 1,-0.086 1,0.04 1,0.011 1,0.172 1,5.59 1,0.715 1,-0.371 h 1 l 1,-0.082 1,-0.028 1,0.079 1,0.179 1,0.84 1,-0.121 1,-0.039 1,0.023 1,-0.043 1,0.043 h 1 l 1,0.262 1,0.059 1,-0.036 1,-0.046 1,-14.411 1,-2.789 1,2.985 1,7.281 1,3.031 1,2.074 1,1.422 1,5.477 1,2.941 1,4.711 1,0.899 1,0.238 1,0.781 1,1.149 1,0.601 1,1.067 1,0.273 1,0.098 1,0.082 1,0.027 1,-0.008 1,-0.238 1,-0.008 1,-0.051 1,-0.015 1,0.008 1,-0.004 1,-0.039 1,0.027 1,5.035 1,1.117 1,-0.48 1,-0.168 1,-0.262 1,-0.222 1,0.093 1,-11.144 1,-2.817 1,-0.039 1,0.016 1,0.023 1,0.078 1,-0.043 1,0.067 2,0.039 1,0.027 1,-0.047 1,-0.089 1,-0.016 1,-0.004 1,0.07 h 1 l 1,0.008 1,0.039 1,0.035 1,-0.011 1,-0.004 1,0.039 h 1 l 1,-0.035 1,-0.016 1,0.035 1,-0.015 1,-0.02 1,-0.008 1,0.031 1,-0.027 1,-0.004 1,0.09 1,0.004 1,-0.004 1,0.027 1,-0.128 1,0.042 1,-0.031 1,0.024 1,0.035 1,0.066 1,0.004 1,0.008 1,-0.012 1,-0.074 1,0.199 1,0.367 1,0.071 1,-0.039 1,-0.157 1,-0.093 1,0.191 1,0.043 1,-0.191 1,-0.055 1,0.156 1,0.043 1,0.051 1,0.008 1,-0.098 1,-0.172 h 1 l 2,0.024 h 1 l 1,0.035 1,-0.043 1,-0.016 1,0.02 1,-0.016 1,-0.035 1,0.078 1,-0.074 1,0.074 1,0.012 1,-0.028 1,-0.019 1,0.074 1,-0.07 1,0.058 1,6.821 1,5.039 1,1.258 1,-0.11 1,0.149 1,0.179 1,-11.425 1,-2.289 1,0.179 1,0.016 1,-0.043 h 1 l 1,0.008 1,-0.02 1,-0.008 1,0.055 1,0.012 1,0.082 1,-0.028 1,-0.043 1,-0.027 1,0.031 1,0.028 1,-0.012 1,0.008 1,0.043 1,-0.047 1,-0.035 1,0.07 1,-0.016 1,0.043 1,-0.023 1,-0.012 1,0.035 1,0.055 1,0.027 1,-0.011 1,-0.016 1,-0.082 1,0.113 1,-0.062 1,0.098 1,-0.075 2,0.016 1,0.055 1,-0.004 1,0.004 1,0.035 1,-0.031 1,-0.008 h 1 l 1,0.031 1,-0.043 1,0.094 1,0.011 1,0.028 1,-0.016 1,-0.023 1,0.07 1,-0.109 1,-0.016 1,0.051 1,-0.063 1,0.067 1,-0.032 1,0.04 1,-0.086 1,0.058 1,0.035 1,-0.011 1,-0.008 1,-0.004 1,-0.012 1,0.004 1,0.008 1,-0.016 1,0.039 1,0.043 2,-0.008 1,0.114 1,-0.114 1,-0.011 1,0.008 1,0.019 1,-0.078 1,-0.004 1,0.059 1,0.007 1,0.047 1,8.348 1,3.438 1,1.332 1,0.41 1,0.129 1,-0.071 1,0.301 1,-11.457 1,-3.035 1,-0.024 1,0.067 1,-0.082 1,-0.004 1,0.012 1,0.043 1,0.007 1,-0.054 1,0.097 1,-0.031 2,0.008 1,-0.012 1,0.078 2,-0.07 1,0.055 1,-0.012 1,-0.016 1,-0.039 h 1 l 1,-0.011 1,0.07 1,0.039 1,-0.016 1,4.168 1,5.5 1,3.196 1,1.132 1,-0.378 1,0.007 1,0.141 1,0.238 1,-0.144 1,0.105 1,0.09 1,-0.125 1,0.348 1,-11.438 1,-2.82 1,0.027 1,-0.168 1,-0.082 1,-0.074 1,-0.016 1,0.032 1,0.019 1,0.031 1,-0.031 1,0.028 1,-0.028 1,-0.015 1,0.043 1,-0.02 1,0.07 1,-0.082 1,0.047 1,0.02 1,-0.071 1,0.086 1,0.035 1,0.043 1,-0.035 1,-0.011 1,-0.024 1,-0.004 1,4.051 1,5.555 1,3.297 1,1.402 1,0.648 1,0.508 1,0.5 1,0.324 1,0.313 1,-11.031 1,-2.864 1,0.082 1,0.024 1,-0.031 1,-0.016 1,0.027 1,0.051 1,0.211 1,0.008 1,-0.012 1,-0.031 1,0.019 1,0.004 h 1 l 1,0.035 1,-0.015 1,0.031 1,-0.043 1,-0.008 1,-0.039 1,-0.011 1,-0.126 1,0.129 1,0.071 1,-0.02 1,0.223 1,-0.098 1,0.031 1,0.059 1,0.117 1,0.227 1,-0.031 1,-0.004 1,0.039 1,-0.125 1,-0.223 1,0.023 1,0.082 1,0.008 1,-0.054 1,-0.047 1,0.023 1,0.063 1,0.035 1,0.027 1,-0.09 1,-0.222 1,0.015 1,0.032 1,-0.016 1,-0.02 1,0.02 1,0.012 1,-0.039 1,0.015 1,-0.008 1,0.039 1,-0.035 1,0.008 1,-0.012 1,-0.007 1,0.086 1,0.007 1,-0.05 1,0.074 1,-0.012 1,-0.008 1,0.012 1,-0.043 1,0.02 1,-0.024 1,-0.051 1,-0.16 1,-0.035 1,-0.191 1,0.117 1,0.027 1,-0.07 1,0.109 1,0.031 1,-0.027 1,-0.051 1,0.016 1,0.066 1,0.028 1,-0.067 1,-0.011 1,0.046 1,0.032 1,-0.016 1,0.024 1,0.031 h 1 l 1,-0.028 1,-0.039 1,0.067 1,1.398 1,5.047 1,5.008 1,2.246 1,0.973 1,0.433 1,0.574 1,0.34 1,-4.004 1,-9.839 1,-0.09 1,-0.067 1,-0.039 1,0.067 1,-0.016 1,-0.02 1,0.016 1,-0.031 1,0.012 1,0.046 1,0.043 1,0.016 1,-0.031 h 1 l 1,0.011 h 1 l 1,-0.031 1,0.074 h 1 l 1,0.02 1,-0.035 1,4.812 1,6.086 1,2.692 1,0.863 1,0.086 1,-0.02 1,0.047 h 1 l 1,-0.058 1,0.035 1,0.105 1,0.125 1,-0.218 1,0.019 1,0.082 1,0.074 1,0.094 1,-0.086 1,-0.211 1,-0.031 1,0.043 1,0.066 1,-0.023 1,0.031 1,-0.156"
           style="fill:none;stroke:#ffb000;stroke-width:1;stroke-linecap:round;stroke-linejoin:round;stroke-miterlimit:10;stroke-dasharray:none;stroke-opacity:1"
           id="path1346" /></g></g><g
       id="g1348"><path
         d="m 73,181.75 v -68.949 h 499 v 108.402 l -1,0.156 -1,-0.031 -1,0.024 -1,-0.063 -1,-0.043 -1,0.035 -1,0.211 -1,0.086 -1,-0.09 -1,-0.07 -1,-0.082 -1,-0.02 -1,0.223 -1,-0.121 -1,-0.106 -1,-0.035 -1,0.063 h -1 l -1,-0.043 -1,0.015 -1,-0.082 -1,-0.804 -1,-2.653 -1,-6.058 -1,-4.789 -1,0.035 -1,-0.02 -1,0.004 -1,-0.074 -1,0.031 h -1 l -1,-0.011 -1,0.004 -1,0.035 -1,-0.016 -2,-0.078 -1,-0.012 -1,0.035 -1,-0.011 -1,0.019 -1,0.016 -1,-0.063 -1,0.039 -1,0.075 -1,0.101 -1,9.945 -1,4.204 -1,-0.086 -1,0.086 -1,-0.079 -1,-0.644 -1,-2.125 -1,-4.984 -1,-5.028 -1,-1.394 -1,-0.063 -1,0.039 -1,0.032 h -1 l -2,-0.055 -1,0.015 -1,-0.027 -1,-0.043 -1,0.016 -1,0.066 -1,-0.019 -1,-0.063 -1,-0.016 -1,0.055 -1,0.031 -1,-0.027 -1,-0.101 -1,0.078 -1,-0.024 -1,-0.117 -1,0.199 -1,0.039 -1,0.16 -1,0.051 -1,0.028 -1,-0.02 -1,0.051 -1,-0.004 -1,0.008 -1,0.015 -1,-0.074 -1,0.051 -1,-0.008 -1,-0.082 -1,0.004 -1,0.016 -1,-0.008 -1,0.039 -1,-0.039 -1,0.008 -1,-0.012 -1,0.043 -1,-0.004 -1,-0.016 -2,0.039 -1,-0.027 -1,-0.012 -1,0.223 -1,0.094 -1,-0.024 -1,-0.035 -1,-0.058 -1,-0.016 -1,0.047 -1,0.055 -1,-0.004 -1,-0.079 -1,-0.019 -1,0.223 -1,0.125 -1,-0.036 -1,0.008 -1,0.039 -1,-0.226 -1,-0.016 -1,0.356 -1,-0.028 -1,0.098 -1,-0.223 -1,0.028 -1,-0.063 -1,-0.125 -1,0.129 -1,0.012 -1,0.039 -1,0.012 -1,0.042 -1,-0.027 -1,0.02 -1,-0.035 -1,0.003 -1,-0.003 -1,-0.016 -1,0.031 -1,0.012 -1,-0.004 -1,-0.211 -1,-0.051 -1,-0.027 -1,0.023 -1,0.032 -1,-0.02 -1,-0.074 -1,2.965 -1,11.394 -1,-0.008 -1,-0.004 -1,-0.05 -1,-0.055 -1,-0.309 -1,-1.254 -1,-3.242 -1,-5.535 -1,-4.023 -1,0.004 -1,0.027 -1,0.012 -1,0.043 -1,-0.043 -1,-0.032 -1,-0.078 -1,0.071 -1,-0.012 -1,-0.039 -1,0.094 -1,-0.063 -1,0.027 -1,-0.039 -1,0.02 -1,0.027 -1,-0.027 -1,0.035 -1,-0.027 -1,-0.016 -1,-0.031 -1,0.015 -1,0.082 -1,0.086 -1,0.18 -1,-0.019 -1,2.832 -1,11.496 -1,-0.285 -1,-0.008 -1,0.023 -1,-0.015 -1,0.035 -1,-0.09 -1,-0.012 -1,-0.035 -1,-0.004 -1,-1.676 -1,-3.152 -1,-5.469 -1,-4.14 -1,0.019 -1,-0.035 -1,-0.066 -1,0.011 -1,0.008 -1,0.043 -1,0.016 -1,0.019 -1,-0.054 -2,0.078 -1,-0.071 -1,0.016 h -1 l -1,0.008 -1,0.035 -1,-0.098 -1,0.055 -1,-0.004 -1,-0.035 -1,-0.016 -1,0.012 -1,0.086 -1,-0.066 -1,0.027 -1,3.039 -1,11.539 -1,-0.016 -1,-0.054 -1,-0.133 -1,-0.488 -1,-1.7 -1,-3.976 -1,-8.289 -1,-0.051 -1,-0.008 -1,-0.055 -1,0.008 -1,0.082 -1,-0.019 h -1 l -1,0.012 -1,0.113 -1,-0.11 -1,0.008 -1,0.004 -1,-0.039 -1,-0.035 -1,0.016 -1,0.003 h -1 l -1,0.012 -1,0.008 -2,0.023 -1,-0.035 -1,-0.058 -1,0.086 -1,-0.032 -1,0.032 -1,-0.067 -1,0.067 -1,-0.047 -1,0.015 -1,0.11 -1,-0.067 -2,0.039 -1,-0.019 -1,-0.008 -1,-0.09 -1,0.051 -1,-0.027 -1,0.004 -1,0.011 -1,0.032 -1,-0.032 -1,-0.004 -1,0.008 -1,-0.051 -1,-0.004 -1,-0.007 -1,0.078 -1,-0.09 -1,0.066 -1,-0.109 -1,0.086 -1,0.019 -1,0.012 -1,-0.019 -1,-0.051 -1,-0.035 -1,0.015 -1,0.043 -1,0.008 -1,0.02 -1,-0.063 -1,0.039 -1,0.047 -1,-0.035 -1,-0.004 -1,0.012 -1,-0.024 -1,-0.027 -1,0.039 -1,0.043 -1,0.031 -1,-0.078 -1,-0.008 -1,-0.047 -1,0.008 -1,0.024 -1,-0.004 h -1 l -1,0.047 -1,-0.012 -1,-0.16 -1,2.265 -1,11.063 h -1 l -1,0.047 -1,-0.649 -1,-2.277 -1,-5.008 -1,-6.769 -1,-0.063 -1,0.07 -1,-0.066 -1,0.02 -1,0.027 -1,-0.008 -1,-0.07 -1,0.078 -1,-0.074 -1,0.035 -1,0.019 -1,-0.019 -1,0.015 -1,0.047 -1,-0.031 h -1 l -2,-0.016 h -1 l -1,0.172 -1,0.098 -1,-0.004 -1,-0.051 -1,-0.035 -1,-0.156 -1,0.055 -1,0.195 -1,-0.039 -1,-0.192 -1,0.094 -1,0.16 -1,0.043 -1,-0.066 -1,-0.344 -1,-0.156 -1,0.078 -1,0.016 -2,-0.008 -1,-0.063 -1,-0.031 -1,-0.019 -1,0.031 -1,-0.043 -1,0.129 -1,-0.028 -1,0.012 h -1 l -1,-0.086 -1,0.004 -1,0.031 -1,-0.027 -1,0.008 -2,0.039 -1,-0.031 -1,0.015 -1,0.039 -1,0.012 -1,-0.035 -1,0.008 -1,0.011 -1,-0.031 -1,-0.039 -1,-0.008 -1,0.004 -1,-0.07 -1,0.008 -1,0.015 -1,0.098 -1,0.047 -1,-0.016 -2,-0.039 -1,-0.062 -1,0.058 -1,-0.031 -1,-0.02 -1,-0.011 -1,0.039 -1,2.863 -1,11.375 -1,0.09 -1,-0.164 -1,-0.215 -1,-0.742 -1,-2.481 -1,-4.625 -1,-6.484 -1,-0.027 -1,0.039 -1,0.004 -1,-0.004 -1,0.011 -1,0.055 -1,0.012 -1,0.242 -1,0.008 -1,-0.024 -1,-0.082 -1,-0.086 -1,-0.273 -1,-1.063 -1,-0.597 -1,-1.145 -1,-0.773 -1,-0.238 -1,-0.887 -1,-4.676 -1,-2.934 -1,-5.402 -1,-1.242 -1,-2.074 -1,-3.102 -1,-7.566 -1,-2.981 -1,2.789 -1,14.411 -1,0.05 -1,0.035 -1,-0.058 -1,-0.262 h -1 l -1,-0.039 -1,0.047 -1,-0.02 -1,0.04 -1,0.124 -1,-0.835 -1,-0.18 -1,-0.078 -1,0.031 -1,0.082 h -1 l -1,0.371 -1,-0.469 -1,-4.601 -1,-0.172 -1,-0.008 -1,-0.035 -1,0.086 -1,0.601 -1,-0.011 -1,0.008 -1,0.003 -1,0.008 -1,-0.027 -1,-0.047 -1,0.039 -1,-0.008 -1,0.051 -1,0.082 -1,-0.012 -1,-0.05 -1,0.015 -1,0.051 -1,0.121 -1,-0.023 -1,0.062 -1,-0.066 -1,0.015 -1,-0.039 -1,-0.211 -1,0.012 -1,0.035 -1,-0.058 -2,0.039 -1,-0.043 -1,-0.035 z"
         style="fill:#ffbfbf;fill-opacity:1;fill-rule:nonzero;stroke:none"
         id="path1350" /></g><g
       id="g1352"><g
         id="g1354"
         clip-path="url(#clipPath1358)"><path
           d="m 73,181.551 1,0.015 1,0.036 1,0.043 1,-0.024 1,-0.016 1,0.059 1,-0.035 1,-0.012 1,0.211 1,0.039 1,-0.015 1,0.066 1,-0.063 1,0.024 1,-0.121 1,-0.051 1,-0.016 1,0.047 1,0.016 1,-0.082 1,-0.051 1,0.008 1,-0.039 1,0.047 1,0.027 1,-0.008 1,-0.004 1,-0.007 1,0.011 1,-0.601 1,-0.086 1,0.035 1,0.008 1,0.172 1,4.601 1,0.469 1,-0.371 h 1 l 1,-0.082 1,-0.031 1,0.078 1,0.179 1,0.832 1,-0.121 1,-0.039 1,0.02 1,-0.051 1,0.043 h 1 l 1,0.262 1,0.054 1,-0.035 1,-0.047 1,-14.41 1,-2.789 1,2.981 1,7.562 1,3.106 1,2.074 1,1.242 1,5.398 1,2.938 1,4.676 1,0.886 1,0.239 1,0.773 1,1.145 1,0.597 1,1.063 1,0.273 1,0.086 1,0.078 1,0.024 1,-0.008 1,-0.238 1,-0.016 1,-0.051 1,-0.012 1,0.004 1,-0.004 1,-0.039 1,0.028 1,6.484 1,4.625 1,2.481 1,0.742 1,0.215 1,0.16 1,-0.086 1,-11.375 1,-2.863 1,-0.039 1,0.011 1,0.02 1,0.031 1,-0.059 1,0.063 1,0.019 1,0.016 1,0.02 1,-0.047 1,-0.098 1,-0.016 1,-0.007 1,0.07 1,-0.004 1,0.008 1,0.039 1,0.031 1,-0.015 1,-0.008 1,0.039 1,-0.012 1,-0.039 1,-0.016 1,0.028 1,-0.016 1,-0.019 1,-0.012 1,0.027 1,-0.027 1,-0.004 1,0.082 1,0.004 1,-0.012 1,0.028 1,-0.129 1,0.043 1,-0.036 1,0.024 1,0.027 1,0.067 h 1 l 1,0.007 1,-0.019 1,-0.074 1,0.156 1,0.344 1,0.066 1,-0.043 1,-0.16 1,-0.094 1,0.188 1,0.043 1,-0.196 1,-0.058 1,0.16 1,0.035 1,0.051 1,0.004 1,-0.098 1,-0.172 1,-0.004 1,0.012 1,0.008 h 1 l 1,0.031 1,-0.047 1,-0.015 1,0.015 1,-0.015 1,-0.036 1,0.075 1,-0.078 1,0.07 1,0.008 1,-0.028 1,-0.023 1,0.07 1,-0.07 1,0.059 1,6.773 1,5.008 1,2.277 1,0.649 1,-0.047 h 1 l 1,-11.063 1,-2.269 1,0.16 1,0.015 1,-0.046 1,-0.004 1,0.007 1,-0.023 1,-0.008 1,0.047 1,0.004 1,0.082 1,-0.031 1,-0.047 1,-0.035 1,0.027 1,0.024 1,-0.016 1,0.008 1,0.035 1,-0.051 1,-0.035 1,0.062 1,-0.019 1,-0.012 1,-0.039 1,-0.016 1,0.032 1,0.051 1,0.023 2,-0.031 1,-0.086 1,0.109 1,-0.066 1,0.09 1,-0.079 1,0.008 1,0.004 1,0.051 1,-0.008 1,0.004 1,0.031 1,-0.031 1,-0.012 1,-0.004 1,0.028 1,-0.051 1,0.09 1,0.008 1,0.019 2,-0.039 1,0.066 1,-0.113 1,-0.015 1,0.05 1,-0.066 1,0.066 1,-0.031 1,0.031 1,-0.086 1,0.059 1,0.035 1,-0.015 1,-0.012 1,-0.004 1,-0.012 1,-0.004 h 1 l 1,-0.015 1,0.035 1,0.039 1,-0.004 1,-0.008 1,0.11 1,-0.114 1,-0.011 h 1 l 1,0.015 1,-0.078 1,-0.012 1,0.059 1,0.008 1,0.047 1,8.293 1,3.976 1,1.695 1,0.493 1,0.132 1,0.055 1,0.012 1,-11.535 1,-3.039 1,-0.028 1,0.067 1,-0.086 1,-0.012 1,0.012 1,0.039 1,0.004 1,-0.055 1,0.094 1,-0.031 1,-0.012 h 1 l 1,-0.016 1,0.071 1,-0.036 1,-0.039 1,0.055 1,-0.02 1,-0.015 1,-0.043 1,-0.008 1,-0.016 1,0.067 1,0.039 1,-0.02 1,4.141 1,5.469 1,3.152 1,1.676 h 1 l 1,0.039 1,0.012 1,0.09 1,-0.036 1,0.012 1,-0.019 1,0.007 1,0.286 1,-11.5 1,-2.833 1,0.024 1,-0.184 1,-0.086 1,-0.078 1,-0.019 1,0.031 1,0.019 1,0.028 1,-0.035 1,0.023 1,-0.027 1,-0.016 1,0.035 1,-0.027 1,0.066 1,-0.093 1,0.039 1,0.011 1,-0.074 1,0.082 1,0.031 1,0.04 1,-0.04 1,-0.015 1,-0.024 1,-0.004 1,4.024 1,5.535 1,3.242 1,1.254 1,0.309 1,0.054 1,0.047 1,0.008 1,0.004 1,-11.391 1,-2.964 1,0.074 1,0.019 1,-0.031 1,-0.023 1,0.027 1,0.051 1,0.207 1,0.008 1,-0.012 1,-0.031 1,0.015 1,0.004 1,-0.004 1,0.035 1,-0.023 1,0.031 1,-0.043 1,-0.015 1,-0.039 1,-0.012 1,-0.125 1,0.121 1,0.066 1,-0.027 1,0.219 1,-0.098 1,0.031 1,-0.355 1,0.012 1,0.226 1,-0.035 1,-0.008 1,0.035 1,-0.125 1,-0.222 1,0.019 1,0.074 1,0.008 1,-0.054 1,-0.051 1,0.019 1,0.059 1,0.031 1,0.028 1,-0.094 1,-0.223 1,0.008 1,0.031 1,-0.019 1,-0.024 1,0.016 1,0.008 1,-0.047 1,0.015 1,-0.007 1,0.039 1,-0.039 1,0.007 1,-0.015 1,-0.008 1,0.086 1,0.008 1,-0.055 1,0.074 1,-0.015 1,-0.004 1,0.004 1,-0.051 1,0.019 1,-0.027 1,-0.051 1,-0.164 1,-0.039 1,-0.195 1,0.117 1,0.023 1,-0.078 1,0.098 1,0.027 1,-0.027 1,-0.055 1,0.016 1,0.062 1,0.02 1,-0.07 1,-0.012 1,0.043 1,0.027 1,-0.015 1,0.023 1,0.031 h 1 l 1,-0.031 1,-0.039 1,0.062 1,1.391 1,5.027 1,4.989 1,2.125 1,0.644 1,0.078 1,-0.086 1,0.086 1,-4.207 1,-9.941 1,-0.102 1,-0.074 1,-0.039 1,0.063 1,-0.016 1,-0.023 1,0.015 1,-0.035 1,0.012 2,0.078 1,0.015 1,-0.035 1,-0.004 1,0.012 h 1 l 1,-0.031 1,0.074 1,-0.004 1,0.02 1,-0.039 1,4.793 1,6.058 1,2.649 1,0.808 1,0.082 1,-0.019 1,0.043 1,0.004 1,-0.063 1,0.035 1,0.106 1,0.121 1,-0.223 1,0.02 1,0.082 1,0.07 1,0.09 1,-0.086 1,-0.211 1,-0.035 1,0.039 1,0.066 1,-0.023 1,0.027 1,-0.156"
           style="fill:none;stroke:#ff0000;stroke-width:1;stroke-linecap:round;stroke-linejoin:round;stroke-miterlimit:10;stroke-dasharray:none;stroke-opacity:1"
           id="path1360" /></g></g><g
       id="g1362"><path
         d="m 73,117.695 v -4.894 h 499 v 9.226 l -1,0.016 -1,-0.012 -1,0.039 -1,-0.023 -1,-0.02 h -1 l -1,0.004 -1,0.086 -1,0.035 -1,-0.007 -1,-0.004 -1,0.011 -2,-0.007 -1,0.011 -1,-0.004 -1,-0.007 h -1 l -1,0.039 -1,-0.02 -1,-0.016 -1,-0.007 h -2 l -2,-0.008 -1,-0.008 h -4 l -1,0.012 -1,-0.004 -1,-0.008 h -2 l -1,0.012 -1,-0.008 -1,0.008 -1,-0.008 -1,0.008 -1,-0.008 -1,-0.004 h -2 l -1,0.008 -1,0.027 -1,0.004 -1,0.008 -1,0.074 -1,0.035 -1,0.086 -1,0.067 -1,0.011 -1,-0.011 -2,-0.008 h -4 l -1,0.015 -1,-0.007 -1,-0.004 h -11 l -1,0.004 -1,-0.004 -1,0.004 -1,0.007 h -2 l -1,-0.003 h -1 l -2,0.007 -1,-0.004 -1,0.004 -1,-0.004 h -17 l -2,0.008 h -1 l -1,0.004 -1,-0.004 -1,0.008 -1,-0.008 h -4 l -1,0.012 -2,0.016 -2,-0.008 -1,0.004 -1,0.011 -1,0.047 -1,0.043 -1,0.071 -1,-0.114 -1,-0.004 h -1 l -1,-0.004 -1,0.02 -1,-0.023 h -5 l -1,0.003 -1,-0.003 -1,0.003 -1,-0.003 -1,0.003 -1,0.032 -1,0.039 -1,-0.074 h -4 l -1,-0.004 -1,0.004 -1,0.007 -1,0.035 -1,0.075 h -1 l -1,0.019 -1,0.047 -1,0.004 -1,0.031 -1,0.008 -1,-0.019 -1,-0.016 -1,0.008 -1,-0.004 h -1 l -1,0.008 -1,0.019 -1,-0.023 -1,0.008 -1,-0.008 h -1 l -1,0.011 -1,0.036 -1,-0.043 -1,-0.008 h -3 l -1,0.004 h -3 l -1,-0.004 -1,0.004 h -2 l -1,0.008 -1,0.011 -1,-0.008 -1,0.02 -2,0.016 h -2 l -1,0.011 h -1 l -1,-0.004 -1,0.008 -1,0.028 -1,-0.016 -1,-0.004 -1,-0.008 -1,-0.015 -1,0.011 -1,-0.007 -1,0.011 -1,-0.019 h -1 l -1,0.004 h -1 l -1,0.004 h -1 l -1,0.007 -1,-0.011 h -1 l -1,0.004 -1,-0.004 -1,0.031 -1,0.07 -1,-0.082 -1,-0.012 h -1 l -1,0.004 -2,-0.007 h -1 l -2,0.007 -1,0.024 -1,0.09 -1,0.019 -1,-0.004 -1,0.012 -1,0.039 -1,0.051 -1,0.062 -1,-0.066 h -1 l -1,0.004 -1,0.012 -1,-0.012 -1,-0.004 h -1 l -1,0.004 -1,0.031 -1,0.043 -1,-0.07 -1,0.008 -1,-0.016 -1,-0.004 h -1 l -1,0.012 -1,-0.008 -1,-0.012 h -3 l -1,0.004 h -2 l -1,-0.004 h -2 l -1,0.004 h -1 l -1,-0.004 h -4 l -1,0.004 -1,0.012 -1,-0.012 -1,0.016 -1,-0.02 h -2 l -1,0.004 h -1 l -1,-0.004 -1,0.004 -1,-0.004 h -1 l -1,-0.004 -2,0.008 -1,-0.008 -1,0.004 -1,-0.004 -1,0.004 -1,-0.004 -1,0.004 -1,0.016 -1,-0.016 h -1 l -1,-0.004 -1,0.004 -1,0.016 -1,-0.016 h -8 l -1,0.004 h -3 l -1,0.008 -1,-0.008 -1,0.004 -1,0.012 -1,-0.016 h -3 l -1,-0.035 -1,-0.141 -1,0.059 -1,0.035 -1,0.024 h -1 l -1,0.031 -1,-0.028 -1,-0.046 -1,0.003 h -2 l -1,0.008 -1,-0.011 h -7 l -1,0.003 h -1 l -1,-0.003 h -5 l -1,0.003 h -4 l -1,-0.003 h -1 l -1,0.003 h -3 l -1,-0.003 h -14 l -1,0.003 h -11 l -1,0.04 -1,-0.04 h -20 l -1,0.008 -1,0.039 h -1 l -1,0.016 -1,-0.008 -1,0.012 -1,0.047 -1,0.129 -1,0.078 h -1 l -1,0.004 h -1 l -1,-0.004 -1,0.004 h -2 l -1,0.004 h -2 l -1,0.011 h -1 l -1,0.008 -1,0.043 -1,0.027 -1,0.039 -1,0.02 -1,0.008 -1,0.039 -1,0.082 -1,0.027 h -2 l -1,0.035 -1,0.094 -1,-0.265 -1,-0.54 -1,-0.007 -1,0.074 h -1 l -2,-0.008 -1,-0.027 h -4 l -1,-0.051 -1,-0.274 -1,-0.316 -1,-0.004 h -3 l -1,0.004 -1,0.008 -1,-0.965 -1,-3.91 -1,-0.008 h -1 l -1,0.004 -1,0.066 -1,0.266 H 91 l -1,0.004 -1,0.008 -1,0.004 h -2 l -1,-0.012 h -2 l -1,-0.004 -1,-0.012 h -3 l -1,-0.004 h -1 l -1,0.004 z"
         style="fill:#daf2c4;fill-opacity:1;fill-rule:nonzero;stroke:none"
         id="path1364" /></g><g
       id="g1366"><g
         id="g1368"
         clip-path="url(#clipPath1372)"><path
           d="m 73,117.492 h 8 l 1,0.016 1,0.004 h 2 l 1,0.008 1,0.003 1,-0.003 h 1 l 1,-0.008 1,-0.004 h 1 l 1,-0.004 h 9 l 1,-0.266 1,-0.066 h 2 l 1,0.008 1,3.906 1,0.965 2,-0.008 h 3 l 1,0.004 1,0.316 1,0.274 1,0.047 h 2 l 1,0.004 h 1 l 1,0.027 2,0.008 h 1 l 1,-0.075 1,0.004 1,0.543 1,0.262 1,-0.09 1,-0.035 h 2 l 1,-0.027 1,-0.082 1,-0.039 1,-0.008 1,-0.02 1,-0.039 1,-0.027 1,-0.043 1,-0.012 h 1 l 1,-0.008 1,-0.004 h 3 l 1,-0.003 h 1 l 1,0.003 1,-0.003 h 2 l 1,-0.079 1,-0.129 1,-0.046 1,-0.012 1,0.004 1,-0.012 h 1 l 1,-0.039 1,-0.008 h 1 l 1,-0.004 h 11 l 1,0.004 1,-0.004 h 2 l 1,0.004 h 2 l 1,0.035 1,-0.039 h 10 l 1,0.004 1,-0.004 h 41 l 1,0.012 1,-0.008 1,-0.004 h 2 l 1,0.047 1,0.028 1,-0.032 h 1 l 1,-0.023 1,-0.035 1,-0.059 1,0.141 1,0.035 h 3 l 1,0.015 1,-0.011 1,-0.008 1,0.012 1,-0.008 h 2 l 1,-0.004 h 9 l 1,0.016 1,-0.016 1,-0.004 h 1 l 1,0.004 1,0.016 1,-0.016 1,-0.004 h 2 l 1,0.004 1,-0.004 1,0.004 1,-0.004 h 2 l 2,0.008 1,-0.004 h 5 l 1,0.019 1,-0.015 1,0.012 1,-0.012 1,-0.004 h 4 l 1,0.004 h 1 l 1,-0.004 h 2 l 1,0.004 h 1 l 1,-0.004 h 4 l 1,0.008 1,0.011 1,-0.011 h 1 l 1,0.004 1,0.015 1,-0.011 1,0.074 1,-0.043 1,-0.031 1,-0.004 h 1 l 1,0.004 1,0.011 1,-0.011 1,-0.004 h 1 l 1,0.066 1,-0.062 1,-0.051 1,-0.039 1,-0.012 1,0.004 1,-0.02 1,-0.089 1,-0.024 2,-0.008 h 1 l 1,0.004 h 1 l 1,-0.004 h 1 l 1,0.012 1,0.086 1,-0.07 1,-0.032 h 3 l 1,0.012 1,-0.008 h 1 l 2,-0.008 h 2 l 1,0.02 1,-0.016 1,0.012 1,-0.012 1,0.016 1,0.008 1,0.004 1,0.015 1,-0.027 1,-0.008 1,0.004 1,-0.004 1,-0.008 h 1 l 1,-0.004 1,-0.007 1,-0.004 1,-0.02 1,0.008 2,-0.023 h 4 l 1,0.004 1,-0.004 h 5 l 1,0.004 1,0.046 1,-0.035 1,-0.015 2,0.007 1,-0.007 1,0.027 1,-0.023 1,-0.008 1,0.004 h 1 l 1,-0.004 2,0.031 1,-0.008 1,-0.027 1,-0.004 1,-0.047 1,-0.023 1,0.004 1,-0.075 1,-0.035 1,-0.008 1,-0.004 1,0.004 h 1 l 1,-0.004 1,0.004 1,-0.004 1,0.079 1,-0.043 1,-0.028 1,-0.004 1,0.004 1,-0.004 h 7 l 1,0.024 1,-0.024 1,0.008 h 1 l 1,0.004 1,0.113 1,-0.07 1,-0.043 1,-0.047 1,-0.012 1,-0.003 2,0.007 2,-0.015 1,-0.012 h 4 l 1,0.008 1,-0.008 1,0.004 1,-0.004 h 1 l 2,-0.008 h 9 l 1,-0.004 h 1 l 1,0.004 1,-0.004 h 3 l 1,0.004 h 2 l 1,0.004 1,-0.008 h 5 l 2,-0.008 1,0.004 1,-0.004 h 3 l 1,-0.003 1,0.003 h 6 l 1,0.004 1,0.008 1,-0.015 h 4 l 2,0.007 1,0.012 1,-0.012 1,-0.066 1,-0.086 1,-0.035 1,-0.074 1,-0.012 1,-0.004 1,-0.023 1,-0.008 h 2 l 1,0.004 1,0.008 1,-0.008 1,0.008 1,-0.008 1,0.008 1,-0.016 1,0.004 h 1 l 1,0.008 1,0.004 1,-0.016 1,0.004 h 3 l 1,0.008 1,0.004 h 1 l 1,0.003 h 1 l 1,0.004 1,0.016 1,0.019 1,-0.035 h 1 l 1,0.008 1,0.004 1,-0.012 2,0.008 1,-0.012 1,0.004 1,0.008 1,-0.035 1,-0.086 1,-0.004 h 1 l 1,0.02 1,0.023 1,-0.039 1,0.012 1,-0.016"
           style="fill:none;stroke:#6ecd14;stroke-width:1;stroke-linecap:round;stroke-linejoin:round;stroke-miterlimit:10;stroke-dasharray:none;stroke-opacity:1"
           id="path1374" /></g></g><g
       id="g1376"><path
         d="m 73,113.57 v -0.769 h 53 v 0.469 h -3 l -1,-0.012 -1,-0.004 h -2 l -1,0.004 h -2 l -2,-0.008 h -4 l -1,0.008 -1,0.004 -1,-0.032 -1,-0.003 h -2 l -1,0.07 -1,0.273 H 91 l -1,0.004 -1,0.008 h -3 l -1,-0.012 z"
         style="fill:#d5d5e1;fill-opacity:1;fill-rule:nonzero;stroke:none"
         id="path1378" /><path
         d="m 128,113.207 v -0.406 h 444 v 0.625 l -1,0.015 -1,-0.011 -1,0.039 -1,-0.024 -1,-0.019 h -1 l -2,0.008 h -1 l -1,-0.008 -1,-0.004 -1,0.016 -2,-0.008 -1,0.008 -1,-0.004 -1,-0.008 h -1 l -1,0.039 -1,-0.02 -1,-0.015 -2,-0.008 h -1 l -1,-0.004 h -1 l -1,-0.012 h -4 l -1,0.012 -1,-0.004 -1,-0.008 h -2 l -1,0.016 -1,-0.012 -1,0.008 -1,-0.008 -1,0.008 -1,-0.008 -1,-0.004 h -2 l -2,0.016 -2,-0.008 h -2 l -1,0.008 -1,-0.004 -1,-0.008 -1,-0.012 -1,-0.003 h -5 l -1,0.011 -1,-0.008 -1,-0.003 h -11 l -1,0.003 -1,-0.003 h -1 l -1,0.003 h -1 l -1,-0.003 h -3 l -1,0.007 -1,-0.004 h -2 l -1,-0.003 h -3 l -1,0.003 -1,-0.003 h -1 l -1,0.003 h -10 l -1,-0.003 -1,0.003 h -2 l -1,0.008 -1,-0.011 h -4 l -1,0.007 -1,0.004 -1,0.008 -2,-0.008 h -3 l -1,0.043 -1,0.067 -1,-0.114 h -1 l -2,-0.007 -1,0.019 -1,-0.019 h -7 l -1,0.003 -1,-0.003 -1,0.003 -1,0.028 -1,0.043 -1,-0.078 -1,0.004 -1,-0.004 -1,0.004 h -1 l -1,-0.004 -2,0.007 -1,0.02 -1,0.008 -1,-0.012 h -2 l -1,-0.004 h -1 l -1,0.008 -1,-0.02 -1,-0.011 -1,0.004 h -1 l -1,-0.004 -1,0.008 -1,0.023 -1,-0.027 -1,0.007 -1,-0.007 h -1 l -1,0.011 -1,0.036 -1,-0.043 -1,-0.008 h -3 l -1,0.004 h -3 l -1,-0.004 -1,0.004 h -2 l -2,0.015 -1,-0.008 -1,0.02 -1,0.004 -1,-0.004 h -3 l -1,0.004 h -1 l -2,-0.008 -1,-0.027 -2,-0.008 -1,-0.016 -1,0.012 -1,-0.012 -1,0.016 -1,-0.02 h -3 l -1,0.008 -1,-0.004 -1,0.012 -1,-0.016 h -1 l -1,0.004 h -1 l -1,0.028 -1,0.07 -1,-0.086 -1,-0.012 h -1 l -1,0.004 h -1 l -1,-0.004 h -2 l -2,0.008 -1,0.02 -1,0.007 -1,-0.011 -1,-0.004 -1,-0.012 -2,-0.008 -1,-0.019 -1,-0.004 -1,0.004 -1,0.011 -1,-0.011 -1,-0.004 -2,0.008 -1,0.027 -1,0.047 -1,-0.074 -1,0.007 -1,-0.011 -1,-0.008 h -1 l -1,0.012 -1,-0.008 -1,-0.012 -1,0.004 -1,-0.004 h -1 l -1,0.004 h -9 l -1,-0.004 h -2 l -1,0.008 -1,0.012 -1,-0.012 -1,0.012 -1,-0.02 h -2 l -1,0.004 h -1 l -1,-0.004 -1,0.004 -1,-0.004 h -3 l -1,0.004 -1,-0.004 h -4 l -1,0.004 -1,0.012 -1,-0.012 -1,-0.004 h -1 l -1,0.004 -1,0.012 -1,-0.016 h -12 l -1,0.012 -1,-0.012 -1,0.004 -1,0.012 -1,-0.016 h -5 l -1,0.012 h -1 l -1,-0.012 h -1 l -1,-0.004 -1,-0.008 -1,-0.015 h -3 l -1,0.008 -1,-0.012 h -6 l -1,0.004 h -2 l -1,-0.004 h -4 l -1,0.004 h -5 l -1,-0.004 -1,0.004 h -4 l -1,-0.004 h -13 l -1,0.004 h -12 l -1,0.039 -1,-0.039 h -20 l -1,0.004 -1,0.015 h -1 l -1,-0.011 -1,-0.008 -1,-0.02 -2,-0.023 -1,-0.035 h -2 l -1,0.004 -1,-0.004 h -1 l -1,0.004 h -6 l -1,-0.004 h -1 l -1,0.004 -2,-0.008 -1,0.004 h -3 l -1,-0.004 h -1 l -1,0.035 -1,0.098 -1,-0.133 z"
         style="fill:#d5d5e1;fill-opacity:1;fill-rule:nonzero;stroke:none"
         id="path1380" /></g><g
       id="g1382"><g
         id="g1384"
         clip-path="url(#clipPath1388)"><path
           d="m 73,113.371 h 12 l 1,0.008 1,0.004 h 2 l 1,-0.008 1,-0.004 h 11 l 1,-0.277 1,-0.071 h 1 l 2,0.008 1,0.031 1,-0.007 1,-0.004 h 2 l 1,-0.004 h 1 l 1,0.004 1,0.008 1,-0.004 h 5 l 1,0.015 h 3 l 1,-0.07 1,0.008 1,0.012 1,0.132 1,-0.097 1,-0.035 h 1 l 1,0.003 h 2 l 1,-0.003 h 1 l 1,0.003 h 5 l 1,0.004 h 4 l 1,-0.004 h 5 l 1,0.036 1,0.011 1,0.008 1,0.024 1,0.007 1,0.012 h 1 l 1,-0.016 1,-0.003 h 20 l 1,0.039 1,-0.039 h 11 l 1,-0.004 h 14 l 1,0.004 h 3 l 1,-0.004 h 1 l 1,0.004 h 4 l 1,-0.004 h 5 l 1,0.004 h 1 l 1,-0.004 h 7 l 1,0.011 1,-0.007 h 2 l 1,-0.004 1,0.019 1,0.008 h 1 l 1,0.004 1,0.012 h 1 l 1,-0.012 h 5 l 1,0.016 1,-0.012 1,-0.008 1,0.012 1,-0.008 h 2 l 1,-0.004 h 1 l 1,0.004 h 1 l 1,-0.004 1,0.004 h 2 l 1,-0.004 1,0.004 1,0.016 1,-0.016 1,-0.004 1,0.004 h 1 l 1,0.016 1,-0.016 1,-0.004 1,0.004 1,-0.004 1,0.004 h 1 l 1,0.004 2,-0.008 1,0.004 h 1 l 1,0.004 1,-0.004 1,0.004 h 1 l 1,-0.004 h 2 l 1,0.019 1,-0.015 1,0.012 1,-0.012 1,-0.004 h 3 l 1,0.004 h 2 l 1,-0.004 h 1 l 1,0.004 h 3 l 1,-0.004 h 3 l 1,0.012 1,0.007 1,-0.011 h 1 l 1,0.004 1,0.015 1,-0.008 1,0.071 1,-0.043 1,-0.031 h 1 l 1,-0.004 1,0.004 1,0.011 1,-0.011 1,-0.004 h 1 l 1,0.023 2,0.008 1,0.012 1,0.004 1,0.011 1,-0.008 1,-0.019 3,-0.012 h 1 l 1,0.008 h 1 l 1,-0.004 h 1 l 1,0.012 1,0.082 1,-0.07 1,-0.028 1,0.004 1,-0.004 h 1 l 1,0.016 1,-0.012 1,0.004 1,-0.008 h 3 l 1,0.02 1,-0.016 1,0.012 1,-0.012 1,0.012 1,0.008 1,0.004 1,0.027 1,0.004 h 3 l 1,-0.004 1,0.004 h 1 l 1,0.004 1,-0.004 1,-0.02 1,0.008 1,-0.008 1,-0.011 1,0.003 h 1 l 1,-0.003 1,0.003 h 1 l 1,-0.003 1,0.003 1,-0.003 h 3 l 1,0.007 1,0.043 1,-0.035 1,-0.015 1,0.003 1,0.008 1,-0.011 1,0.027 1,-0.024 1,-0.007 2,0.007 1,-0.007 1,0.015 1,0.02 1,-0.012 2,0.008 h 2 l 1,0.012 1,-0.008 1,-0.02 1,-0.008 h 1 l 1,0.004 1,-0.004 h 1 l 1,0.004 1,-0.004 1,0.079 1,-0.043 1,-0.028 1,-0.008 1,0.008 1,-0.004 h 4 l 1,-0.004 h 1 l 1,0.004 1,0.02 1,-0.02 2,0.008 h 1 l 1,0.113 1,-0.066 1,-0.043 h 3 l 2,0.008 1,-0.008 1,-0.004 1,-0.008 h 4 l 1,0.008 1,-0.004 h 1 l 1,-0.004 h 3 l 1,0.004 h 3 l 1,-0.004 h 1 l 1,0.004 h 2 l 1,-0.004 h 6 l 1,0.004 h 3 l 1,-0.004 h 4 l 1,0.004 1,-0.004 h 1 l 1,0.004 1,-0.004 h 3 l 1,-0.004 1,0.004 h 6 l 1,0.004 1,0.008 1,-0.016 h 1 l 1,0.004 h 3 l 1,0.004 1,0.012 1,0.004 1,0.008 1,-0.012 1,0.004 1,-0.004 1,0.008 1,0.004 2,-0.016 h 2 l 1,0.004 1,0.008 1,-0.008 1,0.008 1,-0.008 1,0.008 1,-0.012 h 2 l 1,0.008 1,0.004 1,-0.012 h 4 l 1,0.012 h 1 l 1,0.004 h 2 l 1,0.007 1,0.016 1,0.02 1,-0.039 h 1 l 1,0.007 1,0.004 1,-0.011 1,0.007 h 1 l 1,-0.011 1,0.004 1,0.007 h 1 l 2,-0.007 h 1 l 1,0.019 1,0.024 1,-0.04 1,0.008 1,-0.015"
           style="fill:none;stroke:#595a8a;stroke-width:1;stroke-linecap:round;stroke-linejoin:round;stroke-miterlimit:10;stroke-dasharray:none;stroke-opacity:1"
           id="path1390" /></g></g><g
       id="g1392"><path
         d="m 84,275 v -2"
         style="fill:none;stroke:#8f8f8f;stroke-width:0.4;stroke-linecap:butt;stroke-linejoin:miter;stroke-miterlimit:10;stroke-dasharray:none;stroke-opacity:0.75"
         id="path1394" /><path
         d="m 84,113 v -2"
         style="fill:none;stroke:#8f8f8f;stroke-width:0.4;stroke-linecap:butt;stroke-linejoin:miter;stroke-miterlimit:10;stroke-dasharray:none;stroke-opacity:0.75"
         id="path1396" /><path
         d="M 84,112 V 274"
         style="fill:none;stroke:#8f8f8f;stroke-width:0.4;stroke-linecap:butt;stroke-linejoin:miter;stroke-miterlimit:10;stroke-dasharray:1, 1;stroke-dashoffset:0;stroke-opacity:0.75"
         id="path1398" /><path
         d="m 111,275 v -2"
         style="fill:none;stroke:#8f8f8f;stroke-width:0.4;stroke-linecap:butt;stroke-linejoin:miter;stroke-miterlimit:10;stroke-dasharray:none;stroke-opacity:0.75"
         id="path1400" /><path
         d="m 111,113 v -2"
         style="fill:none;stroke:#8f8f8f;stroke-width:0.4;stroke-linecap:butt;stroke-linejoin:miter;stroke-miterlimit:10;stroke-dasharray:none;stroke-opacity:0.75"
         id="path1402" /><path
         d="M 111,112 V 274"
         style="fill:none;stroke:#8f8f8f;stroke-width:0.4;stroke-linecap:butt;stroke-linejoin:miter;stroke-miterlimit:10;stroke-dasharray:1, 1;stroke-dashoffset:0;stroke-opacity:0.75"
         id="path1404" /><path
         d="m 139,275 v -2"
         style="fill:none;stroke:#8f8f8f;stroke-width:0.4;stroke-linecap:butt;stroke-linejoin:miter;stroke-miterlimit:10;stroke-dasharray:none;stroke-opacity:0.75"
         id="path1406" /><path
         d="m 139,113 v -2"
         style="fill:none;stroke:#8f8f8f;stroke-width:0.4;stroke-linecap:butt;stroke-linejoin:miter;stroke-miterlimit:10;stroke-dasharray:none;stroke-opacity:0.75"
         id="path1408" /><path
         d="M 139,112 V 274"
         style="fill:none;stroke:#8f8f8f;stroke-width:0.4;stroke-linecap:butt;stroke-linejoin:miter;stroke-miterlimit:10;stroke-dasharray:1, 1;stroke-dashoffset:0;stroke-opacity:0.75"
         id="path1410" /><path
         d="m 195,275 v -2"
         style="fill:none;stroke:#8f8f8f;stroke-width:0.4;stroke-linecap:butt;stroke-linejoin:miter;stroke-miterlimit:10;stroke-dasharray:none;stroke-opacity:0.75"
         id="path1412" /><path
         d="m 195,113 v -2"
         style="fill:none;stroke:#8f8f8f;stroke-width:0.4;stroke-linecap:butt;stroke-linejoin:miter;stroke-miterlimit:10;stroke-dasharray:none;stroke-opacity:0.75"
         id="path1414" /><path
         d="M 195,112 V 274"
         style="fill:none;stroke:#8f8f8f;stroke-width:0.4;stroke-linecap:butt;stroke-linejoin:miter;stroke-miterlimit:10;stroke-dasharray:1, 1;stroke-dashoffset:0;stroke-opacity:0.75"
         id="path1416" /><path
         d="m 223,275 v -2"
         style="fill:none;stroke:#8f8f8f;stroke-width:0.4;stroke-linecap:butt;stroke-linejoin:miter;stroke-miterlimit:10;stroke-dasharray:none;stroke-opacity:0.75"
         id="path1418" /><path
         d="m 223,113 v -2"
         style="fill:none;stroke:#8f8f8f;stroke-width:0.4;stroke-linecap:butt;stroke-linejoin:miter;stroke-miterlimit:10;stroke-dasharray:none;stroke-opacity:0.75"
         id="path1420" /><path
         d="M 223,112 V 274"
         style="fill:none;stroke:#8f8f8f;stroke-width:0.4;stroke-linecap:butt;stroke-linejoin:miter;stroke-miterlimit:10;stroke-dasharray:1, 1;stroke-dashoffset:0;stroke-opacity:0.75"
         id="path1422" /><path
         d="m 250,275 v -2"
         style="fill:none;stroke:#8f8f8f;stroke-width:0.4;stroke-linecap:butt;stroke-linejoin:miter;stroke-miterlimit:10;stroke-dasharray:none;stroke-opacity:0.75"
         id="path1424" /><path
         d="m 250,113 v -2"
         style="fill:none;stroke:#8f8f8f;stroke-width:0.4;stroke-linecap:butt;stroke-linejoin:miter;stroke-miterlimit:10;stroke-dasharray:none;stroke-opacity:0.75"
         id="path1426" /><path
         d="M 250,112 V 274"
         style="fill:none;stroke:#8f8f8f;stroke-width:0.4;stroke-linecap:butt;stroke-linejoin:miter;stroke-miterlimit:10;stroke-dasharray:1, 1;stroke-dashoffset:0;stroke-opacity:0.75"
         id="path1428" /><path
         d="m 306,275 v -2"
         style="fill:none;stroke:#8f8f8f;stroke-width:0.4;stroke-linecap:butt;stroke-linejoin:miter;stroke-miterlimit:10;stroke-dasharray:none;stroke-opacity:0.75"
         id="path1430" /><path
         d="m 306,113 v -2"
         style="fill:none;stroke:#8f8f8f;stroke-width:0.4;stroke-linecap:butt;stroke-linejoin:miter;stroke-miterlimit:10;stroke-dasharray:none;stroke-opacity:0.75"
         id="path1432" /><path
         d="M 306,112 V 274"
         style="fill:none;stroke:#8f8f8f;stroke-width:0.4;stroke-linecap:butt;stroke-linejoin:miter;stroke-miterlimit:10;stroke-dasharray:1, 1;stroke-dashoffset:0;stroke-opacity:0.75"
         id="path1434" /><path
         d="m 334,275 v -2"
         style="fill:none;stroke:#8f8f8f;stroke-width:0.4;stroke-linecap:butt;stroke-linejoin:miter;stroke-miterlimit:10;stroke-dasharray:none;stroke-opacity:0.75"
         id="path1436" /><path
         d="m 334,113 v -2"
         style="fill:none;stroke:#8f8f8f;stroke-width:0.4;stroke-linecap:butt;stroke-linejoin:miter;stroke-miterlimit:10;stroke-dasharray:none;stroke-opacity:0.75"
         id="path1438" /><path
         d="M 334,112 V 274"
         style="fill:none;stroke:#8f8f8f;stroke-width:0.4;stroke-linecap:butt;stroke-linejoin:miter;stroke-miterlimit:10;stroke-dasharray:1, 1;stroke-dashoffset:0;stroke-opacity:0.75"
         id="path1440" /><path
         d="m 361,275 v -2"
         style="fill:none;stroke:#8f8f8f;stroke-width:0.4;stroke-linecap:butt;stroke-linejoin:miter;stroke-miterlimit:10;stroke-dasharray:none;stroke-opacity:0.75"
         id="path1442" /><path
         d="m 361,113 v -2"
         style="fill:none;stroke:#8f8f8f;stroke-width:0.4;stroke-linecap:butt;stroke-linejoin:miter;stroke-miterlimit:10;stroke-dasharray:none;stroke-opacity:0.75"
         id="path1444" /><path
         d="M 361,112 V 274"
         style="fill:none;stroke:#8f8f8f;stroke-width:0.4;stroke-linecap:butt;stroke-linejoin:miter;stroke-miterlimit:10;stroke-dasharray:1, 1;stroke-dashoffset:0;stroke-opacity:0.75"
         id="path1446" /><path
         d="m 417,275 v -2"
         style="fill:none;stroke:#8f8f8f;stroke-width:0.4;stroke-linecap:butt;stroke-linejoin:miter;stroke-miterlimit:10;stroke-dasharray:none;stroke-opacity:0.75"
         id="path1448" /><path
         d="m 417,113 v -2"
         style="fill:none;stroke:#8f8f8f;stroke-width:0.4;stroke-linecap:butt;stroke-linejoin:miter;stroke-miterlimit:10;stroke-dasharray:none;stroke-opacity:0.75"
         id="path1450" /><path
         d="M 417,112 V 274"
         style="fill:none;stroke:#8f8f8f;stroke-width:0.4;stroke-linecap:butt;stroke-linejoin:miter;stroke-miterlimit:10;stroke-dasharray:1, 1;stroke-dashoffset:0;stroke-opacity:0.75"
         id="path1452" /><path
         d="m 445,275 v -2"
         style="fill:none;stroke:#8f8f8f;stroke-width:0.4;stroke-linecap:butt;stroke-linejoin:miter;stroke-miterlimit:10;stroke-dasharray:none;stroke-opacity:0.75"
         id="path1454" /><path
         d="m 445,113 v -2"
         style="fill:none;stroke:#8f8f8f;stroke-width:0.4;stroke-linecap:butt;stroke-linejoin:miter;stroke-miterlimit:10;stroke-dasharray:none;stroke-opacity:0.75"
         id="path1456" /><path
         d="M 445,112 V 274"
         style="fill:none;stroke:#8f8f8f;stroke-width:0.4;stroke-linecap:butt;stroke-linejoin:miter;stroke-miterlimit:10;stroke-dasharray:1, 1;stroke-dashoffset:0;stroke-opacity:0.75"
         id="path1458" /><path
         d="m 473,275 v -2"
         style="fill:none;stroke:#8f8f8f;stroke-width:0.4;stroke-linecap:butt;stroke-linejoin:miter;stroke-miterlimit:10;stroke-dasharray:none;stroke-opacity:0.75"
         id="path1460" /><path
         d="m 473,113 v -2"
         style="fill:none;stroke:#8f8f8f;stroke-width:0.4;stroke-linecap:butt;stroke-linejoin:miter;stroke-miterlimit:10;stroke-dasharray:none;stroke-opacity:0.75"
         id="path1462" /><path
         d="M 473,112 V 274"
         style="fill:none;stroke:#8f8f8f;stroke-width:0.4;stroke-linecap:butt;stroke-linejoin:miter;stroke-miterlimit:10;stroke-dasharray:1, 1;stroke-dashoffset:0;stroke-opacity:0.75"
         id="path1464" /><path
         d="m 528,275 v -2"
         style="fill:none;stroke:#8f8f8f;stroke-width:0.4;stroke-linecap:butt;stroke-linejoin:miter;stroke-miterlimit:10;stroke-dasharray:none;stroke-opacity:0.75"
         id="path1466" /><path
         d="m 528,113 v -2"
         style="fill:none;stroke:#8f8f8f;stroke-width:0.4;stroke-linecap:butt;stroke-linejoin:miter;stroke-miterlimit:10;stroke-dasharray:none;stroke-opacity:0.75"
         id="path1468" /><path
         d="M 528,112 V 274"
         style="fill:none;stroke:#8f8f8f;stroke-width:0.4;stroke-linecap:butt;stroke-linejoin:miter;stroke-miterlimit:10;stroke-dasharray:1, 1;stroke-dashoffset:0;stroke-opacity:0.75"
         id="path1470" /><path
         d="m 556,275 v -2"
         style="fill:none;stroke:#8f8f8f;stroke-width:0.4;stroke-linecap:butt;stroke-linejoin:miter;stroke-miterlimit:10;stroke-dasharray:none;stroke-opacity:0.75"
         id="path1472" /><path
         d="m 556,113 v -2"
         style="fill:none;stroke:#8f8f8f;stroke-width:0.4;stroke-linecap:butt;stroke-linejoin:miter;stroke-miterlimit:10;stroke-dasharray:none;stroke-opacity:0.75"
         id="path1474" /><path
         d="M 556,112 V 274"
         style="fill:none;stroke:#8f8f8f;stroke-width:0.4;stroke-linecap:butt;stroke-linejoin:miter;stroke-miterlimit:10;stroke-dasharray:1, 1;stroke-dashoffset:0;stroke-opacity:0.75"
         id="path1476" /><path
         d="m 167,275 v -2"
         style="fill:none;stroke:#de4f4f;stroke-width:0.6;stroke-linecap:butt;stroke-linejoin:miter;stroke-miterlimit:10;stroke-dasharray:none;stroke-opacity:0.6"
         id="path1478" /><path
         d="m 167,113 v -3"
         style="fill:none;stroke:#de4f4f;stroke-width:0.6;stroke-linecap:butt;stroke-linejoin:miter;stroke-miterlimit:10;stroke-dasharray:none;stroke-opacity:0.6"
         id="path1480" /><path
         d="M 167,110 V 275"
         style="fill:none;stroke:#de4f4f;stroke-width:0.6;stroke-linecap:butt;stroke-linejoin:miter;stroke-miterlimit:10;stroke-dasharray:1, 1;stroke-dashoffset:0;stroke-opacity:0.6"
         id="path1482" /><path
         d="m 278,275 v -2"
         style="fill:none;stroke:#de4f4f;stroke-width:0.6;stroke-linecap:butt;stroke-linejoin:miter;stroke-miterlimit:10;stroke-dasharray:none;stroke-opacity:0.6"
         id="path1484" /><path
         d="m 278,113 v -3"
         style="fill:none;stroke:#de4f4f;stroke-width:0.6;stroke-linecap:butt;stroke-linejoin:miter;stroke-miterlimit:10;stroke-dasharray:none;stroke-opacity:0.6"
         id="path1486" /><path
         d="M 278,110 V 275"
         style="fill:none;stroke:#de4f4f;stroke-width:0.6;stroke-linecap:butt;stroke-linejoin:miter;stroke-miterlimit:10;stroke-dasharray:1, 1;stroke-dashoffset:0;stroke-opacity:0.6"
         id="path1488" /><path
         d="m 389,275 v -2"
         style="fill:none;stroke:#de4f4f;stroke-width:0.6;stroke-linecap:butt;stroke-linejoin:miter;stroke-miterlimit:10;stroke-dasharray:none;stroke-opacity:0.6"
         id="path1490" /><path
         d="m 389,113 v -3"
         style="fill:none;stroke:#de4f4f;stroke-width:0.6;stroke-linecap:butt;stroke-linejoin:miter;stroke-miterlimit:10;stroke-dasharray:none;stroke-opacity:0.6"
         id="path1492" /><path
         d="M 389,110 V 275"
         style="fill:none;stroke:#de4f4f;stroke-width:0.6;stroke-linecap:butt;stroke-linejoin:miter;stroke-miterlimit:10;stroke-dasharray:1, 1;stroke-dashoffset:0;stroke-opacity:0.6"
         id="path1494" /><path
         d="m 500,275 v -2"
         style="fill:none;stroke:#de4f4f;stroke-width:0.6;stroke-linecap:butt;stroke-linejoin:miter;stroke-miterlimit:10;stroke-dasharray:none;stroke-opacity:0.6"
         id="path1496" /><path
         d="m 500,113 v -3"
         style="fill:none;stroke:#de4f4f;stroke-width:0.6;stroke-linecap:butt;stroke-linejoin:miter;stroke-miterlimit:10;stroke-dasharray:none;stroke-opacity:0.6"
         id="path1498" /><path
         d="M 500,110 V 275"
         style="fill:none;stroke:#de4f4f;stroke-width:0.6;stroke-linecap:butt;stroke-linejoin:miter;stroke-miterlimit:10;stroke-dasharray:1, 1;stroke-dashoffset:0;stroke-opacity:0.6"
         id="path1500" /><text
         transform="matrix(1,0,0,-1,150,100)"
         style="font-variant:normal;font-weight:normal;font-size:11.1113px;font-family:'DejaVu Sans Mono';-inkscape-font-specification:DejaVuSansMono;writing-mode:lr-tb;fill:#000000;fill-opacity:1;fill-rule:nonzero;stroke:none"
         id="text1504"><tspan
           x="0 7.0001369 14.000274 21.00041 28.000547 111.00217 117.9912 124.99133 131.99147 138.99161 222 229.00014 236.00027 243.00041 250.00055 333.00217 339.99118 346.99133 353.99146 360.99161"
           y="0"
           id="tspan1502">16:2016:4017:0017:20</tspan></text><path
         d="m 71,117.91 h 2"
         style="fill:none;stroke:#8f8f8f;stroke-width:0.4;stroke-linecap:butt;stroke-linejoin:miter;stroke-miterlimit:10;stroke-dasharray:none;stroke-opacity:0.75"
         id="path1506" /><path
         d="m 573,117.91 h 2"
         style="fill:none;stroke:#8f8f8f;stroke-width:0.4;stroke-linecap:butt;stroke-linejoin:miter;stroke-miterlimit:10;stroke-dasharray:none;stroke-opacity:0.75"
         id="path1508" /><path
         d="M 72,117.91 H 574"
         style="fill:none;stroke:#8f8f8f;stroke-width:0.4;stroke-linecap:butt;stroke-linejoin:miter;stroke-miterlimit:10;stroke-dasharray:1, 1;stroke-dashoffset:0;stroke-opacity:0.75"
         id="path1510" /><path
         d="m 71,125.441 h 2"
         style="fill:none;stroke:#8f8f8f;stroke-width:0.4;stroke-linecap:butt;stroke-linejoin:miter;stroke-miterlimit:10;stroke-dasharray:none;stroke-opacity:0.75"
         id="path1512" /><path
         d="m 573,125.441 h 2"
         style="fill:none;stroke:#8f8f8f;stroke-width:0.4;stroke-linecap:butt;stroke-linejoin:miter;stroke-miterlimit:10;stroke-dasharray:none;stroke-opacity:0.75"
         id="path1514" /><path
         d="M 72,125.441 H 574"
         style="fill:none;stroke:#8f8f8f;stroke-width:0.4;stroke-linecap:butt;stroke-linejoin:miter;stroke-miterlimit:10;stroke-dasharray:1, 1;stroke-dashoffset:0;stroke-opacity:0.75"
         id="path1516" /><path
         d="m 71,132.973 h 2"
         style="fill:none;stroke:#8f8f8f;stroke-width:0.4;stroke-linecap:butt;stroke-linejoin:miter;stroke-miterlimit:10;stroke-dasharray:none;stroke-opacity:0.75"
         id="path1518" /><path
         d="m 573,132.973 h 2"
         style="fill:none;stroke:#8f8f8f;stroke-width:0.4;stroke-linecap:butt;stroke-linejoin:miter;stroke-miterlimit:10;stroke-dasharray:none;stroke-opacity:0.75"
         id="path1520" /><path
         d="M 72,132.973 H 574"
         style="fill:none;stroke:#8f8f8f;stroke-width:0.4;stroke-linecap:butt;stroke-linejoin:miter;stroke-miterlimit:10;stroke-dasharray:1, 1;stroke-dashoffset:0;stroke-opacity:0.75"
         id="path1522" /><path
         d="m 71,140.504 h 2"
         style="fill:none;stroke:#8f8f8f;stroke-width:0.4;stroke-linecap:butt;stroke-linejoin:miter;stroke-miterlimit:10;stroke-dasharray:none;stroke-opacity:0.75"
         id="path1524" /><path
         d="m 573,140.504 h 2"
         style="fill:none;stroke:#8f8f8f;stroke-width:0.4;stroke-linecap:butt;stroke-linejoin:miter;stroke-miterlimit:10;stroke-dasharray:none;stroke-opacity:0.75"
         id="path1526" /><path
         d="M 72,140.504 H 574"
         style="fill:none;stroke:#8f8f8f;stroke-width:0.4;stroke-linecap:butt;stroke-linejoin:miter;stroke-miterlimit:10;stroke-dasharray:1, 1;stroke-dashoffset:0;stroke-opacity:0.75"
         id="path1528" /><text
         transform="matrix(1,0,0,-1,30.000137,144.03516)"
         style="font-variant:normal;font-weight:normal;font-size:11.1113px;font-family:'DejaVu Sans Mono';-inkscape-font-specification:DejaVuSansMono;writing-mode:lr-tb;fill:#000000;fill-opacity:1;fill-rule:nonzero;stroke:none"
         id="text1532"><tspan
           x="0 7.0001369 14.000274 21.00041 28.000547"
           y="0"
           id="tspan1530">100 M</tspan></text><path
         d="m 71,148.035 h 2"
         style="fill:none;stroke:#de4f4f;stroke-width:0.6;stroke-linecap:butt;stroke-linejoin:miter;stroke-miterlimit:10;stroke-dasharray:none;stroke-opacity:0.6"
         id="path1534" /><path
         d="m 573,148.035 h 2"
         style="fill:none;stroke:#de4f4f;stroke-width:0.6;stroke-linecap:butt;stroke-linejoin:miter;stroke-miterlimit:10;stroke-dasharray:none;stroke-opacity:0.6"
         id="path1536" /><path
         d="M 71,148.035 H 575"
         style="fill:none;stroke:#de4f4f;stroke-width:0.6;stroke-linecap:butt;stroke-linejoin:miter;stroke-miterlimit:10;stroke-dasharray:1, 1;stroke-dashoffset:0;stroke-opacity:0.6"
         id="path1538" /><path
         d="m 71,155.57 h 2"
         style="fill:none;stroke:#8f8f8f;stroke-width:0.4;stroke-linecap:butt;stroke-linejoin:miter;stroke-miterlimit:10;stroke-dasharray:none;stroke-opacity:0.75"
         id="path1540" /><path
         d="m 573,155.57 h 2"
         style="fill:none;stroke:#8f8f8f;stroke-width:0.4;stroke-linecap:butt;stroke-linejoin:miter;stroke-miterlimit:10;stroke-dasharray:none;stroke-opacity:0.75"
         id="path1542" /><path
         d="M 72,155.57 H 574"
         style="fill:none;stroke:#8f8f8f;stroke-width:0.4;stroke-linecap:butt;stroke-linejoin:miter;stroke-miterlimit:10;stroke-dasharray:1, 1;stroke-dashoffset:0;stroke-opacity:0.75"
         id="path1544" /><path
         d="m 71,163.102 h 2"
         style="fill:none;stroke:#8f8f8f;stroke-width:0.4;stroke-linecap:butt;stroke-linejoin:miter;stroke-miterlimit:10;stroke-dasharray:none;stroke-opacity:0.75"
         id="path1546" /><path
         d="m 573,163.102 h 2"
         style="fill:none;stroke:#8f8f8f;stroke-width:0.4;stroke-linecap:butt;stroke-linejoin:miter;stroke-miterlimit:10;stroke-dasharray:none;stroke-opacity:0.75"
         id="path1548" /><path
         d="M 72,163.102 H 574"
         style="fill:none;stroke:#8f8f8f;stroke-width:0.4;stroke-linecap:butt;stroke-linejoin:miter;stroke-miterlimit:10;stroke-dasharray:1, 1;stroke-dashoffset:0;stroke-opacity:0.75"
         id="path1550" /><path
         d="m 71,170.633 h 2"
         style="fill:none;stroke:#8f8f8f;stroke-width:0.4;stroke-linecap:butt;stroke-linejoin:miter;stroke-miterlimit:10;stroke-dasharray:none;stroke-opacity:0.75"
         id="path1552" /><path
         d="m 573,170.633 h 2"
         style="fill:none;stroke:#8f8f8f;stroke-width:0.4;stroke-linecap:butt;stroke-linejoin:miter;stroke-miterlimit:10;stroke-dasharray:none;stroke-opacity:0.75"
         id="path1554" /><path
         d="M 72,170.633 H 574"
         style="fill:none;stroke:#8f8f8f;stroke-width:0.4;stroke-linecap:butt;stroke-linejoin:miter;stroke-miterlimit:10;stroke-dasharray:1, 1;stroke-dashoffset:0;stroke-opacity:0.75"
         id="path1556" /><path
         d="m 71,178.164 h 2"
         style="fill:none;stroke:#8f8f8f;stroke-width:0.4;stroke-linecap:butt;stroke-linejoin:miter;stroke-miterlimit:10;stroke-dasharray:none;stroke-opacity:0.75"
         id="path1558" /><path
         d="m 573,178.164 h 2"
         style="fill:none;stroke:#8f8f8f;stroke-width:0.4;stroke-linecap:butt;stroke-linejoin:miter;stroke-miterlimit:10;stroke-dasharray:none;stroke-opacity:0.75"
         id="path1560" /><path
         d="M 72,178.164 H 574"
         style="fill:none;stroke:#8f8f8f;stroke-width:0.4;stroke-linecap:butt;stroke-linejoin:miter;stroke-miterlimit:10;stroke-dasharray:1, 1;stroke-dashoffset:0;stroke-opacity:0.75"
         id="path1562" /><text
         transform="matrix(1,0,0,-1,30.000137,181.69531)"
         style="font-variant:normal;font-weight:normal;font-size:11.1113px;font-family:'DejaVu Sans Mono';-inkscape-font-specification:DejaVuSansMono;writing-mode:lr-tb;fill:#000000;fill-opacity:1;fill-rule:nonzero;stroke:none"
         id="text1566"><tspan
           x="0 7.0001369 14.000274 21.00041 28.000547"
           y="0"
           id="tspan1564">200 M</tspan></text><path
         d="m 71,185.695 h 2"
         style="fill:none;stroke:#de4f4f;stroke-width:0.6;stroke-linecap:butt;stroke-linejoin:miter;stroke-miterlimit:10;stroke-dasharray:none;stroke-opacity:0.6"
         id="path1568" /><path
         d="m 573,185.695 h 2"
         style="fill:none;stroke:#de4f4f;stroke-width:0.6;stroke-linecap:butt;stroke-linejoin:miter;stroke-miterlimit:10;stroke-dasharray:none;stroke-opacity:0.6"
         id="path1570" /><path
         d="M 71,185.695 H 575"
         style="fill:none;stroke:#de4f4f;stroke-width:0.6;stroke-linecap:butt;stroke-linejoin:miter;stroke-miterlimit:10;stroke-dasharray:1, 1;stroke-dashoffset:0;stroke-opacity:0.6"
         id="path1572" /><path
         d="m 71,193.227 h 2"
         style="fill:none;stroke:#8f8f8f;stroke-width:0.4;stroke-linecap:butt;stroke-linejoin:miter;stroke-miterlimit:10;stroke-dasharray:none;stroke-opacity:0.75"
         id="path1574" /><path
         d="m 573,193.227 h 2"
         style="fill:none;stroke:#8f8f8f;stroke-width:0.4;stroke-linecap:butt;stroke-linejoin:miter;stroke-miterlimit:10;stroke-dasharray:none;stroke-opacity:0.75"
         id="path1576" /><path
         d="M 72,193.227 H 574"
         style="fill:none;stroke:#8f8f8f;stroke-width:0.4;stroke-linecap:butt;stroke-linejoin:miter;stroke-miterlimit:10;stroke-dasharray:1, 1;stroke-dashoffset:0;stroke-opacity:0.75"
         id="path1578" /><path
         d="m 71,200.758 h 2"
         style="fill:none;stroke:#8f8f8f;stroke-width:0.4;stroke-linecap:butt;stroke-linejoin:miter;stroke-miterlimit:10;stroke-dasharray:none;stroke-opacity:0.75"
         id="path1580" /><path
         d="m 573,200.758 h 2"
         style="fill:none;stroke:#8f8f8f;stroke-width:0.4;stroke-linecap:butt;stroke-linejoin:miter;stroke-miterlimit:10;stroke-dasharray:none;stroke-opacity:0.75"
         id="path1582" /><path
         d="M 72,200.758 H 574"
         style="fill:none;stroke:#8f8f8f;stroke-width:0.4;stroke-linecap:butt;stroke-linejoin:miter;stroke-miterlimit:10;stroke-dasharray:1, 1;stroke-dashoffset:0;stroke-opacity:0.75"
         id="path1584" /><path
         d="m 71,208.289 h 2"
         style="fill:none;stroke:#8f8f8f;stroke-width:0.4;stroke-linecap:butt;stroke-linejoin:miter;stroke-miterlimit:10;stroke-dasharray:none;stroke-opacity:0.75"
         id="path1586" /><path
         d="m 573,208.289 h 2"
         style="fill:none;stroke:#8f8f8f;stroke-width:0.4;stroke-linecap:butt;stroke-linejoin:miter;stroke-miterlimit:10;stroke-dasharray:none;stroke-opacity:0.75"
         id="path1588" /><path
         d="M 72,208.289 H 574"
         style="fill:none;stroke:#8f8f8f;stroke-width:0.4;stroke-linecap:butt;stroke-linejoin:miter;stroke-miterlimit:10;stroke-dasharray:1, 1;stroke-dashoffset:0;stroke-opacity:0.75"
         id="path1590" /><path
         d="m 71,215.82 h 2"
         style="fill:none;stroke:#8f8f8f;stroke-width:0.4;stroke-linecap:butt;stroke-linejoin:miter;stroke-miterlimit:10;stroke-dasharray:none;stroke-opacity:0.75"
         id="path1592" /><path
         d="m 573,215.82 h 2"
         style="fill:none;stroke:#8f8f8f;stroke-width:0.4;stroke-linecap:butt;stroke-linejoin:miter;stroke-miterlimit:10;stroke-dasharray:none;stroke-opacity:0.75"
         id="path1594" /><path
         d="M 72,215.82 H 574"
         style="fill:none;stroke:#8f8f8f;stroke-width:0.4;stroke-linecap:butt;stroke-linejoin:miter;stroke-miterlimit:10;stroke-dasharray:1, 1;stroke-dashoffset:0;stroke-opacity:0.75"
         id="path1596" /><text
         transform="matrix(1,0,0,-1,30.000137,219.35156)"
         style="font-variant:normal;font-weight:normal;font-size:11.1113px;font-family:'DejaVu Sans Mono';-inkscape-font-specification:DejaVuSansMono;writing-mode:lr-tb;fill:#000000;fill-opacity:1;fill-rule:nonzero;stroke:none"
         id="text1600"><tspan
           x="0 7.0001369 14.000274 21.00041 28.000547"
           y="0"
           id="tspan1598">300 M</tspan></text><path
         d="m 71,223.352 h 2"
         style="fill:none;stroke:#de4f4f;stroke-width:0.6;stroke-linecap:butt;stroke-linejoin:miter;stroke-miterlimit:10;stroke-dasharray:none;stroke-opacity:0.6"
         id="path1602" /><path
         d="m 573,223.352 h 2"
         style="fill:none;stroke:#de4f4f;stroke-width:0.6;stroke-linecap:butt;stroke-linejoin:miter;stroke-miterlimit:10;stroke-dasharray:none;stroke-opacity:0.6"
         id="path1604" /><path
         d="M 71,223.352 H 575"
         style="fill:none;stroke:#de4f4f;stroke-width:0.6;stroke-linecap:butt;stroke-linejoin:miter;stroke-miterlimit:10;stroke-dasharray:1, 1;stroke-dashoffset:0;stroke-opacity:0.6"
         id="path1606" /><path
         d="m 71,230.883 h 2"
         style="fill:none;stroke:#8f8f8f;stroke-width:0.4;stroke-linecap:butt;stroke-linejoin:miter;stroke-miterlimit:10;stroke-dasharray:none;stroke-opacity:0.75"
         id="path1608" /><path
         d="m 573,230.883 h 2"
         style="fill:none;stroke:#8f8f8f;stroke-width:0.4;stroke-linecap:butt;stroke-linejoin:miter;stroke-miterlimit:10;stroke-dasharray:none;stroke-opacity:0.75"
         id="path1610" /><path
         d="M 72,230.883 H 574"
         style="fill:none;stroke:#8f8f8f;stroke-width:0.4;stroke-linecap:butt;stroke-linejoin:miter;stroke-miterlimit:10;stroke-dasharray:1, 1;stroke-dashoffset:0;stroke-opacity:0.75"
         id="path1612" /><path
         d="m 71,238.418 h 2"
         style="fill:none;stroke:#8f8f8f;stroke-width:0.4;stroke-linecap:butt;stroke-linejoin:miter;stroke-miterlimit:10;stroke-dasharray:none;stroke-opacity:0.75"
         id="path1614" /><path
         d="m 573,238.418 h 2"
         style="fill:none;stroke:#8f8f8f;stroke-width:0.4;stroke-linecap:butt;stroke-linejoin:miter;stroke-miterlimit:10;stroke-dasharray:none;stroke-opacity:0.75"
         id="path1616" /><path
         d="M 72,238.418 H 574"
         style="fill:none;stroke:#8f8f8f;stroke-width:0.4;stroke-linecap:butt;stroke-linejoin:miter;stroke-miterlimit:10;stroke-dasharray:1, 1;stroke-dashoffset:0;stroke-opacity:0.75"
         id="path1618" /><path
         d="m 71,245.949 h 2"
         style="fill:none;stroke:#8f8f8f;stroke-width:0.4;stroke-linecap:butt;stroke-linejoin:miter;stroke-miterlimit:10;stroke-dasharray:none;stroke-opacity:0.75"
         id="path1620" /><path
         d="m 573,245.949 h 2"
         style="fill:none;stroke:#8f8f8f;stroke-width:0.4;stroke-linecap:butt;stroke-linejoin:miter;stroke-miterlimit:10;stroke-dasharray:none;stroke-opacity:0.75"
         id="path1622" /><path
         d="M 72,245.949 H 574"
         style="fill:none;stroke:#8f8f8f;stroke-width:0.4;stroke-linecap:butt;stroke-linejoin:miter;stroke-miterlimit:10;stroke-dasharray:1, 1;stroke-dashoffset:0;stroke-opacity:0.75"
         id="path1624" /><path
         d="m 71,253.48 h 2"
         style="fill:none;stroke:#8f8f8f;stroke-width:0.4;stroke-linecap:butt;stroke-linejoin:miter;stroke-miterlimit:10;stroke-dasharray:none;stroke-opacity:0.75"
         id="path1626" /><path
         d="m 573,253.48 h 2"
         style="fill:none;stroke:#8f8f8f;stroke-width:0.4;stroke-linecap:butt;stroke-linejoin:miter;stroke-miterlimit:10;stroke-dasharray:none;stroke-opacity:0.75"
         id="path1628" /><path
         d="M 72,253.48 H 574"
         style="fill:none;stroke:#8f8f8f;stroke-width:0.4;stroke-linecap:butt;stroke-linejoin:miter;stroke-miterlimit:10;stroke-dasharray:1, 1;stroke-dashoffset:0;stroke-opacity:0.75"
         id="path1630" /><text
         transform="matrix(1,0,0,-1,30.000137,257.01172)"
         style="font-variant:normal;font-weight:normal;font-size:11.1113px;font-family:'DejaVu Sans Mono';-inkscape-font-specification:DejaVuSansMono;writing-mode:lr-tb;fill:#000000;fill-opacity:1;fill-rule:nonzero;stroke:none"
         id="text1634"><tspan
           x="0 7.0001369 14.000274 21.00041 28.000547"
           y="0"
           id="tspan1632">400 M</tspan></text><path
         d="m 71,261.012 h 2"
         style="fill:none;stroke:#de4f4f;stroke-width:0.6;stroke-linecap:butt;stroke-linejoin:miter;stroke-miterlimit:10;stroke-dasharray:none;stroke-opacity:0.6"
         id="path1636" /><path
         d="m 573,261.012 h 2"
         style="fill:none;stroke:#de4f4f;stroke-width:0.6;stroke-linecap:butt;stroke-linejoin:miter;stroke-miterlimit:10;stroke-dasharray:none;stroke-opacity:0.6"
         id="path1638" /><path
         d="M 71,261.012 H 575"
         style="fill:none;stroke:#de4f4f;stroke-width:0.6;stroke-linecap:butt;stroke-linejoin:miter;stroke-miterlimit:10;stroke-dasharray:1, 1;stroke-dashoffset:0;stroke-opacity:0.6"
         id="path1640" /><path
         d="m 71,268.543 h 2"
         style="fill:none;stroke:#8f8f8f;stroke-width:0.4;stroke-linecap:butt;stroke-linejoin:miter;stroke-miterlimit:10;stroke-dasharray:none;stroke-opacity:0.75"
         id="path1642" /><path
         d="m 573,268.543 h 2"
         style="fill:none;stroke:#8f8f8f;stroke-width:0.4;stroke-linecap:butt;stroke-linejoin:miter;stroke-miterlimit:10;stroke-dasharray:none;stroke-opacity:0.75"
         id="path1644" /><path
         d="M 72,268.543 H 574"
         style="fill:none;stroke:#8f8f8f;stroke-width:0.4;stroke-linecap:butt;stroke-linejoin:miter;stroke-miterlimit:10;stroke-dasharray:1, 1;stroke-dashoffset:0;stroke-opacity:0.75"
         id="path1646" /><text
         transform="matrix(0,1,1,0,14,176)"
         style="font-variant:normal;font-weight:normal;font-size:11.1113px;font-family:'DejaVu Sans Mono';-inkscape-font-specification:DejaVuSansMono;writing-mode:lr-tb;fill:#000000;fill-opacity:1;fill-rule:nonzero;stroke:none"
         id="text1650"><tspan
           x="0 7.0001369 14.000274 21.00041 28.000547"
           y="0"
           id="tspan1648">Bytes</tspan></text><text
         transform="matrix(1,0,0,-1,229,290)"
         style="font-variant:normal;font-weight:normal;font-size:13.8887px;font-family:'DejaVu Sans Mono';-inkscape-font-specification:DejaVuSansMono;writing-mode:lr-tb;fill:#000000;fill-opacity:1;fill-rule:nonzero;stroke:none"
         id="text1654"><tspan
           x="0 7.9998751 15.99975 23.999626 31.9995 39.999374 47.999252 55.999126 63.999001 71.998878 79.998749 87.998627 95.984612 103.98449 111.98436 119.98424 127.98412 135.98399"
           y="0"
           id="tspan1652">sepp/memory/memory</tspan></text><text
         transform="matrix(0,-1,-1,0,592,304)"
         style="font-variant:normal;font-weight:normal;font-size:7.63867px;font-family:'DejaVu Sans Mono';-inkscape-font-specification:DejaVuSansMono;writing-mode:lr-tb;fill:#000000;fill-opacity:0.3;fill-rule:nonzero;stroke:none"
         id="text1658"><tspan
           x="0 5.0033302 9.9990215 15.002352 19.998043 25.001373 29.997065 35.000397 39.996086 44.999416 49.99511 54.99844 59.994129 64.997459 69.993149 74.996483 79.992172 84.995506 89.991196 94.994522 99.990219 104.99355"
           y="0"
           id="tspan1656">RRDTOOL / TOBI OETIKER</tspan></text><text
         transform="matrix(1,0,0,-1,30.000273,80)"
         style="font-variant:normal;font-weight:normal;font-size:11.1113px;font-family:'DejaVu Sans Mono';-inkscape-font-specification:DejaVuSansMono;writing-mode:lr-tb;fill:#000000;fill-opacity:1;fill-rule:nonzero;stroke:none"
         id="text1662"><tspan
           x="0 7.0001369 14.000274 21.00041 28.000547"
           y="0"
           id="tspan1660">free </tspan></text><path
         d="m 16,88.762 h 8.398 V 80.36 H 16 Z"
         style="fill:#00e000;fill-opacity:1;fill-rule:nonzero;stroke:none"
         id="path1664" /><path
         d="m 16,88.762 h 8.398 V 80.36 H 16 Z"
         style="fill:none;stroke:#000000;stroke-width:1;stroke-linecap:butt;stroke-linejoin:miter;stroke-miterlimit:10;stroke-dasharray:none;stroke-opacity:1"
         id="path1666" /><text
         transform="matrix(1,0,0,-1,137.00027,80)"
         style="font-variant:normal;font-weight:normal;font-size:11.1113px;font-family:'DejaVu Sans Mono';-inkscape-font-specification:DejaVuSansMono;writing-mode:lr-tb;fill:#000000;fill-opacity:1;fill-rule:nonzero;stroke:none"
         id="text1672"><tspan
           x="0 7.0001369 14.000274 21.00041 28.000547 35.000683 41.989708 48.989845 55.989983 78.990433 85.99057 92.990707 99.990837 106.99097 113.99111 120.99125 127.99139 134.99153 141.99165 148.99179 171.99225 178.98128 185.98141 192.98155 199.98167 206.98181 213.98195 220.98209 227.98222 234.98236 241.9825 264.98294 278.98322 285.98337 292.98349 299.98364 306.97266 313.97281 320.97293 327.97308 334.97321"
           y="0"
           id="tspan1668">3.4M Min, 36.1M Avg, 84.9M Max, 5.6M Last</tspan><tspan
           x="-121.00027 -107 -99.999863 -92.999725 -85.999588 -78.999451 -71.999313 -65.010292"
           y="13.999995"
           id="tspan1670"> cached </tspan></text><path
         d="m 16,74.762 h 8.398 V 66.36 H 16 Z"
         style="fill:#0000ff;fill-opacity:1;fill-rule:nonzero;stroke:none"
         id="path1674" /><path
         d="m 16,74.762 h 8.398 V 66.36 H 16 Z"
         style="fill:none;stroke:#000000;stroke-width:1;stroke-linecap:butt;stroke-linejoin:miter;stroke-miterlimit:10;stroke-dasharray:none;stroke-opacity:1"
         id="path1676" /><text
         transform="matrix(1,0,0,-1,130.00014,66)"
         style="font-variant:normal;font-weight:normal;font-size:11.1113px;font-family:'DejaVu Sans Mono';-inkscape-font-specification:DejaVuSansMono;writing-mode:lr-tb;fill:#000000;fill-opacity:1;fill-rule:nonzero;stroke:none"
         id="text1682"><tspan
           x="0 7.0001369 14.000274 21.00041 28.000547 35.000683 42.00082 48.989845 55.989983 62.99012 85.99057 92.990707 99.990837 106.99097 113.99111 120.99125 127.99139 134.99153 141.99165 148.99179 155.99193 178.99239 185.98141 192.98155 199.98167 206.98181 213.98195 220.98209 227.98222 234.98236 241.9825 248.98264 271.98309 278.98322 285.98337 292.98349 299.98364 306.98376 313.97281 320.97293 327.97308 334.97321 341.97333"
           y="0"
           id="tspan1678">87.9M Min,105.5M Avg,189.0M Max, 89.4M Last</tspan><tspan
           x="-114.00014 -99.999863 -92.999725 -85.999588 -78.999451 -71.999313 -64.999184 -58.010155 -51.010017 -44.00988"
           y="13.999995"
           id="tspan1680"> buffered </tspan></text><path
         d="m 16,60.762 h 8.398 V 52.36 H 16 Z"
         style="fill:#ffb000;fill-opacity:1;fill-rule:nonzero;stroke:none"
         id="path1684" /><path
         d="m 16,60.762 h 8.398 V 52.36 H 16 Z"
         style="fill:none;stroke:#000000;stroke-width:1;stroke-linecap:butt;stroke-linejoin:miter;stroke-miterlimit:10;stroke-dasharray:none;stroke-opacity:1"
         id="path1686" /><text
         transform="matrix(1,0,0,-1,130.00014,52)"
         style="font-variant:normal;font-weight:normal;font-size:11.1113px;font-family:'DejaVu Sans Mono';-inkscape-font-specification:DejaVuSansMono;writing-mode:lr-tb;fill:#000000;fill-opacity:1;fill-rule:nonzero;stroke:none"
         id="text1692"><tspan
           x="0 7.0001369 14.000274 21.00041 28.000547 35.000683 42.00082 48.989845 55.989983 62.99012 85.99057 92.990707 99.990837 106.99097 113.99111 120.99125 127.99139 134.99153 141.99165 148.99179 155.99193 178.99239 185.98141 192.98155 199.98167 206.98181 213.98195 220.98209 227.98222 234.98236 241.9825 248.98264 271.98309 278.98322 285.98337 292.98349 299.98364 306.98376 313.97281 320.97293 327.97308 334.97321 341.97333"
           y="0"
           id="tspan1688">27.0M Min, 37.7M Avg, 58.1M Max, 43.3M Last</tspan><tspan
           x="-114.00014 -99.999863 -92.999725 -85.999588 -78.999451 -71.999313"
           y="13.999995"
           id="tspan1690"> used </tspan></text><path
         d="m 16,46.762 h 8.398 V 38.36 H 16 Z"
         style="fill:#ff0000;fill-opacity:1;fill-rule:nonzero;stroke:none"
         id="path1694" /><path
         d="m 16,46.762 h 8.398 V 38.36 H 16 Z"
         style="fill:none;stroke:#000000;stroke-width:1;stroke-linecap:butt;stroke-linejoin:miter;stroke-miterlimit:10;stroke-dasharray:none;stroke-opacity:1"
         id="path1696" /><text
         transform="matrix(1,0,0,-1,123,38)"
         style="font-variant:normal;font-weight:normal;font-size:11.1113px;font-family:'DejaVu Sans Mono';-inkscape-font-specification:DejaVuSansMono;writing-mode:lr-tb;fill:#000000;fill-opacity:1;fill-rule:nonzero;stroke:none"
         id="text1702"><tspan
           x="0 7.0001369 14.000274 21.00041 28.000547 35.000683 42.00082 49.000957 55.989983 62.99012 69.990257 92.990707 99.990837 106.99097 113.99111 120.99125 127.99139 134.99153 141.99165 148.99179 155.99193 162.99207 185.99252 192.98155 199.98167 206.98181 213.98195 220.98209 227.98222 234.98236 241.9825 248.98264 255.98277 278.98322 285.98337 292.98349 299.98364 306.98376 313.98392 320.97293 327.97308 334.97321 341.97333 348.97348"
           y="0"
           id="tspan1698">125.0M Min,221.3M Avg,264.1M Max,263.2M Last</tspan><tspan
           x="-107 -92.999725 -85.999588 -78.999451 -71.999313 -64.999184 -57.999043 -51.010017 -44.00988 -37.009743 -30.009607"
           y="13.999995"
           id="tspan1700"> slab_recl </tspan></text><path
         d="m 16,32.762 h 8.398 V 24.36 H 16 Z"
         style="fill:#6ecd14;fill-opacity:1;fill-rule:nonzero;stroke:none"
         id="path1704" /><path
         d="m 16,32.762 h 8.398 V 24.36 H 16 Z"
         style="fill:none;stroke:#000000;stroke-width:1;stroke-linecap:butt;stroke-linejoin:miter;stroke-miterlimit:10;stroke-dasharray:none;stroke-opacity:1"
         id="path1706" /><text
         transform="matrix(1,0,0,-1,130.00014,24)"
         style="font-variant:normal;font-weight:normal;font-size:11.1113px;font-family:'DejaVu Sans Mono';-inkscape-font-specification:DejaVuSansMono;writing-mode:lr-tb;fill:#000000;fill-opacity:1;fill-rule:nonzero;stroke:none"
         id="text1712"><tspan
           x="0 7.0001369 14.000274 21.00041 28.000547 35.000683 42.00082 48.989845 55.989983 62.99012 85.99057 92.990707 99.990837 106.99097 113.99111 120.99125 127.99139 134.99153 141.99165 148.99179 155.99193 178.99239 185.98141 192.98155 199.98167 206.98181 213.98195 220.98209 227.98222 234.98236 241.9825 248.98264 271.98309 278.98322 285.98337 292.98349 299.98364 306.98376 313.97281 320.97293 327.97308 334.97321 341.97333"
           y="0"
           id="tspan1708">10.9M Min, 23.9M Avg, 27.4M Max, 22.8M Last</tspan><tspan
           x="-114.00014 -99.999863 -92.999725 -85.999588 -78.999451 -71.999313 -64.999184 -58.010155 -51.010017 -44.00988 -37.009743 -30.009607"
           y="13.999995"
           id="tspan1710"> slab_unrecl</tspan></text><path
         d="m 16,18.762 h 8.398 V 10.36 H 16 Z"
         style="fill:#595a8a;fill-opacity:1;fill-rule:nonzero;stroke:none"
         id="path1714" /><path
         d="m 16,18.762 h 8.398 V 10.36 H 16 Z"
         style="fill:none;stroke:#000000;stroke-width:1;stroke-linecap:butt;stroke-linejoin:miter;stroke-miterlimit:10;stroke-dasharray:none;stroke-opacity:1"
         id="path1716" /><text
         transform="matrix(1,0,0,-1,137.00027,10)"
         style="font-variant:normal;font-weight:normal;font-size:11.1113px;font-family:'DejaVu Sans Mono';-inkscape-font-specification:DejaVuSansMono;writing-mode:lr-tb;fill:#000000;fill-opacity:1;fill-rule:nonzero;stroke:none"
         id="text1720"><tspan
           x="0 7.0001369 14.000274 21.00041 28.000547 35.000683 41.989708 48.989845 55.989983 78.990433 92.990707 99.990837 106.99097 113.99111 120.99125 127.99139 134.99153 141.99165 148.99179 171.99225 185.98141 192.98155 199.98167 206.98181 213.98195 220.98209 227.98222 234.98236 241.9825 264.98294 278.98322 285.98337 292.98349 299.98364 306.97266 313.97281 320.97293 327.97308 334.97321"
           y="0"
           id="tspan1718">7.0M Min, 7.4M Avg, 8.0M Max, 7.6M Last</tspan></text><path
         d="M 69,113 H 577"
         style="fill:none;stroke:#1f1f1f;stroke-width:0.6;stroke-linecap:butt;stroke-linejoin:miter;stroke-miterlimit:10;stroke-dasharray:none;stroke-opacity:1"
         id="path1722" /><path
         d="M 73,109 V 277"
         style="fill:none;stroke:#1f1f1f;stroke-width:0.6;stroke-linecap:butt;stroke-linejoin:miter;stroke-miterlimit:10;stroke-dasharray:none;stroke-opacity:1"
         id="path1724" /><path
         d="m 575,116 v -6 l 5,3 z"
         style="fill:#801f1f;fill-opacity:1;fill-rule:nonzero;stroke:none"
         id="path1726" /><path
         d="m 70,275 h 6 l -3,5 z"
         style="fill:#801f1f;fill-opacity:1;fill-rule:nonzero;stroke:none"
         id="path1728" /></g></g></svg>
